G04 #@! TF.GenerationSoftware,KiCad,Pcbnew,(5.1.2-1)-1*
G04 #@! TF.CreationDate,2020-03-25T22:25:30-05:00*
G04 #@! TF.ProjectId,Knave+Death,4b6e6176-652b-4446-9561-74682e6b6963,rev?*
G04 #@! TF.SameCoordinates,Original*
G04 #@! TF.FileFunction,Soldermask,Bot*
G04 #@! TF.FilePolarity,Negative*
%FSLAX46Y46*%
G04 Gerber Fmt 4.6, Leading zero omitted, Abs format (unit mm)*
G04 Created by KiCad (PCBNEW (5.1.2-1)-1) date 2020-03-25 22:25:30*
%MOMM*%
%LPD*%
G04 APERTURE LIST*
%ADD10C,0.100000*%
G04 APERTURE END LIST*
D10*
G36*
X145996424Y-189912760D02*
G01*
X145996427Y-189912761D01*
X145996428Y-189912761D01*
X146175692Y-189967140D01*
X146175695Y-189967142D01*
X146175696Y-189967142D01*
X146340903Y-190055446D01*
X146485712Y-190174288D01*
X146604554Y-190319097D01*
X146655523Y-190414454D01*
X146692860Y-190484307D01*
X146747239Y-190663571D01*
X146747240Y-190663575D01*
X146761000Y-190803282D01*
X146761000Y-192696718D01*
X146747240Y-192836425D01*
X146747239Y-192836428D01*
X146747239Y-192836429D01*
X146692860Y-193015693D01*
X146692858Y-193015696D01*
X146692858Y-193015697D01*
X146604554Y-193180903D01*
X146485712Y-193325712D01*
X146340903Y-193444554D01*
X146193425Y-193523382D01*
X146175693Y-193532860D01*
X145996429Y-193587239D01*
X145996428Y-193587239D01*
X145996425Y-193587240D01*
X145810000Y-193605601D01*
X145623576Y-193587240D01*
X145623573Y-193587239D01*
X145623572Y-193587239D01*
X145444308Y-193532860D01*
X145426576Y-193523382D01*
X145279098Y-193444554D01*
X145134289Y-193325712D01*
X145015447Y-193180903D01*
X144927143Y-193015697D01*
X144927143Y-193015696D01*
X144927141Y-193015693D01*
X144872762Y-192836429D01*
X144872762Y-192836428D01*
X144872761Y-192836425D01*
X144859000Y-192696717D01*
X144859000Y-190803283D01*
X144872760Y-190663576D01*
X144872761Y-190663572D01*
X144927140Y-190484308D01*
X144944943Y-190451000D01*
X145015446Y-190319097D01*
X145134288Y-190174288D01*
X145279097Y-190055446D01*
X145444303Y-189967142D01*
X145444304Y-189967142D01*
X145444307Y-189967140D01*
X145623571Y-189912761D01*
X145623572Y-189912761D01*
X145623575Y-189912760D01*
X145810000Y-189894399D01*
X145996424Y-189912760D01*
X145996424Y-189912760D01*
G37*
G36*
X142810915Y-189902934D02*
G01*
X142843424Y-189912795D01*
X142873382Y-189928809D01*
X142899641Y-189950359D01*
X142921191Y-189976618D01*
X142937205Y-190006576D01*
X142947066Y-190039085D01*
X142951000Y-190079029D01*
X142951000Y-193420971D01*
X142947066Y-193460915D01*
X142937205Y-193493424D01*
X142921191Y-193523382D01*
X142899641Y-193549641D01*
X142873382Y-193571191D01*
X142843424Y-193587205D01*
X142810915Y-193597066D01*
X142770971Y-193601000D01*
X141229029Y-193601000D01*
X141189085Y-193597066D01*
X141156576Y-193587205D01*
X141126618Y-193571191D01*
X141100359Y-193549641D01*
X141078809Y-193523382D01*
X141062795Y-193493424D01*
X141052934Y-193460915D01*
X141049000Y-193420971D01*
X141049000Y-190079029D01*
X141052934Y-190039085D01*
X141062795Y-190006576D01*
X141078809Y-189976618D01*
X141100359Y-189950359D01*
X141126618Y-189928809D01*
X141156576Y-189912795D01*
X141189085Y-189902934D01*
X141229029Y-189899000D01*
X142770971Y-189899000D01*
X142810915Y-189902934D01*
X142810915Y-189902934D01*
G37*
G36*
X9328571Y-191552863D02*
G01*
X9407023Y-191560590D01*
X9507682Y-191591125D01*
X9558013Y-191606392D01*
X9697165Y-191680771D01*
X9819133Y-191780867D01*
X9919229Y-191902835D01*
X9993608Y-192041987D01*
X9993608Y-192041988D01*
X10039410Y-192192977D01*
X10054875Y-192350000D01*
X10039410Y-192507023D01*
X10033653Y-192526001D01*
X9993608Y-192658013D01*
X9919229Y-192797165D01*
X9819133Y-192919133D01*
X9697165Y-193019229D01*
X9558013Y-193093608D01*
X9507682Y-193108875D01*
X9407023Y-193139410D01*
X9328571Y-193147137D01*
X9289346Y-193151000D01*
X7710654Y-193151000D01*
X7671429Y-193147137D01*
X7592977Y-193139410D01*
X7492318Y-193108875D01*
X7441987Y-193093608D01*
X7302835Y-193019229D01*
X7180867Y-192919133D01*
X7080771Y-192797165D01*
X7006392Y-192658013D01*
X6966347Y-192526001D01*
X6960590Y-192507023D01*
X6945125Y-192350000D01*
X6960590Y-192192977D01*
X7006392Y-192041988D01*
X7006392Y-192041987D01*
X7080771Y-191902835D01*
X7180867Y-191780867D01*
X7302835Y-191680771D01*
X7441987Y-191606392D01*
X7492318Y-191591125D01*
X7592977Y-191560590D01*
X7671429Y-191552863D01*
X7710654Y-191549000D01*
X9289346Y-191549000D01*
X9328571Y-191552863D01*
X9328571Y-191552863D01*
G37*
G36*
X83224549Y-190791116D02*
G01*
X83335734Y-190813232D01*
X83545203Y-190899997D01*
X83733720Y-191025960D01*
X83894040Y-191186280D01*
X84020003Y-191374797D01*
X84020004Y-191374799D01*
X84045416Y-191436150D01*
X84106768Y-191584266D01*
X84151000Y-191806636D01*
X84151000Y-192033364D01*
X84106768Y-192255734D01*
X84020003Y-192465203D01*
X83894040Y-192653720D01*
X83733720Y-192814040D01*
X83545203Y-192940003D01*
X83335734Y-193026768D01*
X83224549Y-193048884D01*
X83113365Y-193071000D01*
X82886635Y-193071000D01*
X82775451Y-193048884D01*
X82664266Y-193026768D01*
X82454797Y-192940003D01*
X82266280Y-192814040D01*
X82105960Y-192653720D01*
X81979997Y-192465203D01*
X81893232Y-192255734D01*
X81849000Y-192033364D01*
X81849000Y-191806636D01*
X81893232Y-191584266D01*
X81954584Y-191436150D01*
X81979996Y-191374799D01*
X81979997Y-191374797D01*
X82105960Y-191186280D01*
X82266280Y-191025960D01*
X82454797Y-190899997D01*
X82664266Y-190813232D01*
X82775451Y-190791116D01*
X82886635Y-190769000D01*
X83113365Y-190769000D01*
X83224549Y-190791116D01*
X83224549Y-190791116D01*
G37*
G36*
X70224549Y-190791116D02*
G01*
X70335734Y-190813232D01*
X70545203Y-190899997D01*
X70733720Y-191025960D01*
X70894040Y-191186280D01*
X71020003Y-191374797D01*
X71020004Y-191374799D01*
X71045416Y-191436150D01*
X71106768Y-191584266D01*
X71151000Y-191806636D01*
X71151000Y-192033364D01*
X71106768Y-192255734D01*
X71020003Y-192465203D01*
X70894040Y-192653720D01*
X70733720Y-192814040D01*
X70545203Y-192940003D01*
X70335734Y-193026768D01*
X70224549Y-193048884D01*
X70113365Y-193071000D01*
X69886635Y-193071000D01*
X69775451Y-193048884D01*
X69664266Y-193026768D01*
X69454797Y-192940003D01*
X69266280Y-192814040D01*
X69105960Y-192653720D01*
X68979997Y-192465203D01*
X68893232Y-192255734D01*
X68849000Y-192033364D01*
X68849000Y-191806636D01*
X68893232Y-191584266D01*
X68954584Y-191436150D01*
X68979996Y-191374799D01*
X68979997Y-191374797D01*
X69105960Y-191186280D01*
X69266280Y-191025960D01*
X69454797Y-190899997D01*
X69664266Y-190813232D01*
X69775451Y-190791116D01*
X69886635Y-190769000D01*
X70113365Y-190769000D01*
X70224549Y-190791116D01*
X70224549Y-190791116D01*
G37*
G36*
X57224549Y-190791116D02*
G01*
X57335734Y-190813232D01*
X57545203Y-190899997D01*
X57733720Y-191025960D01*
X57894040Y-191186280D01*
X58020003Y-191374797D01*
X58020004Y-191374799D01*
X58045416Y-191436150D01*
X58106768Y-191584266D01*
X58151000Y-191806636D01*
X58151000Y-192033364D01*
X58106768Y-192255734D01*
X58020003Y-192465203D01*
X57894040Y-192653720D01*
X57733720Y-192814040D01*
X57545203Y-192940003D01*
X57335734Y-193026768D01*
X57224549Y-193048884D01*
X57113365Y-193071000D01*
X56886635Y-193071000D01*
X56775451Y-193048884D01*
X56664266Y-193026768D01*
X56454797Y-192940003D01*
X56266280Y-192814040D01*
X56105960Y-192653720D01*
X55979997Y-192465203D01*
X55893232Y-192255734D01*
X55849000Y-192033364D01*
X55849000Y-191806636D01*
X55893232Y-191584266D01*
X55954584Y-191436150D01*
X55979996Y-191374799D01*
X55979997Y-191374797D01*
X56105960Y-191186280D01*
X56266280Y-191025960D01*
X56454797Y-190899997D01*
X56664266Y-190813232D01*
X56775451Y-190791116D01*
X56886635Y-190769000D01*
X57113365Y-190769000D01*
X57224549Y-190791116D01*
X57224549Y-190791116D01*
G37*
G36*
X44224549Y-190791116D02*
G01*
X44335734Y-190813232D01*
X44545203Y-190899997D01*
X44733720Y-191025960D01*
X44894040Y-191186280D01*
X45020003Y-191374797D01*
X45020004Y-191374799D01*
X45045416Y-191436150D01*
X45106768Y-191584266D01*
X45151000Y-191806636D01*
X45151000Y-192033364D01*
X45106768Y-192255734D01*
X45020003Y-192465203D01*
X44894040Y-192653720D01*
X44733720Y-192814040D01*
X44545203Y-192940003D01*
X44335734Y-193026768D01*
X44224549Y-193048884D01*
X44113365Y-193071000D01*
X43886635Y-193071000D01*
X43775451Y-193048884D01*
X43664266Y-193026768D01*
X43454797Y-192940003D01*
X43266280Y-192814040D01*
X43105960Y-192653720D01*
X42979997Y-192465203D01*
X42893232Y-192255734D01*
X42849000Y-192033364D01*
X42849000Y-191806636D01*
X42893232Y-191584266D01*
X42954584Y-191436150D01*
X42979996Y-191374799D01*
X42979997Y-191374797D01*
X43105960Y-191186280D01*
X43266280Y-191025960D01*
X43454797Y-190899997D01*
X43664266Y-190813232D01*
X43775451Y-190791116D01*
X43886635Y-190769000D01*
X44113365Y-190769000D01*
X44224549Y-190791116D01*
X44224549Y-190791116D01*
G37*
G36*
X31224549Y-190791116D02*
G01*
X31335734Y-190813232D01*
X31545203Y-190899997D01*
X31733720Y-191025960D01*
X31894040Y-191186280D01*
X32020003Y-191374797D01*
X32020004Y-191374799D01*
X32045416Y-191436150D01*
X32106768Y-191584266D01*
X32151000Y-191806636D01*
X32151000Y-192033364D01*
X32106768Y-192255734D01*
X32020003Y-192465203D01*
X31894040Y-192653720D01*
X31733720Y-192814040D01*
X31545203Y-192940003D01*
X31335734Y-193026768D01*
X31224549Y-193048884D01*
X31113365Y-193071000D01*
X30886635Y-193071000D01*
X30775451Y-193048884D01*
X30664266Y-193026768D01*
X30454797Y-192940003D01*
X30266280Y-192814040D01*
X30105960Y-192653720D01*
X29979997Y-192465203D01*
X29893232Y-192255734D01*
X29849000Y-192033364D01*
X29849000Y-191806636D01*
X29893232Y-191584266D01*
X29954584Y-191436150D01*
X29979996Y-191374799D01*
X29979997Y-191374797D01*
X30105960Y-191186280D01*
X30266280Y-191025960D01*
X30454797Y-190899997D01*
X30664266Y-190813232D01*
X30775451Y-190791116D01*
X30886635Y-190769000D01*
X31113365Y-190769000D01*
X31224549Y-190791116D01*
X31224549Y-190791116D01*
G37*
G36*
X96224549Y-190791116D02*
G01*
X96335734Y-190813232D01*
X96545203Y-190899997D01*
X96733720Y-191025960D01*
X96894040Y-191186280D01*
X97020003Y-191374797D01*
X97020004Y-191374799D01*
X97045416Y-191436150D01*
X97106768Y-191584266D01*
X97151000Y-191806636D01*
X97151000Y-192033364D01*
X97106768Y-192255734D01*
X97020003Y-192465203D01*
X96894040Y-192653720D01*
X96733720Y-192814040D01*
X96545203Y-192940003D01*
X96335734Y-193026768D01*
X96224549Y-193048884D01*
X96113365Y-193071000D01*
X95886635Y-193071000D01*
X95775451Y-193048884D01*
X95664266Y-193026768D01*
X95454797Y-192940003D01*
X95266280Y-192814040D01*
X95105960Y-192653720D01*
X94979997Y-192465203D01*
X94893232Y-192255734D01*
X94849000Y-192033364D01*
X94849000Y-191806636D01*
X94893232Y-191584266D01*
X94954584Y-191436150D01*
X94979996Y-191374799D01*
X94979997Y-191374797D01*
X95105960Y-191186280D01*
X95266280Y-191025960D01*
X95454797Y-190899997D01*
X95664266Y-190813232D01*
X95775451Y-190791116D01*
X95886635Y-190769000D01*
X96113365Y-190769000D01*
X96224549Y-190791116D01*
X96224549Y-190791116D01*
G37*
G36*
X23114272Y-190235104D02*
G01*
X23170636Y-190240655D01*
X23387601Y-190306471D01*
X23387603Y-190306472D01*
X23587556Y-190413348D01*
X23762819Y-190557183D01*
X23906654Y-190732446D01*
X23996210Y-190899996D01*
X24013531Y-190932401D01*
X24079347Y-191149366D01*
X24101570Y-191375001D01*
X24079347Y-191600636D01*
X24016858Y-191806635D01*
X24013530Y-191817603D01*
X23906654Y-192017556D01*
X23762819Y-192192819D01*
X23587556Y-192336654D01*
X23387603Y-192443530D01*
X23387601Y-192443531D01*
X23170636Y-192509347D01*
X23114272Y-192514898D01*
X23001546Y-192526001D01*
X22888456Y-192526001D01*
X22775730Y-192514898D01*
X22719366Y-192509347D01*
X22502401Y-192443531D01*
X22502399Y-192443530D01*
X22302446Y-192336654D01*
X22127183Y-192192819D01*
X21983348Y-192017556D01*
X21876472Y-191817603D01*
X21873145Y-191806635D01*
X21810655Y-191600636D01*
X21788432Y-191375001D01*
X21810655Y-191149366D01*
X21876471Y-190932401D01*
X21893792Y-190899996D01*
X21983348Y-190732446D01*
X22127183Y-190557183D01*
X22302446Y-190413348D01*
X22502399Y-190306472D01*
X22502401Y-190306471D01*
X22719366Y-190240655D01*
X22775730Y-190235104D01*
X22888456Y-190224001D01*
X23001546Y-190224001D01*
X23114272Y-190235104D01*
X23114272Y-190235104D01*
G37*
G36*
X16476001Y-192526001D02*
G01*
X14174001Y-192526001D01*
X14174001Y-190224001D01*
X16476001Y-190224001D01*
X16476001Y-192526001D01*
X16476001Y-192526001D01*
G37*
G36*
X8777395Y-188585546D02*
G01*
X8950466Y-188657234D01*
X8950467Y-188657235D01*
X9106227Y-188761310D01*
X9238690Y-188893773D01*
X9238691Y-188893775D01*
X9342766Y-189049534D01*
X9414454Y-189222605D01*
X9451000Y-189406333D01*
X9451000Y-189593667D01*
X9414454Y-189777395D01*
X9342766Y-189950466D01*
X9342765Y-189950467D01*
X9238690Y-190106227D01*
X9106227Y-190238690D01*
X9103286Y-190240655D01*
X8950466Y-190342766D01*
X8777395Y-190414454D01*
X8593667Y-190451000D01*
X8406333Y-190451000D01*
X8222605Y-190414454D01*
X8049534Y-190342766D01*
X7896714Y-190240655D01*
X7893773Y-190238690D01*
X7761310Y-190106227D01*
X7657235Y-189950467D01*
X7657234Y-189950466D01*
X7585546Y-189777395D01*
X7549000Y-189593667D01*
X7549000Y-189406333D01*
X7585546Y-189222605D01*
X7657234Y-189049534D01*
X7761309Y-188893775D01*
X7761310Y-188893773D01*
X7893773Y-188761310D01*
X8049533Y-188657235D01*
X8049534Y-188657234D01*
X8222605Y-188585546D01*
X8406333Y-188549000D01*
X8593667Y-188549000D01*
X8777395Y-188585546D01*
X8777395Y-188585546D01*
G37*
G36*
X23114272Y-186360103D02*
G01*
X23170636Y-186365654D01*
X23387601Y-186431470D01*
X23387603Y-186431471D01*
X23587556Y-186538347D01*
X23762819Y-186682182D01*
X23906654Y-186857445D01*
X24013530Y-187057398D01*
X24013531Y-187057400D01*
X24079347Y-187274365D01*
X24101570Y-187500000D01*
X24079347Y-187725635D01*
X24076606Y-187734672D01*
X24013530Y-187942602D01*
X23906654Y-188142555D01*
X23762819Y-188317818D01*
X23587556Y-188461653D01*
X23387603Y-188568529D01*
X23387601Y-188568530D01*
X23170636Y-188634346D01*
X23114272Y-188639897D01*
X23001546Y-188651000D01*
X22888456Y-188651000D01*
X22775730Y-188639897D01*
X22719366Y-188634346D01*
X22502401Y-188568530D01*
X22502399Y-188568529D01*
X22302446Y-188461653D01*
X22127183Y-188317818D01*
X21983348Y-188142555D01*
X21876472Y-187942602D01*
X21813397Y-187734672D01*
X21810655Y-187725635D01*
X21788432Y-187500000D01*
X21810655Y-187274365D01*
X21876471Y-187057400D01*
X21876472Y-187057398D01*
X21983348Y-186857445D01*
X22127183Y-186682182D01*
X22302446Y-186538347D01*
X22502399Y-186431471D01*
X22502401Y-186431470D01*
X22719366Y-186365654D01*
X22775730Y-186360103D01*
X22888456Y-186349000D01*
X23001546Y-186349000D01*
X23114272Y-186360103D01*
X23114272Y-186360103D01*
G37*
G36*
X16476001Y-188651000D02*
G01*
X14174001Y-188651000D01*
X14174001Y-186349000D01*
X16476001Y-186349000D01*
X16476001Y-188651000D01*
X16476001Y-188651000D01*
G37*
G36*
X136812661Y-185460915D02*
G01*
X137052410Y-185508604D01*
X137334674Y-185625521D01*
X137588705Y-185795259D01*
X137804741Y-186011295D01*
X137974479Y-186265326D01*
X138091396Y-186547590D01*
X138091396Y-186547591D01*
X138151000Y-186847239D01*
X138151000Y-187152761D01*
X138133907Y-187238691D01*
X138091396Y-187452410D01*
X137974479Y-187734674D01*
X137804741Y-187988705D01*
X137588705Y-188204741D01*
X137334674Y-188374479D01*
X137052410Y-188491396D01*
X136902585Y-188521198D01*
X136752761Y-188551000D01*
X136447239Y-188551000D01*
X136297415Y-188521198D01*
X136147590Y-188491396D01*
X135865326Y-188374479D01*
X135611295Y-188204741D01*
X135395259Y-187988705D01*
X135225521Y-187734674D01*
X135108604Y-187452410D01*
X135066093Y-187238691D01*
X135049000Y-187152761D01*
X135049000Y-186847239D01*
X135108604Y-186547591D01*
X135108604Y-186547590D01*
X135225521Y-186265326D01*
X135395259Y-186011295D01*
X135611295Y-185795259D01*
X135865326Y-185625521D01*
X136147590Y-185508604D01*
X136387339Y-185460915D01*
X136447239Y-185449000D01*
X136752761Y-185449000D01*
X136812661Y-185460915D01*
X136812661Y-185460915D01*
G37*
G36*
X123612661Y-185460915D02*
G01*
X123852410Y-185508604D01*
X124134674Y-185625521D01*
X124388705Y-185795259D01*
X124604741Y-186011295D01*
X124774479Y-186265326D01*
X124891396Y-186547590D01*
X124891396Y-186547591D01*
X124951000Y-186847239D01*
X124951000Y-187152761D01*
X124933907Y-187238691D01*
X124891396Y-187452410D01*
X124774479Y-187734674D01*
X124604741Y-187988705D01*
X124388705Y-188204741D01*
X124134674Y-188374479D01*
X123852410Y-188491396D01*
X123702585Y-188521198D01*
X123552761Y-188551000D01*
X123247239Y-188551000D01*
X123097415Y-188521198D01*
X122947590Y-188491396D01*
X122665326Y-188374479D01*
X122411295Y-188204741D01*
X122195259Y-187988705D01*
X122025521Y-187734674D01*
X121908604Y-187452410D01*
X121866093Y-187238691D01*
X121849000Y-187152761D01*
X121849000Y-186847239D01*
X121908604Y-186547591D01*
X121908604Y-186547590D01*
X122025521Y-186265326D01*
X122195259Y-186011295D01*
X122411295Y-185795259D01*
X122665326Y-185625521D01*
X122947590Y-185508604D01*
X123187339Y-185460915D01*
X123247239Y-185449000D01*
X123552761Y-185449000D01*
X123612661Y-185460915D01*
X123612661Y-185460915D01*
G37*
G36*
X118812661Y-185460915D02*
G01*
X119052410Y-185508604D01*
X119334674Y-185625521D01*
X119588705Y-185795259D01*
X119804741Y-186011295D01*
X119974479Y-186265326D01*
X120091396Y-186547590D01*
X120091396Y-186547591D01*
X120151000Y-186847239D01*
X120151000Y-187152761D01*
X120133907Y-187238691D01*
X120091396Y-187452410D01*
X119974479Y-187734674D01*
X119804741Y-187988705D01*
X119588705Y-188204741D01*
X119334674Y-188374479D01*
X119052410Y-188491396D01*
X118902585Y-188521198D01*
X118752761Y-188551000D01*
X118447239Y-188551000D01*
X118297415Y-188521198D01*
X118147590Y-188491396D01*
X117865326Y-188374479D01*
X117611295Y-188204741D01*
X117395259Y-187988705D01*
X117225521Y-187734674D01*
X117108604Y-187452410D01*
X117066093Y-187238691D01*
X117049000Y-187152761D01*
X117049000Y-186847239D01*
X117108604Y-186547591D01*
X117108604Y-186547590D01*
X117225521Y-186265326D01*
X117395259Y-186011295D01*
X117611295Y-185795259D01*
X117865326Y-185625521D01*
X118147590Y-185508604D01*
X118387339Y-185460915D01*
X118447239Y-185449000D01*
X118752761Y-185449000D01*
X118812661Y-185460915D01*
X118812661Y-185460915D01*
G37*
G36*
X31212661Y-185460915D02*
G01*
X31452410Y-185508604D01*
X31734674Y-185625521D01*
X31988705Y-185795259D01*
X32204741Y-186011295D01*
X32374479Y-186265326D01*
X32491396Y-186547590D01*
X32491396Y-186547591D01*
X32551000Y-186847239D01*
X32551000Y-187152761D01*
X32533907Y-187238691D01*
X32491396Y-187452410D01*
X32374479Y-187734674D01*
X32204741Y-187988705D01*
X31988705Y-188204741D01*
X31734674Y-188374479D01*
X31452410Y-188491396D01*
X31302585Y-188521198D01*
X31152761Y-188551000D01*
X30847239Y-188551000D01*
X30697415Y-188521198D01*
X30547590Y-188491396D01*
X30265326Y-188374479D01*
X30011295Y-188204741D01*
X29795259Y-187988705D01*
X29625521Y-187734674D01*
X29508604Y-187452410D01*
X29466093Y-187238691D01*
X29449000Y-187152761D01*
X29449000Y-186847239D01*
X29508604Y-186547591D01*
X29508604Y-186547590D01*
X29625521Y-186265326D01*
X29795259Y-186011295D01*
X30011295Y-185795259D01*
X30265326Y-185625521D01*
X30547590Y-185508604D01*
X30787339Y-185460915D01*
X30847239Y-185449000D01*
X31152761Y-185449000D01*
X31212661Y-185460915D01*
X31212661Y-185460915D01*
G37*
G36*
X44212661Y-185460915D02*
G01*
X44452410Y-185508604D01*
X44734674Y-185625521D01*
X44988705Y-185795259D01*
X45204741Y-186011295D01*
X45374479Y-186265326D01*
X45491396Y-186547590D01*
X45491396Y-186547591D01*
X45551000Y-186847239D01*
X45551000Y-187152761D01*
X45533907Y-187238691D01*
X45491396Y-187452410D01*
X45374479Y-187734674D01*
X45204741Y-187988705D01*
X44988705Y-188204741D01*
X44734674Y-188374479D01*
X44452410Y-188491396D01*
X44302585Y-188521198D01*
X44152761Y-188551000D01*
X43847239Y-188551000D01*
X43697415Y-188521198D01*
X43547590Y-188491396D01*
X43265326Y-188374479D01*
X43011295Y-188204741D01*
X42795259Y-187988705D01*
X42625521Y-187734674D01*
X42508604Y-187452410D01*
X42466093Y-187238691D01*
X42449000Y-187152761D01*
X42449000Y-186847239D01*
X42508604Y-186547591D01*
X42508604Y-186547590D01*
X42625521Y-186265326D01*
X42795259Y-186011295D01*
X43011295Y-185795259D01*
X43265326Y-185625521D01*
X43547590Y-185508604D01*
X43787339Y-185460915D01*
X43847239Y-185449000D01*
X44152761Y-185449000D01*
X44212661Y-185460915D01*
X44212661Y-185460915D01*
G37*
G36*
X57212661Y-185460915D02*
G01*
X57452410Y-185508604D01*
X57734674Y-185625521D01*
X57988705Y-185795259D01*
X58204741Y-186011295D01*
X58374479Y-186265326D01*
X58491396Y-186547590D01*
X58491396Y-186547591D01*
X58551000Y-186847239D01*
X58551000Y-187152761D01*
X58533907Y-187238691D01*
X58491396Y-187452410D01*
X58374479Y-187734674D01*
X58204741Y-187988705D01*
X57988705Y-188204741D01*
X57734674Y-188374479D01*
X57452410Y-188491396D01*
X57302585Y-188521198D01*
X57152761Y-188551000D01*
X56847239Y-188551000D01*
X56697415Y-188521198D01*
X56547590Y-188491396D01*
X56265326Y-188374479D01*
X56011295Y-188204741D01*
X55795259Y-187988705D01*
X55625521Y-187734674D01*
X55508604Y-187452410D01*
X55466093Y-187238691D01*
X55449000Y-187152761D01*
X55449000Y-186847239D01*
X55508604Y-186547591D01*
X55508604Y-186547590D01*
X55625521Y-186265326D01*
X55795259Y-186011295D01*
X56011295Y-185795259D01*
X56265326Y-185625521D01*
X56547590Y-185508604D01*
X56787339Y-185460915D01*
X56847239Y-185449000D01*
X57152761Y-185449000D01*
X57212661Y-185460915D01*
X57212661Y-185460915D01*
G37*
G36*
X70212661Y-185460915D02*
G01*
X70452410Y-185508604D01*
X70734674Y-185625521D01*
X70988705Y-185795259D01*
X71204741Y-186011295D01*
X71374479Y-186265326D01*
X71491396Y-186547590D01*
X71491396Y-186547591D01*
X71551000Y-186847239D01*
X71551000Y-187152761D01*
X71533907Y-187238691D01*
X71491396Y-187452410D01*
X71374479Y-187734674D01*
X71204741Y-187988705D01*
X70988705Y-188204741D01*
X70734674Y-188374479D01*
X70452410Y-188491396D01*
X70302585Y-188521198D01*
X70152761Y-188551000D01*
X69847239Y-188551000D01*
X69697415Y-188521198D01*
X69547590Y-188491396D01*
X69265326Y-188374479D01*
X69011295Y-188204741D01*
X68795259Y-187988705D01*
X68625521Y-187734674D01*
X68508604Y-187452410D01*
X68466093Y-187238691D01*
X68449000Y-187152761D01*
X68449000Y-186847239D01*
X68508604Y-186547591D01*
X68508604Y-186547590D01*
X68625521Y-186265326D01*
X68795259Y-186011295D01*
X69011295Y-185795259D01*
X69265326Y-185625521D01*
X69547590Y-185508604D01*
X69787339Y-185460915D01*
X69847239Y-185449000D01*
X70152761Y-185449000D01*
X70212661Y-185460915D01*
X70212661Y-185460915D01*
G37*
G36*
X83212661Y-185460915D02*
G01*
X83452410Y-185508604D01*
X83734674Y-185625521D01*
X83988705Y-185795259D01*
X84204741Y-186011295D01*
X84374479Y-186265326D01*
X84491396Y-186547590D01*
X84491396Y-186547591D01*
X84551000Y-186847239D01*
X84551000Y-187152761D01*
X84533907Y-187238691D01*
X84491396Y-187452410D01*
X84374479Y-187734674D01*
X84204741Y-187988705D01*
X83988705Y-188204741D01*
X83734674Y-188374479D01*
X83452410Y-188491396D01*
X83302585Y-188521198D01*
X83152761Y-188551000D01*
X82847239Y-188551000D01*
X82697415Y-188521198D01*
X82547590Y-188491396D01*
X82265326Y-188374479D01*
X82011295Y-188204741D01*
X81795259Y-187988705D01*
X81625521Y-187734674D01*
X81508604Y-187452410D01*
X81466093Y-187238691D01*
X81449000Y-187152761D01*
X81449000Y-186847239D01*
X81508604Y-186547591D01*
X81508604Y-186547590D01*
X81625521Y-186265326D01*
X81795259Y-186011295D01*
X82011295Y-185795259D01*
X82265326Y-185625521D01*
X82547590Y-185508604D01*
X82787339Y-185460915D01*
X82847239Y-185449000D01*
X83152761Y-185449000D01*
X83212661Y-185460915D01*
X83212661Y-185460915D01*
G37*
G36*
X96212661Y-185460915D02*
G01*
X96452410Y-185508604D01*
X96734674Y-185625521D01*
X96988705Y-185795259D01*
X97204741Y-186011295D01*
X97374479Y-186265326D01*
X97491396Y-186547590D01*
X97491396Y-186547591D01*
X97551000Y-186847239D01*
X97551000Y-187152761D01*
X97533907Y-187238691D01*
X97491396Y-187452410D01*
X97374479Y-187734674D01*
X97204741Y-187988705D01*
X96988705Y-188204741D01*
X96734674Y-188374479D01*
X96452410Y-188491396D01*
X96302585Y-188521198D01*
X96152761Y-188551000D01*
X95847239Y-188551000D01*
X95697415Y-188521198D01*
X95547590Y-188491396D01*
X95265326Y-188374479D01*
X95011295Y-188204741D01*
X94795259Y-187988705D01*
X94625521Y-187734674D01*
X94508604Y-187452410D01*
X94466093Y-187238691D01*
X94449000Y-187152761D01*
X94449000Y-186847239D01*
X94508604Y-186547591D01*
X94508604Y-186547590D01*
X94625521Y-186265326D01*
X94795259Y-186011295D01*
X95011295Y-185795259D01*
X95265326Y-185625521D01*
X95547590Y-185508604D01*
X95787339Y-185460915D01*
X95847239Y-185449000D01*
X96152761Y-185449000D01*
X96212661Y-185460915D01*
X96212661Y-185460915D01*
G37*
G36*
X105612661Y-185460915D02*
G01*
X105852410Y-185508604D01*
X106134674Y-185625521D01*
X106388705Y-185795259D01*
X106604741Y-186011295D01*
X106774479Y-186265326D01*
X106891396Y-186547590D01*
X106891396Y-186547591D01*
X106951000Y-186847239D01*
X106951000Y-187152761D01*
X106933907Y-187238691D01*
X106891396Y-187452410D01*
X106774479Y-187734674D01*
X106604741Y-187988705D01*
X106388705Y-188204741D01*
X106134674Y-188374479D01*
X105852410Y-188491396D01*
X105702585Y-188521198D01*
X105552761Y-188551000D01*
X105247239Y-188551000D01*
X105097415Y-188521198D01*
X104947590Y-188491396D01*
X104665326Y-188374479D01*
X104411295Y-188204741D01*
X104195259Y-187988705D01*
X104025521Y-187734674D01*
X103908604Y-187452410D01*
X103866093Y-187238691D01*
X103849000Y-187152761D01*
X103849000Y-186847239D01*
X103908604Y-186547591D01*
X103908604Y-186547590D01*
X104025521Y-186265326D01*
X104195259Y-186011295D01*
X104411295Y-185795259D01*
X104665326Y-185625521D01*
X104947590Y-185508604D01*
X105187339Y-185460915D01*
X105247239Y-185449000D01*
X105552761Y-185449000D01*
X105612661Y-185460915D01*
X105612661Y-185460915D01*
G37*
G36*
X8777395Y-185585546D02*
G01*
X8950466Y-185657234D01*
X8950467Y-185657235D01*
X9106227Y-185761310D01*
X9238690Y-185893773D01*
X9238691Y-185893775D01*
X9342766Y-186049534D01*
X9414454Y-186222605D01*
X9451000Y-186406333D01*
X9451000Y-186593667D01*
X9414454Y-186777395D01*
X9342766Y-186950466D01*
X9342765Y-186950467D01*
X9238690Y-187106227D01*
X9106227Y-187238690D01*
X9052835Y-187274365D01*
X8950466Y-187342766D01*
X8777395Y-187414454D01*
X8593667Y-187451000D01*
X8406333Y-187451000D01*
X8222605Y-187414454D01*
X8049534Y-187342766D01*
X7947165Y-187274365D01*
X7893773Y-187238690D01*
X7761310Y-187106227D01*
X7657235Y-186950467D01*
X7657234Y-186950466D01*
X7585546Y-186777395D01*
X7549000Y-186593667D01*
X7549000Y-186406333D01*
X7585546Y-186222605D01*
X7657234Y-186049534D01*
X7761309Y-185893775D01*
X7761310Y-185893773D01*
X7893773Y-185761310D01*
X8049533Y-185657235D01*
X8049534Y-185657234D01*
X8222605Y-185585546D01*
X8406333Y-185549000D01*
X8593667Y-185549000D01*
X8777395Y-185585546D01*
X8777395Y-185585546D01*
G37*
G36*
X145996424Y-181912760D02*
G01*
X145996427Y-181912761D01*
X145996428Y-181912761D01*
X146175692Y-181967140D01*
X146175695Y-181967142D01*
X146175696Y-181967142D01*
X146340903Y-182055446D01*
X146485712Y-182174288D01*
X146604554Y-182319097D01*
X146684678Y-182469000D01*
X146692860Y-182484307D01*
X146745317Y-182657235D01*
X146747240Y-182663575D01*
X146761000Y-182803282D01*
X146761000Y-184696718D01*
X146747240Y-184836425D01*
X146747239Y-184836428D01*
X146747239Y-184836429D01*
X146692860Y-185015693D01*
X146692858Y-185015696D01*
X146692858Y-185015697D01*
X146604554Y-185180903D01*
X146485712Y-185325712D01*
X146340903Y-185444554D01*
X146221073Y-185508604D01*
X146175693Y-185532860D01*
X145996429Y-185587239D01*
X145996428Y-185587239D01*
X145996425Y-185587240D01*
X145810000Y-185605601D01*
X145623576Y-185587240D01*
X145623573Y-185587239D01*
X145623572Y-185587239D01*
X145444308Y-185532860D01*
X145398928Y-185508604D01*
X145279098Y-185444554D01*
X145134289Y-185325712D01*
X145015447Y-185180903D01*
X144927143Y-185015697D01*
X144927143Y-185015696D01*
X144927141Y-185015693D01*
X144872762Y-184836429D01*
X144872762Y-184836428D01*
X144872761Y-184836425D01*
X144859000Y-184696717D01*
X144859000Y-182803283D01*
X144872760Y-182663576D01*
X144872761Y-182663572D01*
X144927140Y-182484308D01*
X144935322Y-182469000D01*
X145015446Y-182319097D01*
X145134288Y-182174288D01*
X145279097Y-182055446D01*
X145444303Y-181967142D01*
X145444304Y-181967142D01*
X145444307Y-181967140D01*
X145623571Y-181912761D01*
X145623572Y-181912761D01*
X145623575Y-181912760D01*
X145810000Y-181894399D01*
X145996424Y-181912760D01*
X145996424Y-181912760D01*
G37*
G36*
X142810915Y-181902934D02*
G01*
X142843424Y-181912795D01*
X142873382Y-181928809D01*
X142899641Y-181950359D01*
X142921191Y-181976618D01*
X142937205Y-182006576D01*
X142947066Y-182039085D01*
X142951000Y-182079029D01*
X142951000Y-185420971D01*
X142947066Y-185460915D01*
X142937205Y-185493424D01*
X142921191Y-185523382D01*
X142899641Y-185549641D01*
X142873382Y-185571191D01*
X142843424Y-185587205D01*
X142810915Y-185597066D01*
X142770971Y-185601000D01*
X141229029Y-185601000D01*
X141189085Y-185597066D01*
X141156576Y-185587205D01*
X141126618Y-185571191D01*
X141100359Y-185549641D01*
X141078809Y-185523382D01*
X141062795Y-185493424D01*
X141052934Y-185460915D01*
X141049000Y-185420971D01*
X141049000Y-182079029D01*
X141052934Y-182039085D01*
X141062795Y-182006576D01*
X141078809Y-181976618D01*
X141100359Y-181950359D01*
X141126618Y-181928809D01*
X141156576Y-181912795D01*
X141189085Y-181902934D01*
X141229029Y-181899000D01*
X142770971Y-181899000D01*
X142810915Y-181902934D01*
X142810915Y-181902934D01*
G37*
G36*
X83190298Y-182484303D02*
G01*
X83335734Y-182513232D01*
X83545203Y-182599997D01*
X83733720Y-182725960D01*
X83894040Y-182886280D01*
X84020003Y-183074797D01*
X84106768Y-183284266D01*
X84151000Y-183506636D01*
X84151000Y-183733364D01*
X84106768Y-183955734D01*
X84045416Y-184103850D01*
X84025373Y-184152240D01*
X84020003Y-184165203D01*
X83894040Y-184353720D01*
X83733720Y-184514040D01*
X83545203Y-184640003D01*
X83545202Y-184640004D01*
X83545201Y-184640004D01*
X83488025Y-184663687D01*
X83335734Y-184726768D01*
X83224549Y-184748884D01*
X83113365Y-184771000D01*
X82886635Y-184771000D01*
X82775451Y-184748884D01*
X82664266Y-184726768D01*
X82511975Y-184663687D01*
X82454799Y-184640004D01*
X82454798Y-184640004D01*
X82454797Y-184640003D01*
X82266280Y-184514040D01*
X82105960Y-184353720D01*
X81979997Y-184165203D01*
X81974628Y-184152240D01*
X81954584Y-184103850D01*
X81893232Y-183955734D01*
X81849000Y-183733364D01*
X81849000Y-183506636D01*
X81893232Y-183284266D01*
X81979997Y-183074797D01*
X82105960Y-182886280D01*
X82266280Y-182725960D01*
X82454797Y-182599997D01*
X82664266Y-182513232D01*
X82809702Y-182484303D01*
X82886635Y-182469000D01*
X83113365Y-182469000D01*
X83190298Y-182484303D01*
X83190298Y-182484303D01*
G37*
G36*
X96190298Y-182484303D02*
G01*
X96335734Y-182513232D01*
X96545203Y-182599997D01*
X96733720Y-182725960D01*
X96894040Y-182886280D01*
X97020003Y-183074797D01*
X97106768Y-183284266D01*
X97151000Y-183506636D01*
X97151000Y-183733364D01*
X97106768Y-183955734D01*
X97045416Y-184103850D01*
X97025373Y-184152240D01*
X97020003Y-184165203D01*
X96894040Y-184353720D01*
X96733720Y-184514040D01*
X96545203Y-184640003D01*
X96545202Y-184640004D01*
X96545201Y-184640004D01*
X96488025Y-184663687D01*
X96335734Y-184726768D01*
X96224549Y-184748884D01*
X96113365Y-184771000D01*
X95886635Y-184771000D01*
X95775451Y-184748884D01*
X95664266Y-184726768D01*
X95511975Y-184663687D01*
X95454799Y-184640004D01*
X95454798Y-184640004D01*
X95454797Y-184640003D01*
X95266280Y-184514040D01*
X95105960Y-184353720D01*
X94979997Y-184165203D01*
X94974628Y-184152240D01*
X94954584Y-184103850D01*
X94893232Y-183955734D01*
X94849000Y-183733364D01*
X94849000Y-183506636D01*
X94893232Y-183284266D01*
X94979997Y-183074797D01*
X95105960Y-182886280D01*
X95266280Y-182725960D01*
X95454797Y-182599997D01*
X95664266Y-182513232D01*
X95809702Y-182484303D01*
X95886635Y-182469000D01*
X96113365Y-182469000D01*
X96190298Y-182484303D01*
X96190298Y-182484303D01*
G37*
G36*
X31190298Y-182484303D02*
G01*
X31335734Y-182513232D01*
X31545203Y-182599997D01*
X31733720Y-182725960D01*
X31894040Y-182886280D01*
X32020003Y-183074797D01*
X32106768Y-183284266D01*
X32151000Y-183506636D01*
X32151000Y-183733364D01*
X32106768Y-183955734D01*
X32045416Y-184103850D01*
X32025373Y-184152240D01*
X32020003Y-184165203D01*
X31894040Y-184353720D01*
X31733720Y-184514040D01*
X31545203Y-184640003D01*
X31545202Y-184640004D01*
X31545201Y-184640004D01*
X31488025Y-184663687D01*
X31335734Y-184726768D01*
X31224549Y-184748884D01*
X31113365Y-184771000D01*
X30886635Y-184771000D01*
X30775451Y-184748884D01*
X30664266Y-184726768D01*
X30511975Y-184663687D01*
X30454799Y-184640004D01*
X30454798Y-184640004D01*
X30454797Y-184640003D01*
X30266280Y-184514040D01*
X30105960Y-184353720D01*
X29979997Y-184165203D01*
X29974628Y-184152240D01*
X29954584Y-184103850D01*
X29893232Y-183955734D01*
X29849000Y-183733364D01*
X29849000Y-183506636D01*
X29893232Y-183284266D01*
X29979997Y-183074797D01*
X30105960Y-182886280D01*
X30266280Y-182725960D01*
X30454797Y-182599997D01*
X30664266Y-182513232D01*
X30809702Y-182484303D01*
X30886635Y-182469000D01*
X31113365Y-182469000D01*
X31190298Y-182484303D01*
X31190298Y-182484303D01*
G37*
G36*
X70190298Y-182484303D02*
G01*
X70335734Y-182513232D01*
X70545203Y-182599997D01*
X70733720Y-182725960D01*
X70894040Y-182886280D01*
X71020003Y-183074797D01*
X71106768Y-183284266D01*
X71151000Y-183506636D01*
X71151000Y-183733364D01*
X71106768Y-183955734D01*
X71045416Y-184103850D01*
X71025373Y-184152240D01*
X71020003Y-184165203D01*
X70894040Y-184353720D01*
X70733720Y-184514040D01*
X70545203Y-184640003D01*
X70545202Y-184640004D01*
X70545201Y-184640004D01*
X70488025Y-184663687D01*
X70335734Y-184726768D01*
X70224549Y-184748884D01*
X70113365Y-184771000D01*
X69886635Y-184771000D01*
X69775451Y-184748884D01*
X69664266Y-184726768D01*
X69511975Y-184663687D01*
X69454799Y-184640004D01*
X69454798Y-184640004D01*
X69454797Y-184640003D01*
X69266280Y-184514040D01*
X69105960Y-184353720D01*
X68979997Y-184165203D01*
X68974628Y-184152240D01*
X68954584Y-184103850D01*
X68893232Y-183955734D01*
X68849000Y-183733364D01*
X68849000Y-183506636D01*
X68893232Y-183284266D01*
X68979997Y-183074797D01*
X69105960Y-182886280D01*
X69266280Y-182725960D01*
X69454797Y-182599997D01*
X69664266Y-182513232D01*
X69809702Y-182484303D01*
X69886635Y-182469000D01*
X70113365Y-182469000D01*
X70190298Y-182484303D01*
X70190298Y-182484303D01*
G37*
G36*
X57190298Y-182484303D02*
G01*
X57335734Y-182513232D01*
X57545203Y-182599997D01*
X57733720Y-182725960D01*
X57894040Y-182886280D01*
X58020003Y-183074797D01*
X58106768Y-183284266D01*
X58151000Y-183506636D01*
X58151000Y-183733364D01*
X58106768Y-183955734D01*
X58045416Y-184103850D01*
X58025373Y-184152240D01*
X58020003Y-184165203D01*
X57894040Y-184353720D01*
X57733720Y-184514040D01*
X57545203Y-184640003D01*
X57545202Y-184640004D01*
X57545201Y-184640004D01*
X57488025Y-184663687D01*
X57335734Y-184726768D01*
X57224549Y-184748884D01*
X57113365Y-184771000D01*
X56886635Y-184771000D01*
X56775451Y-184748884D01*
X56664266Y-184726768D01*
X56511975Y-184663687D01*
X56454799Y-184640004D01*
X56454798Y-184640004D01*
X56454797Y-184640003D01*
X56266280Y-184514040D01*
X56105960Y-184353720D01*
X55979997Y-184165203D01*
X55974628Y-184152240D01*
X55954584Y-184103850D01*
X55893232Y-183955734D01*
X55849000Y-183733364D01*
X55849000Y-183506636D01*
X55893232Y-183284266D01*
X55979997Y-183074797D01*
X56105960Y-182886280D01*
X56266280Y-182725960D01*
X56454797Y-182599997D01*
X56664266Y-182513232D01*
X56809702Y-182484303D01*
X56886635Y-182469000D01*
X57113365Y-182469000D01*
X57190298Y-182484303D01*
X57190298Y-182484303D01*
G37*
G36*
X44190298Y-182484303D02*
G01*
X44335734Y-182513232D01*
X44545203Y-182599997D01*
X44733720Y-182725960D01*
X44894040Y-182886280D01*
X45020003Y-183074797D01*
X45106768Y-183284266D01*
X45151000Y-183506636D01*
X45151000Y-183733364D01*
X45106768Y-183955734D01*
X45045416Y-184103850D01*
X45025373Y-184152240D01*
X45020003Y-184165203D01*
X44894040Y-184353720D01*
X44733720Y-184514040D01*
X44545203Y-184640003D01*
X44545202Y-184640004D01*
X44545201Y-184640004D01*
X44488025Y-184663687D01*
X44335734Y-184726768D01*
X44224549Y-184748884D01*
X44113365Y-184771000D01*
X43886635Y-184771000D01*
X43775451Y-184748884D01*
X43664266Y-184726768D01*
X43511975Y-184663687D01*
X43454799Y-184640004D01*
X43454798Y-184640004D01*
X43454797Y-184640003D01*
X43266280Y-184514040D01*
X43105960Y-184353720D01*
X42979997Y-184165203D01*
X42974628Y-184152240D01*
X42954584Y-184103850D01*
X42893232Y-183955734D01*
X42849000Y-183733364D01*
X42849000Y-183506636D01*
X42893232Y-183284266D01*
X42979997Y-183074797D01*
X43105960Y-182886280D01*
X43266280Y-182725960D01*
X43454797Y-182599997D01*
X43664266Y-182513232D01*
X43809702Y-182484303D01*
X43886635Y-182469000D01*
X44113365Y-182469000D01*
X44190298Y-182484303D01*
X44190298Y-182484303D01*
G37*
G36*
X15143229Y-183006704D02*
G01*
X15298101Y-183070854D01*
X15437482Y-183163986D01*
X15556016Y-183282520D01*
X15649148Y-183421901D01*
X15713298Y-183576773D01*
X15746001Y-183741185D01*
X15746001Y-183908817D01*
X15713298Y-184073229D01*
X15649148Y-184228101D01*
X15556016Y-184367482D01*
X15437482Y-184486016D01*
X15298101Y-184579148D01*
X15143229Y-184643298D01*
X14978817Y-184676001D01*
X14811185Y-184676001D01*
X14646773Y-184643298D01*
X14491901Y-184579148D01*
X14352520Y-184486016D01*
X14233986Y-184367482D01*
X14140854Y-184228101D01*
X14076704Y-184073229D01*
X14044001Y-183908817D01*
X14044001Y-183741185D01*
X14076704Y-183576773D01*
X14140854Y-183421901D01*
X14233986Y-183282520D01*
X14352520Y-183163986D01*
X14491901Y-183070854D01*
X14646773Y-183006704D01*
X14811185Y-182974001D01*
X14978817Y-182974001D01*
X15143229Y-183006704D01*
X15143229Y-183006704D01*
G37*
G36*
X22681824Y-182986314D02*
G01*
X22842243Y-183034977D01*
X22974907Y-183105887D01*
X22990079Y-183113997D01*
X23119660Y-183220342D01*
X23226005Y-183349923D01*
X23226006Y-183349925D01*
X23305025Y-183497759D01*
X23353688Y-183658178D01*
X23370118Y-183825001D01*
X23353688Y-183991824D01*
X23305025Y-184152243D01*
X23234115Y-184284907D01*
X23226005Y-184300079D01*
X23119660Y-184429660D01*
X22990079Y-184536005D01*
X22990077Y-184536006D01*
X22842243Y-184615025D01*
X22681824Y-184663688D01*
X22556805Y-184676001D01*
X22473197Y-184676001D01*
X22348178Y-184663688D01*
X22187759Y-184615025D01*
X22039925Y-184536006D01*
X22039923Y-184536005D01*
X21910342Y-184429660D01*
X21803997Y-184300079D01*
X21795887Y-184284907D01*
X21724977Y-184152243D01*
X21676314Y-183991824D01*
X21659884Y-183825001D01*
X21676314Y-183658178D01*
X21724977Y-183497759D01*
X21803996Y-183349925D01*
X21803997Y-183349923D01*
X21910342Y-183220342D01*
X22039923Y-183113997D01*
X22055095Y-183105887D01*
X22187759Y-183034977D01*
X22348178Y-182986314D01*
X22473197Y-182974001D01*
X22556805Y-182974001D01*
X22681824Y-182986314D01*
X22681824Y-182986314D01*
G37*
G36*
X8777395Y-182585546D02*
G01*
X8950466Y-182657234D01*
X8950467Y-182657235D01*
X9106227Y-182761310D01*
X9238690Y-182893773D01*
X9238691Y-182893775D01*
X9342766Y-183049534D01*
X9414454Y-183222605D01*
X9451000Y-183406333D01*
X9451000Y-183593667D01*
X9414454Y-183777395D01*
X9342766Y-183950466D01*
X9339246Y-183955734D01*
X9238690Y-184106227D01*
X9106227Y-184238690D01*
X9027818Y-184291081D01*
X8950466Y-184342766D01*
X8777395Y-184414454D01*
X8593667Y-184451000D01*
X8406333Y-184451000D01*
X8222605Y-184414454D01*
X8049534Y-184342766D01*
X7972182Y-184291081D01*
X7893773Y-184238690D01*
X7761310Y-184106227D01*
X7660754Y-183955734D01*
X7657234Y-183950466D01*
X7585546Y-183777395D01*
X7549000Y-183593667D01*
X7549000Y-183406333D01*
X7585546Y-183222605D01*
X7657234Y-183049534D01*
X7761309Y-182893775D01*
X7761310Y-182893773D01*
X7893773Y-182761310D01*
X8049533Y-182657235D01*
X8049534Y-182657234D01*
X8222605Y-182585546D01*
X8406333Y-182549000D01*
X8593667Y-182549000D01*
X8777395Y-182585546D01*
X8777395Y-182585546D01*
G37*
G36*
X83224549Y-179391116D02*
G01*
X83335734Y-179413232D01*
X83545203Y-179499997D01*
X83733720Y-179625960D01*
X83894040Y-179786280D01*
X84020003Y-179974797D01*
X84106768Y-180184266D01*
X84151000Y-180406636D01*
X84151000Y-180633364D01*
X84106768Y-180855734D01*
X84020003Y-181065203D01*
X83894040Y-181253720D01*
X83733720Y-181414040D01*
X83545203Y-181540003D01*
X83335734Y-181626768D01*
X83224549Y-181648884D01*
X83113365Y-181671000D01*
X82886635Y-181671000D01*
X82775451Y-181648884D01*
X82664266Y-181626768D01*
X82454797Y-181540003D01*
X82266280Y-181414040D01*
X82105960Y-181253720D01*
X81979997Y-181065203D01*
X81893232Y-180855734D01*
X81849000Y-180633364D01*
X81849000Y-180406636D01*
X81893232Y-180184266D01*
X81979997Y-179974797D01*
X82105960Y-179786280D01*
X82266280Y-179625960D01*
X82454797Y-179499997D01*
X82664266Y-179413232D01*
X82775451Y-179391116D01*
X82886635Y-179369000D01*
X83113365Y-179369000D01*
X83224549Y-179391116D01*
X83224549Y-179391116D01*
G37*
G36*
X31224549Y-179391116D02*
G01*
X31335734Y-179413232D01*
X31545203Y-179499997D01*
X31733720Y-179625960D01*
X31894040Y-179786280D01*
X32020003Y-179974797D01*
X32106768Y-180184266D01*
X32151000Y-180406636D01*
X32151000Y-180633364D01*
X32106768Y-180855734D01*
X32020003Y-181065203D01*
X31894040Y-181253720D01*
X31733720Y-181414040D01*
X31545203Y-181540003D01*
X31335734Y-181626768D01*
X31224549Y-181648884D01*
X31113365Y-181671000D01*
X30886635Y-181671000D01*
X30775451Y-181648884D01*
X30664266Y-181626768D01*
X30454797Y-181540003D01*
X30266280Y-181414040D01*
X30105960Y-181253720D01*
X29979997Y-181065203D01*
X29893232Y-180855734D01*
X29849000Y-180633364D01*
X29849000Y-180406636D01*
X29893232Y-180184266D01*
X29979997Y-179974797D01*
X30105960Y-179786280D01*
X30266280Y-179625960D01*
X30454797Y-179499997D01*
X30664266Y-179413232D01*
X30775451Y-179391116D01*
X30886635Y-179369000D01*
X31113365Y-179369000D01*
X31224549Y-179391116D01*
X31224549Y-179391116D01*
G37*
G36*
X44224549Y-179391116D02*
G01*
X44335734Y-179413232D01*
X44545203Y-179499997D01*
X44733720Y-179625960D01*
X44894040Y-179786280D01*
X45020003Y-179974797D01*
X45106768Y-180184266D01*
X45151000Y-180406636D01*
X45151000Y-180633364D01*
X45106768Y-180855734D01*
X45020003Y-181065203D01*
X44894040Y-181253720D01*
X44733720Y-181414040D01*
X44545203Y-181540003D01*
X44335734Y-181626768D01*
X44224549Y-181648884D01*
X44113365Y-181671000D01*
X43886635Y-181671000D01*
X43775451Y-181648884D01*
X43664266Y-181626768D01*
X43454797Y-181540003D01*
X43266280Y-181414040D01*
X43105960Y-181253720D01*
X42979997Y-181065203D01*
X42893232Y-180855734D01*
X42849000Y-180633364D01*
X42849000Y-180406636D01*
X42893232Y-180184266D01*
X42979997Y-179974797D01*
X43105960Y-179786280D01*
X43266280Y-179625960D01*
X43454797Y-179499997D01*
X43664266Y-179413232D01*
X43775451Y-179391116D01*
X43886635Y-179369000D01*
X44113365Y-179369000D01*
X44224549Y-179391116D01*
X44224549Y-179391116D01*
G37*
G36*
X70224549Y-179391116D02*
G01*
X70335734Y-179413232D01*
X70545203Y-179499997D01*
X70733720Y-179625960D01*
X70894040Y-179786280D01*
X71020003Y-179974797D01*
X71106768Y-180184266D01*
X71151000Y-180406636D01*
X71151000Y-180633364D01*
X71106768Y-180855734D01*
X71020003Y-181065203D01*
X70894040Y-181253720D01*
X70733720Y-181414040D01*
X70545203Y-181540003D01*
X70335734Y-181626768D01*
X70224549Y-181648884D01*
X70113365Y-181671000D01*
X69886635Y-181671000D01*
X69775451Y-181648884D01*
X69664266Y-181626768D01*
X69454797Y-181540003D01*
X69266280Y-181414040D01*
X69105960Y-181253720D01*
X68979997Y-181065203D01*
X68893232Y-180855734D01*
X68849000Y-180633364D01*
X68849000Y-180406636D01*
X68893232Y-180184266D01*
X68979997Y-179974797D01*
X69105960Y-179786280D01*
X69266280Y-179625960D01*
X69454797Y-179499997D01*
X69664266Y-179413232D01*
X69775451Y-179391116D01*
X69886635Y-179369000D01*
X70113365Y-179369000D01*
X70224549Y-179391116D01*
X70224549Y-179391116D01*
G37*
G36*
X57224549Y-179391116D02*
G01*
X57335734Y-179413232D01*
X57545203Y-179499997D01*
X57733720Y-179625960D01*
X57894040Y-179786280D01*
X58020003Y-179974797D01*
X58106768Y-180184266D01*
X58151000Y-180406636D01*
X58151000Y-180633364D01*
X58106768Y-180855734D01*
X58020003Y-181065203D01*
X57894040Y-181253720D01*
X57733720Y-181414040D01*
X57545203Y-181540003D01*
X57335734Y-181626768D01*
X57224549Y-181648884D01*
X57113365Y-181671000D01*
X56886635Y-181671000D01*
X56775451Y-181648884D01*
X56664266Y-181626768D01*
X56454797Y-181540003D01*
X56266280Y-181414040D01*
X56105960Y-181253720D01*
X55979997Y-181065203D01*
X55893232Y-180855734D01*
X55849000Y-180633364D01*
X55849000Y-180406636D01*
X55893232Y-180184266D01*
X55979997Y-179974797D01*
X56105960Y-179786280D01*
X56266280Y-179625960D01*
X56454797Y-179499997D01*
X56664266Y-179413232D01*
X56775451Y-179391116D01*
X56886635Y-179369000D01*
X57113365Y-179369000D01*
X57224549Y-179391116D01*
X57224549Y-179391116D01*
G37*
G36*
X96224549Y-179391116D02*
G01*
X96335734Y-179413232D01*
X96545203Y-179499997D01*
X96733720Y-179625960D01*
X96894040Y-179786280D01*
X97020003Y-179974797D01*
X97106768Y-180184266D01*
X97151000Y-180406636D01*
X97151000Y-180633364D01*
X97106768Y-180855734D01*
X97020003Y-181065203D01*
X96894040Y-181253720D01*
X96733720Y-181414040D01*
X96545203Y-181540003D01*
X96335734Y-181626768D01*
X96224549Y-181648884D01*
X96113365Y-181671000D01*
X95886635Y-181671000D01*
X95775451Y-181648884D01*
X95664266Y-181626768D01*
X95454797Y-181540003D01*
X95266280Y-181414040D01*
X95105960Y-181253720D01*
X94979997Y-181065203D01*
X94893232Y-180855734D01*
X94849000Y-180633364D01*
X94849000Y-180406636D01*
X94893232Y-180184266D01*
X94979997Y-179974797D01*
X95105960Y-179786280D01*
X95266280Y-179625960D01*
X95454797Y-179499997D01*
X95664266Y-179413232D01*
X95775451Y-179391116D01*
X95886635Y-179369000D01*
X96113365Y-179369000D01*
X96224549Y-179391116D01*
X96224549Y-179391116D01*
G37*
G36*
X9328571Y-179852863D02*
G01*
X9407023Y-179860590D01*
X9507682Y-179891125D01*
X9558013Y-179906392D01*
X9697165Y-179980771D01*
X9819133Y-180080867D01*
X9919229Y-180202835D01*
X9993608Y-180341987D01*
X9993608Y-180341988D01*
X10039410Y-180492977D01*
X10054875Y-180650000D01*
X10039410Y-180807023D01*
X10008875Y-180907682D01*
X9993608Y-180958013D01*
X9919229Y-181097165D01*
X9819133Y-181219133D01*
X9697165Y-181319229D01*
X9558013Y-181393608D01*
X9507682Y-181408875D01*
X9407023Y-181439410D01*
X9328571Y-181447137D01*
X9289346Y-181451000D01*
X7710654Y-181451000D01*
X7671429Y-181447137D01*
X7592977Y-181439410D01*
X7492318Y-181408875D01*
X7441987Y-181393608D01*
X7302835Y-181319229D01*
X7180867Y-181219133D01*
X7080771Y-181097165D01*
X7006392Y-180958013D01*
X6991125Y-180907682D01*
X6960590Y-180807023D01*
X6945125Y-180650000D01*
X6960590Y-180492977D01*
X7006392Y-180341988D01*
X7006392Y-180341987D01*
X7080771Y-180202835D01*
X7180867Y-180080867D01*
X7302835Y-179980771D01*
X7441987Y-179906392D01*
X7492318Y-179891125D01*
X7592977Y-179860590D01*
X7671429Y-179852863D01*
X7710654Y-179849000D01*
X9289346Y-179849000D01*
X9328571Y-179852863D01*
X9328571Y-179852863D01*
G37*
G36*
X17248228Y-177681703D02*
G01*
X17403100Y-177745853D01*
X17542481Y-177838985D01*
X17661015Y-177957519D01*
X17754147Y-178096900D01*
X17818297Y-178251772D01*
X17851000Y-178416184D01*
X17851000Y-178583816D01*
X17818297Y-178748228D01*
X17754147Y-178903100D01*
X17661015Y-179042481D01*
X17542481Y-179161015D01*
X17403100Y-179254147D01*
X17248228Y-179318297D01*
X17083816Y-179351000D01*
X16916184Y-179351000D01*
X16751772Y-179318297D01*
X16596900Y-179254147D01*
X16457519Y-179161015D01*
X16338985Y-179042481D01*
X16245853Y-178903100D01*
X16181703Y-178748228D01*
X16149000Y-178583816D01*
X16149000Y-178416184D01*
X16181703Y-178251772D01*
X16245853Y-178096900D01*
X16338985Y-177957519D01*
X16457519Y-177838985D01*
X16596900Y-177745853D01*
X16751772Y-177681703D01*
X16916184Y-177649000D01*
X17083816Y-177649000D01*
X17248228Y-177681703D01*
X17248228Y-177681703D01*
G37*
G36*
X15851000Y-179351000D02*
G01*
X14149000Y-179351000D01*
X14149000Y-177649000D01*
X15851000Y-177649000D01*
X15851000Y-179351000D01*
X15851000Y-179351000D01*
G37*
G36*
X9451000Y-177951000D02*
G01*
X7549000Y-177951000D01*
X7549000Y-176049000D01*
X9451000Y-176049000D01*
X9451000Y-177951000D01*
X9451000Y-177951000D01*
G37*
G36*
X8777395Y-173545546D02*
G01*
X8950466Y-173617234D01*
X8950467Y-173617235D01*
X9106227Y-173721310D01*
X9238690Y-173853773D01*
X9238691Y-173853775D01*
X9342766Y-174009534D01*
X9414454Y-174182605D01*
X9451000Y-174366333D01*
X9451000Y-174553667D01*
X9414454Y-174737395D01*
X9342766Y-174910466D01*
X9342765Y-174910467D01*
X9238690Y-175066227D01*
X9106227Y-175198690D01*
X9027818Y-175251081D01*
X8950466Y-175302766D01*
X8777395Y-175374454D01*
X8593667Y-175411000D01*
X8406333Y-175411000D01*
X8222605Y-175374454D01*
X8049534Y-175302766D01*
X7972182Y-175251081D01*
X7893773Y-175198690D01*
X7761310Y-175066227D01*
X7657235Y-174910467D01*
X7657234Y-174910466D01*
X7585546Y-174737395D01*
X7549000Y-174553667D01*
X7549000Y-174366333D01*
X7585546Y-174182605D01*
X7657234Y-174009534D01*
X7761309Y-173853775D01*
X7761310Y-173853773D01*
X7893773Y-173721310D01*
X8049533Y-173617235D01*
X8049534Y-173617234D01*
X8222605Y-173545546D01*
X8406333Y-173509000D01*
X8593667Y-173509000D01*
X8777395Y-173545546D01*
X8777395Y-173545546D01*
G37*
G36*
X29277395Y-95125546D02*
G01*
X29450466Y-95197234D01*
X29450467Y-95197235D01*
X29606227Y-95301310D01*
X29738690Y-95433773D01*
X29738691Y-95433775D01*
X29842766Y-95589534D01*
X29914454Y-95762605D01*
X29951000Y-95946333D01*
X29951000Y-96133667D01*
X29914454Y-96317395D01*
X29842766Y-96490466D01*
X29842765Y-96490467D01*
X29738690Y-96646227D01*
X29606227Y-96778690D01*
X29527818Y-96831081D01*
X29450466Y-96882766D01*
X29277395Y-96954454D01*
X29093667Y-96991000D01*
X28906333Y-96991000D01*
X28722605Y-96954454D01*
X28549534Y-96882766D01*
X28472182Y-96831081D01*
X28393773Y-96778690D01*
X28261310Y-96646227D01*
X28157235Y-96490467D01*
X28157234Y-96490466D01*
X28085546Y-96317395D01*
X28049000Y-96133667D01*
X28049000Y-95946333D01*
X28085546Y-95762605D01*
X28157234Y-95589534D01*
X28261309Y-95433775D01*
X28261310Y-95433773D01*
X28393773Y-95301310D01*
X28549533Y-95197235D01*
X28549534Y-95197234D01*
X28722605Y-95125546D01*
X28906333Y-95089000D01*
X29093667Y-95089000D01*
X29277395Y-95125546D01*
X29277395Y-95125546D01*
G37*
G36*
X29951000Y-94451000D02*
G01*
X28049000Y-94451000D01*
X28049000Y-92549000D01*
X29951000Y-92549000D01*
X29951000Y-94451000D01*
X29951000Y-94451000D01*
G37*
G36*
X29951000Y-59451000D02*
G01*
X28049000Y-59451000D01*
X28049000Y-57549000D01*
X29951000Y-57549000D01*
X29951000Y-59451000D01*
X29951000Y-59451000D01*
G37*
G36*
X29277395Y-55045546D02*
G01*
X29450466Y-55117234D01*
X29450467Y-55117235D01*
X29606227Y-55221310D01*
X29738690Y-55353773D01*
X29738691Y-55353775D01*
X29842766Y-55509534D01*
X29914454Y-55682605D01*
X29951000Y-55866333D01*
X29951000Y-56053667D01*
X29914454Y-56237395D01*
X29842766Y-56410466D01*
X29842765Y-56410467D01*
X29738690Y-56566227D01*
X29606227Y-56698690D01*
X29527818Y-56751081D01*
X29450466Y-56802766D01*
X29277395Y-56874454D01*
X29093667Y-56911000D01*
X28906333Y-56911000D01*
X28722605Y-56874454D01*
X28549534Y-56802766D01*
X28472182Y-56751081D01*
X28393773Y-56698690D01*
X28261310Y-56566227D01*
X28157235Y-56410467D01*
X28157234Y-56410466D01*
X28085546Y-56237395D01*
X28049000Y-56053667D01*
X28049000Y-55866333D01*
X28085546Y-55682605D01*
X28157234Y-55509534D01*
X28261309Y-55353775D01*
X28261310Y-55353773D01*
X28393773Y-55221310D01*
X28549533Y-55117235D01*
X28549534Y-55117234D01*
X28722605Y-55045546D01*
X28906333Y-55009000D01*
X29093667Y-55009000D01*
X29277395Y-55045546D01*
X29277395Y-55045546D01*
G37*
G36*
X7248228Y-54181703D02*
G01*
X7403100Y-54245853D01*
X7542481Y-54338985D01*
X7661015Y-54457519D01*
X7754147Y-54596900D01*
X7818297Y-54751772D01*
X7851000Y-54916184D01*
X7851000Y-55083816D01*
X7818297Y-55248228D01*
X7754147Y-55403100D01*
X7661015Y-55542481D01*
X7542481Y-55661015D01*
X7403100Y-55754147D01*
X7248228Y-55818297D01*
X7083816Y-55851000D01*
X6916184Y-55851000D01*
X6751772Y-55818297D01*
X6596900Y-55754147D01*
X6457519Y-55661015D01*
X6338985Y-55542481D01*
X6245853Y-55403100D01*
X6181703Y-55248228D01*
X6149000Y-55083816D01*
X6149000Y-54916184D01*
X6181703Y-54751772D01*
X6245853Y-54596900D01*
X6338985Y-54457519D01*
X6457519Y-54338985D01*
X6596900Y-54245853D01*
X6751772Y-54181703D01*
X6916184Y-54149000D01*
X7083816Y-54149000D01*
X7248228Y-54181703D01*
X7248228Y-54181703D01*
G37*
G36*
X10248228Y-54181703D02*
G01*
X10403100Y-54245853D01*
X10542481Y-54338985D01*
X10661015Y-54457519D01*
X10754147Y-54596900D01*
X10818297Y-54751772D01*
X10851000Y-54916184D01*
X10851000Y-55083816D01*
X10818297Y-55248228D01*
X10754147Y-55403100D01*
X10661015Y-55542481D01*
X10542481Y-55661015D01*
X10403100Y-55754147D01*
X10248228Y-55818297D01*
X10083816Y-55851000D01*
X9916184Y-55851000D01*
X9751772Y-55818297D01*
X9596900Y-55754147D01*
X9457519Y-55661015D01*
X9338985Y-55542481D01*
X9245853Y-55403100D01*
X9181703Y-55248228D01*
X9149000Y-55083816D01*
X9149000Y-54916184D01*
X9181703Y-54751772D01*
X9245853Y-54596900D01*
X9338985Y-54457519D01*
X9457519Y-54338985D01*
X9596900Y-54245853D01*
X9751772Y-54181703D01*
X9916184Y-54149000D01*
X10083816Y-54149000D01*
X10248228Y-54181703D01*
X10248228Y-54181703D01*
G37*
G36*
X4248228Y-54181703D02*
G01*
X4403100Y-54245853D01*
X4542481Y-54338985D01*
X4661015Y-54457519D01*
X4754147Y-54596900D01*
X4818297Y-54751772D01*
X4851000Y-54916184D01*
X4851000Y-55083816D01*
X4818297Y-55248228D01*
X4754147Y-55403100D01*
X4661015Y-55542481D01*
X4542481Y-55661015D01*
X4403100Y-55754147D01*
X4248228Y-55818297D01*
X4083816Y-55851000D01*
X3916184Y-55851000D01*
X3751772Y-55818297D01*
X3596900Y-55754147D01*
X3457519Y-55661015D01*
X3338985Y-55542481D01*
X3245853Y-55403100D01*
X3181703Y-55248228D01*
X3149000Y-55083816D01*
X3149000Y-54916184D01*
X3181703Y-54751772D01*
X3245853Y-54596900D01*
X3338985Y-54457519D01*
X3457519Y-54338985D01*
X3596900Y-54245853D01*
X3751772Y-54181703D01*
X3916184Y-54149000D01*
X4083816Y-54149000D01*
X4248228Y-54181703D01*
X4248228Y-54181703D01*
G37*
G36*
X10166823Y-46541313D02*
G01*
X10327242Y-46589976D01*
X10459906Y-46660886D01*
X10475078Y-46668996D01*
X10604659Y-46775341D01*
X10711004Y-46904922D01*
X10711005Y-46904924D01*
X10790024Y-47052758D01*
X10838687Y-47213177D01*
X10855117Y-47380000D01*
X10838687Y-47546823D01*
X10790024Y-47707242D01*
X10719114Y-47839906D01*
X10711004Y-47855078D01*
X10604659Y-47984659D01*
X10475078Y-48091004D01*
X10475076Y-48091005D01*
X10327242Y-48170024D01*
X10166823Y-48218687D01*
X10041804Y-48231000D01*
X9958196Y-48231000D01*
X9833177Y-48218687D01*
X9672758Y-48170024D01*
X9524924Y-48091005D01*
X9524922Y-48091004D01*
X9395341Y-47984659D01*
X9288996Y-47855078D01*
X9280886Y-47839906D01*
X9209976Y-47707242D01*
X9161313Y-47546823D01*
X9144883Y-47380000D01*
X9161313Y-47213177D01*
X9209976Y-47052758D01*
X9288995Y-46904924D01*
X9288996Y-46904922D01*
X9395341Y-46775341D01*
X9524922Y-46668996D01*
X9540094Y-46660886D01*
X9672758Y-46589976D01*
X9833177Y-46541313D01*
X9958196Y-46529000D01*
X10041804Y-46529000D01*
X10166823Y-46541313D01*
X10166823Y-46541313D01*
G37*
G36*
X7166823Y-46541313D02*
G01*
X7327242Y-46589976D01*
X7459906Y-46660886D01*
X7475078Y-46668996D01*
X7604659Y-46775341D01*
X7711004Y-46904922D01*
X7711005Y-46904924D01*
X7790024Y-47052758D01*
X7838687Y-47213177D01*
X7855117Y-47380000D01*
X7838687Y-47546823D01*
X7790024Y-47707242D01*
X7719114Y-47839906D01*
X7711004Y-47855078D01*
X7604659Y-47984659D01*
X7475078Y-48091004D01*
X7475076Y-48091005D01*
X7327242Y-48170024D01*
X7166823Y-48218687D01*
X7041804Y-48231000D01*
X6958196Y-48231000D01*
X6833177Y-48218687D01*
X6672758Y-48170024D01*
X6524924Y-48091005D01*
X6524922Y-48091004D01*
X6395341Y-47984659D01*
X6288996Y-47855078D01*
X6280886Y-47839906D01*
X6209976Y-47707242D01*
X6161313Y-47546823D01*
X6144883Y-47380000D01*
X6161313Y-47213177D01*
X6209976Y-47052758D01*
X6288995Y-46904924D01*
X6288996Y-46904922D01*
X6395341Y-46775341D01*
X6524922Y-46668996D01*
X6540094Y-46660886D01*
X6672758Y-46589976D01*
X6833177Y-46541313D01*
X6958196Y-46529000D01*
X7041804Y-46529000D01*
X7166823Y-46541313D01*
X7166823Y-46541313D01*
G37*
G36*
X4166823Y-46541313D02*
G01*
X4327242Y-46589976D01*
X4459906Y-46660886D01*
X4475078Y-46668996D01*
X4604659Y-46775341D01*
X4711004Y-46904922D01*
X4711005Y-46904924D01*
X4790024Y-47052758D01*
X4838687Y-47213177D01*
X4855117Y-47380000D01*
X4838687Y-47546823D01*
X4790024Y-47707242D01*
X4719114Y-47839906D01*
X4711004Y-47855078D01*
X4604659Y-47984659D01*
X4475078Y-48091004D01*
X4475076Y-48091005D01*
X4327242Y-48170024D01*
X4166823Y-48218687D01*
X4041804Y-48231000D01*
X3958196Y-48231000D01*
X3833177Y-48218687D01*
X3672758Y-48170024D01*
X3524924Y-48091005D01*
X3524922Y-48091004D01*
X3395341Y-47984659D01*
X3288996Y-47855078D01*
X3280886Y-47839906D01*
X3209976Y-47707242D01*
X3161313Y-47546823D01*
X3144883Y-47380000D01*
X3161313Y-47213177D01*
X3209976Y-47052758D01*
X3288995Y-46904924D01*
X3288996Y-46904922D01*
X3395341Y-46775341D01*
X3524922Y-46668996D01*
X3540094Y-46660886D01*
X3672758Y-46589976D01*
X3833177Y-46541313D01*
X3958196Y-46529000D01*
X4041804Y-46529000D01*
X4166823Y-46541313D01*
X4166823Y-46541313D01*
G37*
G36*
X39048228Y-45181703D02*
G01*
X39203100Y-45245853D01*
X39342481Y-45338985D01*
X39461015Y-45457519D01*
X39554147Y-45596900D01*
X39618297Y-45751772D01*
X39651000Y-45916184D01*
X39651000Y-46083816D01*
X39618297Y-46248228D01*
X39554147Y-46403100D01*
X39461015Y-46542481D01*
X39342481Y-46661015D01*
X39203100Y-46754147D01*
X39048228Y-46818297D01*
X38883816Y-46851000D01*
X38716184Y-46851000D01*
X38551772Y-46818297D01*
X38396900Y-46754147D01*
X38257519Y-46661015D01*
X38138985Y-46542481D01*
X38045853Y-46403100D01*
X37981703Y-46248228D01*
X37949000Y-46083816D01*
X37949000Y-45916184D01*
X37981703Y-45751772D01*
X38045853Y-45596900D01*
X38138985Y-45457519D01*
X38257519Y-45338985D01*
X38396900Y-45245853D01*
X38551772Y-45181703D01*
X38716184Y-45149000D01*
X38883816Y-45149000D01*
X39048228Y-45181703D01*
X39048228Y-45181703D01*
G37*
G36*
X29998228Y-45181703D02*
G01*
X30153100Y-45245853D01*
X30292481Y-45338985D01*
X30411015Y-45457519D01*
X30504147Y-45596900D01*
X30568297Y-45751772D01*
X30601000Y-45916184D01*
X30601000Y-46083816D01*
X30568297Y-46248228D01*
X30504147Y-46403100D01*
X30411015Y-46542481D01*
X30292481Y-46661015D01*
X30153100Y-46754147D01*
X29998228Y-46818297D01*
X29833816Y-46851000D01*
X29666184Y-46851000D01*
X29501772Y-46818297D01*
X29346900Y-46754147D01*
X29207519Y-46661015D01*
X29088985Y-46542481D01*
X28995853Y-46403100D01*
X28931703Y-46248228D01*
X28899000Y-46083816D01*
X28899000Y-45916184D01*
X28931703Y-45751772D01*
X28995853Y-45596900D01*
X29088985Y-45457519D01*
X29207519Y-45338985D01*
X29346900Y-45245853D01*
X29501772Y-45181703D01*
X29666184Y-45149000D01*
X29833816Y-45149000D01*
X29998228Y-45181703D01*
X29998228Y-45181703D01*
G37*
G36*
X11786823Y-43441313D02*
G01*
X11947242Y-43489976D01*
X12079906Y-43560886D01*
X12095078Y-43568996D01*
X12224659Y-43675341D01*
X12331004Y-43804922D01*
X12331005Y-43804924D01*
X12410024Y-43952758D01*
X12458687Y-44113177D01*
X12475117Y-44280000D01*
X12458687Y-44446823D01*
X12410024Y-44607242D01*
X12339114Y-44739906D01*
X12331004Y-44755078D01*
X12224659Y-44884659D01*
X12095078Y-44991004D01*
X12095076Y-44991005D01*
X11947242Y-45070024D01*
X11786823Y-45118687D01*
X11661804Y-45131000D01*
X11578196Y-45131000D01*
X11453177Y-45118687D01*
X11292758Y-45070024D01*
X11144924Y-44991005D01*
X11144922Y-44991004D01*
X11015341Y-44884659D01*
X10908996Y-44755078D01*
X10900886Y-44739906D01*
X10829976Y-44607242D01*
X10781313Y-44446823D01*
X10764883Y-44280000D01*
X10781313Y-44113177D01*
X10829976Y-43952758D01*
X10908995Y-43804924D01*
X10908996Y-43804922D01*
X11015341Y-43675341D01*
X11144922Y-43568996D01*
X11160094Y-43560886D01*
X11292758Y-43489976D01*
X11453177Y-43441313D01*
X11578196Y-43429000D01*
X11661804Y-43429000D01*
X11786823Y-43441313D01*
X11786823Y-43441313D01*
G37*
G36*
X4166823Y-43441313D02*
G01*
X4327242Y-43489976D01*
X4459906Y-43560886D01*
X4475078Y-43568996D01*
X4604659Y-43675341D01*
X4711004Y-43804922D01*
X4711005Y-43804924D01*
X4790024Y-43952758D01*
X4838687Y-44113177D01*
X4855117Y-44280000D01*
X4838687Y-44446823D01*
X4790024Y-44607242D01*
X4719114Y-44739906D01*
X4711004Y-44755078D01*
X4604659Y-44884659D01*
X4475078Y-44991004D01*
X4475076Y-44991005D01*
X4327242Y-45070024D01*
X4166823Y-45118687D01*
X4041804Y-45131000D01*
X3958196Y-45131000D01*
X3833177Y-45118687D01*
X3672758Y-45070024D01*
X3524924Y-44991005D01*
X3524922Y-44991004D01*
X3395341Y-44884659D01*
X3288996Y-44755078D01*
X3280886Y-44739906D01*
X3209976Y-44607242D01*
X3161313Y-44446823D01*
X3144883Y-44280000D01*
X3161313Y-44113177D01*
X3209976Y-43952758D01*
X3288995Y-43804924D01*
X3288996Y-43804922D01*
X3395341Y-43675341D01*
X3524922Y-43568996D01*
X3540094Y-43560886D01*
X3672758Y-43489976D01*
X3833177Y-43441313D01*
X3958196Y-43429000D01*
X4041804Y-43429000D01*
X4166823Y-43441313D01*
X4166823Y-43441313D01*
G37*
G36*
X39651000Y-44851000D02*
G01*
X37949000Y-44851000D01*
X37949000Y-43149000D01*
X39651000Y-43149000D01*
X39651000Y-44851000D01*
X39651000Y-44851000D01*
G37*
G36*
X30601000Y-44851000D02*
G01*
X28899000Y-44851000D01*
X28899000Y-43149000D01*
X30601000Y-43149000D01*
X30601000Y-44851000D01*
X30601000Y-44851000D01*
G37*
G36*
X19248228Y-41681703D02*
G01*
X19403100Y-41745853D01*
X19542481Y-41838985D01*
X19661015Y-41957519D01*
X19754147Y-42096900D01*
X19818297Y-42251772D01*
X19851000Y-42416184D01*
X19851000Y-42583816D01*
X19818297Y-42748228D01*
X19754147Y-42903100D01*
X19661015Y-43042481D01*
X19542481Y-43161015D01*
X19403100Y-43254147D01*
X19248228Y-43318297D01*
X19083816Y-43351000D01*
X18916184Y-43351000D01*
X18751772Y-43318297D01*
X18596900Y-43254147D01*
X18457519Y-43161015D01*
X18338985Y-43042481D01*
X18245853Y-42903100D01*
X18181703Y-42748228D01*
X18149000Y-42583816D01*
X18149000Y-42416184D01*
X18181703Y-42251772D01*
X18245853Y-42096900D01*
X18338985Y-41957519D01*
X18457519Y-41838985D01*
X18596900Y-41745853D01*
X18751772Y-41681703D01*
X18916184Y-41649000D01*
X19083816Y-41649000D01*
X19248228Y-41681703D01*
X19248228Y-41681703D01*
G37*
G36*
X25248228Y-41681703D02*
G01*
X25403100Y-41745853D01*
X25542481Y-41838985D01*
X25661015Y-41957519D01*
X25754147Y-42096900D01*
X25818297Y-42251772D01*
X25851000Y-42416184D01*
X25851000Y-42583816D01*
X25818297Y-42748228D01*
X25754147Y-42903100D01*
X25661015Y-43042481D01*
X25542481Y-43161015D01*
X25403100Y-43254147D01*
X25248228Y-43318297D01*
X25083816Y-43351000D01*
X24916184Y-43351000D01*
X24751772Y-43318297D01*
X24596900Y-43254147D01*
X24457519Y-43161015D01*
X24338985Y-43042481D01*
X24245853Y-42903100D01*
X24181703Y-42748228D01*
X24149000Y-42583816D01*
X24149000Y-42416184D01*
X24181703Y-42251772D01*
X24245853Y-42096900D01*
X24338985Y-41957519D01*
X24457519Y-41838985D01*
X24596900Y-41745853D01*
X24751772Y-41681703D01*
X24916184Y-41649000D01*
X25083816Y-41649000D01*
X25248228Y-41681703D01*
X25248228Y-41681703D01*
G37*
G36*
X22248228Y-41681703D02*
G01*
X22403100Y-41745853D01*
X22542481Y-41838985D01*
X22661015Y-41957519D01*
X22754147Y-42096900D01*
X22818297Y-42251772D01*
X22851000Y-42416184D01*
X22851000Y-42583816D01*
X22818297Y-42748228D01*
X22754147Y-42903100D01*
X22661015Y-43042481D01*
X22542481Y-43161015D01*
X22403100Y-43254147D01*
X22248228Y-43318297D01*
X22083816Y-43351000D01*
X21916184Y-43351000D01*
X21751772Y-43318297D01*
X21596900Y-43254147D01*
X21457519Y-43161015D01*
X21338985Y-43042481D01*
X21245853Y-42903100D01*
X21181703Y-42748228D01*
X21149000Y-42583816D01*
X21149000Y-42416184D01*
X21181703Y-42251772D01*
X21245853Y-42096900D01*
X21338985Y-41957519D01*
X21457519Y-41838985D01*
X21596900Y-41745853D01*
X21751772Y-41681703D01*
X21916184Y-41649000D01*
X22083816Y-41649000D01*
X22248228Y-41681703D01*
X22248228Y-41681703D01*
G37*
G36*
X16248228Y-41681703D02*
G01*
X16403100Y-41745853D01*
X16542481Y-41838985D01*
X16661015Y-41957519D01*
X16754147Y-42096900D01*
X16818297Y-42251772D01*
X16851000Y-42416184D01*
X16851000Y-42583816D01*
X16818297Y-42748228D01*
X16754147Y-42903100D01*
X16661015Y-43042481D01*
X16542481Y-43161015D01*
X16403100Y-43254147D01*
X16248228Y-43318297D01*
X16083816Y-43351000D01*
X15916184Y-43351000D01*
X15751772Y-43318297D01*
X15596900Y-43254147D01*
X15457519Y-43161015D01*
X15338985Y-43042481D01*
X15245853Y-42903100D01*
X15181703Y-42748228D01*
X15149000Y-42583816D01*
X15149000Y-42416184D01*
X15181703Y-42251772D01*
X15245853Y-42096900D01*
X15338985Y-41957519D01*
X15457519Y-41838985D01*
X15596900Y-41745853D01*
X15751772Y-41681703D01*
X15916184Y-41649000D01*
X16083816Y-41649000D01*
X16248228Y-41681703D01*
X16248228Y-41681703D01*
G37*
G36*
X4166823Y-40901313D02*
G01*
X4327242Y-40949976D01*
X4459906Y-41020886D01*
X4475078Y-41028996D01*
X4604659Y-41135341D01*
X4711004Y-41264922D01*
X4711005Y-41264924D01*
X4790024Y-41412758D01*
X4838687Y-41573177D01*
X4855117Y-41740000D01*
X4838687Y-41906823D01*
X4790024Y-42067242D01*
X4719114Y-42199906D01*
X4711004Y-42215078D01*
X4604659Y-42344659D01*
X4475078Y-42451004D01*
X4475076Y-42451005D01*
X4327242Y-42530024D01*
X4166823Y-42578687D01*
X4041804Y-42591000D01*
X3958196Y-42591000D01*
X3833177Y-42578687D01*
X3672758Y-42530024D01*
X3524924Y-42451005D01*
X3524922Y-42451004D01*
X3395341Y-42344659D01*
X3288996Y-42215078D01*
X3280886Y-42199906D01*
X3209976Y-42067242D01*
X3161313Y-41906823D01*
X3144883Y-41740000D01*
X3161313Y-41573177D01*
X3209976Y-41412758D01*
X3288995Y-41264924D01*
X3288996Y-41264922D01*
X3395341Y-41135341D01*
X3524922Y-41028996D01*
X3540094Y-41020886D01*
X3672758Y-40949976D01*
X3833177Y-40901313D01*
X3958196Y-40889000D01*
X4041804Y-40889000D01*
X4166823Y-40901313D01*
X4166823Y-40901313D01*
G37*
G36*
X11786823Y-40901313D02*
G01*
X11947242Y-40949976D01*
X12079906Y-41020886D01*
X12095078Y-41028996D01*
X12224659Y-41135341D01*
X12331004Y-41264922D01*
X12331005Y-41264924D01*
X12410024Y-41412758D01*
X12458687Y-41573177D01*
X12475117Y-41740000D01*
X12458687Y-41906823D01*
X12410024Y-42067242D01*
X12339114Y-42199906D01*
X12331004Y-42215078D01*
X12224659Y-42344659D01*
X12095078Y-42451004D01*
X12095076Y-42451005D01*
X11947242Y-42530024D01*
X11786823Y-42578687D01*
X11661804Y-42591000D01*
X11578196Y-42591000D01*
X11453177Y-42578687D01*
X11292758Y-42530024D01*
X11144924Y-42451005D01*
X11144922Y-42451004D01*
X11015341Y-42344659D01*
X10908996Y-42215078D01*
X10900886Y-42199906D01*
X10829976Y-42067242D01*
X10781313Y-41906823D01*
X10764883Y-41740000D01*
X10781313Y-41573177D01*
X10829976Y-41412758D01*
X10908995Y-41264924D01*
X10908996Y-41264922D01*
X11015341Y-41135341D01*
X11144922Y-41028996D01*
X11160094Y-41020886D01*
X11292758Y-40949976D01*
X11453177Y-40901313D01*
X11578196Y-40889000D01*
X11661804Y-40889000D01*
X11786823Y-40901313D01*
X11786823Y-40901313D01*
G37*
G36*
X28498228Y-39431703D02*
G01*
X28653100Y-39495853D01*
X28792481Y-39588985D01*
X28911015Y-39707519D01*
X29004147Y-39846900D01*
X29068297Y-40001772D01*
X29101000Y-40166184D01*
X29101000Y-40333816D01*
X29068297Y-40498228D01*
X29004147Y-40653100D01*
X28911015Y-40792481D01*
X28792481Y-40911015D01*
X28653100Y-41004147D01*
X28498228Y-41068297D01*
X28333816Y-41101000D01*
X28166184Y-41101000D01*
X28001772Y-41068297D01*
X27846900Y-41004147D01*
X27707519Y-40911015D01*
X27588985Y-40792481D01*
X27495853Y-40653100D01*
X27431703Y-40498228D01*
X27399000Y-40333816D01*
X27399000Y-40166184D01*
X27431703Y-40001772D01*
X27495853Y-39846900D01*
X27588985Y-39707519D01*
X27707519Y-39588985D01*
X27846900Y-39495853D01*
X28001772Y-39431703D01*
X28166184Y-39399000D01*
X28333816Y-39399000D01*
X28498228Y-39431703D01*
X28498228Y-39431703D01*
G37*
G36*
X31498228Y-39431703D02*
G01*
X31653100Y-39495853D01*
X31792481Y-39588985D01*
X31911015Y-39707519D01*
X32004147Y-39846900D01*
X32068297Y-40001772D01*
X32101000Y-40166184D01*
X32101000Y-40333816D01*
X32068297Y-40498228D01*
X32004147Y-40653100D01*
X31911015Y-40792481D01*
X31792481Y-40911015D01*
X31653100Y-41004147D01*
X31498228Y-41068297D01*
X31333816Y-41101000D01*
X31166184Y-41101000D01*
X31001772Y-41068297D01*
X30846900Y-41004147D01*
X30707519Y-40911015D01*
X30588985Y-40792481D01*
X30495853Y-40653100D01*
X30431703Y-40498228D01*
X30399000Y-40333816D01*
X30399000Y-40166184D01*
X30431703Y-40001772D01*
X30495853Y-39846900D01*
X30588985Y-39707519D01*
X30707519Y-39588985D01*
X30846900Y-39495853D01*
X31001772Y-39431703D01*
X31166184Y-39399000D01*
X31333816Y-39399000D01*
X31498228Y-39431703D01*
X31498228Y-39431703D01*
G37*
G36*
X34498228Y-39431703D02*
G01*
X34653100Y-39495853D01*
X34792481Y-39588985D01*
X34911015Y-39707519D01*
X35004147Y-39846900D01*
X35068297Y-40001772D01*
X35101000Y-40166184D01*
X35101000Y-40333816D01*
X35068297Y-40498228D01*
X35004147Y-40653100D01*
X34911015Y-40792481D01*
X34792481Y-40911015D01*
X34653100Y-41004147D01*
X34498228Y-41068297D01*
X34333816Y-41101000D01*
X34166184Y-41101000D01*
X34001772Y-41068297D01*
X33846900Y-41004147D01*
X33707519Y-40911015D01*
X33588985Y-40792481D01*
X33495853Y-40653100D01*
X33431703Y-40498228D01*
X33399000Y-40333816D01*
X33399000Y-40166184D01*
X33431703Y-40001772D01*
X33495853Y-39846900D01*
X33588985Y-39707519D01*
X33707519Y-39588985D01*
X33846900Y-39495853D01*
X34001772Y-39431703D01*
X34166184Y-39399000D01*
X34333816Y-39399000D01*
X34498228Y-39431703D01*
X34498228Y-39431703D01*
G37*
G36*
X40498228Y-39431703D02*
G01*
X40653100Y-39495853D01*
X40792481Y-39588985D01*
X40911015Y-39707519D01*
X41004147Y-39846900D01*
X41068297Y-40001772D01*
X41101000Y-40166184D01*
X41101000Y-40333816D01*
X41068297Y-40498228D01*
X41004147Y-40653100D01*
X40911015Y-40792481D01*
X40792481Y-40911015D01*
X40653100Y-41004147D01*
X40498228Y-41068297D01*
X40333816Y-41101000D01*
X40166184Y-41101000D01*
X40001772Y-41068297D01*
X39846900Y-41004147D01*
X39707519Y-40911015D01*
X39588985Y-40792481D01*
X39495853Y-40653100D01*
X39431703Y-40498228D01*
X39399000Y-40333816D01*
X39399000Y-40166184D01*
X39431703Y-40001772D01*
X39495853Y-39846900D01*
X39588985Y-39707519D01*
X39707519Y-39588985D01*
X39846900Y-39495853D01*
X40001772Y-39431703D01*
X40166184Y-39399000D01*
X40333816Y-39399000D01*
X40498228Y-39431703D01*
X40498228Y-39431703D01*
G37*
G36*
X37498228Y-39431703D02*
G01*
X37653100Y-39495853D01*
X37792481Y-39588985D01*
X37911015Y-39707519D01*
X38004147Y-39846900D01*
X38068297Y-40001772D01*
X38101000Y-40166184D01*
X38101000Y-40333816D01*
X38068297Y-40498228D01*
X38004147Y-40653100D01*
X37911015Y-40792481D01*
X37792481Y-40911015D01*
X37653100Y-41004147D01*
X37498228Y-41068297D01*
X37333816Y-41101000D01*
X37166184Y-41101000D01*
X37001772Y-41068297D01*
X36846900Y-41004147D01*
X36707519Y-40911015D01*
X36588985Y-40792481D01*
X36495853Y-40653100D01*
X36431703Y-40498228D01*
X36399000Y-40333816D01*
X36399000Y-40166184D01*
X36431703Y-40001772D01*
X36495853Y-39846900D01*
X36588985Y-39707519D01*
X36707519Y-39588985D01*
X36846900Y-39495853D01*
X37001772Y-39431703D01*
X37166184Y-39399000D01*
X37333816Y-39399000D01*
X37498228Y-39431703D01*
X37498228Y-39431703D01*
G37*
G36*
X43498228Y-39431703D02*
G01*
X43653100Y-39495853D01*
X43792481Y-39588985D01*
X43911015Y-39707519D01*
X44004147Y-39846900D01*
X44068297Y-40001772D01*
X44101000Y-40166184D01*
X44101000Y-40333816D01*
X44068297Y-40498228D01*
X44004147Y-40653100D01*
X43911015Y-40792481D01*
X43792481Y-40911015D01*
X43653100Y-41004147D01*
X43498228Y-41068297D01*
X43333816Y-41101000D01*
X43166184Y-41101000D01*
X43001772Y-41068297D01*
X42846900Y-41004147D01*
X42707519Y-40911015D01*
X42588985Y-40792481D01*
X42495853Y-40653100D01*
X42431703Y-40498228D01*
X42399000Y-40333816D01*
X42399000Y-40166184D01*
X42431703Y-40001772D01*
X42495853Y-39846900D01*
X42588985Y-39707519D01*
X42707519Y-39588985D01*
X42846900Y-39495853D01*
X43001772Y-39431703D01*
X43166184Y-39399000D01*
X43333816Y-39399000D01*
X43498228Y-39431703D01*
X43498228Y-39431703D01*
G37*
G36*
X11786823Y-38361313D02*
G01*
X11947242Y-38409976D01*
X12079906Y-38480886D01*
X12095078Y-38488996D01*
X12224659Y-38595341D01*
X12331004Y-38724922D01*
X12331005Y-38724924D01*
X12410024Y-38872758D01*
X12458687Y-39033177D01*
X12475117Y-39200000D01*
X12458687Y-39366823D01*
X12410024Y-39527242D01*
X12339114Y-39659906D01*
X12331004Y-39675078D01*
X12224659Y-39804659D01*
X12095078Y-39911004D01*
X12095076Y-39911005D01*
X11947242Y-39990024D01*
X11786823Y-40038687D01*
X11661804Y-40051000D01*
X11578196Y-40051000D01*
X11453177Y-40038687D01*
X11292758Y-39990024D01*
X11144924Y-39911005D01*
X11144922Y-39911004D01*
X11015341Y-39804659D01*
X10908996Y-39675078D01*
X10900886Y-39659906D01*
X10829976Y-39527242D01*
X10781313Y-39366823D01*
X10764883Y-39200000D01*
X10781313Y-39033177D01*
X10829976Y-38872758D01*
X10908995Y-38724924D01*
X10908996Y-38724922D01*
X11015341Y-38595341D01*
X11144922Y-38488996D01*
X11160094Y-38480886D01*
X11292758Y-38409976D01*
X11453177Y-38361313D01*
X11578196Y-38349000D01*
X11661804Y-38349000D01*
X11786823Y-38361313D01*
X11786823Y-38361313D01*
G37*
G36*
X4166823Y-38361313D02*
G01*
X4327242Y-38409976D01*
X4459906Y-38480886D01*
X4475078Y-38488996D01*
X4604659Y-38595341D01*
X4711004Y-38724922D01*
X4711005Y-38724924D01*
X4790024Y-38872758D01*
X4838687Y-39033177D01*
X4855117Y-39200000D01*
X4838687Y-39366823D01*
X4790024Y-39527242D01*
X4719114Y-39659906D01*
X4711004Y-39675078D01*
X4604659Y-39804659D01*
X4475078Y-39911004D01*
X4475076Y-39911005D01*
X4327242Y-39990024D01*
X4166823Y-40038687D01*
X4041804Y-40051000D01*
X3958196Y-40051000D01*
X3833177Y-40038687D01*
X3672758Y-39990024D01*
X3524924Y-39911005D01*
X3524922Y-39911004D01*
X3395341Y-39804659D01*
X3288996Y-39675078D01*
X3280886Y-39659906D01*
X3209976Y-39527242D01*
X3161313Y-39366823D01*
X3144883Y-39200000D01*
X3161313Y-39033177D01*
X3209976Y-38872758D01*
X3288995Y-38724924D01*
X3288996Y-38724922D01*
X3395341Y-38595341D01*
X3524922Y-38488996D01*
X3540094Y-38480886D01*
X3672758Y-38409976D01*
X3833177Y-38361313D01*
X3958196Y-38349000D01*
X4041804Y-38349000D01*
X4166823Y-38361313D01*
X4166823Y-38361313D01*
G37*
G36*
X11786823Y-35821313D02*
G01*
X11947242Y-35869976D01*
X12079906Y-35940886D01*
X12095078Y-35948996D01*
X12224659Y-36055341D01*
X12331004Y-36184922D01*
X12331005Y-36184924D01*
X12410024Y-36332758D01*
X12458687Y-36493177D01*
X12475117Y-36660000D01*
X12458687Y-36826823D01*
X12410024Y-36987242D01*
X12339114Y-37119906D01*
X12331004Y-37135078D01*
X12224659Y-37264659D01*
X12095078Y-37371004D01*
X12095076Y-37371005D01*
X11947242Y-37450024D01*
X11786823Y-37498687D01*
X11661804Y-37511000D01*
X11578196Y-37511000D01*
X11453177Y-37498687D01*
X11292758Y-37450024D01*
X11144924Y-37371005D01*
X11144922Y-37371004D01*
X11015341Y-37264659D01*
X10908996Y-37135078D01*
X10900886Y-37119906D01*
X10829976Y-36987242D01*
X10781313Y-36826823D01*
X10764883Y-36660000D01*
X10781313Y-36493177D01*
X10829976Y-36332758D01*
X10908995Y-36184924D01*
X10908996Y-36184922D01*
X11015341Y-36055341D01*
X11144922Y-35948996D01*
X11160094Y-35940886D01*
X11292758Y-35869976D01*
X11453177Y-35821313D01*
X11578196Y-35809000D01*
X11661804Y-35809000D01*
X11786823Y-35821313D01*
X11786823Y-35821313D01*
G37*
G36*
X4166823Y-35821313D02*
G01*
X4327242Y-35869976D01*
X4459906Y-35940886D01*
X4475078Y-35948996D01*
X4604659Y-36055341D01*
X4711004Y-36184922D01*
X4711005Y-36184924D01*
X4790024Y-36332758D01*
X4838687Y-36493177D01*
X4855117Y-36660000D01*
X4838687Y-36826823D01*
X4790024Y-36987242D01*
X4719114Y-37119906D01*
X4711004Y-37135078D01*
X4604659Y-37264659D01*
X4475078Y-37371004D01*
X4475076Y-37371005D01*
X4327242Y-37450024D01*
X4166823Y-37498687D01*
X4041804Y-37511000D01*
X3958196Y-37511000D01*
X3833177Y-37498687D01*
X3672758Y-37450024D01*
X3524924Y-37371005D01*
X3524922Y-37371004D01*
X3395341Y-37264659D01*
X3288996Y-37135078D01*
X3280886Y-37119906D01*
X3209976Y-36987242D01*
X3161313Y-36826823D01*
X3144883Y-36660000D01*
X3161313Y-36493177D01*
X3209976Y-36332758D01*
X3288995Y-36184924D01*
X3288996Y-36184922D01*
X3395341Y-36055341D01*
X3524922Y-35948996D01*
X3540094Y-35940886D01*
X3672758Y-35869976D01*
X3833177Y-35821313D01*
X3958196Y-35809000D01*
X4041804Y-35809000D01*
X4166823Y-35821313D01*
X4166823Y-35821313D01*
G37*
G36*
X22166823Y-34041313D02*
G01*
X22327242Y-34089976D01*
X22459906Y-34160886D01*
X22475078Y-34168996D01*
X22604659Y-34275341D01*
X22711004Y-34404922D01*
X22711005Y-34404924D01*
X22790024Y-34552758D01*
X22838687Y-34713177D01*
X22855117Y-34880000D01*
X22838687Y-35046823D01*
X22790024Y-35207242D01*
X22719114Y-35339906D01*
X22711004Y-35355078D01*
X22604659Y-35484659D01*
X22475078Y-35591004D01*
X22475076Y-35591005D01*
X22327242Y-35670024D01*
X22166823Y-35718687D01*
X22041804Y-35731000D01*
X21958196Y-35731000D01*
X21833177Y-35718687D01*
X21672758Y-35670024D01*
X21524924Y-35591005D01*
X21524922Y-35591004D01*
X21395341Y-35484659D01*
X21288996Y-35355078D01*
X21280886Y-35339906D01*
X21209976Y-35207242D01*
X21161313Y-35046823D01*
X21144883Y-34880000D01*
X21161313Y-34713177D01*
X21209976Y-34552758D01*
X21288995Y-34404924D01*
X21288996Y-34404922D01*
X21395341Y-34275341D01*
X21524922Y-34168996D01*
X21540094Y-34160886D01*
X21672758Y-34089976D01*
X21833177Y-34041313D01*
X21958196Y-34029000D01*
X22041804Y-34029000D01*
X22166823Y-34041313D01*
X22166823Y-34041313D01*
G37*
G36*
X19166823Y-34041313D02*
G01*
X19327242Y-34089976D01*
X19459906Y-34160886D01*
X19475078Y-34168996D01*
X19604659Y-34275341D01*
X19711004Y-34404922D01*
X19711005Y-34404924D01*
X19790024Y-34552758D01*
X19838687Y-34713177D01*
X19855117Y-34880000D01*
X19838687Y-35046823D01*
X19790024Y-35207242D01*
X19719114Y-35339906D01*
X19711004Y-35355078D01*
X19604659Y-35484659D01*
X19475078Y-35591004D01*
X19475076Y-35591005D01*
X19327242Y-35670024D01*
X19166823Y-35718687D01*
X19041804Y-35731000D01*
X18958196Y-35731000D01*
X18833177Y-35718687D01*
X18672758Y-35670024D01*
X18524924Y-35591005D01*
X18524922Y-35591004D01*
X18395341Y-35484659D01*
X18288996Y-35355078D01*
X18280886Y-35339906D01*
X18209976Y-35207242D01*
X18161313Y-35046823D01*
X18144883Y-34880000D01*
X18161313Y-34713177D01*
X18209976Y-34552758D01*
X18288995Y-34404924D01*
X18288996Y-34404922D01*
X18395341Y-34275341D01*
X18524922Y-34168996D01*
X18540094Y-34160886D01*
X18672758Y-34089976D01*
X18833177Y-34041313D01*
X18958196Y-34029000D01*
X19041804Y-34029000D01*
X19166823Y-34041313D01*
X19166823Y-34041313D01*
G37*
G36*
X16166823Y-34041313D02*
G01*
X16327242Y-34089976D01*
X16459906Y-34160886D01*
X16475078Y-34168996D01*
X16604659Y-34275341D01*
X16711004Y-34404922D01*
X16711005Y-34404924D01*
X16790024Y-34552758D01*
X16838687Y-34713177D01*
X16855117Y-34880000D01*
X16838687Y-35046823D01*
X16790024Y-35207242D01*
X16719114Y-35339906D01*
X16711004Y-35355078D01*
X16604659Y-35484659D01*
X16475078Y-35591004D01*
X16475076Y-35591005D01*
X16327242Y-35670024D01*
X16166823Y-35718687D01*
X16041804Y-35731000D01*
X15958196Y-35731000D01*
X15833177Y-35718687D01*
X15672758Y-35670024D01*
X15524924Y-35591005D01*
X15524922Y-35591004D01*
X15395341Y-35484659D01*
X15288996Y-35355078D01*
X15280886Y-35339906D01*
X15209976Y-35207242D01*
X15161313Y-35046823D01*
X15144883Y-34880000D01*
X15161313Y-34713177D01*
X15209976Y-34552758D01*
X15288995Y-34404924D01*
X15288996Y-34404922D01*
X15395341Y-34275341D01*
X15524922Y-34168996D01*
X15540094Y-34160886D01*
X15672758Y-34089976D01*
X15833177Y-34041313D01*
X15958196Y-34029000D01*
X16041804Y-34029000D01*
X16166823Y-34041313D01*
X16166823Y-34041313D01*
G37*
G36*
X25166823Y-34041313D02*
G01*
X25327242Y-34089976D01*
X25459906Y-34160886D01*
X25475078Y-34168996D01*
X25604659Y-34275341D01*
X25711004Y-34404922D01*
X25711005Y-34404924D01*
X25790024Y-34552758D01*
X25838687Y-34713177D01*
X25855117Y-34880000D01*
X25838687Y-35046823D01*
X25790024Y-35207242D01*
X25719114Y-35339906D01*
X25711004Y-35355078D01*
X25604659Y-35484659D01*
X25475078Y-35591004D01*
X25475076Y-35591005D01*
X25327242Y-35670024D01*
X25166823Y-35718687D01*
X25041804Y-35731000D01*
X24958196Y-35731000D01*
X24833177Y-35718687D01*
X24672758Y-35670024D01*
X24524924Y-35591005D01*
X24524922Y-35591004D01*
X24395341Y-35484659D01*
X24288996Y-35355078D01*
X24280886Y-35339906D01*
X24209976Y-35207242D01*
X24161313Y-35046823D01*
X24144883Y-34880000D01*
X24161313Y-34713177D01*
X24209976Y-34552758D01*
X24288995Y-34404924D01*
X24288996Y-34404922D01*
X24395341Y-34275341D01*
X24524922Y-34168996D01*
X24540094Y-34160886D01*
X24672758Y-34089976D01*
X24833177Y-34041313D01*
X24958196Y-34029000D01*
X25041804Y-34029000D01*
X25166823Y-34041313D01*
X25166823Y-34041313D01*
G37*
G36*
X71777395Y-33625546D02*
G01*
X71950466Y-33697234D01*
X71950467Y-33697235D01*
X72106227Y-33801310D01*
X72238690Y-33933773D01*
X72238691Y-33933775D01*
X72342766Y-34089534D01*
X72414454Y-34262605D01*
X72451000Y-34446333D01*
X72451000Y-34633667D01*
X72414454Y-34817395D01*
X72342766Y-34990466D01*
X72342765Y-34990467D01*
X72238690Y-35146227D01*
X72106227Y-35278690D01*
X72027818Y-35331081D01*
X71950466Y-35382766D01*
X71777395Y-35454454D01*
X71593667Y-35491000D01*
X71406333Y-35491000D01*
X71222605Y-35454454D01*
X71049534Y-35382766D01*
X70972182Y-35331081D01*
X70893773Y-35278690D01*
X70761310Y-35146227D01*
X70657235Y-34990467D01*
X70657234Y-34990466D01*
X70585546Y-34817395D01*
X70549000Y-34633667D01*
X70549000Y-34446333D01*
X70585546Y-34262605D01*
X70657234Y-34089534D01*
X70761309Y-33933775D01*
X70761310Y-33933773D01*
X70893773Y-33801310D01*
X71049533Y-33697235D01*
X71049534Y-33697234D01*
X71222605Y-33625546D01*
X71406333Y-33589000D01*
X71593667Y-33589000D01*
X71777395Y-33625546D01*
X71777395Y-33625546D01*
G37*
G36*
X4166823Y-33281313D02*
G01*
X4327242Y-33329976D01*
X4459906Y-33400886D01*
X4475078Y-33408996D01*
X4604659Y-33515341D01*
X4711004Y-33644922D01*
X4711005Y-33644924D01*
X4790024Y-33792758D01*
X4838687Y-33953177D01*
X4855117Y-34120000D01*
X4838687Y-34286823D01*
X4790024Y-34447242D01*
X4733624Y-34552758D01*
X4711004Y-34595078D01*
X4604659Y-34724659D01*
X4475078Y-34831004D01*
X4475076Y-34831005D01*
X4327242Y-34910024D01*
X4166823Y-34958687D01*
X4041804Y-34971000D01*
X3958196Y-34971000D01*
X3833177Y-34958687D01*
X3672758Y-34910024D01*
X3524924Y-34831005D01*
X3524922Y-34831004D01*
X3395341Y-34724659D01*
X3288996Y-34595078D01*
X3266376Y-34552758D01*
X3209976Y-34447242D01*
X3161313Y-34286823D01*
X3144883Y-34120000D01*
X3161313Y-33953177D01*
X3209976Y-33792758D01*
X3288995Y-33644924D01*
X3288996Y-33644922D01*
X3395341Y-33515341D01*
X3524922Y-33408996D01*
X3540094Y-33400886D01*
X3672758Y-33329976D01*
X3833177Y-33281313D01*
X3958196Y-33269000D01*
X4041804Y-33269000D01*
X4166823Y-33281313D01*
X4166823Y-33281313D01*
G37*
G36*
X11786823Y-33281313D02*
G01*
X11947242Y-33329976D01*
X12079906Y-33400886D01*
X12095078Y-33408996D01*
X12224659Y-33515341D01*
X12331004Y-33644922D01*
X12331005Y-33644924D01*
X12410024Y-33792758D01*
X12458687Y-33953177D01*
X12475117Y-34120000D01*
X12458687Y-34286823D01*
X12410024Y-34447242D01*
X12353624Y-34552758D01*
X12331004Y-34595078D01*
X12224659Y-34724659D01*
X12095078Y-34831004D01*
X12095076Y-34831005D01*
X11947242Y-34910024D01*
X11786823Y-34958687D01*
X11661804Y-34971000D01*
X11578196Y-34971000D01*
X11453177Y-34958687D01*
X11292758Y-34910024D01*
X11144924Y-34831005D01*
X11144922Y-34831004D01*
X11015341Y-34724659D01*
X10908996Y-34595078D01*
X10886376Y-34552758D01*
X10829976Y-34447242D01*
X10781313Y-34286823D01*
X10764883Y-34120000D01*
X10781313Y-33953177D01*
X10829976Y-33792758D01*
X10908995Y-33644924D01*
X10908996Y-33644922D01*
X11015341Y-33515341D01*
X11144922Y-33408996D01*
X11160094Y-33400886D01*
X11292758Y-33329976D01*
X11453177Y-33281313D01*
X11578196Y-33269000D01*
X11661804Y-33269000D01*
X11786823Y-33281313D01*
X11786823Y-33281313D01*
G37*
G36*
X37416823Y-31791313D02*
G01*
X37577242Y-31839976D01*
X37703082Y-31907239D01*
X37725078Y-31918996D01*
X37854659Y-32025341D01*
X37961004Y-32154922D01*
X37961005Y-32154924D01*
X38040024Y-32302758D01*
X38088687Y-32463177D01*
X38105117Y-32630000D01*
X38088687Y-32796823D01*
X38040024Y-32957242D01*
X37969114Y-33089906D01*
X37961004Y-33105078D01*
X37854659Y-33234659D01*
X37725078Y-33341004D01*
X37725076Y-33341005D01*
X37577242Y-33420024D01*
X37416823Y-33468687D01*
X37291804Y-33481000D01*
X37208196Y-33481000D01*
X37083177Y-33468687D01*
X36922758Y-33420024D01*
X36774924Y-33341005D01*
X36774922Y-33341004D01*
X36645341Y-33234659D01*
X36538996Y-33105078D01*
X36530886Y-33089906D01*
X36459976Y-32957242D01*
X36411313Y-32796823D01*
X36394883Y-32630000D01*
X36411313Y-32463177D01*
X36459976Y-32302758D01*
X36538995Y-32154924D01*
X36538996Y-32154922D01*
X36645341Y-32025341D01*
X36774922Y-31918996D01*
X36796918Y-31907239D01*
X36922758Y-31839976D01*
X37083177Y-31791313D01*
X37208196Y-31779000D01*
X37291804Y-31779000D01*
X37416823Y-31791313D01*
X37416823Y-31791313D01*
G37*
G36*
X40416823Y-31791313D02*
G01*
X40577242Y-31839976D01*
X40703082Y-31907239D01*
X40725078Y-31918996D01*
X40854659Y-32025341D01*
X40961004Y-32154922D01*
X40961005Y-32154924D01*
X41040024Y-32302758D01*
X41088687Y-32463177D01*
X41105117Y-32630000D01*
X41088687Y-32796823D01*
X41040024Y-32957242D01*
X40969114Y-33089906D01*
X40961004Y-33105078D01*
X40854659Y-33234659D01*
X40725078Y-33341004D01*
X40725076Y-33341005D01*
X40577242Y-33420024D01*
X40416823Y-33468687D01*
X40291804Y-33481000D01*
X40208196Y-33481000D01*
X40083177Y-33468687D01*
X39922758Y-33420024D01*
X39774924Y-33341005D01*
X39774922Y-33341004D01*
X39645341Y-33234659D01*
X39538996Y-33105078D01*
X39530886Y-33089906D01*
X39459976Y-32957242D01*
X39411313Y-32796823D01*
X39394883Y-32630000D01*
X39411313Y-32463177D01*
X39459976Y-32302758D01*
X39538995Y-32154924D01*
X39538996Y-32154922D01*
X39645341Y-32025341D01*
X39774922Y-31918996D01*
X39796918Y-31907239D01*
X39922758Y-31839976D01*
X40083177Y-31791313D01*
X40208196Y-31779000D01*
X40291804Y-31779000D01*
X40416823Y-31791313D01*
X40416823Y-31791313D01*
G37*
G36*
X34416823Y-31791313D02*
G01*
X34577242Y-31839976D01*
X34703082Y-31907239D01*
X34725078Y-31918996D01*
X34854659Y-32025341D01*
X34961004Y-32154922D01*
X34961005Y-32154924D01*
X35040024Y-32302758D01*
X35088687Y-32463177D01*
X35105117Y-32630000D01*
X35088687Y-32796823D01*
X35040024Y-32957242D01*
X34969114Y-33089906D01*
X34961004Y-33105078D01*
X34854659Y-33234659D01*
X34725078Y-33341004D01*
X34725076Y-33341005D01*
X34577242Y-33420024D01*
X34416823Y-33468687D01*
X34291804Y-33481000D01*
X34208196Y-33481000D01*
X34083177Y-33468687D01*
X33922758Y-33420024D01*
X33774924Y-33341005D01*
X33774922Y-33341004D01*
X33645341Y-33234659D01*
X33538996Y-33105078D01*
X33530886Y-33089906D01*
X33459976Y-32957242D01*
X33411313Y-32796823D01*
X33394883Y-32630000D01*
X33411313Y-32463177D01*
X33459976Y-32302758D01*
X33538995Y-32154924D01*
X33538996Y-32154922D01*
X33645341Y-32025341D01*
X33774922Y-31918996D01*
X33796918Y-31907239D01*
X33922758Y-31839976D01*
X34083177Y-31791313D01*
X34208196Y-31779000D01*
X34291804Y-31779000D01*
X34416823Y-31791313D01*
X34416823Y-31791313D01*
G37*
G36*
X43416823Y-31791313D02*
G01*
X43577242Y-31839976D01*
X43703082Y-31907239D01*
X43725078Y-31918996D01*
X43854659Y-32025341D01*
X43961004Y-32154922D01*
X43961005Y-32154924D01*
X44040024Y-32302758D01*
X44088687Y-32463177D01*
X44105117Y-32630000D01*
X44088687Y-32796823D01*
X44040024Y-32957242D01*
X43969114Y-33089906D01*
X43961004Y-33105078D01*
X43854659Y-33234659D01*
X43725078Y-33341004D01*
X43725076Y-33341005D01*
X43577242Y-33420024D01*
X43416823Y-33468687D01*
X43291804Y-33481000D01*
X43208196Y-33481000D01*
X43083177Y-33468687D01*
X42922758Y-33420024D01*
X42774924Y-33341005D01*
X42774922Y-33341004D01*
X42645341Y-33234659D01*
X42538996Y-33105078D01*
X42530886Y-33089906D01*
X42459976Y-32957242D01*
X42411313Y-32796823D01*
X42394883Y-32630000D01*
X42411313Y-32463177D01*
X42459976Y-32302758D01*
X42538995Y-32154924D01*
X42538996Y-32154922D01*
X42645341Y-32025341D01*
X42774922Y-31918996D01*
X42796918Y-31907239D01*
X42922758Y-31839976D01*
X43083177Y-31791313D01*
X43208196Y-31779000D01*
X43291804Y-31779000D01*
X43416823Y-31791313D01*
X43416823Y-31791313D01*
G37*
G36*
X28416823Y-31791313D02*
G01*
X28577242Y-31839976D01*
X28703082Y-31907239D01*
X28725078Y-31918996D01*
X28854659Y-32025341D01*
X28961004Y-32154922D01*
X28961005Y-32154924D01*
X29040024Y-32302758D01*
X29088687Y-32463177D01*
X29105117Y-32630000D01*
X29088687Y-32796823D01*
X29040024Y-32957242D01*
X28969114Y-33089906D01*
X28961004Y-33105078D01*
X28854659Y-33234659D01*
X28725078Y-33341004D01*
X28725076Y-33341005D01*
X28577242Y-33420024D01*
X28416823Y-33468687D01*
X28291804Y-33481000D01*
X28208196Y-33481000D01*
X28083177Y-33468687D01*
X27922758Y-33420024D01*
X27774924Y-33341005D01*
X27774922Y-33341004D01*
X27645341Y-33234659D01*
X27538996Y-33105078D01*
X27530886Y-33089906D01*
X27459976Y-32957242D01*
X27411313Y-32796823D01*
X27394883Y-32630000D01*
X27411313Y-32463177D01*
X27459976Y-32302758D01*
X27538995Y-32154924D01*
X27538996Y-32154922D01*
X27645341Y-32025341D01*
X27774922Y-31918996D01*
X27796918Y-31907239D01*
X27922758Y-31839976D01*
X28083177Y-31791313D01*
X28208196Y-31779000D01*
X28291804Y-31779000D01*
X28416823Y-31791313D01*
X28416823Y-31791313D01*
G37*
G36*
X31416823Y-31791313D02*
G01*
X31577242Y-31839976D01*
X31703082Y-31907239D01*
X31725078Y-31918996D01*
X31854659Y-32025341D01*
X31961004Y-32154922D01*
X31961005Y-32154924D01*
X32040024Y-32302758D01*
X32088687Y-32463177D01*
X32105117Y-32630000D01*
X32088687Y-32796823D01*
X32040024Y-32957242D01*
X31969114Y-33089906D01*
X31961004Y-33105078D01*
X31854659Y-33234659D01*
X31725078Y-33341004D01*
X31725076Y-33341005D01*
X31577242Y-33420024D01*
X31416823Y-33468687D01*
X31291804Y-33481000D01*
X31208196Y-33481000D01*
X31083177Y-33468687D01*
X30922758Y-33420024D01*
X30774924Y-33341005D01*
X30774922Y-33341004D01*
X30645341Y-33234659D01*
X30538996Y-33105078D01*
X30530886Y-33089906D01*
X30459976Y-32957242D01*
X30411313Y-32796823D01*
X30394883Y-32630000D01*
X30411313Y-32463177D01*
X30459976Y-32302758D01*
X30538995Y-32154924D01*
X30538996Y-32154922D01*
X30645341Y-32025341D01*
X30774922Y-31918996D01*
X30796918Y-31907239D01*
X30922758Y-31839976D01*
X31083177Y-31791313D01*
X31208196Y-31779000D01*
X31291804Y-31779000D01*
X31416823Y-31791313D01*
X31416823Y-31791313D01*
G37*
G36*
X72451000Y-32951000D02*
G01*
X70549000Y-32951000D01*
X70549000Y-31049000D01*
X72451000Y-31049000D01*
X72451000Y-32951000D01*
X72451000Y-32951000D01*
G37*
G36*
X23786823Y-30781313D02*
G01*
X23947242Y-30829976D01*
X24020241Y-30868995D01*
X24095078Y-30908996D01*
X24224659Y-31015341D01*
X24331004Y-31144922D01*
X24331005Y-31144924D01*
X24410024Y-31292758D01*
X24458687Y-31453177D01*
X24475117Y-31620000D01*
X24458687Y-31786823D01*
X24410024Y-31947242D01*
X24368279Y-32025341D01*
X24331004Y-32095078D01*
X24224659Y-32224659D01*
X24095078Y-32331004D01*
X24095076Y-32331005D01*
X23947242Y-32410024D01*
X23786823Y-32458687D01*
X23661804Y-32471000D01*
X23578196Y-32471000D01*
X23453177Y-32458687D01*
X23292758Y-32410024D01*
X23144924Y-32331005D01*
X23144922Y-32331004D01*
X23015341Y-32224659D01*
X22908996Y-32095078D01*
X22871721Y-32025341D01*
X22829976Y-31947242D01*
X22781313Y-31786823D01*
X22764883Y-31620000D01*
X22781313Y-31453177D01*
X22829976Y-31292758D01*
X22908995Y-31144924D01*
X22908996Y-31144922D01*
X23015341Y-31015341D01*
X23144922Y-30908996D01*
X23219759Y-30868995D01*
X23292758Y-30829976D01*
X23453177Y-30781313D01*
X23578196Y-30769000D01*
X23661804Y-30769000D01*
X23786823Y-30781313D01*
X23786823Y-30781313D01*
G37*
G36*
X16166823Y-30781313D02*
G01*
X16327242Y-30829976D01*
X16400241Y-30868995D01*
X16475078Y-30908996D01*
X16604659Y-31015341D01*
X16711004Y-31144922D01*
X16711005Y-31144924D01*
X16790024Y-31292758D01*
X16838687Y-31453177D01*
X16855117Y-31620000D01*
X16838687Y-31786823D01*
X16790024Y-31947242D01*
X16748279Y-32025341D01*
X16711004Y-32095078D01*
X16604659Y-32224659D01*
X16475078Y-32331004D01*
X16475076Y-32331005D01*
X16327242Y-32410024D01*
X16166823Y-32458687D01*
X16041804Y-32471000D01*
X15958196Y-32471000D01*
X15833177Y-32458687D01*
X15672758Y-32410024D01*
X15524924Y-32331005D01*
X15524922Y-32331004D01*
X15395341Y-32224659D01*
X15288996Y-32095078D01*
X15251721Y-32025341D01*
X15209976Y-31947242D01*
X15161313Y-31786823D01*
X15144883Y-31620000D01*
X15161313Y-31453177D01*
X15209976Y-31292758D01*
X15288995Y-31144924D01*
X15288996Y-31144922D01*
X15395341Y-31015341D01*
X15524922Y-30908996D01*
X15599759Y-30868995D01*
X15672758Y-30829976D01*
X15833177Y-30781313D01*
X15958196Y-30769000D01*
X16041804Y-30769000D01*
X16166823Y-30781313D01*
X16166823Y-30781313D01*
G37*
G36*
X4166823Y-30741313D02*
G01*
X4327242Y-30789976D01*
X4459906Y-30860886D01*
X4475078Y-30868996D01*
X4604659Y-30975341D01*
X4711004Y-31104922D01*
X4711005Y-31104924D01*
X4790024Y-31252758D01*
X4838687Y-31413177D01*
X4855117Y-31580000D01*
X4838687Y-31746823D01*
X4790024Y-31907242D01*
X4726899Y-32025341D01*
X4711004Y-32055078D01*
X4604659Y-32184659D01*
X4475078Y-32291004D01*
X4475076Y-32291005D01*
X4327242Y-32370024D01*
X4166823Y-32418687D01*
X4041804Y-32431000D01*
X3958196Y-32431000D01*
X3833177Y-32418687D01*
X3672758Y-32370024D01*
X3524924Y-32291005D01*
X3524922Y-32291004D01*
X3395341Y-32184659D01*
X3288996Y-32055078D01*
X3273101Y-32025341D01*
X3209976Y-31907242D01*
X3161313Y-31746823D01*
X3144883Y-31580000D01*
X3161313Y-31413177D01*
X3209976Y-31252758D01*
X3288995Y-31104924D01*
X3288996Y-31104922D01*
X3395341Y-30975341D01*
X3524922Y-30868996D01*
X3540094Y-30860886D01*
X3672758Y-30789976D01*
X3833177Y-30741313D01*
X3958196Y-30729000D01*
X4041804Y-30729000D01*
X4166823Y-30741313D01*
X4166823Y-30741313D01*
G37*
G36*
X11786823Y-30741313D02*
G01*
X11947242Y-30789976D01*
X12079906Y-30860886D01*
X12095078Y-30868996D01*
X12224659Y-30975341D01*
X12331004Y-31104922D01*
X12331005Y-31104924D01*
X12410024Y-31252758D01*
X12458687Y-31413177D01*
X12475117Y-31580000D01*
X12458687Y-31746823D01*
X12410024Y-31907242D01*
X12346899Y-32025341D01*
X12331004Y-32055078D01*
X12224659Y-32184659D01*
X12095078Y-32291004D01*
X12095076Y-32291005D01*
X11947242Y-32370024D01*
X11786823Y-32418687D01*
X11661804Y-32431000D01*
X11578196Y-32431000D01*
X11453177Y-32418687D01*
X11292758Y-32370024D01*
X11144924Y-32291005D01*
X11144922Y-32291004D01*
X11015341Y-32184659D01*
X10908996Y-32055078D01*
X10893101Y-32025341D01*
X10829976Y-31907242D01*
X10781313Y-31746823D01*
X10764883Y-31580000D01*
X10781313Y-31413177D01*
X10829976Y-31252758D01*
X10908995Y-31104924D01*
X10908996Y-31104922D01*
X11015341Y-30975341D01*
X11144922Y-30868996D01*
X11160094Y-30860886D01*
X11292758Y-30789976D01*
X11453177Y-30741313D01*
X11578196Y-30729000D01*
X11661804Y-30729000D01*
X11786823Y-30741313D01*
X11786823Y-30741313D01*
G37*
G36*
X28498228Y-28931703D02*
G01*
X28653100Y-28995853D01*
X28792481Y-29088985D01*
X28911015Y-29207519D01*
X29004147Y-29346900D01*
X29068297Y-29501772D01*
X29101000Y-29666184D01*
X29101000Y-29833816D01*
X29068297Y-29998228D01*
X29004147Y-30153100D01*
X28911015Y-30292481D01*
X28792481Y-30411015D01*
X28653100Y-30504147D01*
X28498228Y-30568297D01*
X28333816Y-30601000D01*
X28166184Y-30601000D01*
X28001772Y-30568297D01*
X27846900Y-30504147D01*
X27707519Y-30411015D01*
X27588985Y-30292481D01*
X27495853Y-30153100D01*
X27431703Y-29998228D01*
X27399000Y-29833816D01*
X27399000Y-29666184D01*
X27431703Y-29501772D01*
X27495853Y-29346900D01*
X27588985Y-29207519D01*
X27707519Y-29088985D01*
X27846900Y-28995853D01*
X28001772Y-28931703D01*
X28166184Y-28899000D01*
X28333816Y-28899000D01*
X28498228Y-28931703D01*
X28498228Y-28931703D01*
G37*
G36*
X34498228Y-28931703D02*
G01*
X34653100Y-28995853D01*
X34792481Y-29088985D01*
X34911015Y-29207519D01*
X35004147Y-29346900D01*
X35068297Y-29501772D01*
X35101000Y-29666184D01*
X35101000Y-29833816D01*
X35068297Y-29998228D01*
X35004147Y-30153100D01*
X34911015Y-30292481D01*
X34792481Y-30411015D01*
X34653100Y-30504147D01*
X34498228Y-30568297D01*
X34333816Y-30601000D01*
X34166184Y-30601000D01*
X34001772Y-30568297D01*
X33846900Y-30504147D01*
X33707519Y-30411015D01*
X33588985Y-30292481D01*
X33495853Y-30153100D01*
X33431703Y-29998228D01*
X33399000Y-29833816D01*
X33399000Y-29666184D01*
X33431703Y-29501772D01*
X33495853Y-29346900D01*
X33588985Y-29207519D01*
X33707519Y-29088985D01*
X33846900Y-28995853D01*
X34001772Y-28931703D01*
X34166184Y-28899000D01*
X34333816Y-28899000D01*
X34498228Y-28931703D01*
X34498228Y-28931703D01*
G37*
G36*
X31498228Y-28931703D02*
G01*
X31653100Y-28995853D01*
X31792481Y-29088985D01*
X31911015Y-29207519D01*
X32004147Y-29346900D01*
X32068297Y-29501772D01*
X32101000Y-29666184D01*
X32101000Y-29833816D01*
X32068297Y-29998228D01*
X32004147Y-30153100D01*
X31911015Y-30292481D01*
X31792481Y-30411015D01*
X31653100Y-30504147D01*
X31498228Y-30568297D01*
X31333816Y-30601000D01*
X31166184Y-30601000D01*
X31001772Y-30568297D01*
X30846900Y-30504147D01*
X30707519Y-30411015D01*
X30588985Y-30292481D01*
X30495853Y-30153100D01*
X30431703Y-29998228D01*
X30399000Y-29833816D01*
X30399000Y-29666184D01*
X30431703Y-29501772D01*
X30495853Y-29346900D01*
X30588985Y-29207519D01*
X30707519Y-29088985D01*
X30846900Y-28995853D01*
X31001772Y-28931703D01*
X31166184Y-28899000D01*
X31333816Y-28899000D01*
X31498228Y-28931703D01*
X31498228Y-28931703D01*
G37*
G36*
X37498228Y-28931703D02*
G01*
X37653100Y-28995853D01*
X37792481Y-29088985D01*
X37911015Y-29207519D01*
X38004147Y-29346900D01*
X38068297Y-29501772D01*
X38101000Y-29666184D01*
X38101000Y-29833816D01*
X38068297Y-29998228D01*
X38004147Y-30153100D01*
X37911015Y-30292481D01*
X37792481Y-30411015D01*
X37653100Y-30504147D01*
X37498228Y-30568297D01*
X37333816Y-30601000D01*
X37166184Y-30601000D01*
X37001772Y-30568297D01*
X36846900Y-30504147D01*
X36707519Y-30411015D01*
X36588985Y-30292481D01*
X36495853Y-30153100D01*
X36431703Y-29998228D01*
X36399000Y-29833816D01*
X36399000Y-29666184D01*
X36431703Y-29501772D01*
X36495853Y-29346900D01*
X36588985Y-29207519D01*
X36707519Y-29088985D01*
X36846900Y-28995853D01*
X37001772Y-28931703D01*
X37166184Y-28899000D01*
X37333816Y-28899000D01*
X37498228Y-28931703D01*
X37498228Y-28931703D01*
G37*
G36*
X16166823Y-28241313D02*
G01*
X16327242Y-28289976D01*
X16400241Y-28328995D01*
X16475078Y-28368996D01*
X16604659Y-28475341D01*
X16711004Y-28604922D01*
X16711005Y-28604924D01*
X16790024Y-28752758D01*
X16838687Y-28913177D01*
X16855117Y-29080000D01*
X16838687Y-29246823D01*
X16790024Y-29407242D01*
X16732385Y-29515076D01*
X16711004Y-29555078D01*
X16604659Y-29684659D01*
X16475078Y-29791004D01*
X16475076Y-29791005D01*
X16327242Y-29870024D01*
X16166823Y-29918687D01*
X16041804Y-29931000D01*
X15958196Y-29931000D01*
X15833177Y-29918687D01*
X15672758Y-29870024D01*
X15524924Y-29791005D01*
X15524922Y-29791004D01*
X15395341Y-29684659D01*
X15288996Y-29555078D01*
X15267615Y-29515076D01*
X15209976Y-29407242D01*
X15161313Y-29246823D01*
X15144883Y-29080000D01*
X15161313Y-28913177D01*
X15209976Y-28752758D01*
X15288995Y-28604924D01*
X15288996Y-28604922D01*
X15395341Y-28475341D01*
X15524922Y-28368996D01*
X15599759Y-28328995D01*
X15672758Y-28289976D01*
X15833177Y-28241313D01*
X15958196Y-28229000D01*
X16041804Y-28229000D01*
X16166823Y-28241313D01*
X16166823Y-28241313D01*
G37*
G36*
X23786823Y-28241313D02*
G01*
X23947242Y-28289976D01*
X24020241Y-28328995D01*
X24095078Y-28368996D01*
X24224659Y-28475341D01*
X24331004Y-28604922D01*
X24331005Y-28604924D01*
X24410024Y-28752758D01*
X24458687Y-28913177D01*
X24475117Y-29080000D01*
X24458687Y-29246823D01*
X24410024Y-29407242D01*
X24352385Y-29515076D01*
X24331004Y-29555078D01*
X24224659Y-29684659D01*
X24095078Y-29791004D01*
X24095076Y-29791005D01*
X23947242Y-29870024D01*
X23786823Y-29918687D01*
X23661804Y-29931000D01*
X23578196Y-29931000D01*
X23453177Y-29918687D01*
X23292758Y-29870024D01*
X23144924Y-29791005D01*
X23144922Y-29791004D01*
X23015341Y-29684659D01*
X22908996Y-29555078D01*
X22887615Y-29515076D01*
X22829976Y-29407242D01*
X22781313Y-29246823D01*
X22764883Y-29080000D01*
X22781313Y-28913177D01*
X22829976Y-28752758D01*
X22908995Y-28604924D01*
X22908996Y-28604922D01*
X23015341Y-28475341D01*
X23144922Y-28368996D01*
X23219759Y-28328995D01*
X23292758Y-28289976D01*
X23453177Y-28241313D01*
X23578196Y-28229000D01*
X23661804Y-28229000D01*
X23786823Y-28241313D01*
X23786823Y-28241313D01*
G37*
G36*
X11786823Y-28201313D02*
G01*
X11947242Y-28249976D01*
X12079906Y-28320886D01*
X12095078Y-28328996D01*
X12224659Y-28435341D01*
X12331004Y-28564922D01*
X12331005Y-28564924D01*
X12410024Y-28712758D01*
X12458687Y-28873177D01*
X12475117Y-29040000D01*
X12458687Y-29206823D01*
X12410024Y-29367242D01*
X12339114Y-29499906D01*
X12331004Y-29515078D01*
X12224659Y-29644659D01*
X12095078Y-29751004D01*
X12095076Y-29751005D01*
X11947242Y-29830024D01*
X11786823Y-29878687D01*
X11661804Y-29891000D01*
X11578196Y-29891000D01*
X11453177Y-29878687D01*
X11292758Y-29830024D01*
X11144924Y-29751005D01*
X11144922Y-29751004D01*
X11015341Y-29644659D01*
X10908996Y-29515078D01*
X10900886Y-29499906D01*
X10829976Y-29367242D01*
X10781313Y-29206823D01*
X10764883Y-29040000D01*
X10781313Y-28873177D01*
X10829976Y-28712758D01*
X10908995Y-28564924D01*
X10908996Y-28564922D01*
X11015341Y-28435341D01*
X11144922Y-28328996D01*
X11160094Y-28320886D01*
X11292758Y-28249976D01*
X11453177Y-28201313D01*
X11578196Y-28189000D01*
X11661804Y-28189000D01*
X11786823Y-28201313D01*
X11786823Y-28201313D01*
G37*
G36*
X4166823Y-28201313D02*
G01*
X4327242Y-28249976D01*
X4459906Y-28320886D01*
X4475078Y-28328996D01*
X4604659Y-28435341D01*
X4711004Y-28564922D01*
X4711005Y-28564924D01*
X4790024Y-28712758D01*
X4838687Y-28873177D01*
X4855117Y-29040000D01*
X4838687Y-29206823D01*
X4790024Y-29367242D01*
X4719114Y-29499906D01*
X4711004Y-29515078D01*
X4604659Y-29644659D01*
X4475078Y-29751004D01*
X4475076Y-29751005D01*
X4327242Y-29830024D01*
X4166823Y-29878687D01*
X4041804Y-29891000D01*
X3958196Y-29891000D01*
X3833177Y-29878687D01*
X3672758Y-29830024D01*
X3524924Y-29751005D01*
X3524922Y-29751004D01*
X3395341Y-29644659D01*
X3288996Y-29515078D01*
X3280886Y-29499906D01*
X3209976Y-29367242D01*
X3161313Y-29206823D01*
X3144883Y-29040000D01*
X3161313Y-28873177D01*
X3209976Y-28712758D01*
X3288995Y-28564924D01*
X3288996Y-28564922D01*
X3395341Y-28435341D01*
X3524922Y-28328996D01*
X3540094Y-28320886D01*
X3672758Y-28249976D01*
X3833177Y-28201313D01*
X3958196Y-28189000D01*
X4041804Y-28189000D01*
X4166823Y-28201313D01*
X4166823Y-28201313D01*
G37*
G36*
X23786823Y-25701313D02*
G01*
X23947242Y-25749976D01*
X24020241Y-25788995D01*
X24095078Y-25828996D01*
X24224659Y-25935341D01*
X24331004Y-26064922D01*
X24331005Y-26064924D01*
X24410024Y-26212758D01*
X24458687Y-26373177D01*
X24475117Y-26540000D01*
X24458687Y-26706823D01*
X24410024Y-26867242D01*
X24352385Y-26975076D01*
X24331004Y-27015078D01*
X24224659Y-27144659D01*
X24095078Y-27251004D01*
X24095076Y-27251005D01*
X23947242Y-27330024D01*
X23786823Y-27378687D01*
X23661804Y-27391000D01*
X23578196Y-27391000D01*
X23453177Y-27378687D01*
X23292758Y-27330024D01*
X23144924Y-27251005D01*
X23144922Y-27251004D01*
X23015341Y-27144659D01*
X22908996Y-27015078D01*
X22887615Y-26975076D01*
X22829976Y-26867242D01*
X22781313Y-26706823D01*
X22764883Y-26540000D01*
X22781313Y-26373177D01*
X22829976Y-26212758D01*
X22908995Y-26064924D01*
X22908996Y-26064922D01*
X23015341Y-25935341D01*
X23144922Y-25828996D01*
X23219759Y-25788995D01*
X23292758Y-25749976D01*
X23453177Y-25701313D01*
X23578196Y-25689000D01*
X23661804Y-25689000D01*
X23786823Y-25701313D01*
X23786823Y-25701313D01*
G37*
G36*
X16166823Y-25701313D02*
G01*
X16327242Y-25749976D01*
X16400241Y-25788995D01*
X16475078Y-25828996D01*
X16604659Y-25935341D01*
X16711004Y-26064922D01*
X16711005Y-26064924D01*
X16790024Y-26212758D01*
X16838687Y-26373177D01*
X16855117Y-26540000D01*
X16838687Y-26706823D01*
X16790024Y-26867242D01*
X16732385Y-26975076D01*
X16711004Y-27015078D01*
X16604659Y-27144659D01*
X16475078Y-27251004D01*
X16475076Y-27251005D01*
X16327242Y-27330024D01*
X16166823Y-27378687D01*
X16041804Y-27391000D01*
X15958196Y-27391000D01*
X15833177Y-27378687D01*
X15672758Y-27330024D01*
X15524924Y-27251005D01*
X15524922Y-27251004D01*
X15395341Y-27144659D01*
X15288996Y-27015078D01*
X15267615Y-26975076D01*
X15209976Y-26867242D01*
X15161313Y-26706823D01*
X15144883Y-26540000D01*
X15161313Y-26373177D01*
X15209976Y-26212758D01*
X15288995Y-26064924D01*
X15288996Y-26064922D01*
X15395341Y-25935341D01*
X15524922Y-25828996D01*
X15599759Y-25788995D01*
X15672758Y-25749976D01*
X15833177Y-25701313D01*
X15958196Y-25689000D01*
X16041804Y-25689000D01*
X16166823Y-25701313D01*
X16166823Y-25701313D01*
G37*
G36*
X11786823Y-25661313D02*
G01*
X11947242Y-25709976D01*
X12079906Y-25780886D01*
X12095078Y-25788996D01*
X12224659Y-25895341D01*
X12331004Y-26024922D01*
X12331005Y-26024924D01*
X12410024Y-26172758D01*
X12458687Y-26333177D01*
X12475117Y-26500000D01*
X12458687Y-26666823D01*
X12410024Y-26827242D01*
X12339114Y-26959906D01*
X12331004Y-26975078D01*
X12224659Y-27104659D01*
X12095078Y-27211004D01*
X12095076Y-27211005D01*
X11947242Y-27290024D01*
X11786823Y-27338687D01*
X11661804Y-27351000D01*
X11578196Y-27351000D01*
X11453177Y-27338687D01*
X11292758Y-27290024D01*
X11144924Y-27211005D01*
X11144922Y-27211004D01*
X11015341Y-27104659D01*
X10908996Y-26975078D01*
X10900886Y-26959906D01*
X10829976Y-26827242D01*
X10781313Y-26666823D01*
X10764883Y-26500000D01*
X10781313Y-26333177D01*
X10829976Y-26172758D01*
X10908995Y-26024924D01*
X10908996Y-26024922D01*
X11015341Y-25895341D01*
X11144922Y-25788996D01*
X11160094Y-25780886D01*
X11292758Y-25709976D01*
X11453177Y-25661313D01*
X11578196Y-25649000D01*
X11661804Y-25649000D01*
X11786823Y-25661313D01*
X11786823Y-25661313D01*
G37*
G36*
X4851000Y-27351000D02*
G01*
X3149000Y-27351000D01*
X3149000Y-25649000D01*
X4851000Y-25649000D01*
X4851000Y-27351000D01*
X4851000Y-27351000D01*
G37*
G36*
X69251143Y-25172087D02*
G01*
X69407838Y-25236992D01*
X69548853Y-25331215D01*
X69668785Y-25451147D01*
X69763008Y-25592162D01*
X69827913Y-25748857D01*
X69861000Y-25915198D01*
X69861000Y-26084802D01*
X69827913Y-26251143D01*
X69763008Y-26407838D01*
X69668785Y-26548853D01*
X69548853Y-26668785D01*
X69407838Y-26763008D01*
X69251143Y-26827913D01*
X69084802Y-26861000D01*
X68915198Y-26861000D01*
X68748857Y-26827913D01*
X68592162Y-26763008D01*
X68451147Y-26668785D01*
X68331215Y-26548853D01*
X68236992Y-26407838D01*
X68172087Y-26251143D01*
X68139000Y-26084802D01*
X68139000Y-25915198D01*
X68172087Y-25748857D01*
X68236992Y-25592162D01*
X68331215Y-25451147D01*
X68451147Y-25331215D01*
X68592162Y-25236992D01*
X68748857Y-25172087D01*
X68915198Y-25139000D01*
X69084802Y-25139000D01*
X69251143Y-25172087D01*
X69251143Y-25172087D01*
G37*
G36*
X74251143Y-25172087D02*
G01*
X74407838Y-25236992D01*
X74548853Y-25331215D01*
X74668785Y-25451147D01*
X74763008Y-25592162D01*
X74827913Y-25748857D01*
X74861000Y-25915198D01*
X74861000Y-26084802D01*
X74827913Y-26251143D01*
X74763008Y-26407838D01*
X74668785Y-26548853D01*
X74548853Y-26668785D01*
X74407838Y-26763008D01*
X74251143Y-26827913D01*
X74084802Y-26861000D01*
X73915198Y-26861000D01*
X73748857Y-26827913D01*
X73592162Y-26763008D01*
X73451147Y-26668785D01*
X73331215Y-26548853D01*
X73236992Y-26407838D01*
X73172087Y-26251143D01*
X73139000Y-26084802D01*
X73139000Y-25915198D01*
X73172087Y-25748857D01*
X73236992Y-25592162D01*
X73331215Y-25451147D01*
X73451147Y-25331215D01*
X73592162Y-25236992D01*
X73748857Y-25172087D01*
X73915198Y-25139000D01*
X74084802Y-25139000D01*
X74251143Y-25172087D01*
X74251143Y-25172087D01*
G37*
G36*
X44277395Y-24625546D02*
G01*
X44450466Y-24697234D01*
X44527818Y-24748919D01*
X44606227Y-24801310D01*
X44738690Y-24933773D01*
X44738691Y-24933775D01*
X44842766Y-25089534D01*
X44914454Y-25262605D01*
X44951000Y-25446333D01*
X44951000Y-25633667D01*
X44914454Y-25817395D01*
X44842766Y-25990466D01*
X44842765Y-25990467D01*
X44738690Y-26146227D01*
X44606227Y-26278690D01*
X44527818Y-26331081D01*
X44450466Y-26382766D01*
X44277395Y-26454454D01*
X44093667Y-26491000D01*
X43906333Y-26491000D01*
X43722605Y-26454454D01*
X43549534Y-26382766D01*
X43472182Y-26331081D01*
X43393773Y-26278690D01*
X43261310Y-26146227D01*
X43157235Y-25990467D01*
X43157234Y-25990466D01*
X43085546Y-25817395D01*
X43049000Y-25633667D01*
X43049000Y-25446333D01*
X43085546Y-25262605D01*
X43157234Y-25089534D01*
X43261309Y-24933775D01*
X43261310Y-24933773D01*
X43393773Y-24801310D01*
X43472182Y-24748919D01*
X43549534Y-24697234D01*
X43722605Y-24625546D01*
X43906333Y-24589000D01*
X44093667Y-24589000D01*
X44277395Y-24625546D01*
X44277395Y-24625546D01*
G37*
G36*
X16851000Y-24851000D02*
G01*
X15149000Y-24851000D01*
X15149000Y-23149000D01*
X16851000Y-23149000D01*
X16851000Y-24851000D01*
X16851000Y-24851000D01*
G37*
G36*
X23786823Y-23161313D02*
G01*
X23947242Y-23209976D01*
X24079906Y-23280886D01*
X24095078Y-23288996D01*
X24224659Y-23395341D01*
X24331004Y-23524922D01*
X24331005Y-23524924D01*
X24410024Y-23672758D01*
X24458687Y-23833177D01*
X24475117Y-24000000D01*
X24458687Y-24166823D01*
X24410024Y-24327242D01*
X24363408Y-24414454D01*
X24331004Y-24475078D01*
X24224659Y-24604659D01*
X24095078Y-24711004D01*
X24095076Y-24711005D01*
X23947242Y-24790024D01*
X23786823Y-24838687D01*
X23661804Y-24851000D01*
X23578196Y-24851000D01*
X23453177Y-24838687D01*
X23292758Y-24790024D01*
X23144924Y-24711005D01*
X23144922Y-24711004D01*
X23015341Y-24604659D01*
X22908996Y-24475078D01*
X22876592Y-24414454D01*
X22829976Y-24327242D01*
X22781313Y-24166823D01*
X22764883Y-24000000D01*
X22781313Y-23833177D01*
X22829976Y-23672758D01*
X22908995Y-23524924D01*
X22908996Y-23524922D01*
X23015341Y-23395341D01*
X23144922Y-23288996D01*
X23160094Y-23280886D01*
X23292758Y-23209976D01*
X23453177Y-23161313D01*
X23578196Y-23149000D01*
X23661804Y-23149000D01*
X23786823Y-23161313D01*
X23786823Y-23161313D01*
G37*
G36*
X63951000Y-24451000D02*
G01*
X62049000Y-24451000D01*
X62049000Y-22549000D01*
X63951000Y-22549000D01*
X63951000Y-24451000D01*
X63951000Y-24451000D01*
G37*
G36*
X60737395Y-22585546D02*
G01*
X60910466Y-22657234D01*
X60910467Y-22657235D01*
X61066227Y-22761310D01*
X61198690Y-22893773D01*
X61198691Y-22893775D01*
X61302766Y-23049534D01*
X61374454Y-23222605D01*
X61411000Y-23406333D01*
X61411000Y-23593667D01*
X61374454Y-23777395D01*
X61302766Y-23950466D01*
X61302765Y-23950467D01*
X61198690Y-24106227D01*
X61066227Y-24238690D01*
X60987818Y-24291081D01*
X60910466Y-24342766D01*
X60737395Y-24414454D01*
X60553667Y-24451000D01*
X60366333Y-24451000D01*
X60182605Y-24414454D01*
X60009534Y-24342766D01*
X59932182Y-24291081D01*
X59853773Y-24238690D01*
X59721310Y-24106227D01*
X59617235Y-23950467D01*
X59617234Y-23950466D01*
X59545546Y-23777395D01*
X59509000Y-23593667D01*
X59509000Y-23406333D01*
X59545546Y-23222605D01*
X59617234Y-23049534D01*
X59721309Y-22893775D01*
X59721310Y-22893773D01*
X59853773Y-22761310D01*
X60009533Y-22657235D01*
X60009534Y-22657234D01*
X60182605Y-22585546D01*
X60366333Y-22549000D01*
X60553667Y-22549000D01*
X60737395Y-22585546D01*
X60737395Y-22585546D01*
G37*
G36*
X82817395Y-22585546D02*
G01*
X82990466Y-22657234D01*
X82990467Y-22657235D01*
X83146227Y-22761310D01*
X83278690Y-22893773D01*
X83278691Y-22893775D01*
X83382766Y-23049534D01*
X83454454Y-23222605D01*
X83491000Y-23406333D01*
X83491000Y-23593667D01*
X83454454Y-23777395D01*
X83382766Y-23950466D01*
X83382765Y-23950467D01*
X83278690Y-24106227D01*
X83146227Y-24238690D01*
X83067818Y-24291081D01*
X82990466Y-24342766D01*
X82817395Y-24414454D01*
X82633667Y-24451000D01*
X82446333Y-24451000D01*
X82262605Y-24414454D01*
X82089534Y-24342766D01*
X82012182Y-24291081D01*
X81933773Y-24238690D01*
X81801310Y-24106227D01*
X81697235Y-23950467D01*
X81697234Y-23950466D01*
X81625546Y-23777395D01*
X81589000Y-23593667D01*
X81589000Y-23406333D01*
X81625546Y-23222605D01*
X81697234Y-23049534D01*
X81801309Y-22893775D01*
X81801310Y-22893773D01*
X81933773Y-22761310D01*
X82089533Y-22657235D01*
X82089534Y-22657234D01*
X82262605Y-22585546D01*
X82446333Y-22549000D01*
X82633667Y-22549000D01*
X82817395Y-22585546D01*
X82817395Y-22585546D01*
G37*
G36*
X80951000Y-24451000D02*
G01*
X79049000Y-24451000D01*
X79049000Y-22549000D01*
X80951000Y-22549000D01*
X80951000Y-24451000D01*
X80951000Y-24451000D01*
G37*
G36*
X44951000Y-23951000D02*
G01*
X43049000Y-23951000D01*
X43049000Y-22049000D01*
X44951000Y-22049000D01*
X44951000Y-23951000D01*
X44951000Y-23951000D01*
G37*
G36*
X28416823Y-21291313D02*
G01*
X28577242Y-21339976D01*
X28704199Y-21407836D01*
X28725078Y-21418996D01*
X28854659Y-21525341D01*
X28961004Y-21654922D01*
X28961005Y-21654924D01*
X29040024Y-21802758D01*
X29088687Y-21963177D01*
X29105117Y-22130000D01*
X29088687Y-22296823D01*
X29040024Y-22457242D01*
X28990978Y-22549000D01*
X28961004Y-22605078D01*
X28854659Y-22734659D01*
X28725078Y-22841004D01*
X28725076Y-22841005D01*
X28577242Y-22920024D01*
X28416823Y-22968687D01*
X28291804Y-22981000D01*
X28208196Y-22981000D01*
X28083177Y-22968687D01*
X27922758Y-22920024D01*
X27774924Y-22841005D01*
X27774922Y-22841004D01*
X27645341Y-22734659D01*
X27538996Y-22605078D01*
X27509022Y-22549000D01*
X27459976Y-22457242D01*
X27411313Y-22296823D01*
X27394883Y-22130000D01*
X27411313Y-21963177D01*
X27459976Y-21802758D01*
X27538995Y-21654924D01*
X27538996Y-21654922D01*
X27645341Y-21525341D01*
X27774922Y-21418996D01*
X27795801Y-21407836D01*
X27922758Y-21339976D01*
X28083177Y-21291313D01*
X28208196Y-21279000D01*
X28291804Y-21279000D01*
X28416823Y-21291313D01*
X28416823Y-21291313D01*
G37*
G36*
X37416823Y-21291313D02*
G01*
X37577242Y-21339976D01*
X37704199Y-21407836D01*
X37725078Y-21418996D01*
X37854659Y-21525341D01*
X37961004Y-21654922D01*
X37961005Y-21654924D01*
X38040024Y-21802758D01*
X38088687Y-21963177D01*
X38105117Y-22130000D01*
X38088687Y-22296823D01*
X38040024Y-22457242D01*
X37990978Y-22549000D01*
X37961004Y-22605078D01*
X37854659Y-22734659D01*
X37725078Y-22841004D01*
X37725076Y-22841005D01*
X37577242Y-22920024D01*
X37416823Y-22968687D01*
X37291804Y-22981000D01*
X37208196Y-22981000D01*
X37083177Y-22968687D01*
X36922758Y-22920024D01*
X36774924Y-22841005D01*
X36774922Y-22841004D01*
X36645341Y-22734659D01*
X36538996Y-22605078D01*
X36509022Y-22549000D01*
X36459976Y-22457242D01*
X36411313Y-22296823D01*
X36394883Y-22130000D01*
X36411313Y-21963177D01*
X36459976Y-21802758D01*
X36538995Y-21654924D01*
X36538996Y-21654922D01*
X36645341Y-21525341D01*
X36774922Y-21418996D01*
X36795801Y-21407836D01*
X36922758Y-21339976D01*
X37083177Y-21291313D01*
X37208196Y-21279000D01*
X37291804Y-21279000D01*
X37416823Y-21291313D01*
X37416823Y-21291313D01*
G37*
G36*
X31416823Y-21291313D02*
G01*
X31577242Y-21339976D01*
X31704199Y-21407836D01*
X31725078Y-21418996D01*
X31854659Y-21525341D01*
X31961004Y-21654922D01*
X31961005Y-21654924D01*
X32040024Y-21802758D01*
X32088687Y-21963177D01*
X32105117Y-22130000D01*
X32088687Y-22296823D01*
X32040024Y-22457242D01*
X31990978Y-22549000D01*
X31961004Y-22605078D01*
X31854659Y-22734659D01*
X31725078Y-22841004D01*
X31725076Y-22841005D01*
X31577242Y-22920024D01*
X31416823Y-22968687D01*
X31291804Y-22981000D01*
X31208196Y-22981000D01*
X31083177Y-22968687D01*
X30922758Y-22920024D01*
X30774924Y-22841005D01*
X30774922Y-22841004D01*
X30645341Y-22734659D01*
X30538996Y-22605078D01*
X30509022Y-22549000D01*
X30459976Y-22457242D01*
X30411313Y-22296823D01*
X30394883Y-22130000D01*
X30411313Y-21963177D01*
X30459976Y-21802758D01*
X30538995Y-21654924D01*
X30538996Y-21654922D01*
X30645341Y-21525341D01*
X30774922Y-21418996D01*
X30795801Y-21407836D01*
X30922758Y-21339976D01*
X31083177Y-21291313D01*
X31208196Y-21279000D01*
X31291804Y-21279000D01*
X31416823Y-21291313D01*
X31416823Y-21291313D01*
G37*
G36*
X34416823Y-21291313D02*
G01*
X34577242Y-21339976D01*
X34704199Y-21407836D01*
X34725078Y-21418996D01*
X34854659Y-21525341D01*
X34961004Y-21654922D01*
X34961005Y-21654924D01*
X35040024Y-21802758D01*
X35088687Y-21963177D01*
X35105117Y-22130000D01*
X35088687Y-22296823D01*
X35040024Y-22457242D01*
X34990978Y-22549000D01*
X34961004Y-22605078D01*
X34854659Y-22734659D01*
X34725078Y-22841004D01*
X34725076Y-22841005D01*
X34577242Y-22920024D01*
X34416823Y-22968687D01*
X34291804Y-22981000D01*
X34208196Y-22981000D01*
X34083177Y-22968687D01*
X33922758Y-22920024D01*
X33774924Y-22841005D01*
X33774922Y-22841004D01*
X33645341Y-22734659D01*
X33538996Y-22605078D01*
X33509022Y-22549000D01*
X33459976Y-22457242D01*
X33411313Y-22296823D01*
X33394883Y-22130000D01*
X33411313Y-21963177D01*
X33459976Y-21802758D01*
X33538995Y-21654924D01*
X33538996Y-21654922D01*
X33645341Y-21525341D01*
X33774922Y-21418996D01*
X33795801Y-21407836D01*
X33922758Y-21339976D01*
X34083177Y-21291313D01*
X34208196Y-21279000D01*
X34291804Y-21279000D01*
X34416823Y-21291313D01*
X34416823Y-21291313D01*
G37*
G36*
X4166823Y-20691313D02*
G01*
X4327242Y-20739976D01*
X4459906Y-20810886D01*
X4475078Y-20818996D01*
X4604659Y-20925341D01*
X4711004Y-21054922D01*
X4711005Y-21054924D01*
X4790024Y-21202758D01*
X4838687Y-21363177D01*
X4855117Y-21530000D01*
X4838687Y-21696823D01*
X4790024Y-21857242D01*
X4719114Y-21989906D01*
X4711004Y-22005078D01*
X4604659Y-22134659D01*
X4475078Y-22241004D01*
X4475076Y-22241005D01*
X4327242Y-22320024D01*
X4166823Y-22368687D01*
X4041804Y-22381000D01*
X3958196Y-22381000D01*
X3833177Y-22368687D01*
X3672758Y-22320024D01*
X3524924Y-22241005D01*
X3524922Y-22241004D01*
X3395341Y-22134659D01*
X3288996Y-22005078D01*
X3280886Y-21989906D01*
X3209976Y-21857242D01*
X3161313Y-21696823D01*
X3144883Y-21530000D01*
X3161313Y-21363177D01*
X3209976Y-21202758D01*
X3288995Y-21054924D01*
X3288996Y-21054922D01*
X3395341Y-20925341D01*
X3524922Y-20818996D01*
X3540094Y-20810886D01*
X3672758Y-20739976D01*
X3833177Y-20691313D01*
X3958196Y-20679000D01*
X4041804Y-20679000D01*
X4166823Y-20691313D01*
X4166823Y-20691313D01*
G37*
G36*
X11786823Y-20691313D02*
G01*
X11947242Y-20739976D01*
X12079906Y-20810886D01*
X12095078Y-20818996D01*
X12224659Y-20925341D01*
X12331004Y-21054922D01*
X12331005Y-21054924D01*
X12410024Y-21202758D01*
X12458687Y-21363177D01*
X12475117Y-21530000D01*
X12458687Y-21696823D01*
X12410024Y-21857242D01*
X12339114Y-21989906D01*
X12331004Y-22005078D01*
X12224659Y-22134659D01*
X12095078Y-22241004D01*
X12095076Y-22241005D01*
X11947242Y-22320024D01*
X11786823Y-22368687D01*
X11661804Y-22381000D01*
X11578196Y-22381000D01*
X11453177Y-22368687D01*
X11292758Y-22320024D01*
X11144924Y-22241005D01*
X11144922Y-22241004D01*
X11015341Y-22134659D01*
X10908996Y-22005078D01*
X10900886Y-21989906D01*
X10829976Y-21857242D01*
X10781313Y-21696823D01*
X10764883Y-21530000D01*
X10781313Y-21363177D01*
X10829976Y-21202758D01*
X10908995Y-21054924D01*
X10908996Y-21054922D01*
X11015341Y-20925341D01*
X11144922Y-20818996D01*
X11160094Y-20810886D01*
X11292758Y-20739976D01*
X11453177Y-20691313D01*
X11578196Y-20679000D01*
X11661804Y-20679000D01*
X11786823Y-20691313D01*
X11786823Y-20691313D01*
G37*
G36*
X71751143Y-20172087D02*
G01*
X71907838Y-20236992D01*
X72048853Y-20331215D01*
X72168785Y-20451147D01*
X72263008Y-20592162D01*
X72327913Y-20748857D01*
X72361000Y-20915198D01*
X72361000Y-21084802D01*
X72327913Y-21251143D01*
X72263008Y-21407838D01*
X72168785Y-21548853D01*
X72048853Y-21668785D01*
X71907838Y-21763008D01*
X71751143Y-21827913D01*
X71584802Y-21861000D01*
X71415198Y-21861000D01*
X71248857Y-21827913D01*
X71092162Y-21763008D01*
X70951147Y-21668785D01*
X70831215Y-21548853D01*
X70736992Y-21407838D01*
X70672087Y-21251143D01*
X70639000Y-21084802D01*
X70639000Y-20915198D01*
X70672087Y-20748857D01*
X70736992Y-20592162D01*
X70831215Y-20451147D01*
X70951147Y-20331215D01*
X71092162Y-20236992D01*
X71248857Y-20172087D01*
X71415198Y-20139000D01*
X71584802Y-20139000D01*
X71751143Y-20172087D01*
X71751143Y-20172087D01*
G37*
G36*
X44224549Y-18351116D02*
G01*
X44335734Y-18373232D01*
X44545203Y-18459997D01*
X44733720Y-18585960D01*
X44894040Y-18746280D01*
X45020003Y-18934797D01*
X45020004Y-18934799D01*
X45106768Y-19144267D01*
X45151000Y-19366635D01*
X45151000Y-19593365D01*
X45129589Y-19701004D01*
X45106768Y-19815734D01*
X45020003Y-20025203D01*
X44894040Y-20213720D01*
X44733720Y-20374040D01*
X44545203Y-20500003D01*
X44335734Y-20586768D01*
X44308616Y-20592162D01*
X44113365Y-20631000D01*
X43886635Y-20631000D01*
X43691384Y-20592162D01*
X43664266Y-20586768D01*
X43454797Y-20500003D01*
X43266280Y-20374040D01*
X43105960Y-20213720D01*
X42979997Y-20025203D01*
X42893232Y-19815734D01*
X42870411Y-19701004D01*
X42849000Y-19593365D01*
X42849000Y-19366635D01*
X42893232Y-19144267D01*
X42979996Y-18934799D01*
X42979997Y-18934797D01*
X43105960Y-18746280D01*
X43266280Y-18585960D01*
X43454797Y-18459997D01*
X43664266Y-18373232D01*
X43775451Y-18351116D01*
X43886635Y-18329000D01*
X44113365Y-18329000D01*
X44224549Y-18351116D01*
X44224549Y-18351116D01*
G37*
G36*
X16166823Y-18151313D02*
G01*
X16327242Y-18199976D01*
X16459906Y-18270886D01*
X16475078Y-18278996D01*
X16604659Y-18385341D01*
X16711004Y-18514922D01*
X16711005Y-18514924D01*
X16790024Y-18662758D01*
X16838687Y-18823177D01*
X16855117Y-18990000D01*
X16838687Y-19156823D01*
X16790024Y-19317242D01*
X16763622Y-19366636D01*
X16711004Y-19465078D01*
X16604659Y-19594659D01*
X16475078Y-19701004D01*
X16475076Y-19701005D01*
X16327242Y-19780024D01*
X16166823Y-19828687D01*
X16041804Y-19841000D01*
X15958196Y-19841000D01*
X15833177Y-19828687D01*
X15672758Y-19780024D01*
X15524924Y-19701005D01*
X15524922Y-19701004D01*
X15395341Y-19594659D01*
X15288996Y-19465078D01*
X15236378Y-19366636D01*
X15209976Y-19317242D01*
X15161313Y-19156823D01*
X15144883Y-18990000D01*
X15161313Y-18823177D01*
X15209976Y-18662758D01*
X15288995Y-18514924D01*
X15288996Y-18514922D01*
X15395341Y-18385341D01*
X15524922Y-18278996D01*
X15540094Y-18270886D01*
X15672758Y-18199976D01*
X15833177Y-18151313D01*
X15958196Y-18139000D01*
X16041804Y-18139000D01*
X16166823Y-18151313D01*
X16166823Y-18151313D01*
G37*
G36*
X35786823Y-18151313D02*
G01*
X35947242Y-18199976D01*
X36079906Y-18270886D01*
X36095078Y-18278996D01*
X36224659Y-18385341D01*
X36331004Y-18514922D01*
X36331005Y-18514924D01*
X36410024Y-18662758D01*
X36458687Y-18823177D01*
X36475117Y-18990000D01*
X36458687Y-19156823D01*
X36410024Y-19317242D01*
X36383622Y-19366636D01*
X36331004Y-19465078D01*
X36224659Y-19594659D01*
X36095078Y-19701004D01*
X36095076Y-19701005D01*
X35947242Y-19780024D01*
X35786823Y-19828687D01*
X35661804Y-19841000D01*
X35578196Y-19841000D01*
X35453177Y-19828687D01*
X35292758Y-19780024D01*
X35144924Y-19701005D01*
X35144922Y-19701004D01*
X35015341Y-19594659D01*
X34908996Y-19465078D01*
X34856378Y-19366636D01*
X34829976Y-19317242D01*
X34781313Y-19156823D01*
X34764883Y-18990000D01*
X34781313Y-18823177D01*
X34829976Y-18662758D01*
X34908995Y-18514924D01*
X34908996Y-18514922D01*
X35015341Y-18385341D01*
X35144922Y-18278996D01*
X35160094Y-18270886D01*
X35292758Y-18199976D01*
X35453177Y-18151313D01*
X35578196Y-18139000D01*
X35661804Y-18139000D01*
X35786823Y-18151313D01*
X35786823Y-18151313D01*
G37*
G36*
X23786823Y-18151313D02*
G01*
X23947242Y-18199976D01*
X24079906Y-18270886D01*
X24095078Y-18278996D01*
X24224659Y-18385341D01*
X24331004Y-18514922D01*
X24331005Y-18514924D01*
X24410024Y-18662758D01*
X24458687Y-18823177D01*
X24475117Y-18990000D01*
X24458687Y-19156823D01*
X24410024Y-19317242D01*
X24383622Y-19366636D01*
X24331004Y-19465078D01*
X24224659Y-19594659D01*
X24095078Y-19701004D01*
X24095076Y-19701005D01*
X23947242Y-19780024D01*
X23786823Y-19828687D01*
X23661804Y-19841000D01*
X23578196Y-19841000D01*
X23453177Y-19828687D01*
X23292758Y-19780024D01*
X23144924Y-19701005D01*
X23144922Y-19701004D01*
X23015341Y-19594659D01*
X22908996Y-19465078D01*
X22856378Y-19366636D01*
X22829976Y-19317242D01*
X22781313Y-19156823D01*
X22764883Y-18990000D01*
X22781313Y-18823177D01*
X22829976Y-18662758D01*
X22908995Y-18514924D01*
X22908996Y-18514922D01*
X23015341Y-18385341D01*
X23144922Y-18278996D01*
X23160094Y-18270886D01*
X23292758Y-18199976D01*
X23453177Y-18151313D01*
X23578196Y-18139000D01*
X23661804Y-18139000D01*
X23786823Y-18151313D01*
X23786823Y-18151313D01*
G37*
G36*
X11786823Y-18151313D02*
G01*
X11947242Y-18199976D01*
X12079906Y-18270886D01*
X12095078Y-18278996D01*
X12224659Y-18385341D01*
X12331004Y-18514922D01*
X12331005Y-18514924D01*
X12410024Y-18662758D01*
X12458687Y-18823177D01*
X12475117Y-18990000D01*
X12458687Y-19156823D01*
X12410024Y-19317242D01*
X12383622Y-19366636D01*
X12331004Y-19465078D01*
X12224659Y-19594659D01*
X12095078Y-19701004D01*
X12095076Y-19701005D01*
X11947242Y-19780024D01*
X11786823Y-19828687D01*
X11661804Y-19841000D01*
X11578196Y-19841000D01*
X11453177Y-19828687D01*
X11292758Y-19780024D01*
X11144924Y-19701005D01*
X11144922Y-19701004D01*
X11015341Y-19594659D01*
X10908996Y-19465078D01*
X10856378Y-19366636D01*
X10829976Y-19317242D01*
X10781313Y-19156823D01*
X10764883Y-18990000D01*
X10781313Y-18823177D01*
X10829976Y-18662758D01*
X10908995Y-18514924D01*
X10908996Y-18514922D01*
X11015341Y-18385341D01*
X11144922Y-18278996D01*
X11160094Y-18270886D01*
X11292758Y-18199976D01*
X11453177Y-18151313D01*
X11578196Y-18139000D01*
X11661804Y-18139000D01*
X11786823Y-18151313D01*
X11786823Y-18151313D01*
G37*
G36*
X28166823Y-18151313D02*
G01*
X28327242Y-18199976D01*
X28459906Y-18270886D01*
X28475078Y-18278996D01*
X28604659Y-18385341D01*
X28711004Y-18514922D01*
X28711005Y-18514924D01*
X28790024Y-18662758D01*
X28838687Y-18823177D01*
X28855117Y-18990000D01*
X28838687Y-19156823D01*
X28790024Y-19317242D01*
X28763622Y-19366636D01*
X28711004Y-19465078D01*
X28604659Y-19594659D01*
X28475078Y-19701004D01*
X28475076Y-19701005D01*
X28327242Y-19780024D01*
X28166823Y-19828687D01*
X28041804Y-19841000D01*
X27958196Y-19841000D01*
X27833177Y-19828687D01*
X27672758Y-19780024D01*
X27524924Y-19701005D01*
X27524922Y-19701004D01*
X27395341Y-19594659D01*
X27288996Y-19465078D01*
X27236378Y-19366636D01*
X27209976Y-19317242D01*
X27161313Y-19156823D01*
X27144883Y-18990000D01*
X27161313Y-18823177D01*
X27209976Y-18662758D01*
X27288995Y-18514924D01*
X27288996Y-18514922D01*
X27395341Y-18385341D01*
X27524922Y-18278996D01*
X27540094Y-18270886D01*
X27672758Y-18199976D01*
X27833177Y-18151313D01*
X27958196Y-18139000D01*
X28041804Y-18139000D01*
X28166823Y-18151313D01*
X28166823Y-18151313D01*
G37*
G36*
X4166823Y-18151313D02*
G01*
X4327242Y-18199976D01*
X4459906Y-18270886D01*
X4475078Y-18278996D01*
X4604659Y-18385341D01*
X4711004Y-18514922D01*
X4711005Y-18514924D01*
X4790024Y-18662758D01*
X4838687Y-18823177D01*
X4855117Y-18990000D01*
X4838687Y-19156823D01*
X4790024Y-19317242D01*
X4763622Y-19366636D01*
X4711004Y-19465078D01*
X4604659Y-19594659D01*
X4475078Y-19701004D01*
X4475076Y-19701005D01*
X4327242Y-19780024D01*
X4166823Y-19828687D01*
X4041804Y-19841000D01*
X3958196Y-19841000D01*
X3833177Y-19828687D01*
X3672758Y-19780024D01*
X3524924Y-19701005D01*
X3524922Y-19701004D01*
X3395341Y-19594659D01*
X3288996Y-19465078D01*
X3236378Y-19366636D01*
X3209976Y-19317242D01*
X3161313Y-19156823D01*
X3144883Y-18990000D01*
X3161313Y-18823177D01*
X3209976Y-18662758D01*
X3288995Y-18514924D01*
X3288996Y-18514922D01*
X3395341Y-18385341D01*
X3524922Y-18278996D01*
X3540094Y-18270886D01*
X3672758Y-18199976D01*
X3833177Y-18151313D01*
X3958196Y-18139000D01*
X4041804Y-18139000D01*
X4166823Y-18151313D01*
X4166823Y-18151313D01*
G37*
G36*
X44224549Y-15251116D02*
G01*
X44335734Y-15273232D01*
X44545203Y-15359997D01*
X44733720Y-15485960D01*
X44894040Y-15646280D01*
X45020003Y-15834797D01*
X45020004Y-15834799D01*
X45045416Y-15896150D01*
X45106768Y-16044266D01*
X45151000Y-16266636D01*
X45151000Y-16493364D01*
X45106768Y-16715734D01*
X45020003Y-16925203D01*
X44894040Y-17113720D01*
X44733720Y-17274040D01*
X44545203Y-17400003D01*
X44335734Y-17486768D01*
X44224549Y-17508884D01*
X44113365Y-17531000D01*
X43886635Y-17531000D01*
X43775451Y-17508884D01*
X43664266Y-17486768D01*
X43454797Y-17400003D01*
X43266280Y-17274040D01*
X43105960Y-17113720D01*
X42979997Y-16925203D01*
X42893232Y-16715734D01*
X42849000Y-16493364D01*
X42849000Y-16266636D01*
X42893232Y-16044266D01*
X42954584Y-15896150D01*
X42979996Y-15834799D01*
X42979997Y-15834797D01*
X43105960Y-15646280D01*
X43266280Y-15485960D01*
X43454797Y-15359997D01*
X43664266Y-15273232D01*
X43775451Y-15251116D01*
X43886635Y-15229000D01*
X44113365Y-15229000D01*
X44224549Y-15251116D01*
X44224549Y-15251116D01*
G37*
G36*
X16166823Y-15611313D02*
G01*
X16327242Y-15659976D01*
X16459906Y-15730886D01*
X16475078Y-15738996D01*
X16604659Y-15845341D01*
X16711004Y-15974922D01*
X16711005Y-15974924D01*
X16790024Y-16122758D01*
X16838687Y-16283177D01*
X16855117Y-16450000D01*
X16838687Y-16616823D01*
X16790024Y-16777242D01*
X16719114Y-16909906D01*
X16711004Y-16925078D01*
X16604659Y-17054659D01*
X16475078Y-17161004D01*
X16475076Y-17161005D01*
X16327242Y-17240024D01*
X16166823Y-17288687D01*
X16041804Y-17301000D01*
X15958196Y-17301000D01*
X15833177Y-17288687D01*
X15672758Y-17240024D01*
X15524924Y-17161005D01*
X15524922Y-17161004D01*
X15395341Y-17054659D01*
X15288996Y-16925078D01*
X15280886Y-16909906D01*
X15209976Y-16777242D01*
X15161313Y-16616823D01*
X15144883Y-16450000D01*
X15161313Y-16283177D01*
X15209976Y-16122758D01*
X15288995Y-15974924D01*
X15288996Y-15974922D01*
X15395341Y-15845341D01*
X15524922Y-15738996D01*
X15540094Y-15730886D01*
X15672758Y-15659976D01*
X15833177Y-15611313D01*
X15958196Y-15599000D01*
X16041804Y-15599000D01*
X16166823Y-15611313D01*
X16166823Y-15611313D01*
G37*
G36*
X4166823Y-15611313D02*
G01*
X4327242Y-15659976D01*
X4459906Y-15730886D01*
X4475078Y-15738996D01*
X4604659Y-15845341D01*
X4711004Y-15974922D01*
X4711005Y-15974924D01*
X4790024Y-16122758D01*
X4838687Y-16283177D01*
X4855117Y-16450000D01*
X4838687Y-16616823D01*
X4790024Y-16777242D01*
X4719114Y-16909906D01*
X4711004Y-16925078D01*
X4604659Y-17054659D01*
X4475078Y-17161004D01*
X4475076Y-17161005D01*
X4327242Y-17240024D01*
X4166823Y-17288687D01*
X4041804Y-17301000D01*
X3958196Y-17301000D01*
X3833177Y-17288687D01*
X3672758Y-17240024D01*
X3524924Y-17161005D01*
X3524922Y-17161004D01*
X3395341Y-17054659D01*
X3288996Y-16925078D01*
X3280886Y-16909906D01*
X3209976Y-16777242D01*
X3161313Y-16616823D01*
X3144883Y-16450000D01*
X3161313Y-16283177D01*
X3209976Y-16122758D01*
X3288995Y-15974924D01*
X3288996Y-15974922D01*
X3395341Y-15845341D01*
X3524922Y-15738996D01*
X3540094Y-15730886D01*
X3672758Y-15659976D01*
X3833177Y-15611313D01*
X3958196Y-15599000D01*
X4041804Y-15599000D01*
X4166823Y-15611313D01*
X4166823Y-15611313D01*
G37*
G36*
X35786823Y-15611313D02*
G01*
X35947242Y-15659976D01*
X36079906Y-15730886D01*
X36095078Y-15738996D01*
X36224659Y-15845341D01*
X36331004Y-15974922D01*
X36331005Y-15974924D01*
X36410024Y-16122758D01*
X36458687Y-16283177D01*
X36475117Y-16450000D01*
X36458687Y-16616823D01*
X36410024Y-16777242D01*
X36339114Y-16909906D01*
X36331004Y-16925078D01*
X36224659Y-17054659D01*
X36095078Y-17161004D01*
X36095076Y-17161005D01*
X35947242Y-17240024D01*
X35786823Y-17288687D01*
X35661804Y-17301000D01*
X35578196Y-17301000D01*
X35453177Y-17288687D01*
X35292758Y-17240024D01*
X35144924Y-17161005D01*
X35144922Y-17161004D01*
X35015341Y-17054659D01*
X34908996Y-16925078D01*
X34900886Y-16909906D01*
X34829976Y-16777242D01*
X34781313Y-16616823D01*
X34764883Y-16450000D01*
X34781313Y-16283177D01*
X34829976Y-16122758D01*
X34908995Y-15974924D01*
X34908996Y-15974922D01*
X35015341Y-15845341D01*
X35144922Y-15738996D01*
X35160094Y-15730886D01*
X35292758Y-15659976D01*
X35453177Y-15611313D01*
X35578196Y-15599000D01*
X35661804Y-15599000D01*
X35786823Y-15611313D01*
X35786823Y-15611313D01*
G37*
G36*
X11786823Y-15611313D02*
G01*
X11947242Y-15659976D01*
X12079906Y-15730886D01*
X12095078Y-15738996D01*
X12224659Y-15845341D01*
X12331004Y-15974922D01*
X12331005Y-15974924D01*
X12410024Y-16122758D01*
X12458687Y-16283177D01*
X12475117Y-16450000D01*
X12458687Y-16616823D01*
X12410024Y-16777242D01*
X12339114Y-16909906D01*
X12331004Y-16925078D01*
X12224659Y-17054659D01*
X12095078Y-17161004D01*
X12095076Y-17161005D01*
X11947242Y-17240024D01*
X11786823Y-17288687D01*
X11661804Y-17301000D01*
X11578196Y-17301000D01*
X11453177Y-17288687D01*
X11292758Y-17240024D01*
X11144924Y-17161005D01*
X11144922Y-17161004D01*
X11015341Y-17054659D01*
X10908996Y-16925078D01*
X10900886Y-16909906D01*
X10829976Y-16777242D01*
X10781313Y-16616823D01*
X10764883Y-16450000D01*
X10781313Y-16283177D01*
X10829976Y-16122758D01*
X10908995Y-15974924D01*
X10908996Y-15974922D01*
X11015341Y-15845341D01*
X11144922Y-15738996D01*
X11160094Y-15730886D01*
X11292758Y-15659976D01*
X11453177Y-15611313D01*
X11578196Y-15599000D01*
X11661804Y-15599000D01*
X11786823Y-15611313D01*
X11786823Y-15611313D01*
G37*
G36*
X23786823Y-15611313D02*
G01*
X23947242Y-15659976D01*
X24079906Y-15730886D01*
X24095078Y-15738996D01*
X24224659Y-15845341D01*
X24331004Y-15974922D01*
X24331005Y-15974924D01*
X24410024Y-16122758D01*
X24458687Y-16283177D01*
X24475117Y-16450000D01*
X24458687Y-16616823D01*
X24410024Y-16777242D01*
X24339114Y-16909906D01*
X24331004Y-16925078D01*
X24224659Y-17054659D01*
X24095078Y-17161004D01*
X24095076Y-17161005D01*
X23947242Y-17240024D01*
X23786823Y-17288687D01*
X23661804Y-17301000D01*
X23578196Y-17301000D01*
X23453177Y-17288687D01*
X23292758Y-17240024D01*
X23144924Y-17161005D01*
X23144922Y-17161004D01*
X23015341Y-17054659D01*
X22908996Y-16925078D01*
X22900886Y-16909906D01*
X22829976Y-16777242D01*
X22781313Y-16616823D01*
X22764883Y-16450000D01*
X22781313Y-16283177D01*
X22829976Y-16122758D01*
X22908995Y-15974924D01*
X22908996Y-15974922D01*
X23015341Y-15845341D01*
X23144922Y-15738996D01*
X23160094Y-15730886D01*
X23292758Y-15659976D01*
X23453177Y-15611313D01*
X23578196Y-15599000D01*
X23661804Y-15599000D01*
X23786823Y-15611313D01*
X23786823Y-15611313D01*
G37*
G36*
X28166823Y-15611313D02*
G01*
X28327242Y-15659976D01*
X28459906Y-15730886D01*
X28475078Y-15738996D01*
X28604659Y-15845341D01*
X28711004Y-15974922D01*
X28711005Y-15974924D01*
X28790024Y-16122758D01*
X28838687Y-16283177D01*
X28855117Y-16450000D01*
X28838687Y-16616823D01*
X28790024Y-16777242D01*
X28719114Y-16909906D01*
X28711004Y-16925078D01*
X28604659Y-17054659D01*
X28475078Y-17161004D01*
X28475076Y-17161005D01*
X28327242Y-17240024D01*
X28166823Y-17288687D01*
X28041804Y-17301000D01*
X27958196Y-17301000D01*
X27833177Y-17288687D01*
X27672758Y-17240024D01*
X27524924Y-17161005D01*
X27524922Y-17161004D01*
X27395341Y-17054659D01*
X27288996Y-16925078D01*
X27280886Y-16909906D01*
X27209976Y-16777242D01*
X27161313Y-16616823D01*
X27144883Y-16450000D01*
X27161313Y-16283177D01*
X27209976Y-16122758D01*
X27288995Y-15974924D01*
X27288996Y-15974922D01*
X27395341Y-15845341D01*
X27524922Y-15738996D01*
X27540094Y-15730886D01*
X27672758Y-15659976D01*
X27833177Y-15611313D01*
X27958196Y-15599000D01*
X28041804Y-15599000D01*
X28166823Y-15611313D01*
X28166823Y-15611313D01*
G37*
G36*
X72451000Y-15951000D02*
G01*
X70549000Y-15951000D01*
X70549000Y-14049000D01*
X72451000Y-14049000D01*
X72451000Y-15951000D01*
X72451000Y-15951000D01*
G37*
G36*
X4166823Y-13071313D02*
G01*
X4327242Y-13119976D01*
X4388576Y-13152760D01*
X4475078Y-13198996D01*
X4604659Y-13305341D01*
X4711004Y-13434922D01*
X4711005Y-13434924D01*
X4790024Y-13582758D01*
X4838687Y-13743177D01*
X4855117Y-13910000D01*
X4838687Y-14076823D01*
X4790024Y-14237242D01*
X4719114Y-14369906D01*
X4711004Y-14385078D01*
X4604659Y-14514659D01*
X4475078Y-14621004D01*
X4475076Y-14621005D01*
X4327242Y-14700024D01*
X4166823Y-14748687D01*
X4041804Y-14761000D01*
X3958196Y-14761000D01*
X3833177Y-14748687D01*
X3672758Y-14700024D01*
X3524924Y-14621005D01*
X3524922Y-14621004D01*
X3395341Y-14514659D01*
X3288996Y-14385078D01*
X3280886Y-14369906D01*
X3209976Y-14237242D01*
X3161313Y-14076823D01*
X3144883Y-13910000D01*
X3161313Y-13743177D01*
X3209976Y-13582758D01*
X3288995Y-13434924D01*
X3288996Y-13434922D01*
X3395341Y-13305341D01*
X3524922Y-13198996D01*
X3611424Y-13152760D01*
X3672758Y-13119976D01*
X3833177Y-13071313D01*
X3958196Y-13059000D01*
X4041804Y-13059000D01*
X4166823Y-13071313D01*
X4166823Y-13071313D01*
G37*
G36*
X11786823Y-13071313D02*
G01*
X11947242Y-13119976D01*
X12008576Y-13152760D01*
X12095078Y-13198996D01*
X12224659Y-13305341D01*
X12331004Y-13434922D01*
X12331005Y-13434924D01*
X12410024Y-13582758D01*
X12458687Y-13743177D01*
X12475117Y-13910000D01*
X12458687Y-14076823D01*
X12410024Y-14237242D01*
X12339114Y-14369906D01*
X12331004Y-14385078D01*
X12224659Y-14514659D01*
X12095078Y-14621004D01*
X12095076Y-14621005D01*
X11947242Y-14700024D01*
X11786823Y-14748687D01*
X11661804Y-14761000D01*
X11578196Y-14761000D01*
X11453177Y-14748687D01*
X11292758Y-14700024D01*
X11144924Y-14621005D01*
X11144922Y-14621004D01*
X11015341Y-14514659D01*
X10908996Y-14385078D01*
X10900886Y-14369906D01*
X10829976Y-14237242D01*
X10781313Y-14076823D01*
X10764883Y-13910000D01*
X10781313Y-13743177D01*
X10829976Y-13582758D01*
X10908995Y-13434924D01*
X10908996Y-13434922D01*
X11015341Y-13305341D01*
X11144922Y-13198996D01*
X11231424Y-13152760D01*
X11292758Y-13119976D01*
X11453177Y-13071313D01*
X11578196Y-13059000D01*
X11661804Y-13059000D01*
X11786823Y-13071313D01*
X11786823Y-13071313D01*
G37*
G36*
X28166823Y-13071313D02*
G01*
X28327242Y-13119976D01*
X28388576Y-13152760D01*
X28475078Y-13198996D01*
X28604659Y-13305341D01*
X28711004Y-13434922D01*
X28711005Y-13434924D01*
X28790024Y-13582758D01*
X28838687Y-13743177D01*
X28855117Y-13910000D01*
X28838687Y-14076823D01*
X28790024Y-14237242D01*
X28719114Y-14369906D01*
X28711004Y-14385078D01*
X28604659Y-14514659D01*
X28475078Y-14621004D01*
X28475076Y-14621005D01*
X28327242Y-14700024D01*
X28166823Y-14748687D01*
X28041804Y-14761000D01*
X27958196Y-14761000D01*
X27833177Y-14748687D01*
X27672758Y-14700024D01*
X27524924Y-14621005D01*
X27524922Y-14621004D01*
X27395341Y-14514659D01*
X27288996Y-14385078D01*
X27280886Y-14369906D01*
X27209976Y-14237242D01*
X27161313Y-14076823D01*
X27144883Y-13910000D01*
X27161313Y-13743177D01*
X27209976Y-13582758D01*
X27288995Y-13434924D01*
X27288996Y-13434922D01*
X27395341Y-13305341D01*
X27524922Y-13198996D01*
X27611424Y-13152760D01*
X27672758Y-13119976D01*
X27833177Y-13071313D01*
X27958196Y-13059000D01*
X28041804Y-13059000D01*
X28166823Y-13071313D01*
X28166823Y-13071313D01*
G37*
G36*
X23786823Y-13071313D02*
G01*
X23947242Y-13119976D01*
X24008576Y-13152760D01*
X24095078Y-13198996D01*
X24224659Y-13305341D01*
X24331004Y-13434922D01*
X24331005Y-13434924D01*
X24410024Y-13582758D01*
X24458687Y-13743177D01*
X24475117Y-13910000D01*
X24458687Y-14076823D01*
X24410024Y-14237242D01*
X24339114Y-14369906D01*
X24331004Y-14385078D01*
X24224659Y-14514659D01*
X24095078Y-14621004D01*
X24095076Y-14621005D01*
X23947242Y-14700024D01*
X23786823Y-14748687D01*
X23661804Y-14761000D01*
X23578196Y-14761000D01*
X23453177Y-14748687D01*
X23292758Y-14700024D01*
X23144924Y-14621005D01*
X23144922Y-14621004D01*
X23015341Y-14514659D01*
X22908996Y-14385078D01*
X22900886Y-14369906D01*
X22829976Y-14237242D01*
X22781313Y-14076823D01*
X22764883Y-13910000D01*
X22781313Y-13743177D01*
X22829976Y-13582758D01*
X22908995Y-13434924D01*
X22908996Y-13434922D01*
X23015341Y-13305341D01*
X23144922Y-13198996D01*
X23231424Y-13152760D01*
X23292758Y-13119976D01*
X23453177Y-13071313D01*
X23578196Y-13059000D01*
X23661804Y-13059000D01*
X23786823Y-13071313D01*
X23786823Y-13071313D01*
G37*
G36*
X35786823Y-13071313D02*
G01*
X35947242Y-13119976D01*
X36008576Y-13152760D01*
X36095078Y-13198996D01*
X36224659Y-13305341D01*
X36331004Y-13434922D01*
X36331005Y-13434924D01*
X36410024Y-13582758D01*
X36458687Y-13743177D01*
X36475117Y-13910000D01*
X36458687Y-14076823D01*
X36410024Y-14237242D01*
X36339114Y-14369906D01*
X36331004Y-14385078D01*
X36224659Y-14514659D01*
X36095078Y-14621004D01*
X36095076Y-14621005D01*
X35947242Y-14700024D01*
X35786823Y-14748687D01*
X35661804Y-14761000D01*
X35578196Y-14761000D01*
X35453177Y-14748687D01*
X35292758Y-14700024D01*
X35144924Y-14621005D01*
X35144922Y-14621004D01*
X35015341Y-14514659D01*
X34908996Y-14385078D01*
X34900886Y-14369906D01*
X34829976Y-14237242D01*
X34781313Y-14076823D01*
X34764883Y-13910000D01*
X34781313Y-13743177D01*
X34829976Y-13582758D01*
X34908995Y-13434924D01*
X34908996Y-13434922D01*
X35015341Y-13305341D01*
X35144922Y-13198996D01*
X35231424Y-13152760D01*
X35292758Y-13119976D01*
X35453177Y-13071313D01*
X35578196Y-13059000D01*
X35661804Y-13059000D01*
X35786823Y-13071313D01*
X35786823Y-13071313D01*
G37*
G36*
X16166823Y-13071313D02*
G01*
X16327242Y-13119976D01*
X16388576Y-13152760D01*
X16475078Y-13198996D01*
X16604659Y-13305341D01*
X16711004Y-13434922D01*
X16711005Y-13434924D01*
X16790024Y-13582758D01*
X16838687Y-13743177D01*
X16855117Y-13910000D01*
X16838687Y-14076823D01*
X16790024Y-14237242D01*
X16719114Y-14369906D01*
X16711004Y-14385078D01*
X16604659Y-14514659D01*
X16475078Y-14621004D01*
X16475076Y-14621005D01*
X16327242Y-14700024D01*
X16166823Y-14748687D01*
X16041804Y-14761000D01*
X15958196Y-14761000D01*
X15833177Y-14748687D01*
X15672758Y-14700024D01*
X15524924Y-14621005D01*
X15524922Y-14621004D01*
X15395341Y-14514659D01*
X15288996Y-14385078D01*
X15280886Y-14369906D01*
X15209976Y-14237242D01*
X15161313Y-14076823D01*
X15144883Y-13910000D01*
X15161313Y-13743177D01*
X15209976Y-13582758D01*
X15288995Y-13434924D01*
X15288996Y-13434922D01*
X15395341Y-13305341D01*
X15524922Y-13198996D01*
X15611424Y-13152760D01*
X15672758Y-13119976D01*
X15833177Y-13071313D01*
X15958196Y-13059000D01*
X16041804Y-13059000D01*
X16166823Y-13071313D01*
X16166823Y-13071313D01*
G37*
G36*
X44302585Y-11478802D02*
G01*
X44452410Y-11508604D01*
X44734674Y-11625521D01*
X44988705Y-11795259D01*
X45204741Y-12011295D01*
X45374479Y-12265326D01*
X45491396Y-12547590D01*
X45551000Y-12847240D01*
X45551000Y-13152760D01*
X45491396Y-13452410D01*
X45374479Y-13734674D01*
X45204741Y-13988705D01*
X44988705Y-14204741D01*
X44734674Y-14374479D01*
X44452410Y-14491396D01*
X44335459Y-14514659D01*
X44152761Y-14551000D01*
X43847239Y-14551000D01*
X43664541Y-14514659D01*
X43547590Y-14491396D01*
X43265326Y-14374479D01*
X43011295Y-14204741D01*
X42795259Y-13988705D01*
X42625521Y-13734674D01*
X42508604Y-13452410D01*
X42449000Y-13152760D01*
X42449000Y-12847240D01*
X42508604Y-12547590D01*
X42625521Y-12265326D01*
X42795259Y-12011295D01*
X43011295Y-11795259D01*
X43265326Y-11625521D01*
X43547590Y-11508604D01*
X43697415Y-11478802D01*
X43847239Y-11449000D01*
X44152761Y-11449000D01*
X44302585Y-11478802D01*
X44302585Y-11478802D01*
G37*
G36*
X71777395Y-11545546D02*
G01*
X71950466Y-11617234D01*
X71950467Y-11617235D01*
X72106227Y-11721310D01*
X72238690Y-11853773D01*
X72238691Y-11853775D01*
X72342766Y-12009534D01*
X72414454Y-12182605D01*
X72451000Y-12366333D01*
X72451000Y-12553667D01*
X72414454Y-12737395D01*
X72342766Y-12910466D01*
X72342765Y-12910467D01*
X72238690Y-13066227D01*
X72106227Y-13198690D01*
X72105769Y-13198996D01*
X71950466Y-13302766D01*
X71777395Y-13374454D01*
X71593667Y-13411000D01*
X71406333Y-13411000D01*
X71222605Y-13374454D01*
X71049534Y-13302766D01*
X70894231Y-13198996D01*
X70893773Y-13198690D01*
X70761310Y-13066227D01*
X70657235Y-12910467D01*
X70657234Y-12910466D01*
X70585546Y-12737395D01*
X70549000Y-12553667D01*
X70549000Y-12366333D01*
X70585546Y-12182605D01*
X70657234Y-12009534D01*
X70761309Y-11853775D01*
X70761310Y-11853773D01*
X70893773Y-11721310D01*
X71049533Y-11617235D01*
X71049534Y-11617234D01*
X71222605Y-11545546D01*
X71406333Y-11509000D01*
X71593667Y-11509000D01*
X71777395Y-11545546D01*
X71777395Y-11545546D01*
G37*
G36*
X35786823Y-10531313D02*
G01*
X35947242Y-10579976D01*
X36079906Y-10650886D01*
X36095078Y-10658996D01*
X36224659Y-10765341D01*
X36331004Y-10894922D01*
X36331005Y-10894924D01*
X36410024Y-11042758D01*
X36458687Y-11203177D01*
X36475117Y-11370000D01*
X36458687Y-11536823D01*
X36410024Y-11697242D01*
X36397159Y-11721310D01*
X36331004Y-11845078D01*
X36224659Y-11974659D01*
X36095078Y-12081004D01*
X36095076Y-12081005D01*
X35947242Y-12160024D01*
X35786823Y-12208687D01*
X35661804Y-12221000D01*
X35578196Y-12221000D01*
X35453177Y-12208687D01*
X35292758Y-12160024D01*
X35144924Y-12081005D01*
X35144922Y-12081004D01*
X35015341Y-11974659D01*
X34908996Y-11845078D01*
X34842841Y-11721310D01*
X34829976Y-11697242D01*
X34781313Y-11536823D01*
X34764883Y-11370000D01*
X34781313Y-11203177D01*
X34829976Y-11042758D01*
X34908995Y-10894924D01*
X34908996Y-10894922D01*
X35015341Y-10765341D01*
X35144922Y-10658996D01*
X35160094Y-10650886D01*
X35292758Y-10579976D01*
X35453177Y-10531313D01*
X35578196Y-10519000D01*
X35661804Y-10519000D01*
X35786823Y-10531313D01*
X35786823Y-10531313D01*
G37*
G36*
X28166823Y-10531313D02*
G01*
X28327242Y-10579976D01*
X28459906Y-10650886D01*
X28475078Y-10658996D01*
X28604659Y-10765341D01*
X28711004Y-10894922D01*
X28711005Y-10894924D01*
X28790024Y-11042758D01*
X28838687Y-11203177D01*
X28855117Y-11370000D01*
X28838687Y-11536823D01*
X28790024Y-11697242D01*
X28777159Y-11721310D01*
X28711004Y-11845078D01*
X28604659Y-11974659D01*
X28475078Y-12081004D01*
X28475076Y-12081005D01*
X28327242Y-12160024D01*
X28166823Y-12208687D01*
X28041804Y-12221000D01*
X27958196Y-12221000D01*
X27833177Y-12208687D01*
X27672758Y-12160024D01*
X27524924Y-12081005D01*
X27524922Y-12081004D01*
X27395341Y-11974659D01*
X27288996Y-11845078D01*
X27222841Y-11721310D01*
X27209976Y-11697242D01*
X27161313Y-11536823D01*
X27144883Y-11370000D01*
X27161313Y-11203177D01*
X27209976Y-11042758D01*
X27288995Y-10894924D01*
X27288996Y-10894922D01*
X27395341Y-10765341D01*
X27524922Y-10658996D01*
X27540094Y-10650886D01*
X27672758Y-10579976D01*
X27833177Y-10531313D01*
X27958196Y-10519000D01*
X28041804Y-10519000D01*
X28166823Y-10531313D01*
X28166823Y-10531313D01*
G37*
G36*
X23786823Y-10531313D02*
G01*
X23947242Y-10579976D01*
X24079906Y-10650886D01*
X24095078Y-10658996D01*
X24224659Y-10765341D01*
X24331004Y-10894922D01*
X24331005Y-10894924D01*
X24410024Y-11042758D01*
X24458687Y-11203177D01*
X24475117Y-11370000D01*
X24458687Y-11536823D01*
X24410024Y-11697242D01*
X24397159Y-11721310D01*
X24331004Y-11845078D01*
X24224659Y-11974659D01*
X24095078Y-12081004D01*
X24095076Y-12081005D01*
X23947242Y-12160024D01*
X23786823Y-12208687D01*
X23661804Y-12221000D01*
X23578196Y-12221000D01*
X23453177Y-12208687D01*
X23292758Y-12160024D01*
X23144924Y-12081005D01*
X23144922Y-12081004D01*
X23015341Y-11974659D01*
X22908996Y-11845078D01*
X22842841Y-11721310D01*
X22829976Y-11697242D01*
X22781313Y-11536823D01*
X22764883Y-11370000D01*
X22781313Y-11203177D01*
X22829976Y-11042758D01*
X22908995Y-10894924D01*
X22908996Y-10894922D01*
X23015341Y-10765341D01*
X23144922Y-10658996D01*
X23160094Y-10650886D01*
X23292758Y-10579976D01*
X23453177Y-10531313D01*
X23578196Y-10519000D01*
X23661804Y-10519000D01*
X23786823Y-10531313D01*
X23786823Y-10531313D01*
G37*
G36*
X16166823Y-10531313D02*
G01*
X16327242Y-10579976D01*
X16459906Y-10650886D01*
X16475078Y-10658996D01*
X16604659Y-10765341D01*
X16711004Y-10894922D01*
X16711005Y-10894924D01*
X16790024Y-11042758D01*
X16838687Y-11203177D01*
X16855117Y-11370000D01*
X16838687Y-11536823D01*
X16790024Y-11697242D01*
X16777159Y-11721310D01*
X16711004Y-11845078D01*
X16604659Y-11974659D01*
X16475078Y-12081004D01*
X16475076Y-12081005D01*
X16327242Y-12160024D01*
X16166823Y-12208687D01*
X16041804Y-12221000D01*
X15958196Y-12221000D01*
X15833177Y-12208687D01*
X15672758Y-12160024D01*
X15524924Y-12081005D01*
X15524922Y-12081004D01*
X15395341Y-11974659D01*
X15288996Y-11845078D01*
X15222841Y-11721310D01*
X15209976Y-11697242D01*
X15161313Y-11536823D01*
X15144883Y-11370000D01*
X15161313Y-11203177D01*
X15209976Y-11042758D01*
X15288995Y-10894924D01*
X15288996Y-10894922D01*
X15395341Y-10765341D01*
X15524922Y-10658996D01*
X15540094Y-10650886D01*
X15672758Y-10579976D01*
X15833177Y-10531313D01*
X15958196Y-10519000D01*
X16041804Y-10519000D01*
X16166823Y-10531313D01*
X16166823Y-10531313D01*
G37*
G36*
X11786823Y-10531313D02*
G01*
X11947242Y-10579976D01*
X12079906Y-10650886D01*
X12095078Y-10658996D01*
X12224659Y-10765341D01*
X12331004Y-10894922D01*
X12331005Y-10894924D01*
X12410024Y-11042758D01*
X12458687Y-11203177D01*
X12475117Y-11370000D01*
X12458687Y-11536823D01*
X12410024Y-11697242D01*
X12397159Y-11721310D01*
X12331004Y-11845078D01*
X12224659Y-11974659D01*
X12095078Y-12081004D01*
X12095076Y-12081005D01*
X11947242Y-12160024D01*
X11786823Y-12208687D01*
X11661804Y-12221000D01*
X11578196Y-12221000D01*
X11453177Y-12208687D01*
X11292758Y-12160024D01*
X11144924Y-12081005D01*
X11144922Y-12081004D01*
X11015341Y-11974659D01*
X10908996Y-11845078D01*
X10842841Y-11721310D01*
X10829976Y-11697242D01*
X10781313Y-11536823D01*
X10764883Y-11370000D01*
X10781313Y-11203177D01*
X10829976Y-11042758D01*
X10908995Y-10894924D01*
X10908996Y-10894922D01*
X11015341Y-10765341D01*
X11144922Y-10658996D01*
X11160094Y-10650886D01*
X11292758Y-10579976D01*
X11453177Y-10531313D01*
X11578196Y-10519000D01*
X11661804Y-10519000D01*
X11786823Y-10531313D01*
X11786823Y-10531313D01*
G37*
G36*
X4166823Y-10531313D02*
G01*
X4327242Y-10579976D01*
X4459906Y-10650886D01*
X4475078Y-10658996D01*
X4604659Y-10765341D01*
X4711004Y-10894922D01*
X4711005Y-10894924D01*
X4790024Y-11042758D01*
X4838687Y-11203177D01*
X4855117Y-11370000D01*
X4838687Y-11536823D01*
X4790024Y-11697242D01*
X4777159Y-11721310D01*
X4711004Y-11845078D01*
X4604659Y-11974659D01*
X4475078Y-12081004D01*
X4475076Y-12081005D01*
X4327242Y-12160024D01*
X4166823Y-12208687D01*
X4041804Y-12221000D01*
X3958196Y-12221000D01*
X3833177Y-12208687D01*
X3672758Y-12160024D01*
X3524924Y-12081005D01*
X3524922Y-12081004D01*
X3395341Y-11974659D01*
X3288996Y-11845078D01*
X3222841Y-11721310D01*
X3209976Y-11697242D01*
X3161313Y-11536823D01*
X3144883Y-11370000D01*
X3161313Y-11203177D01*
X3209976Y-11042758D01*
X3288995Y-10894924D01*
X3288996Y-10894922D01*
X3395341Y-10765341D01*
X3524922Y-10658996D01*
X3540094Y-10650886D01*
X3672758Y-10579976D01*
X3833177Y-10531313D01*
X3958196Y-10519000D01*
X4041804Y-10519000D01*
X4166823Y-10531313D01*
X4166823Y-10531313D01*
G37*
G36*
X11786823Y-7991313D02*
G01*
X11947242Y-8039976D01*
X12079906Y-8110886D01*
X12095078Y-8118996D01*
X12224659Y-8225341D01*
X12331004Y-8354922D01*
X12331005Y-8354924D01*
X12410024Y-8502758D01*
X12458687Y-8663177D01*
X12475117Y-8830000D01*
X12458687Y-8996823D01*
X12410024Y-9157242D01*
X12394242Y-9186768D01*
X12331004Y-9305078D01*
X12224659Y-9434659D01*
X12095078Y-9541004D01*
X12095076Y-9541005D01*
X11947242Y-9620024D01*
X11786823Y-9668687D01*
X11661804Y-9681000D01*
X11578196Y-9681000D01*
X11453177Y-9668687D01*
X11292758Y-9620024D01*
X11144924Y-9541005D01*
X11144922Y-9541004D01*
X11015341Y-9434659D01*
X10908996Y-9305078D01*
X10845758Y-9186768D01*
X10829976Y-9157242D01*
X10781313Y-8996823D01*
X10764883Y-8830000D01*
X10781313Y-8663177D01*
X10829976Y-8502758D01*
X10908995Y-8354924D01*
X10908996Y-8354922D01*
X11015341Y-8225341D01*
X11144922Y-8118996D01*
X11160094Y-8110886D01*
X11292758Y-8039976D01*
X11453177Y-7991313D01*
X11578196Y-7979000D01*
X11661804Y-7979000D01*
X11786823Y-7991313D01*
X11786823Y-7991313D01*
G37*
G36*
X4166823Y-7991313D02*
G01*
X4327242Y-8039976D01*
X4459906Y-8110886D01*
X4475078Y-8118996D01*
X4604659Y-8225341D01*
X4711004Y-8354922D01*
X4711005Y-8354924D01*
X4790024Y-8502758D01*
X4838687Y-8663177D01*
X4855117Y-8830000D01*
X4838687Y-8996823D01*
X4790024Y-9157242D01*
X4774242Y-9186768D01*
X4711004Y-9305078D01*
X4604659Y-9434659D01*
X4475078Y-9541004D01*
X4475076Y-9541005D01*
X4327242Y-9620024D01*
X4166823Y-9668687D01*
X4041804Y-9681000D01*
X3958196Y-9681000D01*
X3833177Y-9668687D01*
X3672758Y-9620024D01*
X3524924Y-9541005D01*
X3524922Y-9541004D01*
X3395341Y-9434659D01*
X3288996Y-9305078D01*
X3225758Y-9186768D01*
X3209976Y-9157242D01*
X3161313Y-8996823D01*
X3144883Y-8830000D01*
X3161313Y-8663177D01*
X3209976Y-8502758D01*
X3288995Y-8354924D01*
X3288996Y-8354922D01*
X3395341Y-8225341D01*
X3524922Y-8118996D01*
X3540094Y-8110886D01*
X3672758Y-8039976D01*
X3833177Y-7991313D01*
X3958196Y-7979000D01*
X4041804Y-7979000D01*
X4166823Y-7991313D01*
X4166823Y-7991313D01*
G37*
G36*
X35786823Y-7991313D02*
G01*
X35947242Y-8039976D01*
X36079906Y-8110886D01*
X36095078Y-8118996D01*
X36224659Y-8225341D01*
X36331004Y-8354922D01*
X36331005Y-8354924D01*
X36410024Y-8502758D01*
X36458687Y-8663177D01*
X36475117Y-8830000D01*
X36458687Y-8996823D01*
X36410024Y-9157242D01*
X36394242Y-9186768D01*
X36331004Y-9305078D01*
X36224659Y-9434659D01*
X36095078Y-9541004D01*
X36095076Y-9541005D01*
X35947242Y-9620024D01*
X35786823Y-9668687D01*
X35661804Y-9681000D01*
X35578196Y-9681000D01*
X35453177Y-9668687D01*
X35292758Y-9620024D01*
X35144924Y-9541005D01*
X35144922Y-9541004D01*
X35015341Y-9434659D01*
X34908996Y-9305078D01*
X34845758Y-9186768D01*
X34829976Y-9157242D01*
X34781313Y-8996823D01*
X34764883Y-8830000D01*
X34781313Y-8663177D01*
X34829976Y-8502758D01*
X34908995Y-8354924D01*
X34908996Y-8354922D01*
X35015341Y-8225341D01*
X35144922Y-8118996D01*
X35160094Y-8110886D01*
X35292758Y-8039976D01*
X35453177Y-7991313D01*
X35578196Y-7979000D01*
X35661804Y-7979000D01*
X35786823Y-7991313D01*
X35786823Y-7991313D01*
G37*
G36*
X16166823Y-7991313D02*
G01*
X16327242Y-8039976D01*
X16459906Y-8110886D01*
X16475078Y-8118996D01*
X16604659Y-8225341D01*
X16711004Y-8354922D01*
X16711005Y-8354924D01*
X16790024Y-8502758D01*
X16838687Y-8663177D01*
X16855117Y-8830000D01*
X16838687Y-8996823D01*
X16790024Y-9157242D01*
X16774242Y-9186768D01*
X16711004Y-9305078D01*
X16604659Y-9434659D01*
X16475078Y-9541004D01*
X16475076Y-9541005D01*
X16327242Y-9620024D01*
X16166823Y-9668687D01*
X16041804Y-9681000D01*
X15958196Y-9681000D01*
X15833177Y-9668687D01*
X15672758Y-9620024D01*
X15524924Y-9541005D01*
X15524922Y-9541004D01*
X15395341Y-9434659D01*
X15288996Y-9305078D01*
X15225758Y-9186768D01*
X15209976Y-9157242D01*
X15161313Y-8996823D01*
X15144883Y-8830000D01*
X15161313Y-8663177D01*
X15209976Y-8502758D01*
X15288995Y-8354924D01*
X15288996Y-8354922D01*
X15395341Y-8225341D01*
X15524922Y-8118996D01*
X15540094Y-8110886D01*
X15672758Y-8039976D01*
X15833177Y-7991313D01*
X15958196Y-7979000D01*
X16041804Y-7979000D01*
X16166823Y-7991313D01*
X16166823Y-7991313D01*
G37*
G36*
X28166823Y-7991313D02*
G01*
X28327242Y-8039976D01*
X28459906Y-8110886D01*
X28475078Y-8118996D01*
X28604659Y-8225341D01*
X28711004Y-8354922D01*
X28711005Y-8354924D01*
X28790024Y-8502758D01*
X28838687Y-8663177D01*
X28855117Y-8830000D01*
X28838687Y-8996823D01*
X28790024Y-9157242D01*
X28774242Y-9186768D01*
X28711004Y-9305078D01*
X28604659Y-9434659D01*
X28475078Y-9541004D01*
X28475076Y-9541005D01*
X28327242Y-9620024D01*
X28166823Y-9668687D01*
X28041804Y-9681000D01*
X27958196Y-9681000D01*
X27833177Y-9668687D01*
X27672758Y-9620024D01*
X27524924Y-9541005D01*
X27524922Y-9541004D01*
X27395341Y-9434659D01*
X27288996Y-9305078D01*
X27225758Y-9186768D01*
X27209976Y-9157242D01*
X27161313Y-8996823D01*
X27144883Y-8830000D01*
X27161313Y-8663177D01*
X27209976Y-8502758D01*
X27288995Y-8354924D01*
X27288996Y-8354922D01*
X27395341Y-8225341D01*
X27524922Y-8118996D01*
X27540094Y-8110886D01*
X27672758Y-8039976D01*
X27833177Y-7991313D01*
X27958196Y-7979000D01*
X28041804Y-7979000D01*
X28166823Y-7991313D01*
X28166823Y-7991313D01*
G37*
G36*
X23786823Y-7991313D02*
G01*
X23947242Y-8039976D01*
X24079906Y-8110886D01*
X24095078Y-8118996D01*
X24224659Y-8225341D01*
X24331004Y-8354922D01*
X24331005Y-8354924D01*
X24410024Y-8502758D01*
X24458687Y-8663177D01*
X24475117Y-8830000D01*
X24458687Y-8996823D01*
X24410024Y-9157242D01*
X24394242Y-9186768D01*
X24331004Y-9305078D01*
X24224659Y-9434659D01*
X24095078Y-9541004D01*
X24095076Y-9541005D01*
X23947242Y-9620024D01*
X23786823Y-9668687D01*
X23661804Y-9681000D01*
X23578196Y-9681000D01*
X23453177Y-9668687D01*
X23292758Y-9620024D01*
X23144924Y-9541005D01*
X23144922Y-9541004D01*
X23015341Y-9434659D01*
X22908996Y-9305078D01*
X22845758Y-9186768D01*
X22829976Y-9157242D01*
X22781313Y-8996823D01*
X22764883Y-8830000D01*
X22781313Y-8663177D01*
X22829976Y-8502758D01*
X22908995Y-8354924D01*
X22908996Y-8354922D01*
X23015341Y-8225341D01*
X23144922Y-8118996D01*
X23160094Y-8110886D01*
X23292758Y-8039976D01*
X23453177Y-7991313D01*
X23578196Y-7979000D01*
X23661804Y-7979000D01*
X23786823Y-7991313D01*
X23786823Y-7991313D01*
G37*
G36*
X44224549Y-6951116D02*
G01*
X44335734Y-6973232D01*
X44545203Y-7059997D01*
X44733720Y-7185960D01*
X44894040Y-7346280D01*
X45020003Y-7534797D01*
X45020004Y-7534799D01*
X45106768Y-7744267D01*
X45151000Y-7966635D01*
X45151000Y-8193365D01*
X45128884Y-8304549D01*
X45106768Y-8415734D01*
X45020003Y-8625203D01*
X44894040Y-8813720D01*
X44733720Y-8974040D01*
X44545203Y-9100003D01*
X44335734Y-9186768D01*
X44224549Y-9208884D01*
X44113365Y-9231000D01*
X43886635Y-9231000D01*
X43775451Y-9208884D01*
X43664266Y-9186768D01*
X43454797Y-9100003D01*
X43266280Y-8974040D01*
X43105960Y-8813720D01*
X42979997Y-8625203D01*
X42893232Y-8415734D01*
X42871116Y-8304549D01*
X42849000Y-8193365D01*
X42849000Y-7966635D01*
X42893232Y-7744267D01*
X42979996Y-7534799D01*
X42979997Y-7534797D01*
X43105960Y-7346280D01*
X43266280Y-7185960D01*
X43454797Y-7059997D01*
X43664266Y-6973232D01*
X43775451Y-6951116D01*
X43886635Y-6929000D01*
X44113365Y-6929000D01*
X44224549Y-6951116D01*
X44224549Y-6951116D01*
G37*
G36*
X35786823Y-5451313D02*
G01*
X35947242Y-5499976D01*
X36079906Y-5570886D01*
X36095078Y-5578996D01*
X36224659Y-5685341D01*
X36331004Y-5814922D01*
X36331005Y-5814924D01*
X36410024Y-5962758D01*
X36458687Y-6123177D01*
X36475117Y-6290000D01*
X36458687Y-6456823D01*
X36410024Y-6617242D01*
X36339114Y-6749906D01*
X36331004Y-6765078D01*
X36224659Y-6894659D01*
X36095078Y-7001004D01*
X36095076Y-7001005D01*
X35947242Y-7080024D01*
X35786823Y-7128687D01*
X35661804Y-7141000D01*
X35578196Y-7141000D01*
X35453177Y-7128687D01*
X35292758Y-7080024D01*
X35144924Y-7001005D01*
X35144922Y-7001004D01*
X35015341Y-6894659D01*
X34908996Y-6765078D01*
X34900886Y-6749906D01*
X34829976Y-6617242D01*
X34781313Y-6456823D01*
X34764883Y-6290000D01*
X34781313Y-6123177D01*
X34829976Y-5962758D01*
X34908995Y-5814924D01*
X34908996Y-5814922D01*
X35015341Y-5685341D01*
X35144922Y-5578996D01*
X35160094Y-5570886D01*
X35292758Y-5499976D01*
X35453177Y-5451313D01*
X35578196Y-5439000D01*
X35661804Y-5439000D01*
X35786823Y-5451313D01*
X35786823Y-5451313D01*
G37*
G36*
X28166823Y-5451313D02*
G01*
X28327242Y-5499976D01*
X28459906Y-5570886D01*
X28475078Y-5578996D01*
X28604659Y-5685341D01*
X28711004Y-5814922D01*
X28711005Y-5814924D01*
X28790024Y-5962758D01*
X28838687Y-6123177D01*
X28855117Y-6290000D01*
X28838687Y-6456823D01*
X28790024Y-6617242D01*
X28719114Y-6749906D01*
X28711004Y-6765078D01*
X28604659Y-6894659D01*
X28475078Y-7001004D01*
X28475076Y-7001005D01*
X28327242Y-7080024D01*
X28166823Y-7128687D01*
X28041804Y-7141000D01*
X27958196Y-7141000D01*
X27833177Y-7128687D01*
X27672758Y-7080024D01*
X27524924Y-7001005D01*
X27524922Y-7001004D01*
X27395341Y-6894659D01*
X27288996Y-6765078D01*
X27280886Y-6749906D01*
X27209976Y-6617242D01*
X27161313Y-6456823D01*
X27144883Y-6290000D01*
X27161313Y-6123177D01*
X27209976Y-5962758D01*
X27288995Y-5814924D01*
X27288996Y-5814922D01*
X27395341Y-5685341D01*
X27524922Y-5578996D01*
X27540094Y-5570886D01*
X27672758Y-5499976D01*
X27833177Y-5451313D01*
X27958196Y-5439000D01*
X28041804Y-5439000D01*
X28166823Y-5451313D01*
X28166823Y-5451313D01*
G37*
G36*
X23786823Y-5451313D02*
G01*
X23947242Y-5499976D01*
X24079906Y-5570886D01*
X24095078Y-5578996D01*
X24224659Y-5685341D01*
X24331004Y-5814922D01*
X24331005Y-5814924D01*
X24410024Y-5962758D01*
X24458687Y-6123177D01*
X24475117Y-6290000D01*
X24458687Y-6456823D01*
X24410024Y-6617242D01*
X24339114Y-6749906D01*
X24331004Y-6765078D01*
X24224659Y-6894659D01*
X24095078Y-7001004D01*
X24095076Y-7001005D01*
X23947242Y-7080024D01*
X23786823Y-7128687D01*
X23661804Y-7141000D01*
X23578196Y-7141000D01*
X23453177Y-7128687D01*
X23292758Y-7080024D01*
X23144924Y-7001005D01*
X23144922Y-7001004D01*
X23015341Y-6894659D01*
X22908996Y-6765078D01*
X22900886Y-6749906D01*
X22829976Y-6617242D01*
X22781313Y-6456823D01*
X22764883Y-6290000D01*
X22781313Y-6123177D01*
X22829976Y-5962758D01*
X22908995Y-5814924D01*
X22908996Y-5814922D01*
X23015341Y-5685341D01*
X23144922Y-5578996D01*
X23160094Y-5570886D01*
X23292758Y-5499976D01*
X23453177Y-5451313D01*
X23578196Y-5439000D01*
X23661804Y-5439000D01*
X23786823Y-5451313D01*
X23786823Y-5451313D01*
G37*
G36*
X16166823Y-5451313D02*
G01*
X16327242Y-5499976D01*
X16459906Y-5570886D01*
X16475078Y-5578996D01*
X16604659Y-5685341D01*
X16711004Y-5814922D01*
X16711005Y-5814924D01*
X16790024Y-5962758D01*
X16838687Y-6123177D01*
X16855117Y-6290000D01*
X16838687Y-6456823D01*
X16790024Y-6617242D01*
X16719114Y-6749906D01*
X16711004Y-6765078D01*
X16604659Y-6894659D01*
X16475078Y-7001004D01*
X16475076Y-7001005D01*
X16327242Y-7080024D01*
X16166823Y-7128687D01*
X16041804Y-7141000D01*
X15958196Y-7141000D01*
X15833177Y-7128687D01*
X15672758Y-7080024D01*
X15524924Y-7001005D01*
X15524922Y-7001004D01*
X15395341Y-6894659D01*
X15288996Y-6765078D01*
X15280886Y-6749906D01*
X15209976Y-6617242D01*
X15161313Y-6456823D01*
X15144883Y-6290000D01*
X15161313Y-6123177D01*
X15209976Y-5962758D01*
X15288995Y-5814924D01*
X15288996Y-5814922D01*
X15395341Y-5685341D01*
X15524922Y-5578996D01*
X15540094Y-5570886D01*
X15672758Y-5499976D01*
X15833177Y-5451313D01*
X15958196Y-5439000D01*
X16041804Y-5439000D01*
X16166823Y-5451313D01*
X16166823Y-5451313D01*
G37*
G36*
X11786823Y-5451313D02*
G01*
X11947242Y-5499976D01*
X12079906Y-5570886D01*
X12095078Y-5578996D01*
X12224659Y-5685341D01*
X12331004Y-5814922D01*
X12331005Y-5814924D01*
X12410024Y-5962758D01*
X12458687Y-6123177D01*
X12475117Y-6290000D01*
X12458687Y-6456823D01*
X12410024Y-6617242D01*
X12339114Y-6749906D01*
X12331004Y-6765078D01*
X12224659Y-6894659D01*
X12095078Y-7001004D01*
X12095076Y-7001005D01*
X11947242Y-7080024D01*
X11786823Y-7128687D01*
X11661804Y-7141000D01*
X11578196Y-7141000D01*
X11453177Y-7128687D01*
X11292758Y-7080024D01*
X11144924Y-7001005D01*
X11144922Y-7001004D01*
X11015341Y-6894659D01*
X10908996Y-6765078D01*
X10900886Y-6749906D01*
X10829976Y-6617242D01*
X10781313Y-6456823D01*
X10764883Y-6290000D01*
X10781313Y-6123177D01*
X10829976Y-5962758D01*
X10908995Y-5814924D01*
X10908996Y-5814922D01*
X11015341Y-5685341D01*
X11144922Y-5578996D01*
X11160094Y-5570886D01*
X11292758Y-5499976D01*
X11453177Y-5451313D01*
X11578196Y-5439000D01*
X11661804Y-5439000D01*
X11786823Y-5451313D01*
X11786823Y-5451313D01*
G37*
G36*
X4166823Y-5451313D02*
G01*
X4327242Y-5499976D01*
X4459906Y-5570886D01*
X4475078Y-5578996D01*
X4604659Y-5685341D01*
X4711004Y-5814922D01*
X4711005Y-5814924D01*
X4790024Y-5962758D01*
X4838687Y-6123177D01*
X4855117Y-6290000D01*
X4838687Y-6456823D01*
X4790024Y-6617242D01*
X4719114Y-6749906D01*
X4711004Y-6765078D01*
X4604659Y-6894659D01*
X4475078Y-7001004D01*
X4475076Y-7001005D01*
X4327242Y-7080024D01*
X4166823Y-7128687D01*
X4041804Y-7141000D01*
X3958196Y-7141000D01*
X3833177Y-7128687D01*
X3672758Y-7080024D01*
X3524924Y-7001005D01*
X3524922Y-7001004D01*
X3395341Y-6894659D01*
X3288996Y-6765078D01*
X3280886Y-6749906D01*
X3209976Y-6617242D01*
X3161313Y-6456823D01*
X3144883Y-6290000D01*
X3161313Y-6123177D01*
X3209976Y-5962758D01*
X3288995Y-5814924D01*
X3288996Y-5814922D01*
X3395341Y-5685341D01*
X3524922Y-5578996D01*
X3540094Y-5570886D01*
X3672758Y-5499976D01*
X3833177Y-5451313D01*
X3958196Y-5439000D01*
X4041804Y-5439000D01*
X4166823Y-5451313D01*
X4166823Y-5451313D01*
G37*
G36*
X28851000Y-4601000D02*
G01*
X27149000Y-4601000D01*
X27149000Y-2899000D01*
X28851000Y-2899000D01*
X28851000Y-4601000D01*
X28851000Y-4601000D01*
G37*
G36*
X23786823Y-2911313D02*
G01*
X23947242Y-2959976D01*
X24079906Y-3030886D01*
X24095078Y-3038996D01*
X24224659Y-3145341D01*
X24331004Y-3274922D01*
X24331005Y-3274924D01*
X24410024Y-3422758D01*
X24458687Y-3583177D01*
X24475117Y-3750000D01*
X24458687Y-3916823D01*
X24410024Y-4077242D01*
X24339114Y-4209906D01*
X24331004Y-4225078D01*
X24224659Y-4354659D01*
X24095078Y-4461004D01*
X24095076Y-4461005D01*
X23947242Y-4540024D01*
X23786823Y-4588687D01*
X23661804Y-4601000D01*
X23578196Y-4601000D01*
X23453177Y-4588687D01*
X23292758Y-4540024D01*
X23144924Y-4461005D01*
X23144922Y-4461004D01*
X23015341Y-4354659D01*
X22908996Y-4225078D01*
X22900886Y-4209906D01*
X22829976Y-4077242D01*
X22781313Y-3916823D01*
X22764883Y-3750000D01*
X22781313Y-3583177D01*
X22829976Y-3422758D01*
X22908995Y-3274924D01*
X22908996Y-3274922D01*
X23015341Y-3145341D01*
X23144922Y-3038996D01*
X23160094Y-3030886D01*
X23292758Y-2959976D01*
X23453177Y-2911313D01*
X23578196Y-2899000D01*
X23661804Y-2899000D01*
X23786823Y-2911313D01*
X23786823Y-2911313D01*
G37*
G36*
X4851000Y-4601000D02*
G01*
X3149000Y-4601000D01*
X3149000Y-2899000D01*
X4851000Y-2899000D01*
X4851000Y-4601000D01*
X4851000Y-4601000D01*
G37*
G36*
X11786823Y-2911313D02*
G01*
X11947242Y-2959976D01*
X12079906Y-3030886D01*
X12095078Y-3038996D01*
X12224659Y-3145341D01*
X12331004Y-3274922D01*
X12331005Y-3274924D01*
X12410024Y-3422758D01*
X12458687Y-3583177D01*
X12475117Y-3750000D01*
X12458687Y-3916823D01*
X12410024Y-4077242D01*
X12339114Y-4209906D01*
X12331004Y-4225078D01*
X12224659Y-4354659D01*
X12095078Y-4461004D01*
X12095076Y-4461005D01*
X11947242Y-4540024D01*
X11786823Y-4588687D01*
X11661804Y-4601000D01*
X11578196Y-4601000D01*
X11453177Y-4588687D01*
X11292758Y-4540024D01*
X11144924Y-4461005D01*
X11144922Y-4461004D01*
X11015341Y-4354659D01*
X10908996Y-4225078D01*
X10900886Y-4209906D01*
X10829976Y-4077242D01*
X10781313Y-3916823D01*
X10764883Y-3750000D01*
X10781313Y-3583177D01*
X10829976Y-3422758D01*
X10908995Y-3274924D01*
X10908996Y-3274922D01*
X11015341Y-3145341D01*
X11144922Y-3038996D01*
X11160094Y-3030886D01*
X11292758Y-2959976D01*
X11453177Y-2911313D01*
X11578196Y-2899000D01*
X11661804Y-2899000D01*
X11786823Y-2911313D01*
X11786823Y-2911313D01*
G37*
G36*
X16851000Y-4601000D02*
G01*
X15149000Y-4601000D01*
X15149000Y-2899000D01*
X16851000Y-2899000D01*
X16851000Y-4601000D01*
X16851000Y-4601000D01*
G37*
G36*
X35786823Y-2911313D02*
G01*
X35947242Y-2959976D01*
X36079906Y-3030886D01*
X36095078Y-3038996D01*
X36224659Y-3145341D01*
X36331004Y-3274922D01*
X36331005Y-3274924D01*
X36410024Y-3422758D01*
X36458687Y-3583177D01*
X36475117Y-3750000D01*
X36458687Y-3916823D01*
X36410024Y-4077242D01*
X36339114Y-4209906D01*
X36331004Y-4225078D01*
X36224659Y-4354659D01*
X36095078Y-4461004D01*
X36095076Y-4461005D01*
X35947242Y-4540024D01*
X35786823Y-4588687D01*
X35661804Y-4601000D01*
X35578196Y-4601000D01*
X35453177Y-4588687D01*
X35292758Y-4540024D01*
X35144924Y-4461005D01*
X35144922Y-4461004D01*
X35015341Y-4354659D01*
X34908996Y-4225078D01*
X34900886Y-4209906D01*
X34829976Y-4077242D01*
X34781313Y-3916823D01*
X34764883Y-3750000D01*
X34781313Y-3583177D01*
X34829976Y-3422758D01*
X34908995Y-3274924D01*
X34908996Y-3274922D01*
X35015341Y-3145341D01*
X35144922Y-3038996D01*
X35160094Y-3030886D01*
X35292758Y-2959976D01*
X35453177Y-2911313D01*
X35578196Y-2899000D01*
X35661804Y-2899000D01*
X35786823Y-2911313D01*
X35786823Y-2911313D01*
G37*
M02*
