M48
; DRILL file {KiCad (5.1.2-1)-1} date Thursday, 26 March 2020 at 14:57:00
; FORMAT={-:-/ absolute / metric / decimal}
; #@! TF.CreationDate,2020-03-26T14:57:00-05:00
; #@! TF.GenerationSoftware,Kicad,Pcbnew,(5.1.2-1)-1
; #@! TF.FileFunction,Plated,1,2,PTH
FMAT,2
METRIC
T1C0.400
T2C0.800
T3C0.900
T4C1.100
T5C1.200
T6C1.500
T7C1.900
%
G90
G05
T1
X112.0Y-190.75
T2
X22.0Y-34.88
X22.0Y-42.5
X14.895Y-183.825
X22.515Y-183.825
X38.8Y-44.0
X38.8Y-46.0
X31.25Y-22.13
X31.25Y-29.75
X16.0Y-34.88
X16.0Y-42.5
X31.25Y-32.63
X31.25Y-40.25
X37.25Y-32.63
X37.25Y-40.25
X19.0Y-34.88
X19.0Y-42.5
X29.75Y-44.0
X29.75Y-46.0
X28.25Y-32.63
X28.25Y-40.25
X28.0Y-3.75
X28.0Y-6.29
X28.0Y-8.83
X28.0Y-11.37
X28.0Y-13.91
X28.0Y-16.45
X28.0Y-18.99
X35.62Y-3.75
X35.62Y-6.29
X35.62Y-8.83
X35.62Y-11.37
X35.62Y-13.91
X35.62Y-16.45
X35.62Y-18.99
X4.0Y-26.5
X4.0Y-29.04
X4.0Y-31.58
X4.0Y-34.12
X4.0Y-36.66
X4.0Y-39.2
X4.0Y-41.74
X4.0Y-44.28
X11.62Y-26.5
X11.62Y-29.04
X11.62Y-31.58
X11.62Y-34.12
X11.62Y-36.66
X11.62Y-39.2
X11.62Y-41.74
X11.62Y-44.28
X37.25Y-22.13
X37.25Y-29.75
X40.25Y-32.63
X40.25Y-40.25
X34.25Y-32.63
X34.25Y-40.25
X28.25Y-22.13
X28.25Y-29.75
X7.0Y-47.38
X7.0Y-55.0
X43.25Y-32.63
X43.25Y-40.25
X25.0Y-34.88
X25.0Y-42.5
X15.0Y-178.5
X17.0Y-178.5
X16.0Y-3.75
X16.0Y-6.29
X16.0Y-8.83
X16.0Y-11.37
X16.0Y-13.91
X16.0Y-16.45
X16.0Y-18.99
X23.62Y-3.75
X23.62Y-6.29
X23.62Y-8.83
X23.62Y-11.37
X23.62Y-13.91
X23.62Y-16.45
X23.62Y-18.99
X34.25Y-22.13
X34.25Y-29.75
X16.0Y-24.0
X16.0Y-26.54
X16.0Y-29.08
X16.0Y-31.62
X23.62Y-24.0
X23.62Y-26.54
X23.62Y-29.08
X23.62Y-31.62
X4.0Y-47.38
X4.0Y-55.0
X4.0Y-3.75
X4.0Y-6.29
X4.0Y-8.83
X4.0Y-11.37
X4.0Y-13.91
X4.0Y-16.45
X4.0Y-18.99
X4.0Y-21.53
X11.62Y-3.75
X11.62Y-6.29
X11.62Y-8.83
X11.62Y-11.37
X11.62Y-13.91
X11.62Y-16.45
X11.62Y-18.99
X11.62Y-21.53
X10.0Y-47.38
X10.0Y-55.0
T3
X60.46Y-23.5
X63.0Y-23.5
X29.0Y-58.96
X29.0Y-61.5
X71.5Y-12.46
X71.5Y-15.0
X29.0Y-96.5
X29.0Y-99.04
X44.0Y-23.0
X44.0Y-25.54
X71.5Y-32.0
X71.5Y-34.54
X80.0Y-23.5
X82.54Y-23.5
X8.5Y-174.46
X8.5Y-177.0
X69.0Y-26.0
X71.5Y-21.0
X74.0Y-26.0
T4
X8.5Y-183.5
X8.5Y-186.5
X8.5Y-189.5
X15.325Y-191.375
X22.945Y-191.375
X15.325Y-187.5
X22.945Y-187.5
T5
X142.0Y-191.75
X145.81Y-191.75
X142.0Y-183.75
X145.81Y-183.75
X142.0Y-191.75
X145.81Y-191.75
X142.0Y-183.75
X145.81Y-183.75
T6
X31.0Y-180.52
X31.0Y-183.62
X44.0Y-180.52
X44.0Y-183.62
X44.0Y-191.92
X57.0Y-180.52
X57.0Y-183.62
X57.0Y-191.92
X70.0Y-180.52
X70.0Y-183.62
X70.0Y-191.92
X44.0Y-8.08
X44.0Y-16.38
X44.0Y-19.48
X83.0Y-180.52
X83.0Y-183.62
X83.0Y-191.92
X96.0Y-180.52
X96.0Y-183.62
X96.0Y-191.92
X31.0Y-191.92
T7
X105.4Y-187.0
X118.6Y-187.0
X123.4Y-187.0
X136.6Y-187.0
T2
G00X9.25Y-180.65
M15
G01X7.75Y-180.65
M16
G05
G00X9.25Y-192.35
M15
G01X7.75Y-192.35
M16
G05
T0
M30
