G04 #@! TF.GenerationSoftware,KiCad,Pcbnew,(5.1.2-1)-1*
G04 #@! TF.CreationDate,2020-03-26T14:57:03-05:00*
G04 #@! TF.ProjectId,Knave+Death,4b6e6176-652b-4446-9561-74682e6b6963,rev?*
G04 #@! TF.SameCoordinates,Original*
G04 #@! TF.FileFunction,Copper,L1,Top*
G04 #@! TF.FilePolarity,Positive*
%FSLAX46Y46*%
G04 Gerber Fmt 4.6, Leading zero omitted, Abs format (unit mm)*
G04 Created by KiCad (PCBNEW (5.1.2-1)-1) date 2020-03-26 14:57:03*
%MOMM*%
%LPD*%
G04 APERTURE LIST*
%ADD10C,1.600000*%
%ADD11R,1.600000X1.600000*%
%ADD12C,1.620000*%
%ADD13O,1.600000X1.600000*%
%ADD14C,3.000000*%
%ADD15R,4.000000X4.000000*%
%ADD16R,1.800000X1.800000*%
%ADD17C,1.800000*%
%ADD18O,3.000000X1.500000*%
%ADD19R,2.200000X2.200000*%
%ADD20O,2.200000X2.200000*%
%ADD21C,2.200000*%
%ADD22C,0.100000*%
%ADD23O,1.800000X3.600000*%
%ADD24C,0.800000*%
%ADD25C,1.000000*%
%ADD26C,0.500000*%
%ADD27C,0.250000*%
%ADD28C,0.254000*%
G04 APERTURE END LIST*
D10*
X17000000Y-178500000D03*
D11*
X15000000Y-178500000D03*
D10*
X38800000Y-46000000D03*
D11*
X38800000Y-44000000D03*
D10*
X29750000Y-46000000D03*
D11*
X29750000Y-44000000D03*
D12*
X69000000Y-26000000D03*
X71500000Y-21000000D03*
X74000000Y-26000000D03*
D13*
X23620000Y-3750000D03*
X16000000Y-18990000D03*
X23620000Y-6290000D03*
X16000000Y-16450000D03*
X23620000Y-8830000D03*
X16000000Y-13910000D03*
X23620000Y-11370000D03*
X16000000Y-11370000D03*
X23620000Y-13910000D03*
X16000000Y-8830000D03*
X23620000Y-16450000D03*
X16000000Y-6290000D03*
X23620000Y-18990000D03*
D11*
X16000000Y-3750000D03*
D14*
X118600000Y-187000000D03*
X105400000Y-187000000D03*
D15*
X112000000Y-187000000D03*
X130000000Y-187000000D03*
D14*
X123400000Y-187000000D03*
X136600000Y-187000000D03*
D16*
X71500000Y-32000000D03*
D17*
X71500000Y-34540000D03*
X60460000Y-23500000D03*
D16*
X63000000Y-23500000D03*
X71500000Y-15000000D03*
D17*
X71500000Y-12460000D03*
D16*
X80000000Y-23500000D03*
D17*
X82540000Y-23500000D03*
D16*
X29000000Y-61500000D03*
D17*
X29000000Y-58960000D03*
X29000000Y-99040000D03*
D16*
X29000000Y-96500000D03*
D17*
X8500000Y-174460000D03*
D16*
X8500000Y-177000000D03*
D13*
X4000000Y-47380000D03*
D10*
X4000000Y-55000000D03*
X34250000Y-40250000D03*
D13*
X34250000Y-32630000D03*
X7000000Y-47380000D03*
D10*
X7000000Y-55000000D03*
X37250000Y-40250000D03*
D13*
X37250000Y-32630000D03*
D10*
X10000000Y-55000000D03*
D13*
X10000000Y-47380000D03*
X40250000Y-32630000D03*
D10*
X40250000Y-40250000D03*
D13*
X16000000Y-34880000D03*
D10*
X16000000Y-42500000D03*
X43250000Y-40250000D03*
D13*
X43250000Y-32630000D03*
D10*
X19000000Y-42500000D03*
D13*
X19000000Y-34880000D03*
X22000000Y-34880000D03*
D10*
X22000000Y-42500000D03*
D13*
X25000000Y-34880000D03*
D10*
X25000000Y-42500000D03*
X28250000Y-40250000D03*
D13*
X28250000Y-32630000D03*
D10*
X14895001Y-183825001D03*
D13*
X22515001Y-183825001D03*
X28250000Y-22130000D03*
D10*
X28250000Y-29750000D03*
D13*
X31250000Y-32630000D03*
D10*
X31250000Y-40250000D03*
D17*
X8500000Y-183500000D03*
X8500000Y-186500000D03*
X8500000Y-189500000D03*
D18*
X8500000Y-192350000D03*
X8500000Y-180650000D03*
D13*
X11620000Y-26500000D03*
X4000000Y-44280000D03*
X11620000Y-29040000D03*
X4000000Y-41740000D03*
X11620000Y-31580000D03*
X4000000Y-39200000D03*
X11620000Y-34120000D03*
X4000000Y-36660000D03*
X11620000Y-36660000D03*
X4000000Y-34120000D03*
X11620000Y-39200000D03*
X4000000Y-31580000D03*
X11620000Y-41740000D03*
X4000000Y-29040000D03*
X11620000Y-44280000D03*
D11*
X4000000Y-26500000D03*
X4000000Y-3750000D03*
D13*
X11620000Y-21530000D03*
X4000000Y-6290000D03*
X11620000Y-18990000D03*
X4000000Y-8830000D03*
X11620000Y-16450000D03*
X4000000Y-11370000D03*
X11620000Y-13910000D03*
X4000000Y-13910000D03*
X11620000Y-11370000D03*
X4000000Y-16450000D03*
X11620000Y-8830000D03*
X4000000Y-18990000D03*
X11620000Y-6290000D03*
X4000000Y-21530000D03*
X11620000Y-3750000D03*
D11*
X16000000Y-24000000D03*
D13*
X23620000Y-31620000D03*
X16000000Y-26540000D03*
X23620000Y-29080000D03*
X16000000Y-29080000D03*
X23620000Y-26540000D03*
X16000000Y-31620000D03*
X23620000Y-24000000D03*
D19*
X15325001Y-187500000D03*
D20*
X22945001Y-187500000D03*
X22945001Y-191375001D03*
D19*
X15325001Y-191375001D03*
D21*
X31000000Y-180520000D03*
X31000000Y-183620000D03*
X31000000Y-191920000D03*
X44000000Y-191920000D03*
X44000000Y-183620000D03*
X44000000Y-180520000D03*
X57000000Y-180520000D03*
X57000000Y-183620000D03*
X57000000Y-191920000D03*
X70000000Y-191920000D03*
X70000000Y-183620000D03*
X70000000Y-180520000D03*
X83000000Y-180520000D03*
X83000000Y-183620000D03*
X83000000Y-191920000D03*
X96000000Y-191920000D03*
X96000000Y-183620000D03*
X96000000Y-180520000D03*
D16*
X44000000Y-23000000D03*
D17*
X44000000Y-25540000D03*
D22*
G36*
X142674504Y-189951204D02*
G01*
X142698773Y-189954804D01*
X142722571Y-189960765D01*
X142745671Y-189969030D01*
X142767849Y-189979520D01*
X142788893Y-189992133D01*
X142808598Y-190006747D01*
X142826777Y-190023223D01*
X142843253Y-190041402D01*
X142857867Y-190061107D01*
X142870480Y-190082151D01*
X142880970Y-190104329D01*
X142889235Y-190127429D01*
X142895196Y-190151227D01*
X142898796Y-190175496D01*
X142900000Y-190200000D01*
X142900000Y-193300000D01*
X142898796Y-193324504D01*
X142895196Y-193348773D01*
X142889235Y-193372571D01*
X142880970Y-193395671D01*
X142870480Y-193417849D01*
X142857867Y-193438893D01*
X142843253Y-193458598D01*
X142826777Y-193476777D01*
X142808598Y-193493253D01*
X142788893Y-193507867D01*
X142767849Y-193520480D01*
X142745671Y-193530970D01*
X142722571Y-193539235D01*
X142698773Y-193545196D01*
X142674504Y-193548796D01*
X142650000Y-193550000D01*
X141350000Y-193550000D01*
X141325496Y-193548796D01*
X141301227Y-193545196D01*
X141277429Y-193539235D01*
X141254329Y-193530970D01*
X141232151Y-193520480D01*
X141211107Y-193507867D01*
X141191402Y-193493253D01*
X141173223Y-193476777D01*
X141156747Y-193458598D01*
X141142133Y-193438893D01*
X141129520Y-193417849D01*
X141119030Y-193395671D01*
X141110765Y-193372571D01*
X141104804Y-193348773D01*
X141101204Y-193324504D01*
X141100000Y-193300000D01*
X141100000Y-190200000D01*
X141101204Y-190175496D01*
X141104804Y-190151227D01*
X141110765Y-190127429D01*
X141119030Y-190104329D01*
X141129520Y-190082151D01*
X141142133Y-190061107D01*
X141156747Y-190041402D01*
X141173223Y-190023223D01*
X141191402Y-190006747D01*
X141211107Y-189992133D01*
X141232151Y-189979520D01*
X141254329Y-189969030D01*
X141277429Y-189960765D01*
X141301227Y-189954804D01*
X141325496Y-189951204D01*
X141350000Y-189950000D01*
X142650000Y-189950000D01*
X142674504Y-189951204D01*
X142674504Y-189951204D01*
G37*
D17*
X142000000Y-191750000D03*
D23*
X145810000Y-191750000D03*
D21*
X44000000Y-19480000D03*
X44000000Y-16380000D03*
X44000000Y-8080000D03*
D23*
X145810000Y-183750000D03*
D22*
G36*
X142674504Y-181951204D02*
G01*
X142698773Y-181954804D01*
X142722571Y-181960765D01*
X142745671Y-181969030D01*
X142767849Y-181979520D01*
X142788893Y-181992133D01*
X142808598Y-182006747D01*
X142826777Y-182023223D01*
X142843253Y-182041402D01*
X142857867Y-182061107D01*
X142870480Y-182082151D01*
X142880970Y-182104329D01*
X142889235Y-182127429D01*
X142895196Y-182151227D01*
X142898796Y-182175496D01*
X142900000Y-182200000D01*
X142900000Y-185300000D01*
X142898796Y-185324504D01*
X142895196Y-185348773D01*
X142889235Y-185372571D01*
X142880970Y-185395671D01*
X142870480Y-185417849D01*
X142857867Y-185438893D01*
X142843253Y-185458598D01*
X142826777Y-185476777D01*
X142808598Y-185493253D01*
X142788893Y-185507867D01*
X142767849Y-185520480D01*
X142745671Y-185530970D01*
X142722571Y-185539235D01*
X142698773Y-185545196D01*
X142674504Y-185548796D01*
X142650000Y-185550000D01*
X141350000Y-185550000D01*
X141325496Y-185548796D01*
X141301227Y-185545196D01*
X141277429Y-185539235D01*
X141254329Y-185530970D01*
X141232151Y-185520480D01*
X141211107Y-185507867D01*
X141191402Y-185493253D01*
X141173223Y-185476777D01*
X141156747Y-185458598D01*
X141142133Y-185438893D01*
X141129520Y-185417849D01*
X141119030Y-185395671D01*
X141110765Y-185372571D01*
X141104804Y-185348773D01*
X141101204Y-185324504D01*
X141100000Y-185300000D01*
X141100000Y-182200000D01*
X141101204Y-182175496D01*
X141104804Y-182151227D01*
X141110765Y-182127429D01*
X141119030Y-182104329D01*
X141129520Y-182082151D01*
X141142133Y-182061107D01*
X141156747Y-182041402D01*
X141173223Y-182023223D01*
X141191402Y-182006747D01*
X141211107Y-181992133D01*
X141232151Y-181979520D01*
X141254329Y-181969030D01*
X141277429Y-181960765D01*
X141301227Y-181954804D01*
X141325496Y-181951204D01*
X141350000Y-181950000D01*
X142650000Y-181950000D01*
X142674504Y-181951204D01*
X142674504Y-181951204D01*
G37*
D17*
X142000000Y-183750000D03*
D22*
G36*
X142674504Y-181951204D02*
G01*
X142698773Y-181954804D01*
X142722571Y-181960765D01*
X142745671Y-181969030D01*
X142767849Y-181979520D01*
X142788893Y-181992133D01*
X142808598Y-182006747D01*
X142826777Y-182023223D01*
X142843253Y-182041402D01*
X142857867Y-182061107D01*
X142870480Y-182082151D01*
X142880970Y-182104329D01*
X142889235Y-182127429D01*
X142895196Y-182151227D01*
X142898796Y-182175496D01*
X142900000Y-182200000D01*
X142900000Y-185300000D01*
X142898796Y-185324504D01*
X142895196Y-185348773D01*
X142889235Y-185372571D01*
X142880970Y-185395671D01*
X142870480Y-185417849D01*
X142857867Y-185438893D01*
X142843253Y-185458598D01*
X142826777Y-185476777D01*
X142808598Y-185493253D01*
X142788893Y-185507867D01*
X142767849Y-185520480D01*
X142745671Y-185530970D01*
X142722571Y-185539235D01*
X142698773Y-185545196D01*
X142674504Y-185548796D01*
X142650000Y-185550000D01*
X141350000Y-185550000D01*
X141325496Y-185548796D01*
X141301227Y-185545196D01*
X141277429Y-185539235D01*
X141254329Y-185530970D01*
X141232151Y-185520480D01*
X141211107Y-185507867D01*
X141191402Y-185493253D01*
X141173223Y-185476777D01*
X141156747Y-185458598D01*
X141142133Y-185438893D01*
X141129520Y-185417849D01*
X141119030Y-185395671D01*
X141110765Y-185372571D01*
X141104804Y-185348773D01*
X141101204Y-185324504D01*
X141100000Y-185300000D01*
X141100000Y-182200000D01*
X141101204Y-182175496D01*
X141104804Y-182151227D01*
X141110765Y-182127429D01*
X141119030Y-182104329D01*
X141129520Y-182082151D01*
X141142133Y-182061107D01*
X141156747Y-182041402D01*
X141173223Y-182023223D01*
X141191402Y-182006747D01*
X141211107Y-181992133D01*
X141232151Y-181979520D01*
X141254329Y-181969030D01*
X141277429Y-181960765D01*
X141301227Y-181954804D01*
X141325496Y-181951204D01*
X141350000Y-181950000D01*
X142650000Y-181950000D01*
X142674504Y-181951204D01*
X142674504Y-181951204D01*
G37*
D17*
X142000000Y-183750000D03*
D23*
X145810000Y-183750000D03*
X145810000Y-191750000D03*
D22*
G36*
X142674504Y-189951204D02*
G01*
X142698773Y-189954804D01*
X142722571Y-189960765D01*
X142745671Y-189969030D01*
X142767849Y-189979520D01*
X142788893Y-189992133D01*
X142808598Y-190006747D01*
X142826777Y-190023223D01*
X142843253Y-190041402D01*
X142857867Y-190061107D01*
X142870480Y-190082151D01*
X142880970Y-190104329D01*
X142889235Y-190127429D01*
X142895196Y-190151227D01*
X142898796Y-190175496D01*
X142900000Y-190200000D01*
X142900000Y-193300000D01*
X142898796Y-193324504D01*
X142895196Y-193348773D01*
X142889235Y-193372571D01*
X142880970Y-193395671D01*
X142870480Y-193417849D01*
X142857867Y-193438893D01*
X142843253Y-193458598D01*
X142826777Y-193476777D01*
X142808598Y-193493253D01*
X142788893Y-193507867D01*
X142767849Y-193520480D01*
X142745671Y-193530970D01*
X142722571Y-193539235D01*
X142698773Y-193545196D01*
X142674504Y-193548796D01*
X142650000Y-193550000D01*
X141350000Y-193550000D01*
X141325496Y-193548796D01*
X141301227Y-193545196D01*
X141277429Y-193539235D01*
X141254329Y-193530970D01*
X141232151Y-193520480D01*
X141211107Y-193507867D01*
X141191402Y-193493253D01*
X141173223Y-193476777D01*
X141156747Y-193458598D01*
X141142133Y-193438893D01*
X141129520Y-193417849D01*
X141119030Y-193395671D01*
X141110765Y-193372571D01*
X141104804Y-193348773D01*
X141101204Y-193324504D01*
X141100000Y-193300000D01*
X141100000Y-190200000D01*
X141101204Y-190175496D01*
X141104804Y-190151227D01*
X141110765Y-190127429D01*
X141119030Y-190104329D01*
X141129520Y-190082151D01*
X141142133Y-190061107D01*
X141156747Y-190041402D01*
X141173223Y-190023223D01*
X141191402Y-190006747D01*
X141211107Y-189992133D01*
X141232151Y-189979520D01*
X141254329Y-189969030D01*
X141277429Y-189960765D01*
X141301227Y-189954804D01*
X141325496Y-189951204D01*
X141350000Y-189950000D01*
X142650000Y-189950000D01*
X142674504Y-189951204D01*
X142674504Y-189951204D01*
G37*
D17*
X142000000Y-191750000D03*
D10*
X37250000Y-29750000D03*
D13*
X37250000Y-22130000D03*
D10*
X31250000Y-29750000D03*
D13*
X31250000Y-22130000D03*
X34250000Y-22130000D03*
D10*
X34250000Y-29750000D03*
D11*
X28000000Y-3750000D03*
D13*
X35620000Y-18990000D03*
X28000000Y-6290000D03*
X35620000Y-16450000D03*
X28000000Y-8830000D03*
X35620000Y-13910000D03*
X28000000Y-11370000D03*
X35620000Y-11370000D03*
X28000000Y-13910000D03*
X35620000Y-8830000D03*
X28000000Y-16450000D03*
X35620000Y-6290000D03*
X28000000Y-18990000D03*
X35620000Y-3750000D03*
D24*
X112000000Y-190750000D03*
D25*
X112000000Y-187000000D02*
X112000000Y-190750000D01*
D26*
X26380000Y-24000000D02*
X28250000Y-22130000D01*
X23620000Y-24000000D02*
X26380000Y-24000000D01*
X28250000Y-22130000D02*
X31250000Y-22130000D01*
D27*
X23620000Y-29080000D02*
X24745001Y-30205001D01*
X16000000Y-26540000D02*
X18540000Y-29080000D01*
X18540000Y-29080000D02*
X23620000Y-29080000D01*
X23424989Y-37024989D02*
X24075000Y-37675000D01*
X23424989Y-34188601D02*
X23424989Y-37024989D01*
X24745001Y-32868589D02*
X23424989Y-34188601D01*
X24745001Y-30205001D02*
X24745001Y-32868589D01*
X23874999Y-37474999D02*
X24075000Y-37675000D01*
X29750000Y-43350000D02*
X29750000Y-44000000D01*
X24075000Y-37675000D02*
X29750000Y-43350000D01*
X29750000Y-44000000D02*
X38800000Y-44000000D01*
X1524970Y-33309972D02*
X3459999Y-35245001D01*
X2753598Y-2174990D02*
X1524970Y-3403618D01*
X15474989Y-2174989D02*
X2753598Y-2174990D01*
X3459999Y-35245001D02*
X7954999Y-35245001D01*
X1524970Y-3403618D02*
X1524970Y-33309972D01*
X16000000Y-2700000D02*
X15474989Y-2174989D01*
X10820001Y-32379999D02*
X11620000Y-31580000D01*
X7954999Y-35245001D02*
X10820001Y-32379999D01*
X16000000Y-3750000D02*
X16000000Y-2700000D01*
X7954999Y-43425001D02*
X4000000Y-47380000D01*
X7954999Y-35245001D02*
X7954999Y-43425001D01*
X35375001Y-31504999D02*
X34250000Y-32630000D01*
X37738591Y-31504999D02*
X35375001Y-31504999D01*
X38638612Y-30604980D02*
X37738591Y-31504999D01*
X45275021Y-31717199D02*
X44162803Y-30604981D01*
X45275021Y-43770619D02*
X45275021Y-31717199D01*
X5595028Y-48975028D02*
X40070612Y-48975028D01*
X40070612Y-48975028D02*
X45275021Y-43770619D01*
X44162803Y-30604981D02*
X38638612Y-30604980D01*
X4000000Y-47380000D02*
X5595028Y-48975028D01*
X16000000Y-18990000D02*
X13500000Y-21490000D01*
X13500000Y-44065002D02*
X12065002Y-45500000D01*
X13500000Y-21490000D02*
X13500000Y-44065002D01*
X8880000Y-45500000D02*
X7000000Y-47380000D01*
X12065002Y-45500000D02*
X8880000Y-45500000D01*
X44825011Y-31903599D02*
X43976402Y-31054990D01*
X43976402Y-31054990D02*
X38825011Y-31054989D01*
X44825011Y-43584219D02*
X44825011Y-31903599D01*
X39884211Y-48525019D02*
X44825011Y-43584219D01*
X38825011Y-31054989D02*
X37250000Y-32630000D01*
X8145019Y-48525019D02*
X39884211Y-48525019D01*
X7000000Y-47380000D02*
X8145019Y-48525019D01*
X11131370Y-47380000D02*
X14000000Y-44511370D01*
X10000000Y-47380000D02*
X11131370Y-47380000D01*
X22820001Y-19789999D02*
X23620000Y-18990000D01*
X15884999Y-20115001D02*
X22494999Y-20115001D01*
X22494999Y-20115001D02*
X22820001Y-19789999D01*
X14000000Y-22000000D02*
X15884999Y-20115001D01*
X14000000Y-37600000D02*
X14000000Y-22000000D01*
X14000000Y-44511370D02*
X14000000Y-37600000D01*
X40250000Y-32630000D02*
X41375001Y-31504999D01*
X41375001Y-31504999D02*
X43790001Y-31504999D01*
X43790001Y-31504999D02*
X44375001Y-32089999D01*
X44375001Y-43226411D02*
X44375001Y-43124999D01*
X44375001Y-32089999D02*
X44375001Y-43124999D01*
X44375001Y-43397819D02*
X44375001Y-43124999D01*
X17575010Y-48075010D02*
X39697810Y-48075010D01*
X15025001Y-45525001D02*
X17575010Y-48075010D01*
X15013631Y-45525001D02*
X15025001Y-45525001D01*
X39697810Y-48075010D02*
X44375001Y-43397819D01*
X14000000Y-44511370D02*
X15013631Y-45525001D01*
X43250000Y-32630000D02*
X42124999Y-33755001D01*
X42124999Y-44840003D02*
X42124999Y-33755001D01*
X42124999Y-45011411D02*
X42124999Y-44840003D01*
X39511409Y-47625001D02*
X42124999Y-45011411D01*
X21875001Y-47625001D02*
X39511409Y-47625001D01*
X17125001Y-42875001D02*
X21875001Y-47625001D01*
X17125001Y-36005001D02*
X17125001Y-42875001D01*
X16000000Y-34880000D02*
X17125001Y-36005001D01*
X33709999Y-33755001D02*
X42124999Y-33755001D01*
X33124999Y-29192823D02*
X33124999Y-33170001D01*
X26120000Y-1250000D02*
X35421412Y-1250000D01*
X37920020Y-19862198D02*
X39290716Y-21232894D01*
X23620000Y-3750000D02*
X26120000Y-1250000D01*
X39290716Y-23027106D02*
X33124999Y-29192823D01*
X39290716Y-21232894D02*
X39290716Y-23027106D01*
X37920020Y-9857200D02*
X37920020Y-19862198D01*
X37467511Y-9404691D02*
X37920020Y-9857200D01*
X37467511Y-3296099D02*
X37467511Y-9404691D01*
X35421412Y-1250000D02*
X37467511Y-3296099D01*
X33124999Y-33170001D02*
X33709999Y-33755001D01*
X19000000Y-34880000D02*
X22000000Y-34880000D01*
X28075001Y-2624999D02*
X36160001Y-2624999D01*
X28000000Y-2700000D02*
X28075001Y-2624999D01*
X28000000Y-3750000D02*
X28000000Y-2700000D01*
X37017501Y-9017501D02*
X37017501Y-3482499D01*
X36160001Y-2624999D02*
X37017501Y-3482499D01*
X37470010Y-10043600D02*
X37017501Y-9591091D01*
X37470010Y-20048598D02*
X37470010Y-10043600D01*
X38840706Y-21419294D02*
X37470010Y-20048598D01*
X38840706Y-22840706D02*
X38840706Y-21419294D01*
X33000000Y-27500000D02*
X34181412Y-27500000D01*
X38375001Y-39170001D02*
X32375001Y-33170001D01*
X34181412Y-27500000D02*
X38840706Y-22840706D01*
X28289999Y-46205001D02*
X29209999Y-47125001D01*
X38375001Y-40875001D02*
X38375001Y-39170001D01*
X26125001Y-42960003D02*
X28289999Y-45125001D01*
X39925001Y-46574999D02*
X39925001Y-42425001D01*
X37017501Y-9591091D02*
X37017501Y-9017501D01*
X32375001Y-28124999D02*
X33000000Y-27500000D01*
X32375001Y-33170001D02*
X32375001Y-28124999D01*
X29209999Y-47125001D02*
X39374999Y-47125001D01*
X39374999Y-47125001D02*
X39925001Y-46574999D01*
X26125001Y-40361411D02*
X26125001Y-42960003D01*
X39925001Y-42425001D02*
X38375001Y-40875001D01*
X28289999Y-45125001D02*
X28289999Y-46205001D01*
X22000000Y-34880000D02*
X22000000Y-36236410D01*
X22000000Y-36236410D02*
X26125001Y-40361411D01*
X26000000Y-34880000D02*
X25000000Y-34880000D01*
X28250000Y-32630000D02*
X26000000Y-34880000D01*
X24416371Y-27665001D02*
X23079999Y-27665001D01*
X22494999Y-27080001D02*
X22494999Y-23363631D01*
X23079999Y-27665001D02*
X22494999Y-27080001D01*
X26868630Y-18990000D02*
X28000000Y-18990000D01*
X28250000Y-31498630D02*
X24416371Y-27665001D01*
X22494999Y-23363631D02*
X26868630Y-18990000D01*
X28250000Y-32630000D02*
X28250000Y-31498630D01*
X24419999Y-9629999D02*
X23620000Y-8830000D01*
X24745001Y-9955001D02*
X24419999Y-9629999D01*
X24745001Y-14450001D02*
X24745001Y-9955001D01*
X15749997Y-15035001D02*
X24160001Y-15035001D01*
X24160001Y-15035001D02*
X24745001Y-14450001D01*
X12919999Y-17864999D02*
X15749997Y-15035001D01*
X5125001Y-17864999D02*
X12919999Y-17864999D01*
X4000000Y-18990000D02*
X5125001Y-17864999D01*
X15200001Y-14709999D02*
X16000000Y-13910000D01*
X3285001Y-15035001D02*
X14874999Y-15035001D01*
X14874999Y-15035001D02*
X15200001Y-14709999D01*
X2874999Y-14624999D02*
X3285001Y-15035001D01*
X2874999Y-7415001D02*
X2874999Y-14624999D01*
X4000000Y-6290000D02*
X2874999Y-7415001D01*
X22820001Y-13110001D02*
X23620000Y-13910000D01*
X22494999Y-12784999D02*
X22820001Y-13110001D01*
X5414999Y-12784999D02*
X22494999Y-12784999D01*
X4000000Y-11370000D02*
X5414999Y-12784999D01*
X11079999Y-9955001D02*
X13044999Y-9955001D01*
X9954998Y-8830000D02*
X11079999Y-9955001D01*
X4000000Y-8830000D02*
X9954998Y-8830000D01*
X14170000Y-8830000D02*
X16000000Y-8830000D01*
X13044999Y-9955001D02*
X14170000Y-8830000D01*
X6540000Y-34120000D02*
X11620000Y-29040000D01*
X4000000Y-34120000D02*
X6540000Y-34120000D01*
X12689997Y-2624999D02*
X15064998Y-5000000D01*
X2939999Y-2624999D02*
X12689997Y-2624999D01*
X1974980Y-3590018D02*
X2939999Y-2624999D01*
X1974980Y-29554980D02*
X1974980Y-3590018D01*
X4000000Y-31580000D02*
X1974980Y-29554980D01*
X28799999Y-8030001D02*
X28000000Y-8830000D01*
X29125001Y-7704999D02*
X28799999Y-8030001D01*
X28375002Y-5000000D02*
X29125001Y-5749999D01*
X29125001Y-5749999D02*
X29125001Y-7704999D01*
X15064998Y-5000000D02*
X28375002Y-5000000D01*
X29125001Y-16990001D02*
X29125001Y-15035001D01*
X15459999Y-17864999D02*
X28250003Y-17864999D01*
X13049990Y-20275008D02*
X15459999Y-17864999D01*
X6509999Y-28240001D02*
X13049990Y-21700010D01*
X28799999Y-14709999D02*
X28000000Y-13910000D01*
X29125001Y-15035001D02*
X28799999Y-14709999D01*
X13049990Y-21700010D02*
X13049990Y-20275008D01*
X4799999Y-28240001D02*
X6509999Y-28240001D01*
X28250003Y-17864999D02*
X29125001Y-16990001D01*
X4000000Y-29040000D02*
X4799999Y-28240001D01*
X28370000Y-29750000D02*
X28250000Y-29750000D01*
X31250000Y-32630000D02*
X28370000Y-29750000D01*
X25040000Y-26540000D02*
X23620000Y-26540000D01*
X28250000Y-29750000D02*
X25040000Y-26540000D01*
X35620000Y-18990000D02*
X29414999Y-12784999D01*
X26874999Y-10419997D02*
X26874999Y-12444997D01*
X23955002Y-7500000D02*
X26874999Y-10419997D01*
X12950000Y-7500000D02*
X23955002Y-7500000D01*
X26874999Y-12444997D02*
X27215001Y-12784999D01*
X11620000Y-8830000D02*
X12950000Y-7500000D01*
X29414999Y-12784999D02*
X27215001Y-12784999D01*
X35620000Y-20500000D02*
X37250000Y-22130000D01*
X35620000Y-18990000D02*
X35620000Y-20500000D01*
X16000000Y-6290000D02*
X23620000Y-6290000D01*
X23620000Y-6290000D02*
X28000000Y-6290000D01*
X23620000Y-16450000D02*
X28000000Y-16450000D01*
X34488630Y-16450000D02*
X33200000Y-15161370D01*
X35620000Y-16450000D02*
X34488630Y-16450000D01*
X33200000Y-8710000D02*
X35620000Y-6290000D01*
X33200000Y-15161370D02*
X33200000Y-8710000D01*
X31250000Y-25130000D02*
X34250000Y-22130000D01*
X31250000Y-29750000D02*
X31250000Y-25130000D01*
X35620000Y-8830000D02*
X37020000Y-10230000D01*
X35049999Y-22929999D02*
X34250000Y-22130000D01*
X38375001Y-21589999D02*
X38375001Y-22670001D01*
X35375001Y-23255001D02*
X35049999Y-22929999D01*
X38375001Y-22670001D02*
X37790001Y-23255001D01*
X37020000Y-20234998D02*
X38375001Y-21589999D01*
X37790001Y-23255001D02*
X35375001Y-23255001D01*
X37020000Y-10230000D02*
X37020000Y-20234998D01*
D28*
G36*
X159340000Y-209340000D02*
G01*
X104127000Y-209340000D01*
X104127000Y-204779872D01*
X152765000Y-204779872D01*
X152765000Y-205220128D01*
X152850890Y-205651925D01*
X153019369Y-206058669D01*
X153263962Y-206424729D01*
X153575271Y-206736038D01*
X153941331Y-206980631D01*
X154348075Y-207149110D01*
X154779872Y-207235000D01*
X155220128Y-207235000D01*
X155651925Y-207149110D01*
X156058669Y-206980631D01*
X156424729Y-206736038D01*
X156736038Y-206424729D01*
X156980631Y-206058669D01*
X157149110Y-205651925D01*
X157235000Y-205220128D01*
X157235000Y-204779872D01*
X157149110Y-204348075D01*
X156980631Y-203941331D01*
X156736038Y-203575271D01*
X156424729Y-203263962D01*
X156058669Y-203019369D01*
X155651925Y-202850890D01*
X155220128Y-202765000D01*
X154779872Y-202765000D01*
X154348075Y-202850890D01*
X153941331Y-203019369D01*
X153575271Y-203263962D01*
X153263962Y-203575271D01*
X153019369Y-203941331D01*
X152850890Y-204348075D01*
X152765000Y-204779872D01*
X104127000Y-204779872D01*
X104127000Y-195127000D01*
X120000000Y-195127000D01*
X120024776Y-195124560D01*
X120048601Y-195117333D01*
X120070557Y-195105597D01*
X120089803Y-195089803D01*
X120105597Y-195070557D01*
X120117333Y-195048601D01*
X120124560Y-195024776D01*
X120127000Y-195000000D01*
X120127000Y-193550000D01*
X140461928Y-193550000D01*
X140474188Y-193674482D01*
X140510498Y-193794180D01*
X140569463Y-193904494D01*
X140648815Y-194001185D01*
X140745506Y-194080537D01*
X140855820Y-194139502D01*
X140975518Y-194175812D01*
X141100000Y-194188072D01*
X141714250Y-194185000D01*
X141873000Y-194026250D01*
X141873000Y-191877000D01*
X142127000Y-191877000D01*
X142127000Y-194026250D01*
X142285750Y-194185000D01*
X142900000Y-194188072D01*
X143024482Y-194175812D01*
X143144180Y-194139502D01*
X143254494Y-194080537D01*
X143351185Y-194001185D01*
X143430537Y-193904494D01*
X143489502Y-193794180D01*
X143525812Y-193674482D01*
X143538072Y-193550000D01*
X143535000Y-192035750D01*
X143376250Y-191877000D01*
X142127000Y-191877000D01*
X141873000Y-191877000D01*
X140623750Y-191877000D01*
X140465000Y-192035750D01*
X140461928Y-193550000D01*
X120127000Y-193550000D01*
X120127000Y-189950000D01*
X140461928Y-189950000D01*
X140465000Y-191464250D01*
X140623750Y-191623000D01*
X141873000Y-191623000D01*
X141873000Y-189473750D01*
X142127000Y-189473750D01*
X142127000Y-191623000D01*
X143376250Y-191623000D01*
X143535000Y-191464250D01*
X143536399Y-190774593D01*
X144275000Y-190774593D01*
X144275000Y-192725408D01*
X144297211Y-192950913D01*
X144384984Y-193240261D01*
X144527520Y-193506927D01*
X144719340Y-193740661D01*
X144953074Y-193932481D01*
X145219740Y-194075017D01*
X145509088Y-194162790D01*
X145810000Y-194192427D01*
X146110913Y-194162790D01*
X146400261Y-194075017D01*
X146666927Y-193932481D01*
X146900661Y-193740661D01*
X147092481Y-193506927D01*
X147235017Y-193240261D01*
X147322790Y-192950913D01*
X147345000Y-192725408D01*
X147345000Y-190774592D01*
X147322790Y-190549087D01*
X147235017Y-190259739D01*
X147092481Y-189993073D01*
X146900661Y-189759339D01*
X146666926Y-189567519D01*
X146400260Y-189424983D01*
X146110912Y-189337210D01*
X145810000Y-189307573D01*
X145509087Y-189337210D01*
X145219739Y-189424983D01*
X144953073Y-189567519D01*
X144719339Y-189759339D01*
X144527519Y-189993074D01*
X144384983Y-190259740D01*
X144297210Y-190549088D01*
X144275000Y-190774593D01*
X143536399Y-190774593D01*
X143538072Y-189950000D01*
X143525812Y-189825518D01*
X143489502Y-189705820D01*
X143430537Y-189595506D01*
X143351185Y-189498815D01*
X143254494Y-189419463D01*
X143144180Y-189360498D01*
X143024482Y-189324188D01*
X142900000Y-189311928D01*
X142285750Y-189315000D01*
X142127000Y-189473750D01*
X141873000Y-189473750D01*
X141714250Y-189315000D01*
X141100000Y-189311928D01*
X140975518Y-189324188D01*
X140855820Y-189360498D01*
X140745506Y-189419463D01*
X140648815Y-189498815D01*
X140569463Y-189595506D01*
X140510498Y-189705820D01*
X140474188Y-189825518D01*
X140461928Y-189950000D01*
X120127000Y-189950000D01*
X120127000Y-188492346D01*
X120258363Y-188360983D01*
X120492012Y-188011302D01*
X120652953Y-187622756D01*
X120735000Y-187210279D01*
X120735000Y-186789721D01*
X121265000Y-186789721D01*
X121265000Y-187210279D01*
X121347047Y-187622756D01*
X121507988Y-188011302D01*
X121741637Y-188360983D01*
X122039017Y-188658363D01*
X122388698Y-188892012D01*
X122777244Y-189052953D01*
X123189721Y-189135000D01*
X123610279Y-189135000D01*
X124022756Y-189052953D01*
X124150595Y-189000000D01*
X127361928Y-189000000D01*
X127374188Y-189124482D01*
X127410498Y-189244180D01*
X127469463Y-189354494D01*
X127548815Y-189451185D01*
X127645506Y-189530537D01*
X127755820Y-189589502D01*
X127875518Y-189625812D01*
X128000000Y-189638072D01*
X129714250Y-189635000D01*
X129873000Y-189476250D01*
X129873000Y-187127000D01*
X130127000Y-187127000D01*
X130127000Y-189476250D01*
X130285750Y-189635000D01*
X132000000Y-189638072D01*
X132124482Y-189625812D01*
X132244180Y-189589502D01*
X132354494Y-189530537D01*
X132451185Y-189451185D01*
X132530537Y-189354494D01*
X132589502Y-189244180D01*
X132625812Y-189124482D01*
X132638072Y-189000000D01*
X132635000Y-187285750D01*
X132476250Y-187127000D01*
X130127000Y-187127000D01*
X129873000Y-187127000D01*
X127523750Y-187127000D01*
X127365000Y-187285750D01*
X127361928Y-189000000D01*
X124150595Y-189000000D01*
X124411302Y-188892012D01*
X124760983Y-188658363D01*
X125058363Y-188360983D01*
X125292012Y-188011302D01*
X125452953Y-187622756D01*
X125535000Y-187210279D01*
X125535000Y-186789721D01*
X125452953Y-186377244D01*
X125292012Y-185988698D01*
X125058363Y-185639017D01*
X124760983Y-185341637D01*
X124411302Y-185107988D01*
X124150596Y-185000000D01*
X127361928Y-185000000D01*
X127365000Y-186714250D01*
X127523750Y-186873000D01*
X129873000Y-186873000D01*
X129873000Y-184523750D01*
X130127000Y-184523750D01*
X130127000Y-186873000D01*
X132476250Y-186873000D01*
X132559529Y-186789721D01*
X134465000Y-186789721D01*
X134465000Y-187210279D01*
X134547047Y-187622756D01*
X134707988Y-188011302D01*
X134941637Y-188360983D01*
X135239017Y-188658363D01*
X135588698Y-188892012D01*
X135977244Y-189052953D01*
X136389721Y-189135000D01*
X136810279Y-189135000D01*
X137222756Y-189052953D01*
X137611302Y-188892012D01*
X137960983Y-188658363D01*
X138258363Y-188360983D01*
X138492012Y-188011302D01*
X138652953Y-187622756D01*
X138735000Y-187210279D01*
X138735000Y-186789721D01*
X138652953Y-186377244D01*
X138492012Y-185988698D01*
X138258363Y-185639017D01*
X138169346Y-185550000D01*
X140461928Y-185550000D01*
X140474188Y-185674482D01*
X140510498Y-185794180D01*
X140569463Y-185904494D01*
X140648815Y-186001185D01*
X140745506Y-186080537D01*
X140855820Y-186139502D01*
X140975518Y-186175812D01*
X141100000Y-186188072D01*
X141714250Y-186185000D01*
X141873000Y-186026250D01*
X141873000Y-183877000D01*
X142127000Y-183877000D01*
X142127000Y-186026250D01*
X142285750Y-186185000D01*
X142900000Y-186188072D01*
X143024482Y-186175812D01*
X143144180Y-186139502D01*
X143254494Y-186080537D01*
X143351185Y-186001185D01*
X143430537Y-185904494D01*
X143489502Y-185794180D01*
X143525812Y-185674482D01*
X143538072Y-185550000D01*
X143535000Y-184035750D01*
X143376250Y-183877000D01*
X142127000Y-183877000D01*
X141873000Y-183877000D01*
X140623750Y-183877000D01*
X140465000Y-184035750D01*
X140461928Y-185550000D01*
X138169346Y-185550000D01*
X137960983Y-185341637D01*
X137611302Y-185107988D01*
X137222756Y-184947047D01*
X136810279Y-184865000D01*
X136389721Y-184865000D01*
X135977244Y-184947047D01*
X135588698Y-185107988D01*
X135239017Y-185341637D01*
X134941637Y-185639017D01*
X134707988Y-185988698D01*
X134547047Y-186377244D01*
X134465000Y-186789721D01*
X132559529Y-186789721D01*
X132635000Y-186714250D01*
X132638072Y-185000000D01*
X132625812Y-184875518D01*
X132589502Y-184755820D01*
X132530537Y-184645506D01*
X132451185Y-184548815D01*
X132354494Y-184469463D01*
X132244180Y-184410498D01*
X132124482Y-184374188D01*
X132000000Y-184361928D01*
X130285750Y-184365000D01*
X130127000Y-184523750D01*
X129873000Y-184523750D01*
X129714250Y-184365000D01*
X128000000Y-184361928D01*
X127875518Y-184374188D01*
X127755820Y-184410498D01*
X127645506Y-184469463D01*
X127548815Y-184548815D01*
X127469463Y-184645506D01*
X127410498Y-184755820D01*
X127374188Y-184875518D01*
X127361928Y-185000000D01*
X124150596Y-185000000D01*
X124022756Y-184947047D01*
X123610279Y-184865000D01*
X123189721Y-184865000D01*
X122777244Y-184947047D01*
X122388698Y-185107988D01*
X122039017Y-185341637D01*
X121741637Y-185639017D01*
X121507988Y-185988698D01*
X121347047Y-186377244D01*
X121265000Y-186789721D01*
X120735000Y-186789721D01*
X120652953Y-186377244D01*
X120492012Y-185988698D01*
X120258363Y-185639017D01*
X120127000Y-185507654D01*
X120127000Y-181950000D01*
X140461928Y-181950000D01*
X140465000Y-183464250D01*
X140623750Y-183623000D01*
X141873000Y-183623000D01*
X141873000Y-181473750D01*
X142127000Y-181473750D01*
X142127000Y-183623000D01*
X143376250Y-183623000D01*
X143535000Y-183464250D01*
X143536399Y-182774593D01*
X144275000Y-182774593D01*
X144275000Y-184725408D01*
X144297211Y-184950913D01*
X144384984Y-185240261D01*
X144527520Y-185506927D01*
X144719340Y-185740661D01*
X144953074Y-185932481D01*
X145219740Y-186075017D01*
X145509088Y-186162790D01*
X145810000Y-186192427D01*
X146110913Y-186162790D01*
X146400261Y-186075017D01*
X146666927Y-185932481D01*
X146900661Y-185740661D01*
X147092481Y-185506927D01*
X147235017Y-185240261D01*
X147322790Y-184950913D01*
X147345000Y-184725408D01*
X147345000Y-182774592D01*
X147322790Y-182549087D01*
X147235017Y-182259739D01*
X147092481Y-181993073D01*
X146900661Y-181759339D01*
X146666926Y-181567519D01*
X146400260Y-181424983D01*
X146110912Y-181337210D01*
X145810000Y-181307573D01*
X145509087Y-181337210D01*
X145219739Y-181424983D01*
X144953073Y-181567519D01*
X144719339Y-181759339D01*
X144527519Y-181993074D01*
X144384983Y-182259740D01*
X144297210Y-182549088D01*
X144275000Y-182774593D01*
X143536399Y-182774593D01*
X143538072Y-181950000D01*
X143525812Y-181825518D01*
X143489502Y-181705820D01*
X143430537Y-181595506D01*
X143351185Y-181498815D01*
X143254494Y-181419463D01*
X143144180Y-181360498D01*
X143024482Y-181324188D01*
X142900000Y-181311928D01*
X142285750Y-181315000D01*
X142127000Y-181473750D01*
X141873000Y-181473750D01*
X141714250Y-181315000D01*
X141100000Y-181311928D01*
X140975518Y-181324188D01*
X140855820Y-181360498D01*
X140745506Y-181419463D01*
X140648815Y-181498815D01*
X140569463Y-181595506D01*
X140510498Y-181705820D01*
X140474188Y-181825518D01*
X140461928Y-181950000D01*
X120127000Y-181950000D01*
X120127000Y-179000000D01*
X120124560Y-178975224D01*
X120117333Y-178951399D01*
X120105597Y-178929443D01*
X120089803Y-178910197D01*
X120070557Y-178894403D01*
X120048601Y-178882667D01*
X120024776Y-178875440D01*
X120000000Y-178873000D01*
X104000000Y-178873000D01*
X103975224Y-178875440D01*
X103951399Y-178882667D01*
X103929443Y-178894403D01*
X103910197Y-178910197D01*
X103894403Y-178929443D01*
X103882667Y-178951399D01*
X103875440Y-178975224D01*
X103873000Y-179000000D01*
X103873000Y-185507654D01*
X103741637Y-185639017D01*
X103507988Y-185988698D01*
X103347047Y-186377244D01*
X103265000Y-186789721D01*
X103265000Y-187210279D01*
X103347047Y-187622756D01*
X103507988Y-188011302D01*
X103741637Y-188360983D01*
X103873000Y-188492346D01*
X103873000Y-209340000D01*
X-9340000Y-209340000D01*
X-9340000Y-204779872D01*
X-7235000Y-204779872D01*
X-7235000Y-205220128D01*
X-7149110Y-205651925D01*
X-6980631Y-206058669D01*
X-6736038Y-206424729D01*
X-6424729Y-206736038D01*
X-6058669Y-206980631D01*
X-5651925Y-207149110D01*
X-5220128Y-207235000D01*
X-4779872Y-207235000D01*
X-4348075Y-207149110D01*
X-3941331Y-206980631D01*
X-3575271Y-206736038D01*
X-3263962Y-206424729D01*
X-3019369Y-206058669D01*
X-2850890Y-205651925D01*
X-2765000Y-205220128D01*
X-2765000Y-204779872D01*
X-2850890Y-204348075D01*
X-3019369Y-203941331D01*
X-3263962Y-203575271D01*
X-3575271Y-203263962D01*
X-3941331Y-203019369D01*
X-4348075Y-202850890D01*
X-4779872Y-202765000D01*
X-5220128Y-202765000D01*
X-5651925Y-202850890D01*
X-6058669Y-203019369D01*
X-6424729Y-203263962D01*
X-6736038Y-203575271D01*
X-6980631Y-203941331D01*
X-7149110Y-204348075D01*
X-7235000Y-204779872D01*
X-9340000Y-204779872D01*
X-9340000Y-180650000D01*
X6358299Y-180650000D01*
X6385040Y-180921507D01*
X6464236Y-181182581D01*
X6592843Y-181423188D01*
X6765919Y-181634081D01*
X6976812Y-181807157D01*
X7217419Y-181935764D01*
X7478493Y-182014960D01*
X7681963Y-182035000D01*
X8025674Y-182035000D01*
X7772905Y-182139701D01*
X7521495Y-182307688D01*
X7307688Y-182521495D01*
X7139701Y-182772905D01*
X7023989Y-183052257D01*
X6965000Y-183348816D01*
X6965000Y-183651184D01*
X7023989Y-183947743D01*
X7139701Y-184227095D01*
X7307688Y-184478505D01*
X7521495Y-184692312D01*
X7772905Y-184860299D01*
X8052257Y-184976011D01*
X8172858Y-185000000D01*
X8052257Y-185023989D01*
X7772905Y-185139701D01*
X7521495Y-185307688D01*
X7307688Y-185521495D01*
X7139701Y-185772905D01*
X7023989Y-186052257D01*
X6965000Y-186348816D01*
X6965000Y-186651184D01*
X7023989Y-186947743D01*
X7139701Y-187227095D01*
X7307688Y-187478505D01*
X7521495Y-187692312D01*
X7772905Y-187860299D01*
X8052257Y-187976011D01*
X8172858Y-188000000D01*
X8052257Y-188023989D01*
X7772905Y-188139701D01*
X7521495Y-188307688D01*
X7307688Y-188521495D01*
X7139701Y-188772905D01*
X7023989Y-189052257D01*
X6965000Y-189348816D01*
X6965000Y-189651184D01*
X7023989Y-189947743D01*
X7139701Y-190227095D01*
X7307688Y-190478505D01*
X7521495Y-190692312D01*
X7772905Y-190860299D01*
X8025674Y-190965000D01*
X7681963Y-190965000D01*
X7478493Y-190985040D01*
X7217419Y-191064236D01*
X6976812Y-191192843D01*
X6765919Y-191365919D01*
X6592843Y-191576812D01*
X6464236Y-191817419D01*
X6385040Y-192078493D01*
X6358299Y-192350000D01*
X6385040Y-192621507D01*
X6464236Y-192882581D01*
X6592843Y-193123188D01*
X6765919Y-193334081D01*
X6976812Y-193507157D01*
X7217419Y-193635764D01*
X7478493Y-193714960D01*
X7681963Y-193735000D01*
X9318037Y-193735000D01*
X9521507Y-193714960D01*
X9782581Y-193635764D01*
X10023188Y-193507157D01*
X10234081Y-193334081D01*
X10407157Y-193123188D01*
X10535764Y-192882581D01*
X10614960Y-192621507D01*
X10641701Y-192350000D01*
X10614960Y-192078493D01*
X10535764Y-191817419D01*
X10407157Y-191576812D01*
X10234081Y-191365919D01*
X10023188Y-191192843D01*
X9782581Y-191064236D01*
X9521507Y-190985040D01*
X9318037Y-190965000D01*
X8974326Y-190965000D01*
X9227095Y-190860299D01*
X9478505Y-190692312D01*
X9692312Y-190478505D01*
X9828289Y-190275001D01*
X13586929Y-190275001D01*
X13586929Y-192475001D01*
X13599189Y-192599483D01*
X13635499Y-192719181D01*
X13694464Y-192829495D01*
X13773816Y-192926186D01*
X13870507Y-193005538D01*
X13980821Y-193064503D01*
X14100519Y-193100813D01*
X14225001Y-193113073D01*
X16425001Y-193113073D01*
X16549483Y-193100813D01*
X16669181Y-193064503D01*
X16779495Y-193005538D01*
X16876186Y-192926186D01*
X16955538Y-192829495D01*
X17014503Y-192719181D01*
X17050813Y-192599483D01*
X17063073Y-192475001D01*
X17063073Y-191375001D01*
X21201607Y-191375001D01*
X21235106Y-191715120D01*
X21334315Y-192042169D01*
X21495422Y-192343579D01*
X21712235Y-192607767D01*
X21976423Y-192824580D01*
X22277833Y-192985687D01*
X22604882Y-193084896D01*
X22859776Y-193110001D01*
X23030226Y-193110001D01*
X23285120Y-193084896D01*
X23612169Y-192985687D01*
X23913579Y-192824580D01*
X24177767Y-192607767D01*
X24394580Y-192343579D01*
X24555687Y-192042169D01*
X24644583Y-191749117D01*
X29265000Y-191749117D01*
X29265000Y-192090883D01*
X29331675Y-192426081D01*
X29462463Y-192741831D01*
X29652337Y-193025998D01*
X29894002Y-193267663D01*
X30178169Y-193457537D01*
X30493919Y-193588325D01*
X30829117Y-193655000D01*
X31170883Y-193655000D01*
X31506081Y-193588325D01*
X31821831Y-193457537D01*
X32105998Y-193267663D01*
X32347663Y-193025998D01*
X32537537Y-192741831D01*
X32668325Y-192426081D01*
X32735000Y-192090883D01*
X32735000Y-191749117D01*
X42265000Y-191749117D01*
X42265000Y-192090883D01*
X42331675Y-192426081D01*
X42462463Y-192741831D01*
X42652337Y-193025998D01*
X42894002Y-193267663D01*
X43178169Y-193457537D01*
X43493919Y-193588325D01*
X43829117Y-193655000D01*
X44170883Y-193655000D01*
X44506081Y-193588325D01*
X44821831Y-193457537D01*
X45105998Y-193267663D01*
X45347663Y-193025998D01*
X45537537Y-192741831D01*
X45668325Y-192426081D01*
X45735000Y-192090883D01*
X45735000Y-191749117D01*
X55265000Y-191749117D01*
X55265000Y-192090883D01*
X55331675Y-192426081D01*
X55462463Y-192741831D01*
X55652337Y-193025998D01*
X55894002Y-193267663D01*
X56178169Y-193457537D01*
X56493919Y-193588325D01*
X56829117Y-193655000D01*
X57170883Y-193655000D01*
X57506081Y-193588325D01*
X57821831Y-193457537D01*
X58105998Y-193267663D01*
X58347663Y-193025998D01*
X58537537Y-192741831D01*
X58668325Y-192426081D01*
X58735000Y-192090883D01*
X58735000Y-191749117D01*
X68265000Y-191749117D01*
X68265000Y-192090883D01*
X68331675Y-192426081D01*
X68462463Y-192741831D01*
X68652337Y-193025998D01*
X68894002Y-193267663D01*
X69178169Y-193457537D01*
X69493919Y-193588325D01*
X69829117Y-193655000D01*
X70170883Y-193655000D01*
X70506081Y-193588325D01*
X70821831Y-193457537D01*
X71105998Y-193267663D01*
X71347663Y-193025998D01*
X71537537Y-192741831D01*
X71668325Y-192426081D01*
X71735000Y-192090883D01*
X71735000Y-191749117D01*
X81265000Y-191749117D01*
X81265000Y-192090883D01*
X81331675Y-192426081D01*
X81462463Y-192741831D01*
X81652337Y-193025998D01*
X81894002Y-193267663D01*
X82178169Y-193457537D01*
X82493919Y-193588325D01*
X82829117Y-193655000D01*
X83170883Y-193655000D01*
X83506081Y-193588325D01*
X83821831Y-193457537D01*
X84105998Y-193267663D01*
X84347663Y-193025998D01*
X84537537Y-192741831D01*
X84668325Y-192426081D01*
X84735000Y-192090883D01*
X84735000Y-191749117D01*
X94265000Y-191749117D01*
X94265000Y-192090883D01*
X94331675Y-192426081D01*
X94462463Y-192741831D01*
X94652337Y-193025998D01*
X94894002Y-193267663D01*
X95178169Y-193457537D01*
X95493919Y-193588325D01*
X95829117Y-193655000D01*
X96170883Y-193655000D01*
X96506081Y-193588325D01*
X96821831Y-193457537D01*
X97105998Y-193267663D01*
X97347663Y-193025998D01*
X97537537Y-192741831D01*
X97668325Y-192426081D01*
X97735000Y-192090883D01*
X97735000Y-191749117D01*
X97668325Y-191413919D01*
X97537537Y-191098169D01*
X97347663Y-190814002D01*
X97105998Y-190572337D01*
X96821831Y-190382463D01*
X96506081Y-190251675D01*
X96170883Y-190185000D01*
X95829117Y-190185000D01*
X95493919Y-190251675D01*
X95178169Y-190382463D01*
X94894002Y-190572337D01*
X94652337Y-190814002D01*
X94462463Y-191098169D01*
X94331675Y-191413919D01*
X94265000Y-191749117D01*
X84735000Y-191749117D01*
X84668325Y-191413919D01*
X84537537Y-191098169D01*
X84347663Y-190814002D01*
X84105998Y-190572337D01*
X83821831Y-190382463D01*
X83506081Y-190251675D01*
X83170883Y-190185000D01*
X82829117Y-190185000D01*
X82493919Y-190251675D01*
X82178169Y-190382463D01*
X81894002Y-190572337D01*
X81652337Y-190814002D01*
X81462463Y-191098169D01*
X81331675Y-191413919D01*
X81265000Y-191749117D01*
X71735000Y-191749117D01*
X71668325Y-191413919D01*
X71537537Y-191098169D01*
X71347663Y-190814002D01*
X71105998Y-190572337D01*
X70821831Y-190382463D01*
X70506081Y-190251675D01*
X70170883Y-190185000D01*
X69829117Y-190185000D01*
X69493919Y-190251675D01*
X69178169Y-190382463D01*
X68894002Y-190572337D01*
X68652337Y-190814002D01*
X68462463Y-191098169D01*
X68331675Y-191413919D01*
X68265000Y-191749117D01*
X58735000Y-191749117D01*
X58668325Y-191413919D01*
X58537537Y-191098169D01*
X58347663Y-190814002D01*
X58105998Y-190572337D01*
X57821831Y-190382463D01*
X57506081Y-190251675D01*
X57170883Y-190185000D01*
X56829117Y-190185000D01*
X56493919Y-190251675D01*
X56178169Y-190382463D01*
X55894002Y-190572337D01*
X55652337Y-190814002D01*
X55462463Y-191098169D01*
X55331675Y-191413919D01*
X55265000Y-191749117D01*
X45735000Y-191749117D01*
X45668325Y-191413919D01*
X45537537Y-191098169D01*
X45347663Y-190814002D01*
X45105998Y-190572337D01*
X44821831Y-190382463D01*
X44506081Y-190251675D01*
X44170883Y-190185000D01*
X43829117Y-190185000D01*
X43493919Y-190251675D01*
X43178169Y-190382463D01*
X42894002Y-190572337D01*
X42652337Y-190814002D01*
X42462463Y-191098169D01*
X42331675Y-191413919D01*
X42265000Y-191749117D01*
X32735000Y-191749117D01*
X32668325Y-191413919D01*
X32537537Y-191098169D01*
X32347663Y-190814002D01*
X32105998Y-190572337D01*
X31821831Y-190382463D01*
X31506081Y-190251675D01*
X31170883Y-190185000D01*
X30829117Y-190185000D01*
X30493919Y-190251675D01*
X30178169Y-190382463D01*
X29894002Y-190572337D01*
X29652337Y-190814002D01*
X29462463Y-191098169D01*
X29331675Y-191413919D01*
X29265000Y-191749117D01*
X24644583Y-191749117D01*
X24654896Y-191715120D01*
X24688395Y-191375001D01*
X24654896Y-191034882D01*
X24555687Y-190707833D01*
X24394580Y-190406423D01*
X24177767Y-190142235D01*
X23913579Y-189925422D01*
X23612169Y-189764315D01*
X23285120Y-189665106D01*
X23030226Y-189640001D01*
X22859776Y-189640001D01*
X22604882Y-189665106D01*
X22277833Y-189764315D01*
X21976423Y-189925422D01*
X21712235Y-190142235D01*
X21495422Y-190406423D01*
X21334315Y-190707833D01*
X21235106Y-191034882D01*
X21201607Y-191375001D01*
X17063073Y-191375001D01*
X17063073Y-190275001D01*
X17050813Y-190150519D01*
X17014503Y-190030821D01*
X16955538Y-189920507D01*
X16876186Y-189823816D01*
X16779495Y-189744464D01*
X16669181Y-189685499D01*
X16549483Y-189649189D01*
X16425001Y-189636929D01*
X14225001Y-189636929D01*
X14100519Y-189649189D01*
X13980821Y-189685499D01*
X13870507Y-189744464D01*
X13773816Y-189823816D01*
X13694464Y-189920507D01*
X13635499Y-190030821D01*
X13599189Y-190150519D01*
X13586929Y-190275001D01*
X9828289Y-190275001D01*
X9860299Y-190227095D01*
X9976011Y-189947743D01*
X10035000Y-189651184D01*
X10035000Y-189348816D01*
X9976011Y-189052257D01*
X9860299Y-188772905D01*
X9692312Y-188521495D01*
X9478505Y-188307688D01*
X9227095Y-188139701D01*
X8947743Y-188023989D01*
X8827142Y-188000000D01*
X8947743Y-187976011D01*
X9227095Y-187860299D01*
X9478505Y-187692312D01*
X9692312Y-187478505D01*
X9860299Y-187227095D01*
X9976011Y-186947743D01*
X10035000Y-186651184D01*
X10035000Y-186400000D01*
X13586929Y-186400000D01*
X13586929Y-188600000D01*
X13599189Y-188724482D01*
X13635499Y-188844180D01*
X13694464Y-188954494D01*
X13773816Y-189051185D01*
X13870507Y-189130537D01*
X13980821Y-189189502D01*
X14100519Y-189225812D01*
X14225001Y-189238072D01*
X16425001Y-189238072D01*
X16549483Y-189225812D01*
X16669181Y-189189502D01*
X16779495Y-189130537D01*
X16876186Y-189051185D01*
X16955538Y-188954494D01*
X17014503Y-188844180D01*
X17050813Y-188724482D01*
X17063073Y-188600000D01*
X17063073Y-187500000D01*
X21201607Y-187500000D01*
X21235106Y-187840119D01*
X21334315Y-188167168D01*
X21495422Y-188468578D01*
X21712235Y-188732766D01*
X21976423Y-188949579D01*
X22277833Y-189110686D01*
X22604882Y-189209895D01*
X22859776Y-189235000D01*
X23030226Y-189235000D01*
X23285120Y-189209895D01*
X23612169Y-189110686D01*
X23913579Y-188949579D01*
X24177767Y-188732766D01*
X24394580Y-188468578D01*
X24555687Y-188167168D01*
X24654896Y-187840119D01*
X24688395Y-187500000D01*
X24654896Y-187159881D01*
X24555687Y-186832832D01*
X24532644Y-186789721D01*
X28865000Y-186789721D01*
X28865000Y-187210279D01*
X28947047Y-187622756D01*
X29107988Y-188011302D01*
X29341637Y-188360983D01*
X29639017Y-188658363D01*
X29988698Y-188892012D01*
X30377244Y-189052953D01*
X30789721Y-189135000D01*
X31210279Y-189135000D01*
X31622756Y-189052953D01*
X32011302Y-188892012D01*
X32360983Y-188658363D01*
X32658363Y-188360983D01*
X32892012Y-188011302D01*
X33052953Y-187622756D01*
X33135000Y-187210279D01*
X33135000Y-186789721D01*
X41865000Y-186789721D01*
X41865000Y-187210279D01*
X41947047Y-187622756D01*
X42107988Y-188011302D01*
X42341637Y-188360983D01*
X42639017Y-188658363D01*
X42988698Y-188892012D01*
X43377244Y-189052953D01*
X43789721Y-189135000D01*
X44210279Y-189135000D01*
X44622756Y-189052953D01*
X45011302Y-188892012D01*
X45360983Y-188658363D01*
X45658363Y-188360983D01*
X45892012Y-188011302D01*
X46052953Y-187622756D01*
X46135000Y-187210279D01*
X46135000Y-186789721D01*
X54865000Y-186789721D01*
X54865000Y-187210279D01*
X54947047Y-187622756D01*
X55107988Y-188011302D01*
X55341637Y-188360983D01*
X55639017Y-188658363D01*
X55988698Y-188892012D01*
X56377244Y-189052953D01*
X56789721Y-189135000D01*
X57210279Y-189135000D01*
X57622756Y-189052953D01*
X58011302Y-188892012D01*
X58360983Y-188658363D01*
X58658363Y-188360983D01*
X58892012Y-188011302D01*
X59052953Y-187622756D01*
X59135000Y-187210279D01*
X59135000Y-186789721D01*
X67865000Y-186789721D01*
X67865000Y-187210279D01*
X67947047Y-187622756D01*
X68107988Y-188011302D01*
X68341637Y-188360983D01*
X68639017Y-188658363D01*
X68988698Y-188892012D01*
X69377244Y-189052953D01*
X69789721Y-189135000D01*
X70210279Y-189135000D01*
X70622756Y-189052953D01*
X71011302Y-188892012D01*
X71360983Y-188658363D01*
X71658363Y-188360983D01*
X71892012Y-188011302D01*
X72052953Y-187622756D01*
X72135000Y-187210279D01*
X72135000Y-186789721D01*
X80865000Y-186789721D01*
X80865000Y-187210279D01*
X80947047Y-187622756D01*
X81107988Y-188011302D01*
X81341637Y-188360983D01*
X81639017Y-188658363D01*
X81988698Y-188892012D01*
X82377244Y-189052953D01*
X82789721Y-189135000D01*
X83210279Y-189135000D01*
X83622756Y-189052953D01*
X84011302Y-188892012D01*
X84360983Y-188658363D01*
X84658363Y-188360983D01*
X84892012Y-188011302D01*
X85052953Y-187622756D01*
X85135000Y-187210279D01*
X85135000Y-186789721D01*
X93865000Y-186789721D01*
X93865000Y-187210279D01*
X93947047Y-187622756D01*
X94107988Y-188011302D01*
X94341637Y-188360983D01*
X94639017Y-188658363D01*
X94988698Y-188892012D01*
X95377244Y-189052953D01*
X95789721Y-189135000D01*
X96210279Y-189135000D01*
X96622756Y-189052953D01*
X97011302Y-188892012D01*
X97360983Y-188658363D01*
X97658363Y-188360983D01*
X97892012Y-188011302D01*
X98052953Y-187622756D01*
X98135000Y-187210279D01*
X98135000Y-186789721D01*
X98052953Y-186377244D01*
X97892012Y-185988698D01*
X97658363Y-185639017D01*
X97360983Y-185341637D01*
X97011302Y-185107988D01*
X96940116Y-185078502D01*
X97105998Y-184967663D01*
X97347663Y-184725998D01*
X97537537Y-184441831D01*
X97668325Y-184126081D01*
X97735000Y-183790883D01*
X97735000Y-183449117D01*
X97668325Y-183113919D01*
X97537537Y-182798169D01*
X97347663Y-182514002D01*
X97105998Y-182272337D01*
X96821831Y-182082463D01*
X96791221Y-182069784D01*
X96919274Y-182001338D01*
X97027107Y-181726712D01*
X96000000Y-180699605D01*
X94972893Y-181726712D01*
X95080726Y-182001338D01*
X95214785Y-182067296D01*
X95178169Y-182082463D01*
X94894002Y-182272337D01*
X94652337Y-182514002D01*
X94462463Y-182798169D01*
X94331675Y-183113919D01*
X94265000Y-183449117D01*
X94265000Y-183790883D01*
X94331675Y-184126081D01*
X94462463Y-184441831D01*
X94652337Y-184725998D01*
X94894002Y-184967663D01*
X95059884Y-185078502D01*
X94988698Y-185107988D01*
X94639017Y-185341637D01*
X94341637Y-185639017D01*
X94107988Y-185988698D01*
X93947047Y-186377244D01*
X93865000Y-186789721D01*
X85135000Y-186789721D01*
X85052953Y-186377244D01*
X84892012Y-185988698D01*
X84658363Y-185639017D01*
X84360983Y-185341637D01*
X84011302Y-185107988D01*
X83940116Y-185078502D01*
X84105998Y-184967663D01*
X84347663Y-184725998D01*
X84537537Y-184441831D01*
X84668325Y-184126081D01*
X84735000Y-183790883D01*
X84735000Y-183449117D01*
X84668325Y-183113919D01*
X84537537Y-182798169D01*
X84347663Y-182514002D01*
X84105998Y-182272337D01*
X83821831Y-182082463D01*
X83791221Y-182069784D01*
X83919274Y-182001338D01*
X84027107Y-181726712D01*
X83000000Y-180699605D01*
X81972893Y-181726712D01*
X82080726Y-182001338D01*
X82214785Y-182067296D01*
X82178169Y-182082463D01*
X81894002Y-182272337D01*
X81652337Y-182514002D01*
X81462463Y-182798169D01*
X81331675Y-183113919D01*
X81265000Y-183449117D01*
X81265000Y-183790883D01*
X81331675Y-184126081D01*
X81462463Y-184441831D01*
X81652337Y-184725998D01*
X81894002Y-184967663D01*
X82059884Y-185078502D01*
X81988698Y-185107988D01*
X81639017Y-185341637D01*
X81341637Y-185639017D01*
X81107988Y-185988698D01*
X80947047Y-186377244D01*
X80865000Y-186789721D01*
X72135000Y-186789721D01*
X72052953Y-186377244D01*
X71892012Y-185988698D01*
X71658363Y-185639017D01*
X71360983Y-185341637D01*
X71011302Y-185107988D01*
X70940116Y-185078502D01*
X71105998Y-184967663D01*
X71347663Y-184725998D01*
X71537537Y-184441831D01*
X71668325Y-184126081D01*
X71735000Y-183790883D01*
X71735000Y-183449117D01*
X71668325Y-183113919D01*
X71537537Y-182798169D01*
X71347663Y-182514002D01*
X71105998Y-182272337D01*
X70821831Y-182082463D01*
X70791221Y-182069784D01*
X70919274Y-182001338D01*
X71027107Y-181726712D01*
X70000000Y-180699605D01*
X68972893Y-181726712D01*
X69080726Y-182001338D01*
X69214785Y-182067296D01*
X69178169Y-182082463D01*
X68894002Y-182272337D01*
X68652337Y-182514002D01*
X68462463Y-182798169D01*
X68331675Y-183113919D01*
X68265000Y-183449117D01*
X68265000Y-183790883D01*
X68331675Y-184126081D01*
X68462463Y-184441831D01*
X68652337Y-184725998D01*
X68894002Y-184967663D01*
X69059884Y-185078502D01*
X68988698Y-185107988D01*
X68639017Y-185341637D01*
X68341637Y-185639017D01*
X68107988Y-185988698D01*
X67947047Y-186377244D01*
X67865000Y-186789721D01*
X59135000Y-186789721D01*
X59052953Y-186377244D01*
X58892012Y-185988698D01*
X58658363Y-185639017D01*
X58360983Y-185341637D01*
X58011302Y-185107988D01*
X57940116Y-185078502D01*
X58105998Y-184967663D01*
X58347663Y-184725998D01*
X58537537Y-184441831D01*
X58668325Y-184126081D01*
X58735000Y-183790883D01*
X58735000Y-183449117D01*
X58668325Y-183113919D01*
X58537537Y-182798169D01*
X58347663Y-182514002D01*
X58105998Y-182272337D01*
X57821831Y-182082463D01*
X57791221Y-182069784D01*
X57919274Y-182001338D01*
X58027107Y-181726712D01*
X57000000Y-180699605D01*
X55972893Y-181726712D01*
X56080726Y-182001338D01*
X56214785Y-182067296D01*
X56178169Y-182082463D01*
X55894002Y-182272337D01*
X55652337Y-182514002D01*
X55462463Y-182798169D01*
X55331675Y-183113919D01*
X55265000Y-183449117D01*
X55265000Y-183790883D01*
X55331675Y-184126081D01*
X55462463Y-184441831D01*
X55652337Y-184725998D01*
X55894002Y-184967663D01*
X56059884Y-185078502D01*
X55988698Y-185107988D01*
X55639017Y-185341637D01*
X55341637Y-185639017D01*
X55107988Y-185988698D01*
X54947047Y-186377244D01*
X54865000Y-186789721D01*
X46135000Y-186789721D01*
X46052953Y-186377244D01*
X45892012Y-185988698D01*
X45658363Y-185639017D01*
X45360983Y-185341637D01*
X45011302Y-185107988D01*
X44940116Y-185078502D01*
X45105998Y-184967663D01*
X45347663Y-184725998D01*
X45537537Y-184441831D01*
X45668325Y-184126081D01*
X45735000Y-183790883D01*
X45735000Y-183449117D01*
X45668325Y-183113919D01*
X45537537Y-182798169D01*
X45347663Y-182514002D01*
X45105998Y-182272337D01*
X44821831Y-182082463D01*
X44791221Y-182069784D01*
X44919274Y-182001338D01*
X45027107Y-181726712D01*
X44000000Y-180699605D01*
X42972893Y-181726712D01*
X43080726Y-182001338D01*
X43214785Y-182067296D01*
X43178169Y-182082463D01*
X42894002Y-182272337D01*
X42652337Y-182514002D01*
X42462463Y-182798169D01*
X42331675Y-183113919D01*
X42265000Y-183449117D01*
X42265000Y-183790883D01*
X42331675Y-184126081D01*
X42462463Y-184441831D01*
X42652337Y-184725998D01*
X42894002Y-184967663D01*
X43059884Y-185078502D01*
X42988698Y-185107988D01*
X42639017Y-185341637D01*
X42341637Y-185639017D01*
X42107988Y-185988698D01*
X41947047Y-186377244D01*
X41865000Y-186789721D01*
X33135000Y-186789721D01*
X33052953Y-186377244D01*
X32892012Y-185988698D01*
X32658363Y-185639017D01*
X32360983Y-185341637D01*
X32011302Y-185107988D01*
X31940116Y-185078502D01*
X32105998Y-184967663D01*
X32347663Y-184725998D01*
X32537537Y-184441831D01*
X32668325Y-184126081D01*
X32735000Y-183790883D01*
X32735000Y-183449117D01*
X32668325Y-183113919D01*
X32537537Y-182798169D01*
X32347663Y-182514002D01*
X32105998Y-182272337D01*
X31821831Y-182082463D01*
X31791221Y-182069784D01*
X31919274Y-182001338D01*
X32027107Y-181726712D01*
X31000000Y-180699605D01*
X29972893Y-181726712D01*
X30080726Y-182001338D01*
X30214785Y-182067296D01*
X30178169Y-182082463D01*
X29894002Y-182272337D01*
X29652337Y-182514002D01*
X29462463Y-182798169D01*
X29331675Y-183113919D01*
X29265000Y-183449117D01*
X29265000Y-183790883D01*
X29331675Y-184126081D01*
X29462463Y-184441831D01*
X29652337Y-184725998D01*
X29894002Y-184967663D01*
X30059884Y-185078502D01*
X29988698Y-185107988D01*
X29639017Y-185341637D01*
X29341637Y-185639017D01*
X29107988Y-185988698D01*
X28947047Y-186377244D01*
X28865000Y-186789721D01*
X24532644Y-186789721D01*
X24394580Y-186531422D01*
X24177767Y-186267234D01*
X23913579Y-186050421D01*
X23612169Y-185889314D01*
X23285120Y-185790105D01*
X23030226Y-185765000D01*
X22859776Y-185765000D01*
X22604882Y-185790105D01*
X22277833Y-185889314D01*
X21976423Y-186050421D01*
X21712235Y-186267234D01*
X21495422Y-186531422D01*
X21334315Y-186832832D01*
X21235106Y-187159881D01*
X21201607Y-187500000D01*
X17063073Y-187500000D01*
X17063073Y-186400000D01*
X17050813Y-186275518D01*
X17014503Y-186155820D01*
X16955538Y-186045506D01*
X16876186Y-185948815D01*
X16779495Y-185869463D01*
X16669181Y-185810498D01*
X16549483Y-185774188D01*
X16425001Y-185761928D01*
X14225001Y-185761928D01*
X14100519Y-185774188D01*
X13980821Y-185810498D01*
X13870507Y-185869463D01*
X13773816Y-185948815D01*
X13694464Y-186045506D01*
X13635499Y-186155820D01*
X13599189Y-186275518D01*
X13586929Y-186400000D01*
X10035000Y-186400000D01*
X10035000Y-186348816D01*
X9976011Y-186052257D01*
X9860299Y-185772905D01*
X9692312Y-185521495D01*
X9478505Y-185307688D01*
X9227095Y-185139701D01*
X8947743Y-185023989D01*
X8827142Y-185000000D01*
X8947743Y-184976011D01*
X9227095Y-184860299D01*
X9478505Y-184692312D01*
X9692312Y-184478505D01*
X9860299Y-184227095D01*
X9976011Y-183947743D01*
X10028538Y-183683666D01*
X13460001Y-183683666D01*
X13460001Y-183966336D01*
X13515148Y-184243575D01*
X13623321Y-184504728D01*
X13780364Y-184739760D01*
X13980242Y-184939638D01*
X14215274Y-185096681D01*
X14476427Y-185204854D01*
X14753666Y-185260001D01*
X15036336Y-185260001D01*
X15313575Y-185204854D01*
X15574728Y-185096681D01*
X15809760Y-184939638D01*
X16009638Y-184739760D01*
X16166681Y-184504728D01*
X16274854Y-184243575D01*
X16330001Y-183966336D01*
X16330001Y-183825001D01*
X21073058Y-183825001D01*
X21100765Y-184106310D01*
X21182819Y-184376809D01*
X21316069Y-184626102D01*
X21495393Y-184844609D01*
X21713900Y-185023933D01*
X21963193Y-185157183D01*
X22233692Y-185239237D01*
X22444509Y-185260001D01*
X22585493Y-185260001D01*
X22796310Y-185239237D01*
X23066809Y-185157183D01*
X23316102Y-185023933D01*
X23534609Y-184844609D01*
X23713933Y-184626102D01*
X23847183Y-184376809D01*
X23929237Y-184106310D01*
X23956944Y-183825001D01*
X23929237Y-183543692D01*
X23847183Y-183273193D01*
X23713933Y-183023900D01*
X23534609Y-182805393D01*
X23316102Y-182626069D01*
X23066809Y-182492819D01*
X22796310Y-182410765D01*
X22585493Y-182390001D01*
X22444509Y-182390001D01*
X22233692Y-182410765D01*
X21963193Y-182492819D01*
X21713900Y-182626069D01*
X21495393Y-182805393D01*
X21316069Y-183023900D01*
X21182819Y-183273193D01*
X21100765Y-183543692D01*
X21073058Y-183825001D01*
X16330001Y-183825001D01*
X16330001Y-183683666D01*
X16274854Y-183406427D01*
X16166681Y-183145274D01*
X16009638Y-182910242D01*
X15809760Y-182710364D01*
X15574728Y-182553321D01*
X15313575Y-182445148D01*
X15036336Y-182390001D01*
X14753666Y-182390001D01*
X14476427Y-182445148D01*
X14215274Y-182553321D01*
X13980242Y-182710364D01*
X13780364Y-182910242D01*
X13623321Y-183145274D01*
X13515148Y-183406427D01*
X13460001Y-183683666D01*
X10028538Y-183683666D01*
X10035000Y-183651184D01*
X10035000Y-183348816D01*
X9976011Y-183052257D01*
X9860299Y-182772905D01*
X9692312Y-182521495D01*
X9478505Y-182307688D01*
X9227095Y-182139701D01*
X8974326Y-182035000D01*
X9318037Y-182035000D01*
X9521507Y-182014960D01*
X9782581Y-181935764D01*
X10023188Y-181807157D01*
X10234081Y-181634081D01*
X10407157Y-181423188D01*
X10535764Y-181182581D01*
X10614960Y-180921507D01*
X10641701Y-180650000D01*
X10634673Y-180578639D01*
X29257591Y-180578639D01*
X29302511Y-180917439D01*
X29412664Y-181240966D01*
X29518662Y-181439274D01*
X29793288Y-181547107D01*
X30820395Y-180520000D01*
X31179605Y-180520000D01*
X32206712Y-181547107D01*
X32481338Y-181439274D01*
X32632216Y-181132616D01*
X32720369Y-180802415D01*
X32734830Y-180578639D01*
X42257591Y-180578639D01*
X42302511Y-180917439D01*
X42412664Y-181240966D01*
X42518662Y-181439274D01*
X42793288Y-181547107D01*
X43820395Y-180520000D01*
X44179605Y-180520000D01*
X45206712Y-181547107D01*
X45481338Y-181439274D01*
X45632216Y-181132616D01*
X45720369Y-180802415D01*
X45734830Y-180578639D01*
X55257591Y-180578639D01*
X55302511Y-180917439D01*
X55412664Y-181240966D01*
X55518662Y-181439274D01*
X55793288Y-181547107D01*
X56820395Y-180520000D01*
X57179605Y-180520000D01*
X58206712Y-181547107D01*
X58481338Y-181439274D01*
X58632216Y-181132616D01*
X58720369Y-180802415D01*
X58734830Y-180578639D01*
X68257591Y-180578639D01*
X68302511Y-180917439D01*
X68412664Y-181240966D01*
X68518662Y-181439274D01*
X68793288Y-181547107D01*
X69820395Y-180520000D01*
X70179605Y-180520000D01*
X71206712Y-181547107D01*
X71481338Y-181439274D01*
X71632216Y-181132616D01*
X71720369Y-180802415D01*
X71734830Y-180578639D01*
X81257591Y-180578639D01*
X81302511Y-180917439D01*
X81412664Y-181240966D01*
X81518662Y-181439274D01*
X81793288Y-181547107D01*
X82820395Y-180520000D01*
X83179605Y-180520000D01*
X84206712Y-181547107D01*
X84481338Y-181439274D01*
X84632216Y-181132616D01*
X84720369Y-180802415D01*
X84734830Y-180578639D01*
X94257591Y-180578639D01*
X94302511Y-180917439D01*
X94412664Y-181240966D01*
X94518662Y-181439274D01*
X94793288Y-181547107D01*
X95820395Y-180520000D01*
X96179605Y-180520000D01*
X97206712Y-181547107D01*
X97481338Y-181439274D01*
X97632216Y-181132616D01*
X97720369Y-180802415D01*
X97742409Y-180461361D01*
X97697489Y-180122561D01*
X97587336Y-179799034D01*
X97481338Y-179600726D01*
X97206712Y-179492893D01*
X96179605Y-180520000D01*
X95820395Y-180520000D01*
X94793288Y-179492893D01*
X94518662Y-179600726D01*
X94367784Y-179907384D01*
X94279631Y-180237585D01*
X94257591Y-180578639D01*
X84734830Y-180578639D01*
X84742409Y-180461361D01*
X84697489Y-180122561D01*
X84587336Y-179799034D01*
X84481338Y-179600726D01*
X84206712Y-179492893D01*
X83179605Y-180520000D01*
X82820395Y-180520000D01*
X81793288Y-179492893D01*
X81518662Y-179600726D01*
X81367784Y-179907384D01*
X81279631Y-180237585D01*
X81257591Y-180578639D01*
X71734830Y-180578639D01*
X71742409Y-180461361D01*
X71697489Y-180122561D01*
X71587336Y-179799034D01*
X71481338Y-179600726D01*
X71206712Y-179492893D01*
X70179605Y-180520000D01*
X69820395Y-180520000D01*
X68793288Y-179492893D01*
X68518662Y-179600726D01*
X68367784Y-179907384D01*
X68279631Y-180237585D01*
X68257591Y-180578639D01*
X58734830Y-180578639D01*
X58742409Y-180461361D01*
X58697489Y-180122561D01*
X58587336Y-179799034D01*
X58481338Y-179600726D01*
X58206712Y-179492893D01*
X57179605Y-180520000D01*
X56820395Y-180520000D01*
X55793288Y-179492893D01*
X55518662Y-179600726D01*
X55367784Y-179907384D01*
X55279631Y-180237585D01*
X55257591Y-180578639D01*
X45734830Y-180578639D01*
X45742409Y-180461361D01*
X45697489Y-180122561D01*
X45587336Y-179799034D01*
X45481338Y-179600726D01*
X45206712Y-179492893D01*
X44179605Y-180520000D01*
X43820395Y-180520000D01*
X42793288Y-179492893D01*
X42518662Y-179600726D01*
X42367784Y-179907384D01*
X42279631Y-180237585D01*
X42257591Y-180578639D01*
X32734830Y-180578639D01*
X32742409Y-180461361D01*
X32697489Y-180122561D01*
X32587336Y-179799034D01*
X32481338Y-179600726D01*
X32206712Y-179492893D01*
X31179605Y-180520000D01*
X30820395Y-180520000D01*
X29793288Y-179492893D01*
X29518662Y-179600726D01*
X29367784Y-179907384D01*
X29279631Y-180237585D01*
X29257591Y-180578639D01*
X10634673Y-180578639D01*
X10614960Y-180378493D01*
X10535764Y-180117419D01*
X10407157Y-179876812D01*
X10234081Y-179665919D01*
X10023188Y-179492843D01*
X9782581Y-179364236D01*
X9521507Y-179285040D01*
X9318037Y-179265000D01*
X7681963Y-179265000D01*
X7478493Y-179285040D01*
X7217419Y-179364236D01*
X6976812Y-179492843D01*
X6765919Y-179665919D01*
X6592843Y-179876812D01*
X6464236Y-180117419D01*
X6385040Y-180378493D01*
X6358299Y-180650000D01*
X-9340000Y-180650000D01*
X-9340000Y-177900000D01*
X6961928Y-177900000D01*
X6974188Y-178024482D01*
X7010498Y-178144180D01*
X7069463Y-178254494D01*
X7148815Y-178351185D01*
X7245506Y-178430537D01*
X7355820Y-178489502D01*
X7475518Y-178525812D01*
X7600000Y-178538072D01*
X8214250Y-178535000D01*
X8373000Y-178376250D01*
X8373000Y-177127000D01*
X8627000Y-177127000D01*
X8627000Y-178376250D01*
X8785750Y-178535000D01*
X9400000Y-178538072D01*
X9524482Y-178525812D01*
X9644180Y-178489502D01*
X9754494Y-178430537D01*
X9851185Y-178351185D01*
X9930537Y-178254494D01*
X9989502Y-178144180D01*
X10025812Y-178024482D01*
X10038072Y-177900000D01*
X10037072Y-177700000D01*
X13561928Y-177700000D01*
X13561928Y-179300000D01*
X13574188Y-179424482D01*
X13610498Y-179544180D01*
X13669463Y-179654494D01*
X13748815Y-179751185D01*
X13845506Y-179830537D01*
X13955820Y-179889502D01*
X14075518Y-179925812D01*
X14200000Y-179938072D01*
X15800000Y-179938072D01*
X15924482Y-179925812D01*
X16044180Y-179889502D01*
X16154494Y-179830537D01*
X16251185Y-179751185D01*
X16261807Y-179738242D01*
X16513996Y-179857571D01*
X16788184Y-179926300D01*
X17070512Y-179940217D01*
X17350130Y-179898787D01*
X17616292Y-179803603D01*
X17741514Y-179736671D01*
X17813097Y-179492702D01*
X17633683Y-179313288D01*
X29972893Y-179313288D01*
X31000000Y-180340395D01*
X32027107Y-179313288D01*
X42972893Y-179313288D01*
X44000000Y-180340395D01*
X45027107Y-179313288D01*
X55972893Y-179313288D01*
X57000000Y-180340395D01*
X58027107Y-179313288D01*
X68972893Y-179313288D01*
X70000000Y-180340395D01*
X71027107Y-179313288D01*
X81972893Y-179313288D01*
X83000000Y-180340395D01*
X84027107Y-179313288D01*
X94972893Y-179313288D01*
X96000000Y-180340395D01*
X97027107Y-179313288D01*
X96919274Y-179038662D01*
X96612616Y-178887784D01*
X96282415Y-178799631D01*
X95941361Y-178777591D01*
X95602561Y-178822511D01*
X95279034Y-178932664D01*
X95080726Y-179038662D01*
X94972893Y-179313288D01*
X84027107Y-179313288D01*
X83919274Y-179038662D01*
X83612616Y-178887784D01*
X83282415Y-178799631D01*
X82941361Y-178777591D01*
X82602561Y-178822511D01*
X82279034Y-178932664D01*
X82080726Y-179038662D01*
X81972893Y-179313288D01*
X71027107Y-179313288D01*
X70919274Y-179038662D01*
X70612616Y-178887784D01*
X70282415Y-178799631D01*
X69941361Y-178777591D01*
X69602561Y-178822511D01*
X69279034Y-178932664D01*
X69080726Y-179038662D01*
X68972893Y-179313288D01*
X58027107Y-179313288D01*
X57919274Y-179038662D01*
X57612616Y-178887784D01*
X57282415Y-178799631D01*
X56941361Y-178777591D01*
X56602561Y-178822511D01*
X56279034Y-178932664D01*
X56080726Y-179038662D01*
X55972893Y-179313288D01*
X45027107Y-179313288D01*
X44919274Y-179038662D01*
X44612616Y-178887784D01*
X44282415Y-178799631D01*
X43941361Y-178777591D01*
X43602561Y-178822511D01*
X43279034Y-178932664D01*
X43080726Y-179038662D01*
X42972893Y-179313288D01*
X32027107Y-179313288D01*
X31919274Y-179038662D01*
X31612616Y-178887784D01*
X31282415Y-178799631D01*
X30941361Y-178777591D01*
X30602561Y-178822511D01*
X30279034Y-178932664D01*
X30080726Y-179038662D01*
X29972893Y-179313288D01*
X17633683Y-179313288D01*
X17000000Y-178679605D01*
X16985858Y-178693748D01*
X16806253Y-178514143D01*
X16820395Y-178500000D01*
X17179605Y-178500000D01*
X17992702Y-179313097D01*
X18236671Y-179241514D01*
X18357571Y-178986004D01*
X18426300Y-178711816D01*
X18440217Y-178429488D01*
X18398787Y-178149870D01*
X18303603Y-177883708D01*
X18236671Y-177758486D01*
X17992702Y-177686903D01*
X17179605Y-178500000D01*
X16820395Y-178500000D01*
X16806253Y-178485858D01*
X16985858Y-178306253D01*
X17000000Y-178320395D01*
X17813097Y-177507298D01*
X17741514Y-177263329D01*
X17486004Y-177142429D01*
X17211816Y-177073700D01*
X16929488Y-177059783D01*
X16649870Y-177101213D01*
X16383708Y-177196397D01*
X16261691Y-177261616D01*
X16251185Y-177248815D01*
X16154494Y-177169463D01*
X16044180Y-177110498D01*
X15924482Y-177074188D01*
X15800000Y-177061928D01*
X14200000Y-177061928D01*
X14075518Y-177074188D01*
X13955820Y-177110498D01*
X13845506Y-177169463D01*
X13748815Y-177248815D01*
X13669463Y-177345506D01*
X13610498Y-177455820D01*
X13574188Y-177575518D01*
X13561928Y-177700000D01*
X10037072Y-177700000D01*
X10035000Y-177285750D01*
X9876250Y-177127000D01*
X8627000Y-177127000D01*
X8373000Y-177127000D01*
X7123750Y-177127000D01*
X6965000Y-177285750D01*
X6961928Y-177900000D01*
X-9340000Y-177900000D01*
X-9340000Y-176100000D01*
X6961928Y-176100000D01*
X6965000Y-176714250D01*
X7123750Y-176873000D01*
X8373000Y-176873000D01*
X8373000Y-176853000D01*
X8627000Y-176853000D01*
X8627000Y-176873000D01*
X9876250Y-176873000D01*
X10035000Y-176714250D01*
X10038072Y-176100000D01*
X10025812Y-175975518D01*
X9989502Y-175855820D01*
X9930537Y-175745506D01*
X9851185Y-175648815D01*
X9754494Y-175569463D01*
X9644180Y-175510498D01*
X9625873Y-175504944D01*
X9692312Y-175438505D01*
X9860299Y-175187095D01*
X9976011Y-174907743D01*
X10035000Y-174611184D01*
X10035000Y-174308816D01*
X9976011Y-174012257D01*
X9860299Y-173732905D01*
X9692312Y-173481495D01*
X9478505Y-173267688D01*
X9227095Y-173099701D01*
X8947743Y-172983989D01*
X8651184Y-172925000D01*
X8348816Y-172925000D01*
X8052257Y-172983989D01*
X7772905Y-173099701D01*
X7521495Y-173267688D01*
X7307688Y-173481495D01*
X7139701Y-173732905D01*
X7023989Y-174012257D01*
X6965000Y-174308816D01*
X6965000Y-174611184D01*
X7023989Y-174907743D01*
X7139701Y-175187095D01*
X7307688Y-175438505D01*
X7374127Y-175504944D01*
X7355820Y-175510498D01*
X7245506Y-175569463D01*
X7148815Y-175648815D01*
X7069463Y-175745506D01*
X7010498Y-175855820D01*
X6974188Y-175975518D01*
X6961928Y-176100000D01*
X-9340000Y-176100000D01*
X-9340000Y-97400000D01*
X27461928Y-97400000D01*
X27474188Y-97524482D01*
X27510498Y-97644180D01*
X27569463Y-97754494D01*
X27648815Y-97851185D01*
X27745506Y-97930537D01*
X27855820Y-97989502D01*
X27874127Y-97995056D01*
X27807688Y-98061495D01*
X27639701Y-98312905D01*
X27523989Y-98592257D01*
X27465000Y-98888816D01*
X27465000Y-99191184D01*
X27523989Y-99487743D01*
X27639701Y-99767095D01*
X27807688Y-100018505D01*
X28021495Y-100232312D01*
X28272905Y-100400299D01*
X28552257Y-100516011D01*
X28848816Y-100575000D01*
X29151184Y-100575000D01*
X29447743Y-100516011D01*
X29727095Y-100400299D01*
X29978505Y-100232312D01*
X30192312Y-100018505D01*
X30360299Y-99767095D01*
X30476011Y-99487743D01*
X30535000Y-99191184D01*
X30535000Y-98888816D01*
X30476011Y-98592257D01*
X30360299Y-98312905D01*
X30192312Y-98061495D01*
X30125873Y-97995056D01*
X30144180Y-97989502D01*
X30254494Y-97930537D01*
X30351185Y-97851185D01*
X30430537Y-97754494D01*
X30489502Y-97644180D01*
X30525812Y-97524482D01*
X30538072Y-97400000D01*
X30535000Y-96785750D01*
X30376250Y-96627000D01*
X29127000Y-96627000D01*
X29127000Y-96647000D01*
X28873000Y-96647000D01*
X28873000Y-96627000D01*
X27623750Y-96627000D01*
X27465000Y-96785750D01*
X27461928Y-97400000D01*
X-9340000Y-97400000D01*
X-9340000Y-95600000D01*
X27461928Y-95600000D01*
X27465000Y-96214250D01*
X27623750Y-96373000D01*
X28873000Y-96373000D01*
X28873000Y-95123750D01*
X29127000Y-95123750D01*
X29127000Y-96373000D01*
X30376250Y-96373000D01*
X30535000Y-96214250D01*
X30538072Y-95600000D01*
X30525812Y-95475518D01*
X30489502Y-95355820D01*
X30430537Y-95245506D01*
X30351185Y-95148815D01*
X30254494Y-95069463D01*
X30144180Y-95010498D01*
X30024482Y-94974188D01*
X29900000Y-94961928D01*
X29285750Y-94965000D01*
X29127000Y-95123750D01*
X28873000Y-95123750D01*
X28714250Y-94965000D01*
X28100000Y-94961928D01*
X27975518Y-94974188D01*
X27855820Y-95010498D01*
X27745506Y-95069463D01*
X27648815Y-95148815D01*
X27569463Y-95245506D01*
X27510498Y-95355820D01*
X27474188Y-95475518D01*
X27461928Y-95600000D01*
X-9340000Y-95600000D01*
X-9340000Y-62400000D01*
X27461928Y-62400000D01*
X27474188Y-62524482D01*
X27510498Y-62644180D01*
X27569463Y-62754494D01*
X27648815Y-62851185D01*
X27745506Y-62930537D01*
X27855820Y-62989502D01*
X27975518Y-63025812D01*
X28100000Y-63038072D01*
X28714250Y-63035000D01*
X28873000Y-62876250D01*
X28873000Y-61627000D01*
X29127000Y-61627000D01*
X29127000Y-62876250D01*
X29285750Y-63035000D01*
X29900000Y-63038072D01*
X30024482Y-63025812D01*
X30144180Y-62989502D01*
X30254494Y-62930537D01*
X30351185Y-62851185D01*
X30430537Y-62754494D01*
X30489502Y-62644180D01*
X30525812Y-62524482D01*
X30538072Y-62400000D01*
X30535000Y-61785750D01*
X30376250Y-61627000D01*
X29127000Y-61627000D01*
X28873000Y-61627000D01*
X27623750Y-61627000D01*
X27465000Y-61785750D01*
X27461928Y-62400000D01*
X-9340000Y-62400000D01*
X-9340000Y-60600000D01*
X27461928Y-60600000D01*
X27465000Y-61214250D01*
X27623750Y-61373000D01*
X28873000Y-61373000D01*
X28873000Y-61353000D01*
X29127000Y-61353000D01*
X29127000Y-61373000D01*
X30376250Y-61373000D01*
X30535000Y-61214250D01*
X30538072Y-60600000D01*
X30525812Y-60475518D01*
X30489502Y-60355820D01*
X30430537Y-60245506D01*
X30351185Y-60148815D01*
X30254494Y-60069463D01*
X30144180Y-60010498D01*
X30125873Y-60004944D01*
X30192312Y-59938505D01*
X30360299Y-59687095D01*
X30476011Y-59407743D01*
X30535000Y-59111184D01*
X30535000Y-58808816D01*
X30476011Y-58512257D01*
X30360299Y-58232905D01*
X30192312Y-57981495D01*
X29978505Y-57767688D01*
X29727095Y-57599701D01*
X29447743Y-57483989D01*
X29151184Y-57425000D01*
X28848816Y-57425000D01*
X28552257Y-57483989D01*
X28272905Y-57599701D01*
X28021495Y-57767688D01*
X27807688Y-57981495D01*
X27639701Y-58232905D01*
X27523989Y-58512257D01*
X27465000Y-58808816D01*
X27465000Y-59111184D01*
X27523989Y-59407743D01*
X27639701Y-59687095D01*
X27807688Y-59938505D01*
X27874127Y-60004944D01*
X27855820Y-60010498D01*
X27745506Y-60069463D01*
X27648815Y-60148815D01*
X27569463Y-60245506D01*
X27510498Y-60355820D01*
X27474188Y-60475518D01*
X27461928Y-60600000D01*
X-9340000Y-60600000D01*
X-9340000Y-54858665D01*
X2565000Y-54858665D01*
X2565000Y-55141335D01*
X2620147Y-55418574D01*
X2728320Y-55679727D01*
X2885363Y-55914759D01*
X3085241Y-56114637D01*
X3320273Y-56271680D01*
X3581426Y-56379853D01*
X3858665Y-56435000D01*
X4141335Y-56435000D01*
X4418574Y-56379853D01*
X4679727Y-56271680D01*
X4914759Y-56114637D01*
X5114637Y-55914759D01*
X5271680Y-55679727D01*
X5379853Y-55418574D01*
X5435000Y-55141335D01*
X5435000Y-54858665D01*
X5565000Y-54858665D01*
X5565000Y-55141335D01*
X5620147Y-55418574D01*
X5728320Y-55679727D01*
X5885363Y-55914759D01*
X6085241Y-56114637D01*
X6320273Y-56271680D01*
X6581426Y-56379853D01*
X6858665Y-56435000D01*
X7141335Y-56435000D01*
X7418574Y-56379853D01*
X7679727Y-56271680D01*
X7914759Y-56114637D01*
X8114637Y-55914759D01*
X8271680Y-55679727D01*
X8379853Y-55418574D01*
X8435000Y-55141335D01*
X8435000Y-54858665D01*
X8565000Y-54858665D01*
X8565000Y-55141335D01*
X8620147Y-55418574D01*
X8728320Y-55679727D01*
X8885363Y-55914759D01*
X9085241Y-56114637D01*
X9320273Y-56271680D01*
X9581426Y-56379853D01*
X9858665Y-56435000D01*
X10141335Y-56435000D01*
X10418574Y-56379853D01*
X10679727Y-56271680D01*
X10914759Y-56114637D01*
X11114637Y-55914759D01*
X11271680Y-55679727D01*
X11379853Y-55418574D01*
X11435000Y-55141335D01*
X11435000Y-54858665D01*
X11379853Y-54581426D01*
X11271680Y-54320273D01*
X11114637Y-54085241D01*
X10914759Y-53885363D01*
X10679727Y-53728320D01*
X10418574Y-53620147D01*
X10141335Y-53565000D01*
X9858665Y-53565000D01*
X9581426Y-53620147D01*
X9320273Y-53728320D01*
X9085241Y-53885363D01*
X8885363Y-54085241D01*
X8728320Y-54320273D01*
X8620147Y-54581426D01*
X8565000Y-54858665D01*
X8435000Y-54858665D01*
X8379853Y-54581426D01*
X8271680Y-54320273D01*
X8114637Y-54085241D01*
X7914759Y-53885363D01*
X7679727Y-53728320D01*
X7418574Y-53620147D01*
X7141335Y-53565000D01*
X6858665Y-53565000D01*
X6581426Y-53620147D01*
X6320273Y-53728320D01*
X6085241Y-53885363D01*
X5885363Y-54085241D01*
X5728320Y-54320273D01*
X5620147Y-54581426D01*
X5565000Y-54858665D01*
X5435000Y-54858665D01*
X5379853Y-54581426D01*
X5271680Y-54320273D01*
X5114637Y-54085241D01*
X4914759Y-53885363D01*
X4679727Y-53728320D01*
X4418574Y-53620147D01*
X4141335Y-53565000D01*
X3858665Y-53565000D01*
X3581426Y-53620147D01*
X3320273Y-53728320D01*
X3085241Y-53885363D01*
X2885363Y-54085241D01*
X2728320Y-54320273D01*
X2620147Y-54581426D01*
X2565000Y-54858665D01*
X-9340000Y-54858665D01*
X-9340000Y-44629039D01*
X2608096Y-44629039D01*
X2648754Y-44763087D01*
X2768963Y-45017420D01*
X2936481Y-45243414D01*
X3144869Y-45432385D01*
X3386119Y-45577070D01*
X3650960Y-45671909D01*
X3873000Y-45550624D01*
X3873000Y-44407000D01*
X2730085Y-44407000D01*
X2608096Y-44629039D01*
X-9340000Y-44629039D01*
X-9340000Y-3403618D01*
X761294Y-3403618D01*
X764970Y-3440940D01*
X764971Y-33272639D01*
X761294Y-33309972D01*
X764971Y-33347305D01*
X775968Y-33458958D01*
X777120Y-33462755D01*
X819424Y-33602218D01*
X889996Y-33734248D01*
X948041Y-33804975D01*
X984970Y-33849973D01*
X1013968Y-33873771D01*
X2890330Y-35750133D01*
X2801068Y-35858899D01*
X2667818Y-36108192D01*
X2585764Y-36378691D01*
X2558057Y-36660000D01*
X2585764Y-36941309D01*
X2667818Y-37211808D01*
X2801068Y-37461101D01*
X2980392Y-37679608D01*
X3198899Y-37858932D01*
X3331858Y-37930000D01*
X3198899Y-38001068D01*
X2980392Y-38180392D01*
X2801068Y-38398899D01*
X2667818Y-38648192D01*
X2585764Y-38918691D01*
X2558057Y-39200000D01*
X2585764Y-39481309D01*
X2667818Y-39751808D01*
X2801068Y-40001101D01*
X2980392Y-40219608D01*
X3198899Y-40398932D01*
X3331858Y-40470000D01*
X3198899Y-40541068D01*
X2980392Y-40720392D01*
X2801068Y-40938899D01*
X2667818Y-41188192D01*
X2585764Y-41458691D01*
X2558057Y-41740000D01*
X2585764Y-42021309D01*
X2667818Y-42291808D01*
X2801068Y-42541101D01*
X2980392Y-42759608D01*
X3198899Y-42938932D01*
X3336682Y-43012579D01*
X3144869Y-43127615D01*
X2936481Y-43316586D01*
X2768963Y-43542580D01*
X2648754Y-43796913D01*
X2608096Y-43930961D01*
X2730085Y-44153000D01*
X3873000Y-44153000D01*
X3873000Y-44133000D01*
X4127000Y-44133000D01*
X4127000Y-44153000D01*
X5269915Y-44153000D01*
X5391904Y-43930961D01*
X5351246Y-43796913D01*
X5231037Y-43542580D01*
X5063519Y-43316586D01*
X4855131Y-43127615D01*
X4663318Y-43012579D01*
X4801101Y-42938932D01*
X5019608Y-42759608D01*
X5198932Y-42541101D01*
X5332182Y-42291808D01*
X5414236Y-42021309D01*
X5441943Y-41740000D01*
X5414236Y-41458691D01*
X5332182Y-41188192D01*
X5198932Y-40938899D01*
X5019608Y-40720392D01*
X4801101Y-40541068D01*
X4668142Y-40470000D01*
X4801101Y-40398932D01*
X5019608Y-40219608D01*
X5198932Y-40001101D01*
X5332182Y-39751808D01*
X5414236Y-39481309D01*
X5441943Y-39200000D01*
X5414236Y-38918691D01*
X5332182Y-38648192D01*
X5198932Y-38398899D01*
X5019608Y-38180392D01*
X4801101Y-38001068D01*
X4668142Y-37930000D01*
X4801101Y-37858932D01*
X5019608Y-37679608D01*
X5198932Y-37461101D01*
X5332182Y-37211808D01*
X5414236Y-36941309D01*
X5441943Y-36660000D01*
X5414236Y-36378691D01*
X5332182Y-36108192D01*
X5277025Y-36005001D01*
X7194999Y-36005001D01*
X7195000Y-43110198D01*
X5068488Y-45236711D01*
X5231037Y-45017420D01*
X5351246Y-44763087D01*
X5391904Y-44629039D01*
X5269915Y-44407000D01*
X4127000Y-44407000D01*
X4127000Y-45550624D01*
X4349040Y-45671909D01*
X4613881Y-45577070D01*
X4855131Y-45432385D01*
X5044905Y-45260294D01*
X4325906Y-45979292D01*
X4281309Y-45965764D01*
X4070492Y-45945000D01*
X3929508Y-45945000D01*
X3718691Y-45965764D01*
X3448192Y-46047818D01*
X3198899Y-46181068D01*
X2980392Y-46360392D01*
X2801068Y-46578899D01*
X2667818Y-46828192D01*
X2585764Y-47098691D01*
X2558057Y-47380000D01*
X2585764Y-47661309D01*
X2667818Y-47931808D01*
X2801068Y-48181101D01*
X2980392Y-48399608D01*
X3198899Y-48578932D01*
X3448192Y-48712182D01*
X3718691Y-48794236D01*
X3929508Y-48815000D01*
X4070492Y-48815000D01*
X4281309Y-48794236D01*
X4325906Y-48780708D01*
X5031229Y-49486031D01*
X5055027Y-49515029D01*
X5170752Y-49610002D01*
X5302781Y-49680574D01*
X5446042Y-49724031D01*
X5557695Y-49735028D01*
X5557704Y-49735028D01*
X5595027Y-49738704D01*
X5632350Y-49735028D01*
X40033290Y-49735028D01*
X40070612Y-49738704D01*
X40107934Y-49735028D01*
X40107945Y-49735028D01*
X40219598Y-49724031D01*
X40362859Y-49680574D01*
X40494888Y-49610002D01*
X40610613Y-49515029D01*
X40634416Y-49486025D01*
X45786025Y-44334417D01*
X45815022Y-44310620D01*
X45909995Y-44194895D01*
X45980567Y-44062866D01*
X46024024Y-43919605D01*
X46035021Y-43807952D01*
X46035021Y-43807944D01*
X46038697Y-43770619D01*
X46035021Y-43733294D01*
X46035021Y-32900000D01*
X69961928Y-32900000D01*
X69974188Y-33024482D01*
X70010498Y-33144180D01*
X70069463Y-33254494D01*
X70148815Y-33351185D01*
X70245506Y-33430537D01*
X70355820Y-33489502D01*
X70374127Y-33495056D01*
X70307688Y-33561495D01*
X70139701Y-33812905D01*
X70023989Y-34092257D01*
X69965000Y-34388816D01*
X69965000Y-34691184D01*
X70023989Y-34987743D01*
X70139701Y-35267095D01*
X70307688Y-35518505D01*
X70521495Y-35732312D01*
X70772905Y-35900299D01*
X71052257Y-36016011D01*
X71348816Y-36075000D01*
X71651184Y-36075000D01*
X71947743Y-36016011D01*
X72227095Y-35900299D01*
X72478505Y-35732312D01*
X72692312Y-35518505D01*
X72860299Y-35267095D01*
X72976011Y-34987743D01*
X73035000Y-34691184D01*
X73035000Y-34388816D01*
X72976011Y-34092257D01*
X72860299Y-33812905D01*
X72692312Y-33561495D01*
X72625873Y-33495056D01*
X72644180Y-33489502D01*
X72754494Y-33430537D01*
X72851185Y-33351185D01*
X72930537Y-33254494D01*
X72989502Y-33144180D01*
X73025812Y-33024482D01*
X73038072Y-32900000D01*
X73035000Y-32285750D01*
X72876250Y-32127000D01*
X71627000Y-32127000D01*
X71627000Y-32147000D01*
X71373000Y-32147000D01*
X71373000Y-32127000D01*
X70123750Y-32127000D01*
X69965000Y-32285750D01*
X69961928Y-32900000D01*
X46035021Y-32900000D01*
X46035021Y-31754524D01*
X46038697Y-31717199D01*
X46035021Y-31679874D01*
X46035021Y-31679866D01*
X46024024Y-31568213D01*
X45980567Y-31424952D01*
X45909995Y-31292923D01*
X45815022Y-31177198D01*
X45786024Y-31153400D01*
X45732624Y-31100000D01*
X69961928Y-31100000D01*
X69965000Y-31714250D01*
X70123750Y-31873000D01*
X71373000Y-31873000D01*
X71373000Y-30623750D01*
X71627000Y-30623750D01*
X71627000Y-31873000D01*
X72876250Y-31873000D01*
X73035000Y-31714250D01*
X73038072Y-31100000D01*
X73025812Y-30975518D01*
X72989502Y-30855820D01*
X72930537Y-30745506D01*
X72851185Y-30648815D01*
X72754494Y-30569463D01*
X72644180Y-30510498D01*
X72524482Y-30474188D01*
X72400000Y-30461928D01*
X71785750Y-30465000D01*
X71627000Y-30623750D01*
X71373000Y-30623750D01*
X71214250Y-30465000D01*
X70600000Y-30461928D01*
X70475518Y-30474188D01*
X70355820Y-30510498D01*
X70245506Y-30569463D01*
X70148815Y-30648815D01*
X70069463Y-30745506D01*
X70010498Y-30855820D01*
X69974188Y-30975518D01*
X69961928Y-31100000D01*
X45732624Y-31100000D01*
X44726602Y-30093979D01*
X44702804Y-30064981D01*
X44673804Y-30041181D01*
X44587079Y-29970007D01*
X44455049Y-29899435D01*
X44355245Y-29869161D01*
X44311789Y-29855979D01*
X44200136Y-29844982D01*
X44162803Y-29841305D01*
X44125471Y-29844982D01*
X38685000Y-29844980D01*
X38685000Y-29608665D01*
X38629853Y-29331426D01*
X38521680Y-29070273D01*
X38364637Y-28835241D01*
X38164759Y-28635363D01*
X37929727Y-28478320D01*
X37668574Y-28370147D01*
X37391335Y-28315000D01*
X37108665Y-28315000D01*
X36831426Y-28370147D01*
X36570273Y-28478320D01*
X36335241Y-28635363D01*
X36135363Y-28835241D01*
X35978320Y-29070273D01*
X35870147Y-29331426D01*
X35815000Y-29608665D01*
X35815000Y-29891335D01*
X35870147Y-30168574D01*
X35978320Y-30429727D01*
X36135363Y-30664759D01*
X36215603Y-30744999D01*
X35412326Y-30744999D01*
X35375001Y-30741323D01*
X35337676Y-30744999D01*
X35337668Y-30744999D01*
X35288506Y-30749841D01*
X35358977Y-30679370D01*
X35242704Y-30563097D01*
X35486671Y-30491514D01*
X35607571Y-30236004D01*
X35676300Y-29961816D01*
X35690217Y-29679488D01*
X35648787Y-29399870D01*
X35553603Y-29133708D01*
X35486671Y-29008486D01*
X35242702Y-28936903D01*
X34429605Y-29750000D01*
X34443748Y-29764143D01*
X34264143Y-29943748D01*
X34250000Y-29929605D01*
X34235858Y-29943748D01*
X34056253Y-29764143D01*
X34070395Y-29750000D01*
X34056253Y-29735858D01*
X34235858Y-29556253D01*
X34250000Y-29570395D01*
X35063097Y-28757298D01*
X34991514Y-28513329D01*
X34915338Y-28477285D01*
X39492623Y-23900000D01*
X42461928Y-23900000D01*
X42474188Y-24024482D01*
X42510498Y-24144180D01*
X42569463Y-24254494D01*
X42648815Y-24351185D01*
X42745506Y-24430537D01*
X42855820Y-24489502D01*
X42874127Y-24495056D01*
X42807688Y-24561495D01*
X42639701Y-24812905D01*
X42523989Y-25092257D01*
X42465000Y-25388816D01*
X42465000Y-25691184D01*
X42523989Y-25987743D01*
X42639701Y-26267095D01*
X42807688Y-26518505D01*
X43021495Y-26732312D01*
X43272905Y-26900299D01*
X43552257Y-27016011D01*
X43848816Y-27075000D01*
X44151184Y-27075000D01*
X44447743Y-27016011D01*
X44727095Y-26900299D01*
X44978505Y-26732312D01*
X45192312Y-26518505D01*
X45360299Y-26267095D01*
X45476011Y-25987743D01*
X45501882Y-25857680D01*
X67555000Y-25857680D01*
X67555000Y-26142320D01*
X67610530Y-26421491D01*
X67719457Y-26684464D01*
X67877595Y-26921134D01*
X68078866Y-27122405D01*
X68315536Y-27280543D01*
X68578509Y-27389470D01*
X68857680Y-27445000D01*
X69142320Y-27445000D01*
X69421491Y-27389470D01*
X69684464Y-27280543D01*
X69921134Y-27122405D01*
X70122405Y-26921134D01*
X70280543Y-26684464D01*
X70389470Y-26421491D01*
X70445000Y-26142320D01*
X70445000Y-25857680D01*
X72555000Y-25857680D01*
X72555000Y-26142320D01*
X72610530Y-26421491D01*
X72719457Y-26684464D01*
X72877595Y-26921134D01*
X73078866Y-27122405D01*
X73315536Y-27280543D01*
X73578509Y-27389470D01*
X73857680Y-27445000D01*
X74142320Y-27445000D01*
X74421491Y-27389470D01*
X74684464Y-27280543D01*
X74921134Y-27122405D01*
X75122405Y-26921134D01*
X75280543Y-26684464D01*
X75389470Y-26421491D01*
X75445000Y-26142320D01*
X75445000Y-25857680D01*
X75389470Y-25578509D01*
X75280543Y-25315536D01*
X75122405Y-25078866D01*
X74921134Y-24877595D01*
X74684464Y-24719457D01*
X74421491Y-24610530D01*
X74142320Y-24555000D01*
X73857680Y-24555000D01*
X73578509Y-24610530D01*
X73315536Y-24719457D01*
X73078866Y-24877595D01*
X72877595Y-25078866D01*
X72719457Y-25315536D01*
X72610530Y-25578509D01*
X72555000Y-25857680D01*
X70445000Y-25857680D01*
X70389470Y-25578509D01*
X70280543Y-25315536D01*
X70122405Y-25078866D01*
X69921134Y-24877595D01*
X69684464Y-24719457D01*
X69421491Y-24610530D01*
X69142320Y-24555000D01*
X68857680Y-24555000D01*
X68578509Y-24610530D01*
X68315536Y-24719457D01*
X68078866Y-24877595D01*
X67877595Y-25078866D01*
X67719457Y-25315536D01*
X67610530Y-25578509D01*
X67555000Y-25857680D01*
X45501882Y-25857680D01*
X45535000Y-25691184D01*
X45535000Y-25388816D01*
X45476011Y-25092257D01*
X45360299Y-24812905D01*
X45192312Y-24561495D01*
X45125873Y-24495056D01*
X45144180Y-24489502D01*
X45254494Y-24430537D01*
X45351185Y-24351185D01*
X45430537Y-24254494D01*
X45489502Y-24144180D01*
X45525812Y-24024482D01*
X45538072Y-23900000D01*
X45535316Y-23348816D01*
X58925000Y-23348816D01*
X58925000Y-23651184D01*
X58983989Y-23947743D01*
X59099701Y-24227095D01*
X59267688Y-24478505D01*
X59481495Y-24692312D01*
X59732905Y-24860299D01*
X60012257Y-24976011D01*
X60308816Y-25035000D01*
X60611184Y-25035000D01*
X60907743Y-24976011D01*
X61187095Y-24860299D01*
X61438505Y-24692312D01*
X61504944Y-24625873D01*
X61510498Y-24644180D01*
X61569463Y-24754494D01*
X61648815Y-24851185D01*
X61745506Y-24930537D01*
X61855820Y-24989502D01*
X61975518Y-25025812D01*
X62100000Y-25038072D01*
X62714250Y-25035000D01*
X62873000Y-24876250D01*
X62873000Y-23627000D01*
X63127000Y-23627000D01*
X63127000Y-24876250D01*
X63285750Y-25035000D01*
X63900000Y-25038072D01*
X64024482Y-25025812D01*
X64144180Y-24989502D01*
X64254494Y-24930537D01*
X64351185Y-24851185D01*
X64430537Y-24754494D01*
X64489502Y-24644180D01*
X64525812Y-24524482D01*
X64538072Y-24400000D01*
X78461928Y-24400000D01*
X78474188Y-24524482D01*
X78510498Y-24644180D01*
X78569463Y-24754494D01*
X78648815Y-24851185D01*
X78745506Y-24930537D01*
X78855820Y-24989502D01*
X78975518Y-25025812D01*
X79100000Y-25038072D01*
X79714250Y-25035000D01*
X79873000Y-24876250D01*
X79873000Y-23627000D01*
X78623750Y-23627000D01*
X78465000Y-23785750D01*
X78461928Y-24400000D01*
X64538072Y-24400000D01*
X64535000Y-23785750D01*
X64376250Y-23627000D01*
X63127000Y-23627000D01*
X62873000Y-23627000D01*
X62853000Y-23627000D01*
X62853000Y-23373000D01*
X62873000Y-23373000D01*
X62873000Y-22123750D01*
X63127000Y-22123750D01*
X63127000Y-23373000D01*
X64376250Y-23373000D01*
X64535000Y-23214250D01*
X64538072Y-22600000D01*
X78461928Y-22600000D01*
X78465000Y-23214250D01*
X78623750Y-23373000D01*
X79873000Y-23373000D01*
X79873000Y-22123750D01*
X80127000Y-22123750D01*
X80127000Y-23373000D01*
X80147000Y-23373000D01*
X80147000Y-23627000D01*
X80127000Y-23627000D01*
X80127000Y-24876250D01*
X80285750Y-25035000D01*
X80900000Y-25038072D01*
X81024482Y-25025812D01*
X81144180Y-24989502D01*
X81254494Y-24930537D01*
X81351185Y-24851185D01*
X81430537Y-24754494D01*
X81489502Y-24644180D01*
X81495056Y-24625873D01*
X81561495Y-24692312D01*
X81812905Y-24860299D01*
X82092257Y-24976011D01*
X82388816Y-25035000D01*
X82691184Y-25035000D01*
X82987743Y-24976011D01*
X83267095Y-24860299D01*
X83518505Y-24692312D01*
X83732312Y-24478505D01*
X83900299Y-24227095D01*
X84016011Y-23947743D01*
X84075000Y-23651184D01*
X84075000Y-23348816D01*
X84016011Y-23052257D01*
X83900299Y-22772905D01*
X83732312Y-22521495D01*
X83518505Y-22307688D01*
X83267095Y-22139701D01*
X82987743Y-22023989D01*
X82691184Y-21965000D01*
X82388816Y-21965000D01*
X82092257Y-22023989D01*
X81812905Y-22139701D01*
X81561495Y-22307688D01*
X81495056Y-22374127D01*
X81489502Y-22355820D01*
X81430537Y-22245506D01*
X81351185Y-22148815D01*
X81254494Y-22069463D01*
X81144180Y-22010498D01*
X81024482Y-21974188D01*
X80900000Y-21961928D01*
X80285750Y-21965000D01*
X80127000Y-22123750D01*
X79873000Y-22123750D01*
X79714250Y-21965000D01*
X79100000Y-21961928D01*
X78975518Y-21974188D01*
X78855820Y-22010498D01*
X78745506Y-22069463D01*
X78648815Y-22148815D01*
X78569463Y-22245506D01*
X78510498Y-22355820D01*
X78474188Y-22475518D01*
X78461928Y-22600000D01*
X64538072Y-22600000D01*
X64525812Y-22475518D01*
X64489502Y-22355820D01*
X64430537Y-22245506D01*
X64351185Y-22148815D01*
X64254494Y-22069463D01*
X64144180Y-22010498D01*
X64024482Y-21974188D01*
X63900000Y-21961928D01*
X63285750Y-21965000D01*
X63127000Y-22123750D01*
X62873000Y-22123750D01*
X62714250Y-21965000D01*
X62100000Y-21961928D01*
X61975518Y-21974188D01*
X61855820Y-22010498D01*
X61745506Y-22069463D01*
X61648815Y-22148815D01*
X61569463Y-22245506D01*
X61510498Y-22355820D01*
X61504944Y-22374127D01*
X61438505Y-22307688D01*
X61187095Y-22139701D01*
X60907743Y-22023989D01*
X60611184Y-21965000D01*
X60308816Y-21965000D01*
X60012257Y-22023989D01*
X59732905Y-22139701D01*
X59481495Y-22307688D01*
X59267688Y-22521495D01*
X59099701Y-22772905D01*
X58983989Y-23052257D01*
X58925000Y-23348816D01*
X45535316Y-23348816D01*
X45535000Y-23285750D01*
X45376250Y-23127000D01*
X44127000Y-23127000D01*
X44127000Y-23147000D01*
X43873000Y-23147000D01*
X43873000Y-23127000D01*
X42623750Y-23127000D01*
X42465000Y-23285750D01*
X42461928Y-23900000D01*
X39492623Y-23900000D01*
X39801719Y-23590905D01*
X39830717Y-23567107D01*
X39925690Y-23451382D01*
X39996262Y-23319353D01*
X40039719Y-23176092D01*
X40050716Y-23064439D01*
X40054393Y-23027106D01*
X40050716Y-22989773D01*
X40050716Y-22100000D01*
X42461928Y-22100000D01*
X42465000Y-22714250D01*
X42623750Y-22873000D01*
X43873000Y-22873000D01*
X43873000Y-21623750D01*
X44127000Y-21623750D01*
X44127000Y-22873000D01*
X45376250Y-22873000D01*
X45535000Y-22714250D01*
X45538072Y-22100000D01*
X45525812Y-21975518D01*
X45489502Y-21855820D01*
X45430537Y-21745506D01*
X45351185Y-21648815D01*
X45254494Y-21569463D01*
X45144180Y-21510498D01*
X45024482Y-21474188D01*
X44900000Y-21461928D01*
X44285750Y-21465000D01*
X44127000Y-21623750D01*
X43873000Y-21623750D01*
X43714250Y-21465000D01*
X43100000Y-21461928D01*
X42975518Y-21474188D01*
X42855820Y-21510498D01*
X42745506Y-21569463D01*
X42648815Y-21648815D01*
X42569463Y-21745506D01*
X42510498Y-21855820D01*
X42474188Y-21975518D01*
X42461928Y-22100000D01*
X40050716Y-22100000D01*
X40050716Y-21270217D01*
X40054392Y-21232894D01*
X40050716Y-21195571D01*
X40050716Y-21195561D01*
X40039719Y-21083908D01*
X39996262Y-20940647D01*
X39925690Y-20808618D01*
X39830717Y-20692893D01*
X39823186Y-20686712D01*
X42972893Y-20686712D01*
X43080726Y-20961338D01*
X43387384Y-21112216D01*
X43717585Y-21200369D01*
X44058639Y-21222409D01*
X44397439Y-21177489D01*
X44720966Y-21067336D01*
X44919274Y-20961338D01*
X44959975Y-20857680D01*
X70055000Y-20857680D01*
X70055000Y-21142320D01*
X70110530Y-21421491D01*
X70219457Y-21684464D01*
X70377595Y-21921134D01*
X70578866Y-22122405D01*
X70815536Y-22280543D01*
X71078509Y-22389470D01*
X71357680Y-22445000D01*
X71642320Y-22445000D01*
X71921491Y-22389470D01*
X72184464Y-22280543D01*
X72421134Y-22122405D01*
X72622405Y-21921134D01*
X72780543Y-21684464D01*
X72889470Y-21421491D01*
X72945000Y-21142320D01*
X72945000Y-20857680D01*
X72889470Y-20578509D01*
X72780543Y-20315536D01*
X72622405Y-20078866D01*
X72421134Y-19877595D01*
X72184464Y-19719457D01*
X71921491Y-19610530D01*
X71642320Y-19555000D01*
X71357680Y-19555000D01*
X71078509Y-19610530D01*
X70815536Y-19719457D01*
X70578866Y-19877595D01*
X70377595Y-20078866D01*
X70219457Y-20315536D01*
X70110530Y-20578509D01*
X70055000Y-20857680D01*
X44959975Y-20857680D01*
X45027107Y-20686712D01*
X44000000Y-19659605D01*
X42972893Y-20686712D01*
X39823186Y-20686712D01*
X39801720Y-20669096D01*
X38680020Y-19547397D01*
X38680020Y-19538639D01*
X42257591Y-19538639D01*
X42302511Y-19877439D01*
X42412664Y-20200966D01*
X42518662Y-20399274D01*
X42793288Y-20507107D01*
X43820395Y-19480000D01*
X44179605Y-19480000D01*
X45206712Y-20507107D01*
X45481338Y-20399274D01*
X45632216Y-20092616D01*
X45720369Y-19762415D01*
X45742409Y-19421361D01*
X45697489Y-19082561D01*
X45587336Y-18759034D01*
X45481338Y-18560726D01*
X45206712Y-18452893D01*
X44179605Y-19480000D01*
X43820395Y-19480000D01*
X42793288Y-18452893D01*
X42518662Y-18560726D01*
X42367784Y-18867384D01*
X42279631Y-19197585D01*
X42257591Y-19538639D01*
X38680020Y-19538639D01*
X38680020Y-12789721D01*
X41865000Y-12789721D01*
X41865000Y-13210279D01*
X41947047Y-13622756D01*
X42107988Y-14011302D01*
X42341637Y-14360983D01*
X42639017Y-14658363D01*
X42988698Y-14892012D01*
X43059884Y-14921498D01*
X42894002Y-15032337D01*
X42652337Y-15274002D01*
X42462463Y-15558169D01*
X42331675Y-15873919D01*
X42265000Y-16209117D01*
X42265000Y-16550883D01*
X42331675Y-16886081D01*
X42462463Y-17201831D01*
X42652337Y-17485998D01*
X42894002Y-17727663D01*
X43178169Y-17917537D01*
X43208779Y-17930216D01*
X43080726Y-17998662D01*
X42972893Y-18273288D01*
X44000000Y-19300395D01*
X45027107Y-18273288D01*
X44919274Y-17998662D01*
X44785215Y-17932704D01*
X44821831Y-17917537D01*
X45105998Y-17727663D01*
X45347663Y-17485998D01*
X45537537Y-17201831D01*
X45668325Y-16886081D01*
X45735000Y-16550883D01*
X45735000Y-16209117D01*
X45673513Y-15900000D01*
X69961928Y-15900000D01*
X69974188Y-16024482D01*
X70010498Y-16144180D01*
X70069463Y-16254494D01*
X70148815Y-16351185D01*
X70245506Y-16430537D01*
X70355820Y-16489502D01*
X70475518Y-16525812D01*
X70600000Y-16538072D01*
X71214250Y-16535000D01*
X71373000Y-16376250D01*
X71373000Y-15127000D01*
X71627000Y-15127000D01*
X71627000Y-16376250D01*
X71785750Y-16535000D01*
X72400000Y-16538072D01*
X72524482Y-16525812D01*
X72644180Y-16489502D01*
X72754494Y-16430537D01*
X72851185Y-16351185D01*
X72930537Y-16254494D01*
X72989502Y-16144180D01*
X73025812Y-16024482D01*
X73038072Y-15900000D01*
X73035000Y-15285750D01*
X72876250Y-15127000D01*
X71627000Y-15127000D01*
X71373000Y-15127000D01*
X70123750Y-15127000D01*
X69965000Y-15285750D01*
X69961928Y-15900000D01*
X45673513Y-15900000D01*
X45668325Y-15873919D01*
X45537537Y-15558169D01*
X45347663Y-15274002D01*
X45105998Y-15032337D01*
X44940116Y-14921498D01*
X45011302Y-14892012D01*
X45360983Y-14658363D01*
X45658363Y-14360983D01*
X45832745Y-14100000D01*
X69961928Y-14100000D01*
X69965000Y-14714250D01*
X70123750Y-14873000D01*
X71373000Y-14873000D01*
X71373000Y-14853000D01*
X71627000Y-14853000D01*
X71627000Y-14873000D01*
X72876250Y-14873000D01*
X73035000Y-14714250D01*
X73038072Y-14100000D01*
X73025812Y-13975518D01*
X72989502Y-13855820D01*
X72930537Y-13745506D01*
X72851185Y-13648815D01*
X72754494Y-13569463D01*
X72644180Y-13510498D01*
X72625873Y-13504944D01*
X72692312Y-13438505D01*
X72860299Y-13187095D01*
X72976011Y-12907743D01*
X73035000Y-12611184D01*
X73035000Y-12308816D01*
X72976011Y-12012257D01*
X72860299Y-11732905D01*
X72692312Y-11481495D01*
X72478505Y-11267688D01*
X72227095Y-11099701D01*
X71947743Y-10983989D01*
X71651184Y-10925000D01*
X71348816Y-10925000D01*
X71052257Y-10983989D01*
X70772905Y-11099701D01*
X70521495Y-11267688D01*
X70307688Y-11481495D01*
X70139701Y-11732905D01*
X70023989Y-12012257D01*
X69965000Y-12308816D01*
X69965000Y-12611184D01*
X70023989Y-12907743D01*
X70139701Y-13187095D01*
X70307688Y-13438505D01*
X70374127Y-13504944D01*
X70355820Y-13510498D01*
X70245506Y-13569463D01*
X70148815Y-13648815D01*
X70069463Y-13745506D01*
X70010498Y-13855820D01*
X69974188Y-13975518D01*
X69961928Y-14100000D01*
X45832745Y-14100000D01*
X45892012Y-14011302D01*
X46052953Y-13622756D01*
X46135000Y-13210279D01*
X46135000Y-12789721D01*
X46052953Y-12377244D01*
X45892012Y-11988698D01*
X45658363Y-11639017D01*
X45360983Y-11341637D01*
X45011302Y-11107988D01*
X44622756Y-10947047D01*
X44210279Y-10865000D01*
X43789721Y-10865000D01*
X43377244Y-10947047D01*
X42988698Y-11107988D01*
X42639017Y-11341637D01*
X42341637Y-11639017D01*
X42107988Y-11988698D01*
X41947047Y-12377244D01*
X41865000Y-12789721D01*
X38680020Y-12789721D01*
X38680020Y-9894522D01*
X38683696Y-9857199D01*
X38680020Y-9819876D01*
X38680020Y-9819867D01*
X38669023Y-9708214D01*
X38625566Y-9564953D01*
X38554994Y-9432924D01*
X38460021Y-9317199D01*
X38431018Y-9293397D01*
X38227511Y-9089890D01*
X38227511Y-7909117D01*
X42265000Y-7909117D01*
X42265000Y-8250883D01*
X42331675Y-8586081D01*
X42462463Y-8901831D01*
X42652337Y-9185998D01*
X42894002Y-9427663D01*
X43178169Y-9617537D01*
X43493919Y-9748325D01*
X43829117Y-9815000D01*
X44170883Y-9815000D01*
X44506081Y-9748325D01*
X44821831Y-9617537D01*
X45105998Y-9427663D01*
X45347663Y-9185998D01*
X45537537Y-8901831D01*
X45668325Y-8586081D01*
X45735000Y-8250883D01*
X45735000Y-7909117D01*
X45668325Y-7573919D01*
X45537537Y-7258169D01*
X45347663Y-6974002D01*
X45105998Y-6732337D01*
X44821831Y-6542463D01*
X44506081Y-6411675D01*
X44170883Y-6345000D01*
X43829117Y-6345000D01*
X43493919Y-6411675D01*
X43178169Y-6542463D01*
X42894002Y-6732337D01*
X42652337Y-6974002D01*
X42462463Y-7258169D01*
X42331675Y-7573919D01*
X42265000Y-7909117D01*
X38227511Y-7909117D01*
X38227511Y-3333422D01*
X38231187Y-3296099D01*
X38227511Y-3258776D01*
X38227511Y-3258766D01*
X38216514Y-3147113D01*
X38173057Y-3003852D01*
X38166853Y-2992246D01*
X38102485Y-2871822D01*
X38031310Y-2785096D01*
X38007512Y-2756098D01*
X37978515Y-2732301D01*
X35985216Y-739003D01*
X35961413Y-709999D01*
X35845688Y-615026D01*
X35713659Y-544454D01*
X35570398Y-500997D01*
X35458745Y-490000D01*
X35458734Y-490000D01*
X35421412Y-486324D01*
X35384090Y-490000D01*
X26157323Y-490000D01*
X26120000Y-486324D01*
X26082677Y-490000D01*
X26082667Y-490000D01*
X25971014Y-500997D01*
X25827753Y-544454D01*
X25695723Y-615026D01*
X25612083Y-683668D01*
X25579999Y-709999D01*
X25556201Y-738997D01*
X23945906Y-2349292D01*
X23901309Y-2335764D01*
X23690492Y-2315000D01*
X23549508Y-2315000D01*
X23338691Y-2335764D01*
X23068192Y-2417818D01*
X22818899Y-2551068D01*
X22600392Y-2730392D01*
X22421068Y-2948899D01*
X22287818Y-3198192D01*
X22205764Y-3468691D01*
X22178057Y-3750000D01*
X22205764Y-4031309D01*
X22269069Y-4240000D01*
X17438072Y-4240000D01*
X17438072Y-2950000D01*
X17425812Y-2825518D01*
X17389502Y-2705820D01*
X17330537Y-2595506D01*
X17251185Y-2498815D01*
X17154494Y-2419463D01*
X17044180Y-2360498D01*
X16924482Y-2324188D01*
X16800000Y-2311928D01*
X16654326Y-2311928D01*
X16634974Y-2275724D01*
X16540001Y-2159999D01*
X16511002Y-2136200D01*
X16038787Y-1663986D01*
X16014989Y-1634988D01*
X15982905Y-1608657D01*
X15899265Y-1540015D01*
X15767235Y-1469443D01*
X15623974Y-1425986D01*
X15512321Y-1414989D01*
X15512311Y-1414989D01*
X15474989Y-1411313D01*
X15437666Y-1414989D01*
X2790930Y-1414991D01*
X2753597Y-1411314D01*
X2604611Y-1425988D01*
X2461351Y-1469445D01*
X2329321Y-1540017D01*
X2242594Y-1611191D01*
X2242584Y-1611201D01*
X2213597Y-1634990D01*
X2189808Y-1663977D01*
X1013972Y-2839815D01*
X984969Y-2863617D01*
X940958Y-2917245D01*
X889996Y-2979342D01*
X847833Y-3058223D01*
X819424Y-3111372D01*
X775967Y-3254633D01*
X764970Y-3366286D01*
X764970Y-3366296D01*
X761294Y-3403618D01*
X-9340000Y-3403618D01*
X-9340000Y5220128D01*
X-7235000Y5220128D01*
X-7235000Y4779872D01*
X-7149110Y4348075D01*
X-6980631Y3941331D01*
X-6736038Y3575271D01*
X-6424729Y3263962D01*
X-6058669Y3019369D01*
X-5651925Y2850890D01*
X-5220128Y2765000D01*
X-4779872Y2765000D01*
X-4348075Y2850890D01*
X-3941331Y3019369D01*
X-3575271Y3263962D01*
X-3263962Y3575271D01*
X-3019369Y3941331D01*
X-2850890Y4348075D01*
X-2765000Y4779872D01*
X-2765000Y5220128D01*
X152765000Y5220128D01*
X152765000Y4779872D01*
X152850890Y4348075D01*
X153019369Y3941331D01*
X153263962Y3575271D01*
X153575271Y3263962D01*
X153941331Y3019369D01*
X154348075Y2850890D01*
X154779872Y2765000D01*
X155220128Y2765000D01*
X155651925Y2850890D01*
X156058669Y3019369D01*
X156424729Y3263962D01*
X156736038Y3575271D01*
X156980631Y3941331D01*
X157149110Y4348075D01*
X157235000Y4779872D01*
X157235000Y5220128D01*
X157149110Y5651925D01*
X156980631Y6058669D01*
X156736038Y6424729D01*
X156424729Y6736038D01*
X156058669Y6980631D01*
X155651925Y7149110D01*
X155220128Y7235000D01*
X154779872Y7235000D01*
X154348075Y7149110D01*
X153941331Y6980631D01*
X153575271Y6736038D01*
X153263962Y6424729D01*
X153019369Y6058669D01*
X152850890Y5651925D01*
X152765000Y5220128D01*
X-2765000Y5220128D01*
X-2850890Y5651925D01*
X-3019369Y6058669D01*
X-3263962Y6424729D01*
X-3575271Y6736038D01*
X-3941331Y6980631D01*
X-4348075Y7149110D01*
X-4779872Y7235000D01*
X-5220128Y7235000D01*
X-5651925Y7149110D01*
X-6058669Y6980631D01*
X-6424729Y6736038D01*
X-6736038Y6424729D01*
X-6980631Y6058669D01*
X-7149110Y5651925D01*
X-7235000Y5220128D01*
X-9340000Y5220128D01*
X-9340000Y9340000D01*
X159340001Y9340000D01*
X159340000Y-209340000D01*
X159340000Y-209340000D01*
G37*
X159340000Y-209340000D02*
X104127000Y-209340000D01*
X104127000Y-204779872D01*
X152765000Y-204779872D01*
X152765000Y-205220128D01*
X152850890Y-205651925D01*
X153019369Y-206058669D01*
X153263962Y-206424729D01*
X153575271Y-206736038D01*
X153941331Y-206980631D01*
X154348075Y-207149110D01*
X154779872Y-207235000D01*
X155220128Y-207235000D01*
X155651925Y-207149110D01*
X156058669Y-206980631D01*
X156424729Y-206736038D01*
X156736038Y-206424729D01*
X156980631Y-206058669D01*
X157149110Y-205651925D01*
X157235000Y-205220128D01*
X157235000Y-204779872D01*
X157149110Y-204348075D01*
X156980631Y-203941331D01*
X156736038Y-203575271D01*
X156424729Y-203263962D01*
X156058669Y-203019369D01*
X155651925Y-202850890D01*
X155220128Y-202765000D01*
X154779872Y-202765000D01*
X154348075Y-202850890D01*
X153941331Y-203019369D01*
X153575271Y-203263962D01*
X153263962Y-203575271D01*
X153019369Y-203941331D01*
X152850890Y-204348075D01*
X152765000Y-204779872D01*
X104127000Y-204779872D01*
X104127000Y-195127000D01*
X120000000Y-195127000D01*
X120024776Y-195124560D01*
X120048601Y-195117333D01*
X120070557Y-195105597D01*
X120089803Y-195089803D01*
X120105597Y-195070557D01*
X120117333Y-195048601D01*
X120124560Y-195024776D01*
X120127000Y-195000000D01*
X120127000Y-193550000D01*
X140461928Y-193550000D01*
X140474188Y-193674482D01*
X140510498Y-193794180D01*
X140569463Y-193904494D01*
X140648815Y-194001185D01*
X140745506Y-194080537D01*
X140855820Y-194139502D01*
X140975518Y-194175812D01*
X141100000Y-194188072D01*
X141714250Y-194185000D01*
X141873000Y-194026250D01*
X141873000Y-191877000D01*
X142127000Y-191877000D01*
X142127000Y-194026250D01*
X142285750Y-194185000D01*
X142900000Y-194188072D01*
X143024482Y-194175812D01*
X143144180Y-194139502D01*
X143254494Y-194080537D01*
X143351185Y-194001185D01*
X143430537Y-193904494D01*
X143489502Y-193794180D01*
X143525812Y-193674482D01*
X143538072Y-193550000D01*
X143535000Y-192035750D01*
X143376250Y-191877000D01*
X142127000Y-191877000D01*
X141873000Y-191877000D01*
X140623750Y-191877000D01*
X140465000Y-192035750D01*
X140461928Y-193550000D01*
X120127000Y-193550000D01*
X120127000Y-189950000D01*
X140461928Y-189950000D01*
X140465000Y-191464250D01*
X140623750Y-191623000D01*
X141873000Y-191623000D01*
X141873000Y-189473750D01*
X142127000Y-189473750D01*
X142127000Y-191623000D01*
X143376250Y-191623000D01*
X143535000Y-191464250D01*
X143536399Y-190774593D01*
X144275000Y-190774593D01*
X144275000Y-192725408D01*
X144297211Y-192950913D01*
X144384984Y-193240261D01*
X144527520Y-193506927D01*
X144719340Y-193740661D01*
X144953074Y-193932481D01*
X145219740Y-194075017D01*
X145509088Y-194162790D01*
X145810000Y-194192427D01*
X146110913Y-194162790D01*
X146400261Y-194075017D01*
X146666927Y-193932481D01*
X146900661Y-193740661D01*
X147092481Y-193506927D01*
X147235017Y-193240261D01*
X147322790Y-192950913D01*
X147345000Y-192725408D01*
X147345000Y-190774592D01*
X147322790Y-190549087D01*
X147235017Y-190259739D01*
X147092481Y-189993073D01*
X146900661Y-189759339D01*
X146666926Y-189567519D01*
X146400260Y-189424983D01*
X146110912Y-189337210D01*
X145810000Y-189307573D01*
X145509087Y-189337210D01*
X145219739Y-189424983D01*
X144953073Y-189567519D01*
X144719339Y-189759339D01*
X144527519Y-189993074D01*
X144384983Y-190259740D01*
X144297210Y-190549088D01*
X144275000Y-190774593D01*
X143536399Y-190774593D01*
X143538072Y-189950000D01*
X143525812Y-189825518D01*
X143489502Y-189705820D01*
X143430537Y-189595506D01*
X143351185Y-189498815D01*
X143254494Y-189419463D01*
X143144180Y-189360498D01*
X143024482Y-189324188D01*
X142900000Y-189311928D01*
X142285750Y-189315000D01*
X142127000Y-189473750D01*
X141873000Y-189473750D01*
X141714250Y-189315000D01*
X141100000Y-189311928D01*
X140975518Y-189324188D01*
X140855820Y-189360498D01*
X140745506Y-189419463D01*
X140648815Y-189498815D01*
X140569463Y-189595506D01*
X140510498Y-189705820D01*
X140474188Y-189825518D01*
X140461928Y-189950000D01*
X120127000Y-189950000D01*
X120127000Y-188492346D01*
X120258363Y-188360983D01*
X120492012Y-188011302D01*
X120652953Y-187622756D01*
X120735000Y-187210279D01*
X120735000Y-186789721D01*
X121265000Y-186789721D01*
X121265000Y-187210279D01*
X121347047Y-187622756D01*
X121507988Y-188011302D01*
X121741637Y-188360983D01*
X122039017Y-188658363D01*
X122388698Y-188892012D01*
X122777244Y-189052953D01*
X123189721Y-189135000D01*
X123610279Y-189135000D01*
X124022756Y-189052953D01*
X124150595Y-189000000D01*
X127361928Y-189000000D01*
X127374188Y-189124482D01*
X127410498Y-189244180D01*
X127469463Y-189354494D01*
X127548815Y-189451185D01*
X127645506Y-189530537D01*
X127755820Y-189589502D01*
X127875518Y-189625812D01*
X128000000Y-189638072D01*
X129714250Y-189635000D01*
X129873000Y-189476250D01*
X129873000Y-187127000D01*
X130127000Y-187127000D01*
X130127000Y-189476250D01*
X130285750Y-189635000D01*
X132000000Y-189638072D01*
X132124482Y-189625812D01*
X132244180Y-189589502D01*
X132354494Y-189530537D01*
X132451185Y-189451185D01*
X132530537Y-189354494D01*
X132589502Y-189244180D01*
X132625812Y-189124482D01*
X132638072Y-189000000D01*
X132635000Y-187285750D01*
X132476250Y-187127000D01*
X130127000Y-187127000D01*
X129873000Y-187127000D01*
X127523750Y-187127000D01*
X127365000Y-187285750D01*
X127361928Y-189000000D01*
X124150595Y-189000000D01*
X124411302Y-188892012D01*
X124760983Y-188658363D01*
X125058363Y-188360983D01*
X125292012Y-188011302D01*
X125452953Y-187622756D01*
X125535000Y-187210279D01*
X125535000Y-186789721D01*
X125452953Y-186377244D01*
X125292012Y-185988698D01*
X125058363Y-185639017D01*
X124760983Y-185341637D01*
X124411302Y-185107988D01*
X124150596Y-185000000D01*
X127361928Y-185000000D01*
X127365000Y-186714250D01*
X127523750Y-186873000D01*
X129873000Y-186873000D01*
X129873000Y-184523750D01*
X130127000Y-184523750D01*
X130127000Y-186873000D01*
X132476250Y-186873000D01*
X132559529Y-186789721D01*
X134465000Y-186789721D01*
X134465000Y-187210279D01*
X134547047Y-187622756D01*
X134707988Y-188011302D01*
X134941637Y-188360983D01*
X135239017Y-188658363D01*
X135588698Y-188892012D01*
X135977244Y-189052953D01*
X136389721Y-189135000D01*
X136810279Y-189135000D01*
X137222756Y-189052953D01*
X137611302Y-188892012D01*
X137960983Y-188658363D01*
X138258363Y-188360983D01*
X138492012Y-188011302D01*
X138652953Y-187622756D01*
X138735000Y-187210279D01*
X138735000Y-186789721D01*
X138652953Y-186377244D01*
X138492012Y-185988698D01*
X138258363Y-185639017D01*
X138169346Y-185550000D01*
X140461928Y-185550000D01*
X140474188Y-185674482D01*
X140510498Y-185794180D01*
X140569463Y-185904494D01*
X140648815Y-186001185D01*
X140745506Y-186080537D01*
X140855820Y-186139502D01*
X140975518Y-186175812D01*
X141100000Y-186188072D01*
X141714250Y-186185000D01*
X141873000Y-186026250D01*
X141873000Y-183877000D01*
X142127000Y-183877000D01*
X142127000Y-186026250D01*
X142285750Y-186185000D01*
X142900000Y-186188072D01*
X143024482Y-186175812D01*
X143144180Y-186139502D01*
X143254494Y-186080537D01*
X143351185Y-186001185D01*
X143430537Y-185904494D01*
X143489502Y-185794180D01*
X143525812Y-185674482D01*
X143538072Y-185550000D01*
X143535000Y-184035750D01*
X143376250Y-183877000D01*
X142127000Y-183877000D01*
X141873000Y-183877000D01*
X140623750Y-183877000D01*
X140465000Y-184035750D01*
X140461928Y-185550000D01*
X138169346Y-185550000D01*
X137960983Y-185341637D01*
X137611302Y-185107988D01*
X137222756Y-184947047D01*
X136810279Y-184865000D01*
X136389721Y-184865000D01*
X135977244Y-184947047D01*
X135588698Y-185107988D01*
X135239017Y-185341637D01*
X134941637Y-185639017D01*
X134707988Y-185988698D01*
X134547047Y-186377244D01*
X134465000Y-186789721D01*
X132559529Y-186789721D01*
X132635000Y-186714250D01*
X132638072Y-185000000D01*
X132625812Y-184875518D01*
X132589502Y-184755820D01*
X132530537Y-184645506D01*
X132451185Y-184548815D01*
X132354494Y-184469463D01*
X132244180Y-184410498D01*
X132124482Y-184374188D01*
X132000000Y-184361928D01*
X130285750Y-184365000D01*
X130127000Y-184523750D01*
X129873000Y-184523750D01*
X129714250Y-184365000D01*
X128000000Y-184361928D01*
X127875518Y-184374188D01*
X127755820Y-184410498D01*
X127645506Y-184469463D01*
X127548815Y-184548815D01*
X127469463Y-184645506D01*
X127410498Y-184755820D01*
X127374188Y-184875518D01*
X127361928Y-185000000D01*
X124150596Y-185000000D01*
X124022756Y-184947047D01*
X123610279Y-184865000D01*
X123189721Y-184865000D01*
X122777244Y-184947047D01*
X122388698Y-185107988D01*
X122039017Y-185341637D01*
X121741637Y-185639017D01*
X121507988Y-185988698D01*
X121347047Y-186377244D01*
X121265000Y-186789721D01*
X120735000Y-186789721D01*
X120652953Y-186377244D01*
X120492012Y-185988698D01*
X120258363Y-185639017D01*
X120127000Y-185507654D01*
X120127000Y-181950000D01*
X140461928Y-181950000D01*
X140465000Y-183464250D01*
X140623750Y-183623000D01*
X141873000Y-183623000D01*
X141873000Y-181473750D01*
X142127000Y-181473750D01*
X142127000Y-183623000D01*
X143376250Y-183623000D01*
X143535000Y-183464250D01*
X143536399Y-182774593D01*
X144275000Y-182774593D01*
X144275000Y-184725408D01*
X144297211Y-184950913D01*
X144384984Y-185240261D01*
X144527520Y-185506927D01*
X144719340Y-185740661D01*
X144953074Y-185932481D01*
X145219740Y-186075017D01*
X145509088Y-186162790D01*
X145810000Y-186192427D01*
X146110913Y-186162790D01*
X146400261Y-186075017D01*
X146666927Y-185932481D01*
X146900661Y-185740661D01*
X147092481Y-185506927D01*
X147235017Y-185240261D01*
X147322790Y-184950913D01*
X147345000Y-184725408D01*
X147345000Y-182774592D01*
X147322790Y-182549087D01*
X147235017Y-182259739D01*
X147092481Y-181993073D01*
X146900661Y-181759339D01*
X146666926Y-181567519D01*
X146400260Y-181424983D01*
X146110912Y-181337210D01*
X145810000Y-181307573D01*
X145509087Y-181337210D01*
X145219739Y-181424983D01*
X144953073Y-181567519D01*
X144719339Y-181759339D01*
X144527519Y-181993074D01*
X144384983Y-182259740D01*
X144297210Y-182549088D01*
X144275000Y-182774593D01*
X143536399Y-182774593D01*
X143538072Y-181950000D01*
X143525812Y-181825518D01*
X143489502Y-181705820D01*
X143430537Y-181595506D01*
X143351185Y-181498815D01*
X143254494Y-181419463D01*
X143144180Y-181360498D01*
X143024482Y-181324188D01*
X142900000Y-181311928D01*
X142285750Y-181315000D01*
X142127000Y-181473750D01*
X141873000Y-181473750D01*
X141714250Y-181315000D01*
X141100000Y-181311928D01*
X140975518Y-181324188D01*
X140855820Y-181360498D01*
X140745506Y-181419463D01*
X140648815Y-181498815D01*
X140569463Y-181595506D01*
X140510498Y-181705820D01*
X140474188Y-181825518D01*
X140461928Y-181950000D01*
X120127000Y-181950000D01*
X120127000Y-179000000D01*
X120124560Y-178975224D01*
X120117333Y-178951399D01*
X120105597Y-178929443D01*
X120089803Y-178910197D01*
X120070557Y-178894403D01*
X120048601Y-178882667D01*
X120024776Y-178875440D01*
X120000000Y-178873000D01*
X104000000Y-178873000D01*
X103975224Y-178875440D01*
X103951399Y-178882667D01*
X103929443Y-178894403D01*
X103910197Y-178910197D01*
X103894403Y-178929443D01*
X103882667Y-178951399D01*
X103875440Y-178975224D01*
X103873000Y-179000000D01*
X103873000Y-185507654D01*
X103741637Y-185639017D01*
X103507988Y-185988698D01*
X103347047Y-186377244D01*
X103265000Y-186789721D01*
X103265000Y-187210279D01*
X103347047Y-187622756D01*
X103507988Y-188011302D01*
X103741637Y-188360983D01*
X103873000Y-188492346D01*
X103873000Y-209340000D01*
X-9340000Y-209340000D01*
X-9340000Y-204779872D01*
X-7235000Y-204779872D01*
X-7235000Y-205220128D01*
X-7149110Y-205651925D01*
X-6980631Y-206058669D01*
X-6736038Y-206424729D01*
X-6424729Y-206736038D01*
X-6058669Y-206980631D01*
X-5651925Y-207149110D01*
X-5220128Y-207235000D01*
X-4779872Y-207235000D01*
X-4348075Y-207149110D01*
X-3941331Y-206980631D01*
X-3575271Y-206736038D01*
X-3263962Y-206424729D01*
X-3019369Y-206058669D01*
X-2850890Y-205651925D01*
X-2765000Y-205220128D01*
X-2765000Y-204779872D01*
X-2850890Y-204348075D01*
X-3019369Y-203941331D01*
X-3263962Y-203575271D01*
X-3575271Y-203263962D01*
X-3941331Y-203019369D01*
X-4348075Y-202850890D01*
X-4779872Y-202765000D01*
X-5220128Y-202765000D01*
X-5651925Y-202850890D01*
X-6058669Y-203019369D01*
X-6424729Y-203263962D01*
X-6736038Y-203575271D01*
X-6980631Y-203941331D01*
X-7149110Y-204348075D01*
X-7235000Y-204779872D01*
X-9340000Y-204779872D01*
X-9340000Y-180650000D01*
X6358299Y-180650000D01*
X6385040Y-180921507D01*
X6464236Y-181182581D01*
X6592843Y-181423188D01*
X6765919Y-181634081D01*
X6976812Y-181807157D01*
X7217419Y-181935764D01*
X7478493Y-182014960D01*
X7681963Y-182035000D01*
X8025674Y-182035000D01*
X7772905Y-182139701D01*
X7521495Y-182307688D01*
X7307688Y-182521495D01*
X7139701Y-182772905D01*
X7023989Y-183052257D01*
X6965000Y-183348816D01*
X6965000Y-183651184D01*
X7023989Y-183947743D01*
X7139701Y-184227095D01*
X7307688Y-184478505D01*
X7521495Y-184692312D01*
X7772905Y-184860299D01*
X8052257Y-184976011D01*
X8172858Y-185000000D01*
X8052257Y-185023989D01*
X7772905Y-185139701D01*
X7521495Y-185307688D01*
X7307688Y-185521495D01*
X7139701Y-185772905D01*
X7023989Y-186052257D01*
X6965000Y-186348816D01*
X6965000Y-186651184D01*
X7023989Y-186947743D01*
X7139701Y-187227095D01*
X7307688Y-187478505D01*
X7521495Y-187692312D01*
X7772905Y-187860299D01*
X8052257Y-187976011D01*
X8172858Y-188000000D01*
X8052257Y-188023989D01*
X7772905Y-188139701D01*
X7521495Y-188307688D01*
X7307688Y-188521495D01*
X7139701Y-188772905D01*
X7023989Y-189052257D01*
X6965000Y-189348816D01*
X6965000Y-189651184D01*
X7023989Y-189947743D01*
X7139701Y-190227095D01*
X7307688Y-190478505D01*
X7521495Y-190692312D01*
X7772905Y-190860299D01*
X8025674Y-190965000D01*
X7681963Y-190965000D01*
X7478493Y-190985040D01*
X7217419Y-191064236D01*
X6976812Y-191192843D01*
X6765919Y-191365919D01*
X6592843Y-191576812D01*
X6464236Y-191817419D01*
X6385040Y-192078493D01*
X6358299Y-192350000D01*
X6385040Y-192621507D01*
X6464236Y-192882581D01*
X6592843Y-193123188D01*
X6765919Y-193334081D01*
X6976812Y-193507157D01*
X7217419Y-193635764D01*
X7478493Y-193714960D01*
X7681963Y-193735000D01*
X9318037Y-193735000D01*
X9521507Y-193714960D01*
X9782581Y-193635764D01*
X10023188Y-193507157D01*
X10234081Y-193334081D01*
X10407157Y-193123188D01*
X10535764Y-192882581D01*
X10614960Y-192621507D01*
X10641701Y-192350000D01*
X10614960Y-192078493D01*
X10535764Y-191817419D01*
X10407157Y-191576812D01*
X10234081Y-191365919D01*
X10023188Y-191192843D01*
X9782581Y-191064236D01*
X9521507Y-190985040D01*
X9318037Y-190965000D01*
X8974326Y-190965000D01*
X9227095Y-190860299D01*
X9478505Y-190692312D01*
X9692312Y-190478505D01*
X9828289Y-190275001D01*
X13586929Y-190275001D01*
X13586929Y-192475001D01*
X13599189Y-192599483D01*
X13635499Y-192719181D01*
X13694464Y-192829495D01*
X13773816Y-192926186D01*
X13870507Y-193005538D01*
X13980821Y-193064503D01*
X14100519Y-193100813D01*
X14225001Y-193113073D01*
X16425001Y-193113073D01*
X16549483Y-193100813D01*
X16669181Y-193064503D01*
X16779495Y-193005538D01*
X16876186Y-192926186D01*
X16955538Y-192829495D01*
X17014503Y-192719181D01*
X17050813Y-192599483D01*
X17063073Y-192475001D01*
X17063073Y-191375001D01*
X21201607Y-191375001D01*
X21235106Y-191715120D01*
X21334315Y-192042169D01*
X21495422Y-192343579D01*
X21712235Y-192607767D01*
X21976423Y-192824580D01*
X22277833Y-192985687D01*
X22604882Y-193084896D01*
X22859776Y-193110001D01*
X23030226Y-193110001D01*
X23285120Y-193084896D01*
X23612169Y-192985687D01*
X23913579Y-192824580D01*
X24177767Y-192607767D01*
X24394580Y-192343579D01*
X24555687Y-192042169D01*
X24644583Y-191749117D01*
X29265000Y-191749117D01*
X29265000Y-192090883D01*
X29331675Y-192426081D01*
X29462463Y-192741831D01*
X29652337Y-193025998D01*
X29894002Y-193267663D01*
X30178169Y-193457537D01*
X30493919Y-193588325D01*
X30829117Y-193655000D01*
X31170883Y-193655000D01*
X31506081Y-193588325D01*
X31821831Y-193457537D01*
X32105998Y-193267663D01*
X32347663Y-193025998D01*
X32537537Y-192741831D01*
X32668325Y-192426081D01*
X32735000Y-192090883D01*
X32735000Y-191749117D01*
X42265000Y-191749117D01*
X42265000Y-192090883D01*
X42331675Y-192426081D01*
X42462463Y-192741831D01*
X42652337Y-193025998D01*
X42894002Y-193267663D01*
X43178169Y-193457537D01*
X43493919Y-193588325D01*
X43829117Y-193655000D01*
X44170883Y-193655000D01*
X44506081Y-193588325D01*
X44821831Y-193457537D01*
X45105998Y-193267663D01*
X45347663Y-193025998D01*
X45537537Y-192741831D01*
X45668325Y-192426081D01*
X45735000Y-192090883D01*
X45735000Y-191749117D01*
X55265000Y-191749117D01*
X55265000Y-192090883D01*
X55331675Y-192426081D01*
X55462463Y-192741831D01*
X55652337Y-193025998D01*
X55894002Y-193267663D01*
X56178169Y-193457537D01*
X56493919Y-193588325D01*
X56829117Y-193655000D01*
X57170883Y-193655000D01*
X57506081Y-193588325D01*
X57821831Y-193457537D01*
X58105998Y-193267663D01*
X58347663Y-193025998D01*
X58537537Y-192741831D01*
X58668325Y-192426081D01*
X58735000Y-192090883D01*
X58735000Y-191749117D01*
X68265000Y-191749117D01*
X68265000Y-192090883D01*
X68331675Y-192426081D01*
X68462463Y-192741831D01*
X68652337Y-193025998D01*
X68894002Y-193267663D01*
X69178169Y-193457537D01*
X69493919Y-193588325D01*
X69829117Y-193655000D01*
X70170883Y-193655000D01*
X70506081Y-193588325D01*
X70821831Y-193457537D01*
X71105998Y-193267663D01*
X71347663Y-193025998D01*
X71537537Y-192741831D01*
X71668325Y-192426081D01*
X71735000Y-192090883D01*
X71735000Y-191749117D01*
X81265000Y-191749117D01*
X81265000Y-192090883D01*
X81331675Y-192426081D01*
X81462463Y-192741831D01*
X81652337Y-193025998D01*
X81894002Y-193267663D01*
X82178169Y-193457537D01*
X82493919Y-193588325D01*
X82829117Y-193655000D01*
X83170883Y-193655000D01*
X83506081Y-193588325D01*
X83821831Y-193457537D01*
X84105998Y-193267663D01*
X84347663Y-193025998D01*
X84537537Y-192741831D01*
X84668325Y-192426081D01*
X84735000Y-192090883D01*
X84735000Y-191749117D01*
X94265000Y-191749117D01*
X94265000Y-192090883D01*
X94331675Y-192426081D01*
X94462463Y-192741831D01*
X94652337Y-193025998D01*
X94894002Y-193267663D01*
X95178169Y-193457537D01*
X95493919Y-193588325D01*
X95829117Y-193655000D01*
X96170883Y-193655000D01*
X96506081Y-193588325D01*
X96821831Y-193457537D01*
X97105998Y-193267663D01*
X97347663Y-193025998D01*
X97537537Y-192741831D01*
X97668325Y-192426081D01*
X97735000Y-192090883D01*
X97735000Y-191749117D01*
X97668325Y-191413919D01*
X97537537Y-191098169D01*
X97347663Y-190814002D01*
X97105998Y-190572337D01*
X96821831Y-190382463D01*
X96506081Y-190251675D01*
X96170883Y-190185000D01*
X95829117Y-190185000D01*
X95493919Y-190251675D01*
X95178169Y-190382463D01*
X94894002Y-190572337D01*
X94652337Y-190814002D01*
X94462463Y-191098169D01*
X94331675Y-191413919D01*
X94265000Y-191749117D01*
X84735000Y-191749117D01*
X84668325Y-191413919D01*
X84537537Y-191098169D01*
X84347663Y-190814002D01*
X84105998Y-190572337D01*
X83821831Y-190382463D01*
X83506081Y-190251675D01*
X83170883Y-190185000D01*
X82829117Y-190185000D01*
X82493919Y-190251675D01*
X82178169Y-190382463D01*
X81894002Y-190572337D01*
X81652337Y-190814002D01*
X81462463Y-191098169D01*
X81331675Y-191413919D01*
X81265000Y-191749117D01*
X71735000Y-191749117D01*
X71668325Y-191413919D01*
X71537537Y-191098169D01*
X71347663Y-190814002D01*
X71105998Y-190572337D01*
X70821831Y-190382463D01*
X70506081Y-190251675D01*
X70170883Y-190185000D01*
X69829117Y-190185000D01*
X69493919Y-190251675D01*
X69178169Y-190382463D01*
X68894002Y-190572337D01*
X68652337Y-190814002D01*
X68462463Y-191098169D01*
X68331675Y-191413919D01*
X68265000Y-191749117D01*
X58735000Y-191749117D01*
X58668325Y-191413919D01*
X58537537Y-191098169D01*
X58347663Y-190814002D01*
X58105998Y-190572337D01*
X57821831Y-190382463D01*
X57506081Y-190251675D01*
X57170883Y-190185000D01*
X56829117Y-190185000D01*
X56493919Y-190251675D01*
X56178169Y-190382463D01*
X55894002Y-190572337D01*
X55652337Y-190814002D01*
X55462463Y-191098169D01*
X55331675Y-191413919D01*
X55265000Y-191749117D01*
X45735000Y-191749117D01*
X45668325Y-191413919D01*
X45537537Y-191098169D01*
X45347663Y-190814002D01*
X45105998Y-190572337D01*
X44821831Y-190382463D01*
X44506081Y-190251675D01*
X44170883Y-190185000D01*
X43829117Y-190185000D01*
X43493919Y-190251675D01*
X43178169Y-190382463D01*
X42894002Y-190572337D01*
X42652337Y-190814002D01*
X42462463Y-191098169D01*
X42331675Y-191413919D01*
X42265000Y-191749117D01*
X32735000Y-191749117D01*
X32668325Y-191413919D01*
X32537537Y-191098169D01*
X32347663Y-190814002D01*
X32105998Y-190572337D01*
X31821831Y-190382463D01*
X31506081Y-190251675D01*
X31170883Y-190185000D01*
X30829117Y-190185000D01*
X30493919Y-190251675D01*
X30178169Y-190382463D01*
X29894002Y-190572337D01*
X29652337Y-190814002D01*
X29462463Y-191098169D01*
X29331675Y-191413919D01*
X29265000Y-191749117D01*
X24644583Y-191749117D01*
X24654896Y-191715120D01*
X24688395Y-191375001D01*
X24654896Y-191034882D01*
X24555687Y-190707833D01*
X24394580Y-190406423D01*
X24177767Y-190142235D01*
X23913579Y-189925422D01*
X23612169Y-189764315D01*
X23285120Y-189665106D01*
X23030226Y-189640001D01*
X22859776Y-189640001D01*
X22604882Y-189665106D01*
X22277833Y-189764315D01*
X21976423Y-189925422D01*
X21712235Y-190142235D01*
X21495422Y-190406423D01*
X21334315Y-190707833D01*
X21235106Y-191034882D01*
X21201607Y-191375001D01*
X17063073Y-191375001D01*
X17063073Y-190275001D01*
X17050813Y-190150519D01*
X17014503Y-190030821D01*
X16955538Y-189920507D01*
X16876186Y-189823816D01*
X16779495Y-189744464D01*
X16669181Y-189685499D01*
X16549483Y-189649189D01*
X16425001Y-189636929D01*
X14225001Y-189636929D01*
X14100519Y-189649189D01*
X13980821Y-189685499D01*
X13870507Y-189744464D01*
X13773816Y-189823816D01*
X13694464Y-189920507D01*
X13635499Y-190030821D01*
X13599189Y-190150519D01*
X13586929Y-190275001D01*
X9828289Y-190275001D01*
X9860299Y-190227095D01*
X9976011Y-189947743D01*
X10035000Y-189651184D01*
X10035000Y-189348816D01*
X9976011Y-189052257D01*
X9860299Y-188772905D01*
X9692312Y-188521495D01*
X9478505Y-188307688D01*
X9227095Y-188139701D01*
X8947743Y-188023989D01*
X8827142Y-188000000D01*
X8947743Y-187976011D01*
X9227095Y-187860299D01*
X9478505Y-187692312D01*
X9692312Y-187478505D01*
X9860299Y-187227095D01*
X9976011Y-186947743D01*
X10035000Y-186651184D01*
X10035000Y-186400000D01*
X13586929Y-186400000D01*
X13586929Y-188600000D01*
X13599189Y-188724482D01*
X13635499Y-188844180D01*
X13694464Y-188954494D01*
X13773816Y-189051185D01*
X13870507Y-189130537D01*
X13980821Y-189189502D01*
X14100519Y-189225812D01*
X14225001Y-189238072D01*
X16425001Y-189238072D01*
X16549483Y-189225812D01*
X16669181Y-189189502D01*
X16779495Y-189130537D01*
X16876186Y-189051185D01*
X16955538Y-188954494D01*
X17014503Y-188844180D01*
X17050813Y-188724482D01*
X17063073Y-188600000D01*
X17063073Y-187500000D01*
X21201607Y-187500000D01*
X21235106Y-187840119D01*
X21334315Y-188167168D01*
X21495422Y-188468578D01*
X21712235Y-188732766D01*
X21976423Y-188949579D01*
X22277833Y-189110686D01*
X22604882Y-189209895D01*
X22859776Y-189235000D01*
X23030226Y-189235000D01*
X23285120Y-189209895D01*
X23612169Y-189110686D01*
X23913579Y-188949579D01*
X24177767Y-188732766D01*
X24394580Y-188468578D01*
X24555687Y-188167168D01*
X24654896Y-187840119D01*
X24688395Y-187500000D01*
X24654896Y-187159881D01*
X24555687Y-186832832D01*
X24532644Y-186789721D01*
X28865000Y-186789721D01*
X28865000Y-187210279D01*
X28947047Y-187622756D01*
X29107988Y-188011302D01*
X29341637Y-188360983D01*
X29639017Y-188658363D01*
X29988698Y-188892012D01*
X30377244Y-189052953D01*
X30789721Y-189135000D01*
X31210279Y-189135000D01*
X31622756Y-189052953D01*
X32011302Y-188892012D01*
X32360983Y-188658363D01*
X32658363Y-188360983D01*
X32892012Y-188011302D01*
X33052953Y-187622756D01*
X33135000Y-187210279D01*
X33135000Y-186789721D01*
X41865000Y-186789721D01*
X41865000Y-187210279D01*
X41947047Y-187622756D01*
X42107988Y-188011302D01*
X42341637Y-188360983D01*
X42639017Y-188658363D01*
X42988698Y-188892012D01*
X43377244Y-189052953D01*
X43789721Y-189135000D01*
X44210279Y-189135000D01*
X44622756Y-189052953D01*
X45011302Y-188892012D01*
X45360983Y-188658363D01*
X45658363Y-188360983D01*
X45892012Y-188011302D01*
X46052953Y-187622756D01*
X46135000Y-187210279D01*
X46135000Y-186789721D01*
X54865000Y-186789721D01*
X54865000Y-187210279D01*
X54947047Y-187622756D01*
X55107988Y-188011302D01*
X55341637Y-188360983D01*
X55639017Y-188658363D01*
X55988698Y-188892012D01*
X56377244Y-189052953D01*
X56789721Y-189135000D01*
X57210279Y-189135000D01*
X57622756Y-189052953D01*
X58011302Y-188892012D01*
X58360983Y-188658363D01*
X58658363Y-188360983D01*
X58892012Y-188011302D01*
X59052953Y-187622756D01*
X59135000Y-187210279D01*
X59135000Y-186789721D01*
X67865000Y-186789721D01*
X67865000Y-187210279D01*
X67947047Y-187622756D01*
X68107988Y-188011302D01*
X68341637Y-188360983D01*
X68639017Y-188658363D01*
X68988698Y-188892012D01*
X69377244Y-189052953D01*
X69789721Y-189135000D01*
X70210279Y-189135000D01*
X70622756Y-189052953D01*
X71011302Y-188892012D01*
X71360983Y-188658363D01*
X71658363Y-188360983D01*
X71892012Y-188011302D01*
X72052953Y-187622756D01*
X72135000Y-187210279D01*
X72135000Y-186789721D01*
X80865000Y-186789721D01*
X80865000Y-187210279D01*
X80947047Y-187622756D01*
X81107988Y-188011302D01*
X81341637Y-188360983D01*
X81639017Y-188658363D01*
X81988698Y-188892012D01*
X82377244Y-189052953D01*
X82789721Y-189135000D01*
X83210279Y-189135000D01*
X83622756Y-189052953D01*
X84011302Y-188892012D01*
X84360983Y-188658363D01*
X84658363Y-188360983D01*
X84892012Y-188011302D01*
X85052953Y-187622756D01*
X85135000Y-187210279D01*
X85135000Y-186789721D01*
X93865000Y-186789721D01*
X93865000Y-187210279D01*
X93947047Y-187622756D01*
X94107988Y-188011302D01*
X94341637Y-188360983D01*
X94639017Y-188658363D01*
X94988698Y-188892012D01*
X95377244Y-189052953D01*
X95789721Y-189135000D01*
X96210279Y-189135000D01*
X96622756Y-189052953D01*
X97011302Y-188892012D01*
X97360983Y-188658363D01*
X97658363Y-188360983D01*
X97892012Y-188011302D01*
X98052953Y-187622756D01*
X98135000Y-187210279D01*
X98135000Y-186789721D01*
X98052953Y-186377244D01*
X97892012Y-185988698D01*
X97658363Y-185639017D01*
X97360983Y-185341637D01*
X97011302Y-185107988D01*
X96940116Y-185078502D01*
X97105998Y-184967663D01*
X97347663Y-184725998D01*
X97537537Y-184441831D01*
X97668325Y-184126081D01*
X97735000Y-183790883D01*
X97735000Y-183449117D01*
X97668325Y-183113919D01*
X97537537Y-182798169D01*
X97347663Y-182514002D01*
X97105998Y-182272337D01*
X96821831Y-182082463D01*
X96791221Y-182069784D01*
X96919274Y-182001338D01*
X97027107Y-181726712D01*
X96000000Y-180699605D01*
X94972893Y-181726712D01*
X95080726Y-182001338D01*
X95214785Y-182067296D01*
X95178169Y-182082463D01*
X94894002Y-182272337D01*
X94652337Y-182514002D01*
X94462463Y-182798169D01*
X94331675Y-183113919D01*
X94265000Y-183449117D01*
X94265000Y-183790883D01*
X94331675Y-184126081D01*
X94462463Y-184441831D01*
X94652337Y-184725998D01*
X94894002Y-184967663D01*
X95059884Y-185078502D01*
X94988698Y-185107988D01*
X94639017Y-185341637D01*
X94341637Y-185639017D01*
X94107988Y-185988698D01*
X93947047Y-186377244D01*
X93865000Y-186789721D01*
X85135000Y-186789721D01*
X85052953Y-186377244D01*
X84892012Y-185988698D01*
X84658363Y-185639017D01*
X84360983Y-185341637D01*
X84011302Y-185107988D01*
X83940116Y-185078502D01*
X84105998Y-184967663D01*
X84347663Y-184725998D01*
X84537537Y-184441831D01*
X84668325Y-184126081D01*
X84735000Y-183790883D01*
X84735000Y-183449117D01*
X84668325Y-183113919D01*
X84537537Y-182798169D01*
X84347663Y-182514002D01*
X84105998Y-182272337D01*
X83821831Y-182082463D01*
X83791221Y-182069784D01*
X83919274Y-182001338D01*
X84027107Y-181726712D01*
X83000000Y-180699605D01*
X81972893Y-181726712D01*
X82080726Y-182001338D01*
X82214785Y-182067296D01*
X82178169Y-182082463D01*
X81894002Y-182272337D01*
X81652337Y-182514002D01*
X81462463Y-182798169D01*
X81331675Y-183113919D01*
X81265000Y-183449117D01*
X81265000Y-183790883D01*
X81331675Y-184126081D01*
X81462463Y-184441831D01*
X81652337Y-184725998D01*
X81894002Y-184967663D01*
X82059884Y-185078502D01*
X81988698Y-185107988D01*
X81639017Y-185341637D01*
X81341637Y-185639017D01*
X81107988Y-185988698D01*
X80947047Y-186377244D01*
X80865000Y-186789721D01*
X72135000Y-186789721D01*
X72052953Y-186377244D01*
X71892012Y-185988698D01*
X71658363Y-185639017D01*
X71360983Y-185341637D01*
X71011302Y-185107988D01*
X70940116Y-185078502D01*
X71105998Y-184967663D01*
X71347663Y-184725998D01*
X71537537Y-184441831D01*
X71668325Y-184126081D01*
X71735000Y-183790883D01*
X71735000Y-183449117D01*
X71668325Y-183113919D01*
X71537537Y-182798169D01*
X71347663Y-182514002D01*
X71105998Y-182272337D01*
X70821831Y-182082463D01*
X70791221Y-182069784D01*
X70919274Y-182001338D01*
X71027107Y-181726712D01*
X70000000Y-180699605D01*
X68972893Y-181726712D01*
X69080726Y-182001338D01*
X69214785Y-182067296D01*
X69178169Y-182082463D01*
X68894002Y-182272337D01*
X68652337Y-182514002D01*
X68462463Y-182798169D01*
X68331675Y-183113919D01*
X68265000Y-183449117D01*
X68265000Y-183790883D01*
X68331675Y-184126081D01*
X68462463Y-184441831D01*
X68652337Y-184725998D01*
X68894002Y-184967663D01*
X69059884Y-185078502D01*
X68988698Y-185107988D01*
X68639017Y-185341637D01*
X68341637Y-185639017D01*
X68107988Y-185988698D01*
X67947047Y-186377244D01*
X67865000Y-186789721D01*
X59135000Y-186789721D01*
X59052953Y-186377244D01*
X58892012Y-185988698D01*
X58658363Y-185639017D01*
X58360983Y-185341637D01*
X58011302Y-185107988D01*
X57940116Y-185078502D01*
X58105998Y-184967663D01*
X58347663Y-184725998D01*
X58537537Y-184441831D01*
X58668325Y-184126081D01*
X58735000Y-183790883D01*
X58735000Y-183449117D01*
X58668325Y-183113919D01*
X58537537Y-182798169D01*
X58347663Y-182514002D01*
X58105998Y-182272337D01*
X57821831Y-182082463D01*
X57791221Y-182069784D01*
X57919274Y-182001338D01*
X58027107Y-181726712D01*
X57000000Y-180699605D01*
X55972893Y-181726712D01*
X56080726Y-182001338D01*
X56214785Y-182067296D01*
X56178169Y-182082463D01*
X55894002Y-182272337D01*
X55652337Y-182514002D01*
X55462463Y-182798169D01*
X55331675Y-183113919D01*
X55265000Y-183449117D01*
X55265000Y-183790883D01*
X55331675Y-184126081D01*
X55462463Y-184441831D01*
X55652337Y-184725998D01*
X55894002Y-184967663D01*
X56059884Y-185078502D01*
X55988698Y-185107988D01*
X55639017Y-185341637D01*
X55341637Y-185639017D01*
X55107988Y-185988698D01*
X54947047Y-186377244D01*
X54865000Y-186789721D01*
X46135000Y-186789721D01*
X46052953Y-186377244D01*
X45892012Y-185988698D01*
X45658363Y-185639017D01*
X45360983Y-185341637D01*
X45011302Y-185107988D01*
X44940116Y-185078502D01*
X45105998Y-184967663D01*
X45347663Y-184725998D01*
X45537537Y-184441831D01*
X45668325Y-184126081D01*
X45735000Y-183790883D01*
X45735000Y-183449117D01*
X45668325Y-183113919D01*
X45537537Y-182798169D01*
X45347663Y-182514002D01*
X45105998Y-182272337D01*
X44821831Y-182082463D01*
X44791221Y-182069784D01*
X44919274Y-182001338D01*
X45027107Y-181726712D01*
X44000000Y-180699605D01*
X42972893Y-181726712D01*
X43080726Y-182001338D01*
X43214785Y-182067296D01*
X43178169Y-182082463D01*
X42894002Y-182272337D01*
X42652337Y-182514002D01*
X42462463Y-182798169D01*
X42331675Y-183113919D01*
X42265000Y-183449117D01*
X42265000Y-183790883D01*
X42331675Y-184126081D01*
X42462463Y-184441831D01*
X42652337Y-184725998D01*
X42894002Y-184967663D01*
X43059884Y-185078502D01*
X42988698Y-185107988D01*
X42639017Y-185341637D01*
X42341637Y-185639017D01*
X42107988Y-185988698D01*
X41947047Y-186377244D01*
X41865000Y-186789721D01*
X33135000Y-186789721D01*
X33052953Y-186377244D01*
X32892012Y-185988698D01*
X32658363Y-185639017D01*
X32360983Y-185341637D01*
X32011302Y-185107988D01*
X31940116Y-185078502D01*
X32105998Y-184967663D01*
X32347663Y-184725998D01*
X32537537Y-184441831D01*
X32668325Y-184126081D01*
X32735000Y-183790883D01*
X32735000Y-183449117D01*
X32668325Y-183113919D01*
X32537537Y-182798169D01*
X32347663Y-182514002D01*
X32105998Y-182272337D01*
X31821831Y-182082463D01*
X31791221Y-182069784D01*
X31919274Y-182001338D01*
X32027107Y-181726712D01*
X31000000Y-180699605D01*
X29972893Y-181726712D01*
X30080726Y-182001338D01*
X30214785Y-182067296D01*
X30178169Y-182082463D01*
X29894002Y-182272337D01*
X29652337Y-182514002D01*
X29462463Y-182798169D01*
X29331675Y-183113919D01*
X29265000Y-183449117D01*
X29265000Y-183790883D01*
X29331675Y-184126081D01*
X29462463Y-184441831D01*
X29652337Y-184725998D01*
X29894002Y-184967663D01*
X30059884Y-185078502D01*
X29988698Y-185107988D01*
X29639017Y-185341637D01*
X29341637Y-185639017D01*
X29107988Y-185988698D01*
X28947047Y-186377244D01*
X28865000Y-186789721D01*
X24532644Y-186789721D01*
X24394580Y-186531422D01*
X24177767Y-186267234D01*
X23913579Y-186050421D01*
X23612169Y-185889314D01*
X23285120Y-185790105D01*
X23030226Y-185765000D01*
X22859776Y-185765000D01*
X22604882Y-185790105D01*
X22277833Y-185889314D01*
X21976423Y-186050421D01*
X21712235Y-186267234D01*
X21495422Y-186531422D01*
X21334315Y-186832832D01*
X21235106Y-187159881D01*
X21201607Y-187500000D01*
X17063073Y-187500000D01*
X17063073Y-186400000D01*
X17050813Y-186275518D01*
X17014503Y-186155820D01*
X16955538Y-186045506D01*
X16876186Y-185948815D01*
X16779495Y-185869463D01*
X16669181Y-185810498D01*
X16549483Y-185774188D01*
X16425001Y-185761928D01*
X14225001Y-185761928D01*
X14100519Y-185774188D01*
X13980821Y-185810498D01*
X13870507Y-185869463D01*
X13773816Y-185948815D01*
X13694464Y-186045506D01*
X13635499Y-186155820D01*
X13599189Y-186275518D01*
X13586929Y-186400000D01*
X10035000Y-186400000D01*
X10035000Y-186348816D01*
X9976011Y-186052257D01*
X9860299Y-185772905D01*
X9692312Y-185521495D01*
X9478505Y-185307688D01*
X9227095Y-185139701D01*
X8947743Y-185023989D01*
X8827142Y-185000000D01*
X8947743Y-184976011D01*
X9227095Y-184860299D01*
X9478505Y-184692312D01*
X9692312Y-184478505D01*
X9860299Y-184227095D01*
X9976011Y-183947743D01*
X10028538Y-183683666D01*
X13460001Y-183683666D01*
X13460001Y-183966336D01*
X13515148Y-184243575D01*
X13623321Y-184504728D01*
X13780364Y-184739760D01*
X13980242Y-184939638D01*
X14215274Y-185096681D01*
X14476427Y-185204854D01*
X14753666Y-185260001D01*
X15036336Y-185260001D01*
X15313575Y-185204854D01*
X15574728Y-185096681D01*
X15809760Y-184939638D01*
X16009638Y-184739760D01*
X16166681Y-184504728D01*
X16274854Y-184243575D01*
X16330001Y-183966336D01*
X16330001Y-183825001D01*
X21073058Y-183825001D01*
X21100765Y-184106310D01*
X21182819Y-184376809D01*
X21316069Y-184626102D01*
X21495393Y-184844609D01*
X21713900Y-185023933D01*
X21963193Y-185157183D01*
X22233692Y-185239237D01*
X22444509Y-185260001D01*
X22585493Y-185260001D01*
X22796310Y-185239237D01*
X23066809Y-185157183D01*
X23316102Y-185023933D01*
X23534609Y-184844609D01*
X23713933Y-184626102D01*
X23847183Y-184376809D01*
X23929237Y-184106310D01*
X23956944Y-183825001D01*
X23929237Y-183543692D01*
X23847183Y-183273193D01*
X23713933Y-183023900D01*
X23534609Y-182805393D01*
X23316102Y-182626069D01*
X23066809Y-182492819D01*
X22796310Y-182410765D01*
X22585493Y-182390001D01*
X22444509Y-182390001D01*
X22233692Y-182410765D01*
X21963193Y-182492819D01*
X21713900Y-182626069D01*
X21495393Y-182805393D01*
X21316069Y-183023900D01*
X21182819Y-183273193D01*
X21100765Y-183543692D01*
X21073058Y-183825001D01*
X16330001Y-183825001D01*
X16330001Y-183683666D01*
X16274854Y-183406427D01*
X16166681Y-183145274D01*
X16009638Y-182910242D01*
X15809760Y-182710364D01*
X15574728Y-182553321D01*
X15313575Y-182445148D01*
X15036336Y-182390001D01*
X14753666Y-182390001D01*
X14476427Y-182445148D01*
X14215274Y-182553321D01*
X13980242Y-182710364D01*
X13780364Y-182910242D01*
X13623321Y-183145274D01*
X13515148Y-183406427D01*
X13460001Y-183683666D01*
X10028538Y-183683666D01*
X10035000Y-183651184D01*
X10035000Y-183348816D01*
X9976011Y-183052257D01*
X9860299Y-182772905D01*
X9692312Y-182521495D01*
X9478505Y-182307688D01*
X9227095Y-182139701D01*
X8974326Y-182035000D01*
X9318037Y-182035000D01*
X9521507Y-182014960D01*
X9782581Y-181935764D01*
X10023188Y-181807157D01*
X10234081Y-181634081D01*
X10407157Y-181423188D01*
X10535764Y-181182581D01*
X10614960Y-180921507D01*
X10641701Y-180650000D01*
X10634673Y-180578639D01*
X29257591Y-180578639D01*
X29302511Y-180917439D01*
X29412664Y-181240966D01*
X29518662Y-181439274D01*
X29793288Y-181547107D01*
X30820395Y-180520000D01*
X31179605Y-180520000D01*
X32206712Y-181547107D01*
X32481338Y-181439274D01*
X32632216Y-181132616D01*
X32720369Y-180802415D01*
X32734830Y-180578639D01*
X42257591Y-180578639D01*
X42302511Y-180917439D01*
X42412664Y-181240966D01*
X42518662Y-181439274D01*
X42793288Y-181547107D01*
X43820395Y-180520000D01*
X44179605Y-180520000D01*
X45206712Y-181547107D01*
X45481338Y-181439274D01*
X45632216Y-181132616D01*
X45720369Y-180802415D01*
X45734830Y-180578639D01*
X55257591Y-180578639D01*
X55302511Y-180917439D01*
X55412664Y-181240966D01*
X55518662Y-181439274D01*
X55793288Y-181547107D01*
X56820395Y-180520000D01*
X57179605Y-180520000D01*
X58206712Y-181547107D01*
X58481338Y-181439274D01*
X58632216Y-181132616D01*
X58720369Y-180802415D01*
X58734830Y-180578639D01*
X68257591Y-180578639D01*
X68302511Y-180917439D01*
X68412664Y-181240966D01*
X68518662Y-181439274D01*
X68793288Y-181547107D01*
X69820395Y-180520000D01*
X70179605Y-180520000D01*
X71206712Y-181547107D01*
X71481338Y-181439274D01*
X71632216Y-181132616D01*
X71720369Y-180802415D01*
X71734830Y-180578639D01*
X81257591Y-180578639D01*
X81302511Y-180917439D01*
X81412664Y-181240966D01*
X81518662Y-181439274D01*
X81793288Y-181547107D01*
X82820395Y-180520000D01*
X83179605Y-180520000D01*
X84206712Y-181547107D01*
X84481338Y-181439274D01*
X84632216Y-181132616D01*
X84720369Y-180802415D01*
X84734830Y-180578639D01*
X94257591Y-180578639D01*
X94302511Y-180917439D01*
X94412664Y-181240966D01*
X94518662Y-181439274D01*
X94793288Y-181547107D01*
X95820395Y-180520000D01*
X96179605Y-180520000D01*
X97206712Y-181547107D01*
X97481338Y-181439274D01*
X97632216Y-181132616D01*
X97720369Y-180802415D01*
X97742409Y-180461361D01*
X97697489Y-180122561D01*
X97587336Y-179799034D01*
X97481338Y-179600726D01*
X97206712Y-179492893D01*
X96179605Y-180520000D01*
X95820395Y-180520000D01*
X94793288Y-179492893D01*
X94518662Y-179600726D01*
X94367784Y-179907384D01*
X94279631Y-180237585D01*
X94257591Y-180578639D01*
X84734830Y-180578639D01*
X84742409Y-180461361D01*
X84697489Y-180122561D01*
X84587336Y-179799034D01*
X84481338Y-179600726D01*
X84206712Y-179492893D01*
X83179605Y-180520000D01*
X82820395Y-180520000D01*
X81793288Y-179492893D01*
X81518662Y-179600726D01*
X81367784Y-179907384D01*
X81279631Y-180237585D01*
X81257591Y-180578639D01*
X71734830Y-180578639D01*
X71742409Y-180461361D01*
X71697489Y-180122561D01*
X71587336Y-179799034D01*
X71481338Y-179600726D01*
X71206712Y-179492893D01*
X70179605Y-180520000D01*
X69820395Y-180520000D01*
X68793288Y-179492893D01*
X68518662Y-179600726D01*
X68367784Y-179907384D01*
X68279631Y-180237585D01*
X68257591Y-180578639D01*
X58734830Y-180578639D01*
X58742409Y-180461361D01*
X58697489Y-180122561D01*
X58587336Y-179799034D01*
X58481338Y-179600726D01*
X58206712Y-179492893D01*
X57179605Y-180520000D01*
X56820395Y-180520000D01*
X55793288Y-179492893D01*
X55518662Y-179600726D01*
X55367784Y-179907384D01*
X55279631Y-180237585D01*
X55257591Y-180578639D01*
X45734830Y-180578639D01*
X45742409Y-180461361D01*
X45697489Y-180122561D01*
X45587336Y-179799034D01*
X45481338Y-179600726D01*
X45206712Y-179492893D01*
X44179605Y-180520000D01*
X43820395Y-180520000D01*
X42793288Y-179492893D01*
X42518662Y-179600726D01*
X42367784Y-179907384D01*
X42279631Y-180237585D01*
X42257591Y-180578639D01*
X32734830Y-180578639D01*
X32742409Y-180461361D01*
X32697489Y-180122561D01*
X32587336Y-179799034D01*
X32481338Y-179600726D01*
X32206712Y-179492893D01*
X31179605Y-180520000D01*
X30820395Y-180520000D01*
X29793288Y-179492893D01*
X29518662Y-179600726D01*
X29367784Y-179907384D01*
X29279631Y-180237585D01*
X29257591Y-180578639D01*
X10634673Y-180578639D01*
X10614960Y-180378493D01*
X10535764Y-180117419D01*
X10407157Y-179876812D01*
X10234081Y-179665919D01*
X10023188Y-179492843D01*
X9782581Y-179364236D01*
X9521507Y-179285040D01*
X9318037Y-179265000D01*
X7681963Y-179265000D01*
X7478493Y-179285040D01*
X7217419Y-179364236D01*
X6976812Y-179492843D01*
X6765919Y-179665919D01*
X6592843Y-179876812D01*
X6464236Y-180117419D01*
X6385040Y-180378493D01*
X6358299Y-180650000D01*
X-9340000Y-180650000D01*
X-9340000Y-177900000D01*
X6961928Y-177900000D01*
X6974188Y-178024482D01*
X7010498Y-178144180D01*
X7069463Y-178254494D01*
X7148815Y-178351185D01*
X7245506Y-178430537D01*
X7355820Y-178489502D01*
X7475518Y-178525812D01*
X7600000Y-178538072D01*
X8214250Y-178535000D01*
X8373000Y-178376250D01*
X8373000Y-177127000D01*
X8627000Y-177127000D01*
X8627000Y-178376250D01*
X8785750Y-178535000D01*
X9400000Y-178538072D01*
X9524482Y-178525812D01*
X9644180Y-178489502D01*
X9754494Y-178430537D01*
X9851185Y-178351185D01*
X9930537Y-178254494D01*
X9989502Y-178144180D01*
X10025812Y-178024482D01*
X10038072Y-177900000D01*
X10037072Y-177700000D01*
X13561928Y-177700000D01*
X13561928Y-179300000D01*
X13574188Y-179424482D01*
X13610498Y-179544180D01*
X13669463Y-179654494D01*
X13748815Y-179751185D01*
X13845506Y-179830537D01*
X13955820Y-179889502D01*
X14075518Y-179925812D01*
X14200000Y-179938072D01*
X15800000Y-179938072D01*
X15924482Y-179925812D01*
X16044180Y-179889502D01*
X16154494Y-179830537D01*
X16251185Y-179751185D01*
X16261807Y-179738242D01*
X16513996Y-179857571D01*
X16788184Y-179926300D01*
X17070512Y-179940217D01*
X17350130Y-179898787D01*
X17616292Y-179803603D01*
X17741514Y-179736671D01*
X17813097Y-179492702D01*
X17633683Y-179313288D01*
X29972893Y-179313288D01*
X31000000Y-180340395D01*
X32027107Y-179313288D01*
X42972893Y-179313288D01*
X44000000Y-180340395D01*
X45027107Y-179313288D01*
X55972893Y-179313288D01*
X57000000Y-180340395D01*
X58027107Y-179313288D01*
X68972893Y-179313288D01*
X70000000Y-180340395D01*
X71027107Y-179313288D01*
X81972893Y-179313288D01*
X83000000Y-180340395D01*
X84027107Y-179313288D01*
X94972893Y-179313288D01*
X96000000Y-180340395D01*
X97027107Y-179313288D01*
X96919274Y-179038662D01*
X96612616Y-178887784D01*
X96282415Y-178799631D01*
X95941361Y-178777591D01*
X95602561Y-178822511D01*
X95279034Y-178932664D01*
X95080726Y-179038662D01*
X94972893Y-179313288D01*
X84027107Y-179313288D01*
X83919274Y-179038662D01*
X83612616Y-178887784D01*
X83282415Y-178799631D01*
X82941361Y-178777591D01*
X82602561Y-178822511D01*
X82279034Y-178932664D01*
X82080726Y-179038662D01*
X81972893Y-179313288D01*
X71027107Y-179313288D01*
X70919274Y-179038662D01*
X70612616Y-178887784D01*
X70282415Y-178799631D01*
X69941361Y-178777591D01*
X69602561Y-178822511D01*
X69279034Y-178932664D01*
X69080726Y-179038662D01*
X68972893Y-179313288D01*
X58027107Y-179313288D01*
X57919274Y-179038662D01*
X57612616Y-178887784D01*
X57282415Y-178799631D01*
X56941361Y-178777591D01*
X56602561Y-178822511D01*
X56279034Y-178932664D01*
X56080726Y-179038662D01*
X55972893Y-179313288D01*
X45027107Y-179313288D01*
X44919274Y-179038662D01*
X44612616Y-178887784D01*
X44282415Y-178799631D01*
X43941361Y-178777591D01*
X43602561Y-178822511D01*
X43279034Y-178932664D01*
X43080726Y-179038662D01*
X42972893Y-179313288D01*
X32027107Y-179313288D01*
X31919274Y-179038662D01*
X31612616Y-178887784D01*
X31282415Y-178799631D01*
X30941361Y-178777591D01*
X30602561Y-178822511D01*
X30279034Y-178932664D01*
X30080726Y-179038662D01*
X29972893Y-179313288D01*
X17633683Y-179313288D01*
X17000000Y-178679605D01*
X16985858Y-178693748D01*
X16806253Y-178514143D01*
X16820395Y-178500000D01*
X17179605Y-178500000D01*
X17992702Y-179313097D01*
X18236671Y-179241514D01*
X18357571Y-178986004D01*
X18426300Y-178711816D01*
X18440217Y-178429488D01*
X18398787Y-178149870D01*
X18303603Y-177883708D01*
X18236671Y-177758486D01*
X17992702Y-177686903D01*
X17179605Y-178500000D01*
X16820395Y-178500000D01*
X16806253Y-178485858D01*
X16985858Y-178306253D01*
X17000000Y-178320395D01*
X17813097Y-177507298D01*
X17741514Y-177263329D01*
X17486004Y-177142429D01*
X17211816Y-177073700D01*
X16929488Y-177059783D01*
X16649870Y-177101213D01*
X16383708Y-177196397D01*
X16261691Y-177261616D01*
X16251185Y-177248815D01*
X16154494Y-177169463D01*
X16044180Y-177110498D01*
X15924482Y-177074188D01*
X15800000Y-177061928D01*
X14200000Y-177061928D01*
X14075518Y-177074188D01*
X13955820Y-177110498D01*
X13845506Y-177169463D01*
X13748815Y-177248815D01*
X13669463Y-177345506D01*
X13610498Y-177455820D01*
X13574188Y-177575518D01*
X13561928Y-177700000D01*
X10037072Y-177700000D01*
X10035000Y-177285750D01*
X9876250Y-177127000D01*
X8627000Y-177127000D01*
X8373000Y-177127000D01*
X7123750Y-177127000D01*
X6965000Y-177285750D01*
X6961928Y-177900000D01*
X-9340000Y-177900000D01*
X-9340000Y-176100000D01*
X6961928Y-176100000D01*
X6965000Y-176714250D01*
X7123750Y-176873000D01*
X8373000Y-176873000D01*
X8373000Y-176853000D01*
X8627000Y-176853000D01*
X8627000Y-176873000D01*
X9876250Y-176873000D01*
X10035000Y-176714250D01*
X10038072Y-176100000D01*
X10025812Y-175975518D01*
X9989502Y-175855820D01*
X9930537Y-175745506D01*
X9851185Y-175648815D01*
X9754494Y-175569463D01*
X9644180Y-175510498D01*
X9625873Y-175504944D01*
X9692312Y-175438505D01*
X9860299Y-175187095D01*
X9976011Y-174907743D01*
X10035000Y-174611184D01*
X10035000Y-174308816D01*
X9976011Y-174012257D01*
X9860299Y-173732905D01*
X9692312Y-173481495D01*
X9478505Y-173267688D01*
X9227095Y-173099701D01*
X8947743Y-172983989D01*
X8651184Y-172925000D01*
X8348816Y-172925000D01*
X8052257Y-172983989D01*
X7772905Y-173099701D01*
X7521495Y-173267688D01*
X7307688Y-173481495D01*
X7139701Y-173732905D01*
X7023989Y-174012257D01*
X6965000Y-174308816D01*
X6965000Y-174611184D01*
X7023989Y-174907743D01*
X7139701Y-175187095D01*
X7307688Y-175438505D01*
X7374127Y-175504944D01*
X7355820Y-175510498D01*
X7245506Y-175569463D01*
X7148815Y-175648815D01*
X7069463Y-175745506D01*
X7010498Y-175855820D01*
X6974188Y-175975518D01*
X6961928Y-176100000D01*
X-9340000Y-176100000D01*
X-9340000Y-97400000D01*
X27461928Y-97400000D01*
X27474188Y-97524482D01*
X27510498Y-97644180D01*
X27569463Y-97754494D01*
X27648815Y-97851185D01*
X27745506Y-97930537D01*
X27855820Y-97989502D01*
X27874127Y-97995056D01*
X27807688Y-98061495D01*
X27639701Y-98312905D01*
X27523989Y-98592257D01*
X27465000Y-98888816D01*
X27465000Y-99191184D01*
X27523989Y-99487743D01*
X27639701Y-99767095D01*
X27807688Y-100018505D01*
X28021495Y-100232312D01*
X28272905Y-100400299D01*
X28552257Y-100516011D01*
X28848816Y-100575000D01*
X29151184Y-100575000D01*
X29447743Y-100516011D01*
X29727095Y-100400299D01*
X29978505Y-100232312D01*
X30192312Y-100018505D01*
X30360299Y-99767095D01*
X30476011Y-99487743D01*
X30535000Y-99191184D01*
X30535000Y-98888816D01*
X30476011Y-98592257D01*
X30360299Y-98312905D01*
X30192312Y-98061495D01*
X30125873Y-97995056D01*
X30144180Y-97989502D01*
X30254494Y-97930537D01*
X30351185Y-97851185D01*
X30430537Y-97754494D01*
X30489502Y-97644180D01*
X30525812Y-97524482D01*
X30538072Y-97400000D01*
X30535000Y-96785750D01*
X30376250Y-96627000D01*
X29127000Y-96627000D01*
X29127000Y-96647000D01*
X28873000Y-96647000D01*
X28873000Y-96627000D01*
X27623750Y-96627000D01*
X27465000Y-96785750D01*
X27461928Y-97400000D01*
X-9340000Y-97400000D01*
X-9340000Y-95600000D01*
X27461928Y-95600000D01*
X27465000Y-96214250D01*
X27623750Y-96373000D01*
X28873000Y-96373000D01*
X28873000Y-95123750D01*
X29127000Y-95123750D01*
X29127000Y-96373000D01*
X30376250Y-96373000D01*
X30535000Y-96214250D01*
X30538072Y-95600000D01*
X30525812Y-95475518D01*
X30489502Y-95355820D01*
X30430537Y-95245506D01*
X30351185Y-95148815D01*
X30254494Y-95069463D01*
X30144180Y-95010498D01*
X30024482Y-94974188D01*
X29900000Y-94961928D01*
X29285750Y-94965000D01*
X29127000Y-95123750D01*
X28873000Y-95123750D01*
X28714250Y-94965000D01*
X28100000Y-94961928D01*
X27975518Y-94974188D01*
X27855820Y-95010498D01*
X27745506Y-95069463D01*
X27648815Y-95148815D01*
X27569463Y-95245506D01*
X27510498Y-95355820D01*
X27474188Y-95475518D01*
X27461928Y-95600000D01*
X-9340000Y-95600000D01*
X-9340000Y-62400000D01*
X27461928Y-62400000D01*
X27474188Y-62524482D01*
X27510498Y-62644180D01*
X27569463Y-62754494D01*
X27648815Y-62851185D01*
X27745506Y-62930537D01*
X27855820Y-62989502D01*
X27975518Y-63025812D01*
X28100000Y-63038072D01*
X28714250Y-63035000D01*
X28873000Y-62876250D01*
X28873000Y-61627000D01*
X29127000Y-61627000D01*
X29127000Y-62876250D01*
X29285750Y-63035000D01*
X29900000Y-63038072D01*
X30024482Y-63025812D01*
X30144180Y-62989502D01*
X30254494Y-62930537D01*
X30351185Y-62851185D01*
X30430537Y-62754494D01*
X30489502Y-62644180D01*
X30525812Y-62524482D01*
X30538072Y-62400000D01*
X30535000Y-61785750D01*
X30376250Y-61627000D01*
X29127000Y-61627000D01*
X28873000Y-61627000D01*
X27623750Y-61627000D01*
X27465000Y-61785750D01*
X27461928Y-62400000D01*
X-9340000Y-62400000D01*
X-9340000Y-60600000D01*
X27461928Y-60600000D01*
X27465000Y-61214250D01*
X27623750Y-61373000D01*
X28873000Y-61373000D01*
X28873000Y-61353000D01*
X29127000Y-61353000D01*
X29127000Y-61373000D01*
X30376250Y-61373000D01*
X30535000Y-61214250D01*
X30538072Y-60600000D01*
X30525812Y-60475518D01*
X30489502Y-60355820D01*
X30430537Y-60245506D01*
X30351185Y-60148815D01*
X30254494Y-60069463D01*
X30144180Y-60010498D01*
X30125873Y-60004944D01*
X30192312Y-59938505D01*
X30360299Y-59687095D01*
X30476011Y-59407743D01*
X30535000Y-59111184D01*
X30535000Y-58808816D01*
X30476011Y-58512257D01*
X30360299Y-58232905D01*
X30192312Y-57981495D01*
X29978505Y-57767688D01*
X29727095Y-57599701D01*
X29447743Y-57483989D01*
X29151184Y-57425000D01*
X28848816Y-57425000D01*
X28552257Y-57483989D01*
X28272905Y-57599701D01*
X28021495Y-57767688D01*
X27807688Y-57981495D01*
X27639701Y-58232905D01*
X27523989Y-58512257D01*
X27465000Y-58808816D01*
X27465000Y-59111184D01*
X27523989Y-59407743D01*
X27639701Y-59687095D01*
X27807688Y-59938505D01*
X27874127Y-60004944D01*
X27855820Y-60010498D01*
X27745506Y-60069463D01*
X27648815Y-60148815D01*
X27569463Y-60245506D01*
X27510498Y-60355820D01*
X27474188Y-60475518D01*
X27461928Y-60600000D01*
X-9340000Y-60600000D01*
X-9340000Y-54858665D01*
X2565000Y-54858665D01*
X2565000Y-55141335D01*
X2620147Y-55418574D01*
X2728320Y-55679727D01*
X2885363Y-55914759D01*
X3085241Y-56114637D01*
X3320273Y-56271680D01*
X3581426Y-56379853D01*
X3858665Y-56435000D01*
X4141335Y-56435000D01*
X4418574Y-56379853D01*
X4679727Y-56271680D01*
X4914759Y-56114637D01*
X5114637Y-55914759D01*
X5271680Y-55679727D01*
X5379853Y-55418574D01*
X5435000Y-55141335D01*
X5435000Y-54858665D01*
X5565000Y-54858665D01*
X5565000Y-55141335D01*
X5620147Y-55418574D01*
X5728320Y-55679727D01*
X5885363Y-55914759D01*
X6085241Y-56114637D01*
X6320273Y-56271680D01*
X6581426Y-56379853D01*
X6858665Y-56435000D01*
X7141335Y-56435000D01*
X7418574Y-56379853D01*
X7679727Y-56271680D01*
X7914759Y-56114637D01*
X8114637Y-55914759D01*
X8271680Y-55679727D01*
X8379853Y-55418574D01*
X8435000Y-55141335D01*
X8435000Y-54858665D01*
X8565000Y-54858665D01*
X8565000Y-55141335D01*
X8620147Y-55418574D01*
X8728320Y-55679727D01*
X8885363Y-55914759D01*
X9085241Y-56114637D01*
X9320273Y-56271680D01*
X9581426Y-56379853D01*
X9858665Y-56435000D01*
X10141335Y-56435000D01*
X10418574Y-56379853D01*
X10679727Y-56271680D01*
X10914759Y-56114637D01*
X11114637Y-55914759D01*
X11271680Y-55679727D01*
X11379853Y-55418574D01*
X11435000Y-55141335D01*
X11435000Y-54858665D01*
X11379853Y-54581426D01*
X11271680Y-54320273D01*
X11114637Y-54085241D01*
X10914759Y-53885363D01*
X10679727Y-53728320D01*
X10418574Y-53620147D01*
X10141335Y-53565000D01*
X9858665Y-53565000D01*
X9581426Y-53620147D01*
X9320273Y-53728320D01*
X9085241Y-53885363D01*
X8885363Y-54085241D01*
X8728320Y-54320273D01*
X8620147Y-54581426D01*
X8565000Y-54858665D01*
X8435000Y-54858665D01*
X8379853Y-54581426D01*
X8271680Y-54320273D01*
X8114637Y-54085241D01*
X7914759Y-53885363D01*
X7679727Y-53728320D01*
X7418574Y-53620147D01*
X7141335Y-53565000D01*
X6858665Y-53565000D01*
X6581426Y-53620147D01*
X6320273Y-53728320D01*
X6085241Y-53885363D01*
X5885363Y-54085241D01*
X5728320Y-54320273D01*
X5620147Y-54581426D01*
X5565000Y-54858665D01*
X5435000Y-54858665D01*
X5379853Y-54581426D01*
X5271680Y-54320273D01*
X5114637Y-54085241D01*
X4914759Y-53885363D01*
X4679727Y-53728320D01*
X4418574Y-53620147D01*
X4141335Y-53565000D01*
X3858665Y-53565000D01*
X3581426Y-53620147D01*
X3320273Y-53728320D01*
X3085241Y-53885363D01*
X2885363Y-54085241D01*
X2728320Y-54320273D01*
X2620147Y-54581426D01*
X2565000Y-54858665D01*
X-9340000Y-54858665D01*
X-9340000Y-44629039D01*
X2608096Y-44629039D01*
X2648754Y-44763087D01*
X2768963Y-45017420D01*
X2936481Y-45243414D01*
X3144869Y-45432385D01*
X3386119Y-45577070D01*
X3650960Y-45671909D01*
X3873000Y-45550624D01*
X3873000Y-44407000D01*
X2730085Y-44407000D01*
X2608096Y-44629039D01*
X-9340000Y-44629039D01*
X-9340000Y-3403618D01*
X761294Y-3403618D01*
X764970Y-3440940D01*
X764971Y-33272639D01*
X761294Y-33309972D01*
X764971Y-33347305D01*
X775968Y-33458958D01*
X777120Y-33462755D01*
X819424Y-33602218D01*
X889996Y-33734248D01*
X948041Y-33804975D01*
X984970Y-33849973D01*
X1013968Y-33873771D01*
X2890330Y-35750133D01*
X2801068Y-35858899D01*
X2667818Y-36108192D01*
X2585764Y-36378691D01*
X2558057Y-36660000D01*
X2585764Y-36941309D01*
X2667818Y-37211808D01*
X2801068Y-37461101D01*
X2980392Y-37679608D01*
X3198899Y-37858932D01*
X3331858Y-37930000D01*
X3198899Y-38001068D01*
X2980392Y-38180392D01*
X2801068Y-38398899D01*
X2667818Y-38648192D01*
X2585764Y-38918691D01*
X2558057Y-39200000D01*
X2585764Y-39481309D01*
X2667818Y-39751808D01*
X2801068Y-40001101D01*
X2980392Y-40219608D01*
X3198899Y-40398932D01*
X3331858Y-40470000D01*
X3198899Y-40541068D01*
X2980392Y-40720392D01*
X2801068Y-40938899D01*
X2667818Y-41188192D01*
X2585764Y-41458691D01*
X2558057Y-41740000D01*
X2585764Y-42021309D01*
X2667818Y-42291808D01*
X2801068Y-42541101D01*
X2980392Y-42759608D01*
X3198899Y-42938932D01*
X3336682Y-43012579D01*
X3144869Y-43127615D01*
X2936481Y-43316586D01*
X2768963Y-43542580D01*
X2648754Y-43796913D01*
X2608096Y-43930961D01*
X2730085Y-44153000D01*
X3873000Y-44153000D01*
X3873000Y-44133000D01*
X4127000Y-44133000D01*
X4127000Y-44153000D01*
X5269915Y-44153000D01*
X5391904Y-43930961D01*
X5351246Y-43796913D01*
X5231037Y-43542580D01*
X5063519Y-43316586D01*
X4855131Y-43127615D01*
X4663318Y-43012579D01*
X4801101Y-42938932D01*
X5019608Y-42759608D01*
X5198932Y-42541101D01*
X5332182Y-42291808D01*
X5414236Y-42021309D01*
X5441943Y-41740000D01*
X5414236Y-41458691D01*
X5332182Y-41188192D01*
X5198932Y-40938899D01*
X5019608Y-40720392D01*
X4801101Y-40541068D01*
X4668142Y-40470000D01*
X4801101Y-40398932D01*
X5019608Y-40219608D01*
X5198932Y-40001101D01*
X5332182Y-39751808D01*
X5414236Y-39481309D01*
X5441943Y-39200000D01*
X5414236Y-38918691D01*
X5332182Y-38648192D01*
X5198932Y-38398899D01*
X5019608Y-38180392D01*
X4801101Y-38001068D01*
X4668142Y-37930000D01*
X4801101Y-37858932D01*
X5019608Y-37679608D01*
X5198932Y-37461101D01*
X5332182Y-37211808D01*
X5414236Y-36941309D01*
X5441943Y-36660000D01*
X5414236Y-36378691D01*
X5332182Y-36108192D01*
X5277025Y-36005001D01*
X7194999Y-36005001D01*
X7195000Y-43110198D01*
X5068488Y-45236711D01*
X5231037Y-45017420D01*
X5351246Y-44763087D01*
X5391904Y-44629039D01*
X5269915Y-44407000D01*
X4127000Y-44407000D01*
X4127000Y-45550624D01*
X4349040Y-45671909D01*
X4613881Y-45577070D01*
X4855131Y-45432385D01*
X5044905Y-45260294D01*
X4325906Y-45979292D01*
X4281309Y-45965764D01*
X4070492Y-45945000D01*
X3929508Y-45945000D01*
X3718691Y-45965764D01*
X3448192Y-46047818D01*
X3198899Y-46181068D01*
X2980392Y-46360392D01*
X2801068Y-46578899D01*
X2667818Y-46828192D01*
X2585764Y-47098691D01*
X2558057Y-47380000D01*
X2585764Y-47661309D01*
X2667818Y-47931808D01*
X2801068Y-48181101D01*
X2980392Y-48399608D01*
X3198899Y-48578932D01*
X3448192Y-48712182D01*
X3718691Y-48794236D01*
X3929508Y-48815000D01*
X4070492Y-48815000D01*
X4281309Y-48794236D01*
X4325906Y-48780708D01*
X5031229Y-49486031D01*
X5055027Y-49515029D01*
X5170752Y-49610002D01*
X5302781Y-49680574D01*
X5446042Y-49724031D01*
X5557695Y-49735028D01*
X5557704Y-49735028D01*
X5595027Y-49738704D01*
X5632350Y-49735028D01*
X40033290Y-49735028D01*
X40070612Y-49738704D01*
X40107934Y-49735028D01*
X40107945Y-49735028D01*
X40219598Y-49724031D01*
X40362859Y-49680574D01*
X40494888Y-49610002D01*
X40610613Y-49515029D01*
X40634416Y-49486025D01*
X45786025Y-44334417D01*
X45815022Y-44310620D01*
X45909995Y-44194895D01*
X45980567Y-44062866D01*
X46024024Y-43919605D01*
X46035021Y-43807952D01*
X46035021Y-43807944D01*
X46038697Y-43770619D01*
X46035021Y-43733294D01*
X46035021Y-32900000D01*
X69961928Y-32900000D01*
X69974188Y-33024482D01*
X70010498Y-33144180D01*
X70069463Y-33254494D01*
X70148815Y-33351185D01*
X70245506Y-33430537D01*
X70355820Y-33489502D01*
X70374127Y-33495056D01*
X70307688Y-33561495D01*
X70139701Y-33812905D01*
X70023989Y-34092257D01*
X69965000Y-34388816D01*
X69965000Y-34691184D01*
X70023989Y-34987743D01*
X70139701Y-35267095D01*
X70307688Y-35518505D01*
X70521495Y-35732312D01*
X70772905Y-35900299D01*
X71052257Y-36016011D01*
X71348816Y-36075000D01*
X71651184Y-36075000D01*
X71947743Y-36016011D01*
X72227095Y-35900299D01*
X72478505Y-35732312D01*
X72692312Y-35518505D01*
X72860299Y-35267095D01*
X72976011Y-34987743D01*
X73035000Y-34691184D01*
X73035000Y-34388816D01*
X72976011Y-34092257D01*
X72860299Y-33812905D01*
X72692312Y-33561495D01*
X72625873Y-33495056D01*
X72644180Y-33489502D01*
X72754494Y-33430537D01*
X72851185Y-33351185D01*
X72930537Y-33254494D01*
X72989502Y-33144180D01*
X73025812Y-33024482D01*
X73038072Y-32900000D01*
X73035000Y-32285750D01*
X72876250Y-32127000D01*
X71627000Y-32127000D01*
X71627000Y-32147000D01*
X71373000Y-32147000D01*
X71373000Y-32127000D01*
X70123750Y-32127000D01*
X69965000Y-32285750D01*
X69961928Y-32900000D01*
X46035021Y-32900000D01*
X46035021Y-31754524D01*
X46038697Y-31717199D01*
X46035021Y-31679874D01*
X46035021Y-31679866D01*
X46024024Y-31568213D01*
X45980567Y-31424952D01*
X45909995Y-31292923D01*
X45815022Y-31177198D01*
X45786024Y-31153400D01*
X45732624Y-31100000D01*
X69961928Y-31100000D01*
X69965000Y-31714250D01*
X70123750Y-31873000D01*
X71373000Y-31873000D01*
X71373000Y-30623750D01*
X71627000Y-30623750D01*
X71627000Y-31873000D01*
X72876250Y-31873000D01*
X73035000Y-31714250D01*
X73038072Y-31100000D01*
X73025812Y-30975518D01*
X72989502Y-30855820D01*
X72930537Y-30745506D01*
X72851185Y-30648815D01*
X72754494Y-30569463D01*
X72644180Y-30510498D01*
X72524482Y-30474188D01*
X72400000Y-30461928D01*
X71785750Y-30465000D01*
X71627000Y-30623750D01*
X71373000Y-30623750D01*
X71214250Y-30465000D01*
X70600000Y-30461928D01*
X70475518Y-30474188D01*
X70355820Y-30510498D01*
X70245506Y-30569463D01*
X70148815Y-30648815D01*
X70069463Y-30745506D01*
X70010498Y-30855820D01*
X69974188Y-30975518D01*
X69961928Y-31100000D01*
X45732624Y-31100000D01*
X44726602Y-30093979D01*
X44702804Y-30064981D01*
X44673804Y-30041181D01*
X44587079Y-29970007D01*
X44455049Y-29899435D01*
X44355245Y-29869161D01*
X44311789Y-29855979D01*
X44200136Y-29844982D01*
X44162803Y-29841305D01*
X44125471Y-29844982D01*
X38685000Y-29844980D01*
X38685000Y-29608665D01*
X38629853Y-29331426D01*
X38521680Y-29070273D01*
X38364637Y-28835241D01*
X38164759Y-28635363D01*
X37929727Y-28478320D01*
X37668574Y-28370147D01*
X37391335Y-28315000D01*
X37108665Y-28315000D01*
X36831426Y-28370147D01*
X36570273Y-28478320D01*
X36335241Y-28635363D01*
X36135363Y-28835241D01*
X35978320Y-29070273D01*
X35870147Y-29331426D01*
X35815000Y-29608665D01*
X35815000Y-29891335D01*
X35870147Y-30168574D01*
X35978320Y-30429727D01*
X36135363Y-30664759D01*
X36215603Y-30744999D01*
X35412326Y-30744999D01*
X35375001Y-30741323D01*
X35337676Y-30744999D01*
X35337668Y-30744999D01*
X35288506Y-30749841D01*
X35358977Y-30679370D01*
X35242704Y-30563097D01*
X35486671Y-30491514D01*
X35607571Y-30236004D01*
X35676300Y-29961816D01*
X35690217Y-29679488D01*
X35648787Y-29399870D01*
X35553603Y-29133708D01*
X35486671Y-29008486D01*
X35242702Y-28936903D01*
X34429605Y-29750000D01*
X34443748Y-29764143D01*
X34264143Y-29943748D01*
X34250000Y-29929605D01*
X34235858Y-29943748D01*
X34056253Y-29764143D01*
X34070395Y-29750000D01*
X34056253Y-29735858D01*
X34235858Y-29556253D01*
X34250000Y-29570395D01*
X35063097Y-28757298D01*
X34991514Y-28513329D01*
X34915338Y-28477285D01*
X39492623Y-23900000D01*
X42461928Y-23900000D01*
X42474188Y-24024482D01*
X42510498Y-24144180D01*
X42569463Y-24254494D01*
X42648815Y-24351185D01*
X42745506Y-24430537D01*
X42855820Y-24489502D01*
X42874127Y-24495056D01*
X42807688Y-24561495D01*
X42639701Y-24812905D01*
X42523989Y-25092257D01*
X42465000Y-25388816D01*
X42465000Y-25691184D01*
X42523989Y-25987743D01*
X42639701Y-26267095D01*
X42807688Y-26518505D01*
X43021495Y-26732312D01*
X43272905Y-26900299D01*
X43552257Y-27016011D01*
X43848816Y-27075000D01*
X44151184Y-27075000D01*
X44447743Y-27016011D01*
X44727095Y-26900299D01*
X44978505Y-26732312D01*
X45192312Y-26518505D01*
X45360299Y-26267095D01*
X45476011Y-25987743D01*
X45501882Y-25857680D01*
X67555000Y-25857680D01*
X67555000Y-26142320D01*
X67610530Y-26421491D01*
X67719457Y-26684464D01*
X67877595Y-26921134D01*
X68078866Y-27122405D01*
X68315536Y-27280543D01*
X68578509Y-27389470D01*
X68857680Y-27445000D01*
X69142320Y-27445000D01*
X69421491Y-27389470D01*
X69684464Y-27280543D01*
X69921134Y-27122405D01*
X70122405Y-26921134D01*
X70280543Y-26684464D01*
X70389470Y-26421491D01*
X70445000Y-26142320D01*
X70445000Y-25857680D01*
X72555000Y-25857680D01*
X72555000Y-26142320D01*
X72610530Y-26421491D01*
X72719457Y-26684464D01*
X72877595Y-26921134D01*
X73078866Y-27122405D01*
X73315536Y-27280543D01*
X73578509Y-27389470D01*
X73857680Y-27445000D01*
X74142320Y-27445000D01*
X74421491Y-27389470D01*
X74684464Y-27280543D01*
X74921134Y-27122405D01*
X75122405Y-26921134D01*
X75280543Y-26684464D01*
X75389470Y-26421491D01*
X75445000Y-26142320D01*
X75445000Y-25857680D01*
X75389470Y-25578509D01*
X75280543Y-25315536D01*
X75122405Y-25078866D01*
X74921134Y-24877595D01*
X74684464Y-24719457D01*
X74421491Y-24610530D01*
X74142320Y-24555000D01*
X73857680Y-24555000D01*
X73578509Y-24610530D01*
X73315536Y-24719457D01*
X73078866Y-24877595D01*
X72877595Y-25078866D01*
X72719457Y-25315536D01*
X72610530Y-25578509D01*
X72555000Y-25857680D01*
X70445000Y-25857680D01*
X70389470Y-25578509D01*
X70280543Y-25315536D01*
X70122405Y-25078866D01*
X69921134Y-24877595D01*
X69684464Y-24719457D01*
X69421491Y-24610530D01*
X69142320Y-24555000D01*
X68857680Y-24555000D01*
X68578509Y-24610530D01*
X68315536Y-24719457D01*
X68078866Y-24877595D01*
X67877595Y-25078866D01*
X67719457Y-25315536D01*
X67610530Y-25578509D01*
X67555000Y-25857680D01*
X45501882Y-25857680D01*
X45535000Y-25691184D01*
X45535000Y-25388816D01*
X45476011Y-25092257D01*
X45360299Y-24812905D01*
X45192312Y-24561495D01*
X45125873Y-24495056D01*
X45144180Y-24489502D01*
X45254494Y-24430537D01*
X45351185Y-24351185D01*
X45430537Y-24254494D01*
X45489502Y-24144180D01*
X45525812Y-24024482D01*
X45538072Y-23900000D01*
X45535316Y-23348816D01*
X58925000Y-23348816D01*
X58925000Y-23651184D01*
X58983989Y-23947743D01*
X59099701Y-24227095D01*
X59267688Y-24478505D01*
X59481495Y-24692312D01*
X59732905Y-24860299D01*
X60012257Y-24976011D01*
X60308816Y-25035000D01*
X60611184Y-25035000D01*
X60907743Y-24976011D01*
X61187095Y-24860299D01*
X61438505Y-24692312D01*
X61504944Y-24625873D01*
X61510498Y-24644180D01*
X61569463Y-24754494D01*
X61648815Y-24851185D01*
X61745506Y-24930537D01*
X61855820Y-24989502D01*
X61975518Y-25025812D01*
X62100000Y-25038072D01*
X62714250Y-25035000D01*
X62873000Y-24876250D01*
X62873000Y-23627000D01*
X63127000Y-23627000D01*
X63127000Y-24876250D01*
X63285750Y-25035000D01*
X63900000Y-25038072D01*
X64024482Y-25025812D01*
X64144180Y-24989502D01*
X64254494Y-24930537D01*
X64351185Y-24851185D01*
X64430537Y-24754494D01*
X64489502Y-24644180D01*
X64525812Y-24524482D01*
X64538072Y-24400000D01*
X78461928Y-24400000D01*
X78474188Y-24524482D01*
X78510498Y-24644180D01*
X78569463Y-24754494D01*
X78648815Y-24851185D01*
X78745506Y-24930537D01*
X78855820Y-24989502D01*
X78975518Y-25025812D01*
X79100000Y-25038072D01*
X79714250Y-25035000D01*
X79873000Y-24876250D01*
X79873000Y-23627000D01*
X78623750Y-23627000D01*
X78465000Y-23785750D01*
X78461928Y-24400000D01*
X64538072Y-24400000D01*
X64535000Y-23785750D01*
X64376250Y-23627000D01*
X63127000Y-23627000D01*
X62873000Y-23627000D01*
X62853000Y-23627000D01*
X62853000Y-23373000D01*
X62873000Y-23373000D01*
X62873000Y-22123750D01*
X63127000Y-22123750D01*
X63127000Y-23373000D01*
X64376250Y-23373000D01*
X64535000Y-23214250D01*
X64538072Y-22600000D01*
X78461928Y-22600000D01*
X78465000Y-23214250D01*
X78623750Y-23373000D01*
X79873000Y-23373000D01*
X79873000Y-22123750D01*
X80127000Y-22123750D01*
X80127000Y-23373000D01*
X80147000Y-23373000D01*
X80147000Y-23627000D01*
X80127000Y-23627000D01*
X80127000Y-24876250D01*
X80285750Y-25035000D01*
X80900000Y-25038072D01*
X81024482Y-25025812D01*
X81144180Y-24989502D01*
X81254494Y-24930537D01*
X81351185Y-24851185D01*
X81430537Y-24754494D01*
X81489502Y-24644180D01*
X81495056Y-24625873D01*
X81561495Y-24692312D01*
X81812905Y-24860299D01*
X82092257Y-24976011D01*
X82388816Y-25035000D01*
X82691184Y-25035000D01*
X82987743Y-24976011D01*
X83267095Y-24860299D01*
X83518505Y-24692312D01*
X83732312Y-24478505D01*
X83900299Y-24227095D01*
X84016011Y-23947743D01*
X84075000Y-23651184D01*
X84075000Y-23348816D01*
X84016011Y-23052257D01*
X83900299Y-22772905D01*
X83732312Y-22521495D01*
X83518505Y-22307688D01*
X83267095Y-22139701D01*
X82987743Y-22023989D01*
X82691184Y-21965000D01*
X82388816Y-21965000D01*
X82092257Y-22023989D01*
X81812905Y-22139701D01*
X81561495Y-22307688D01*
X81495056Y-22374127D01*
X81489502Y-22355820D01*
X81430537Y-22245506D01*
X81351185Y-22148815D01*
X81254494Y-22069463D01*
X81144180Y-22010498D01*
X81024482Y-21974188D01*
X80900000Y-21961928D01*
X80285750Y-21965000D01*
X80127000Y-22123750D01*
X79873000Y-22123750D01*
X79714250Y-21965000D01*
X79100000Y-21961928D01*
X78975518Y-21974188D01*
X78855820Y-22010498D01*
X78745506Y-22069463D01*
X78648815Y-22148815D01*
X78569463Y-22245506D01*
X78510498Y-22355820D01*
X78474188Y-22475518D01*
X78461928Y-22600000D01*
X64538072Y-22600000D01*
X64525812Y-22475518D01*
X64489502Y-22355820D01*
X64430537Y-22245506D01*
X64351185Y-22148815D01*
X64254494Y-22069463D01*
X64144180Y-22010498D01*
X64024482Y-21974188D01*
X63900000Y-21961928D01*
X63285750Y-21965000D01*
X63127000Y-22123750D01*
X62873000Y-22123750D01*
X62714250Y-21965000D01*
X62100000Y-21961928D01*
X61975518Y-21974188D01*
X61855820Y-22010498D01*
X61745506Y-22069463D01*
X61648815Y-22148815D01*
X61569463Y-22245506D01*
X61510498Y-22355820D01*
X61504944Y-22374127D01*
X61438505Y-22307688D01*
X61187095Y-22139701D01*
X60907743Y-22023989D01*
X60611184Y-21965000D01*
X60308816Y-21965000D01*
X60012257Y-22023989D01*
X59732905Y-22139701D01*
X59481495Y-22307688D01*
X59267688Y-22521495D01*
X59099701Y-22772905D01*
X58983989Y-23052257D01*
X58925000Y-23348816D01*
X45535316Y-23348816D01*
X45535000Y-23285750D01*
X45376250Y-23127000D01*
X44127000Y-23127000D01*
X44127000Y-23147000D01*
X43873000Y-23147000D01*
X43873000Y-23127000D01*
X42623750Y-23127000D01*
X42465000Y-23285750D01*
X42461928Y-23900000D01*
X39492623Y-23900000D01*
X39801719Y-23590905D01*
X39830717Y-23567107D01*
X39925690Y-23451382D01*
X39996262Y-23319353D01*
X40039719Y-23176092D01*
X40050716Y-23064439D01*
X40054393Y-23027106D01*
X40050716Y-22989773D01*
X40050716Y-22100000D01*
X42461928Y-22100000D01*
X42465000Y-22714250D01*
X42623750Y-22873000D01*
X43873000Y-22873000D01*
X43873000Y-21623750D01*
X44127000Y-21623750D01*
X44127000Y-22873000D01*
X45376250Y-22873000D01*
X45535000Y-22714250D01*
X45538072Y-22100000D01*
X45525812Y-21975518D01*
X45489502Y-21855820D01*
X45430537Y-21745506D01*
X45351185Y-21648815D01*
X45254494Y-21569463D01*
X45144180Y-21510498D01*
X45024482Y-21474188D01*
X44900000Y-21461928D01*
X44285750Y-21465000D01*
X44127000Y-21623750D01*
X43873000Y-21623750D01*
X43714250Y-21465000D01*
X43100000Y-21461928D01*
X42975518Y-21474188D01*
X42855820Y-21510498D01*
X42745506Y-21569463D01*
X42648815Y-21648815D01*
X42569463Y-21745506D01*
X42510498Y-21855820D01*
X42474188Y-21975518D01*
X42461928Y-22100000D01*
X40050716Y-22100000D01*
X40050716Y-21270217D01*
X40054392Y-21232894D01*
X40050716Y-21195571D01*
X40050716Y-21195561D01*
X40039719Y-21083908D01*
X39996262Y-20940647D01*
X39925690Y-20808618D01*
X39830717Y-20692893D01*
X39823186Y-20686712D01*
X42972893Y-20686712D01*
X43080726Y-20961338D01*
X43387384Y-21112216D01*
X43717585Y-21200369D01*
X44058639Y-21222409D01*
X44397439Y-21177489D01*
X44720966Y-21067336D01*
X44919274Y-20961338D01*
X44959975Y-20857680D01*
X70055000Y-20857680D01*
X70055000Y-21142320D01*
X70110530Y-21421491D01*
X70219457Y-21684464D01*
X70377595Y-21921134D01*
X70578866Y-22122405D01*
X70815536Y-22280543D01*
X71078509Y-22389470D01*
X71357680Y-22445000D01*
X71642320Y-22445000D01*
X71921491Y-22389470D01*
X72184464Y-22280543D01*
X72421134Y-22122405D01*
X72622405Y-21921134D01*
X72780543Y-21684464D01*
X72889470Y-21421491D01*
X72945000Y-21142320D01*
X72945000Y-20857680D01*
X72889470Y-20578509D01*
X72780543Y-20315536D01*
X72622405Y-20078866D01*
X72421134Y-19877595D01*
X72184464Y-19719457D01*
X71921491Y-19610530D01*
X71642320Y-19555000D01*
X71357680Y-19555000D01*
X71078509Y-19610530D01*
X70815536Y-19719457D01*
X70578866Y-19877595D01*
X70377595Y-20078866D01*
X70219457Y-20315536D01*
X70110530Y-20578509D01*
X70055000Y-20857680D01*
X44959975Y-20857680D01*
X45027107Y-20686712D01*
X44000000Y-19659605D01*
X42972893Y-20686712D01*
X39823186Y-20686712D01*
X39801720Y-20669096D01*
X38680020Y-19547397D01*
X38680020Y-19538639D01*
X42257591Y-19538639D01*
X42302511Y-19877439D01*
X42412664Y-20200966D01*
X42518662Y-20399274D01*
X42793288Y-20507107D01*
X43820395Y-19480000D01*
X44179605Y-19480000D01*
X45206712Y-20507107D01*
X45481338Y-20399274D01*
X45632216Y-20092616D01*
X45720369Y-19762415D01*
X45742409Y-19421361D01*
X45697489Y-19082561D01*
X45587336Y-18759034D01*
X45481338Y-18560726D01*
X45206712Y-18452893D01*
X44179605Y-19480000D01*
X43820395Y-19480000D01*
X42793288Y-18452893D01*
X42518662Y-18560726D01*
X42367784Y-18867384D01*
X42279631Y-19197585D01*
X42257591Y-19538639D01*
X38680020Y-19538639D01*
X38680020Y-12789721D01*
X41865000Y-12789721D01*
X41865000Y-13210279D01*
X41947047Y-13622756D01*
X42107988Y-14011302D01*
X42341637Y-14360983D01*
X42639017Y-14658363D01*
X42988698Y-14892012D01*
X43059884Y-14921498D01*
X42894002Y-15032337D01*
X42652337Y-15274002D01*
X42462463Y-15558169D01*
X42331675Y-15873919D01*
X42265000Y-16209117D01*
X42265000Y-16550883D01*
X42331675Y-16886081D01*
X42462463Y-17201831D01*
X42652337Y-17485998D01*
X42894002Y-17727663D01*
X43178169Y-17917537D01*
X43208779Y-17930216D01*
X43080726Y-17998662D01*
X42972893Y-18273288D01*
X44000000Y-19300395D01*
X45027107Y-18273288D01*
X44919274Y-17998662D01*
X44785215Y-17932704D01*
X44821831Y-17917537D01*
X45105998Y-17727663D01*
X45347663Y-17485998D01*
X45537537Y-17201831D01*
X45668325Y-16886081D01*
X45735000Y-16550883D01*
X45735000Y-16209117D01*
X45673513Y-15900000D01*
X69961928Y-15900000D01*
X69974188Y-16024482D01*
X70010498Y-16144180D01*
X70069463Y-16254494D01*
X70148815Y-16351185D01*
X70245506Y-16430537D01*
X70355820Y-16489502D01*
X70475518Y-16525812D01*
X70600000Y-16538072D01*
X71214250Y-16535000D01*
X71373000Y-16376250D01*
X71373000Y-15127000D01*
X71627000Y-15127000D01*
X71627000Y-16376250D01*
X71785750Y-16535000D01*
X72400000Y-16538072D01*
X72524482Y-16525812D01*
X72644180Y-16489502D01*
X72754494Y-16430537D01*
X72851185Y-16351185D01*
X72930537Y-16254494D01*
X72989502Y-16144180D01*
X73025812Y-16024482D01*
X73038072Y-15900000D01*
X73035000Y-15285750D01*
X72876250Y-15127000D01*
X71627000Y-15127000D01*
X71373000Y-15127000D01*
X70123750Y-15127000D01*
X69965000Y-15285750D01*
X69961928Y-15900000D01*
X45673513Y-15900000D01*
X45668325Y-15873919D01*
X45537537Y-15558169D01*
X45347663Y-15274002D01*
X45105998Y-15032337D01*
X44940116Y-14921498D01*
X45011302Y-14892012D01*
X45360983Y-14658363D01*
X45658363Y-14360983D01*
X45832745Y-14100000D01*
X69961928Y-14100000D01*
X69965000Y-14714250D01*
X70123750Y-14873000D01*
X71373000Y-14873000D01*
X71373000Y-14853000D01*
X71627000Y-14853000D01*
X71627000Y-14873000D01*
X72876250Y-14873000D01*
X73035000Y-14714250D01*
X73038072Y-14100000D01*
X73025812Y-13975518D01*
X72989502Y-13855820D01*
X72930537Y-13745506D01*
X72851185Y-13648815D01*
X72754494Y-13569463D01*
X72644180Y-13510498D01*
X72625873Y-13504944D01*
X72692312Y-13438505D01*
X72860299Y-13187095D01*
X72976011Y-12907743D01*
X73035000Y-12611184D01*
X73035000Y-12308816D01*
X72976011Y-12012257D01*
X72860299Y-11732905D01*
X72692312Y-11481495D01*
X72478505Y-11267688D01*
X72227095Y-11099701D01*
X71947743Y-10983989D01*
X71651184Y-10925000D01*
X71348816Y-10925000D01*
X71052257Y-10983989D01*
X70772905Y-11099701D01*
X70521495Y-11267688D01*
X70307688Y-11481495D01*
X70139701Y-11732905D01*
X70023989Y-12012257D01*
X69965000Y-12308816D01*
X69965000Y-12611184D01*
X70023989Y-12907743D01*
X70139701Y-13187095D01*
X70307688Y-13438505D01*
X70374127Y-13504944D01*
X70355820Y-13510498D01*
X70245506Y-13569463D01*
X70148815Y-13648815D01*
X70069463Y-13745506D01*
X70010498Y-13855820D01*
X69974188Y-13975518D01*
X69961928Y-14100000D01*
X45832745Y-14100000D01*
X45892012Y-14011302D01*
X46052953Y-13622756D01*
X46135000Y-13210279D01*
X46135000Y-12789721D01*
X46052953Y-12377244D01*
X45892012Y-11988698D01*
X45658363Y-11639017D01*
X45360983Y-11341637D01*
X45011302Y-11107988D01*
X44622756Y-10947047D01*
X44210279Y-10865000D01*
X43789721Y-10865000D01*
X43377244Y-10947047D01*
X42988698Y-11107988D01*
X42639017Y-11341637D01*
X42341637Y-11639017D01*
X42107988Y-11988698D01*
X41947047Y-12377244D01*
X41865000Y-12789721D01*
X38680020Y-12789721D01*
X38680020Y-9894522D01*
X38683696Y-9857199D01*
X38680020Y-9819876D01*
X38680020Y-9819867D01*
X38669023Y-9708214D01*
X38625566Y-9564953D01*
X38554994Y-9432924D01*
X38460021Y-9317199D01*
X38431018Y-9293397D01*
X38227511Y-9089890D01*
X38227511Y-7909117D01*
X42265000Y-7909117D01*
X42265000Y-8250883D01*
X42331675Y-8586081D01*
X42462463Y-8901831D01*
X42652337Y-9185998D01*
X42894002Y-9427663D01*
X43178169Y-9617537D01*
X43493919Y-9748325D01*
X43829117Y-9815000D01*
X44170883Y-9815000D01*
X44506081Y-9748325D01*
X44821831Y-9617537D01*
X45105998Y-9427663D01*
X45347663Y-9185998D01*
X45537537Y-8901831D01*
X45668325Y-8586081D01*
X45735000Y-8250883D01*
X45735000Y-7909117D01*
X45668325Y-7573919D01*
X45537537Y-7258169D01*
X45347663Y-6974002D01*
X45105998Y-6732337D01*
X44821831Y-6542463D01*
X44506081Y-6411675D01*
X44170883Y-6345000D01*
X43829117Y-6345000D01*
X43493919Y-6411675D01*
X43178169Y-6542463D01*
X42894002Y-6732337D01*
X42652337Y-6974002D01*
X42462463Y-7258169D01*
X42331675Y-7573919D01*
X42265000Y-7909117D01*
X38227511Y-7909117D01*
X38227511Y-3333422D01*
X38231187Y-3296099D01*
X38227511Y-3258776D01*
X38227511Y-3258766D01*
X38216514Y-3147113D01*
X38173057Y-3003852D01*
X38166853Y-2992246D01*
X38102485Y-2871822D01*
X38031310Y-2785096D01*
X38007512Y-2756098D01*
X37978515Y-2732301D01*
X35985216Y-739003D01*
X35961413Y-709999D01*
X35845688Y-615026D01*
X35713659Y-544454D01*
X35570398Y-500997D01*
X35458745Y-490000D01*
X35458734Y-490000D01*
X35421412Y-486324D01*
X35384090Y-490000D01*
X26157323Y-490000D01*
X26120000Y-486324D01*
X26082677Y-490000D01*
X26082667Y-490000D01*
X25971014Y-500997D01*
X25827753Y-544454D01*
X25695723Y-615026D01*
X25612083Y-683668D01*
X25579999Y-709999D01*
X25556201Y-738997D01*
X23945906Y-2349292D01*
X23901309Y-2335764D01*
X23690492Y-2315000D01*
X23549508Y-2315000D01*
X23338691Y-2335764D01*
X23068192Y-2417818D01*
X22818899Y-2551068D01*
X22600392Y-2730392D01*
X22421068Y-2948899D01*
X22287818Y-3198192D01*
X22205764Y-3468691D01*
X22178057Y-3750000D01*
X22205764Y-4031309D01*
X22269069Y-4240000D01*
X17438072Y-4240000D01*
X17438072Y-2950000D01*
X17425812Y-2825518D01*
X17389502Y-2705820D01*
X17330537Y-2595506D01*
X17251185Y-2498815D01*
X17154494Y-2419463D01*
X17044180Y-2360498D01*
X16924482Y-2324188D01*
X16800000Y-2311928D01*
X16654326Y-2311928D01*
X16634974Y-2275724D01*
X16540001Y-2159999D01*
X16511002Y-2136200D01*
X16038787Y-1663986D01*
X16014989Y-1634988D01*
X15982905Y-1608657D01*
X15899265Y-1540015D01*
X15767235Y-1469443D01*
X15623974Y-1425986D01*
X15512321Y-1414989D01*
X15512311Y-1414989D01*
X15474989Y-1411313D01*
X15437666Y-1414989D01*
X2790930Y-1414991D01*
X2753597Y-1411314D01*
X2604611Y-1425988D01*
X2461351Y-1469445D01*
X2329321Y-1540017D01*
X2242594Y-1611191D01*
X2242584Y-1611201D01*
X2213597Y-1634990D01*
X2189808Y-1663977D01*
X1013972Y-2839815D01*
X984969Y-2863617D01*
X940958Y-2917245D01*
X889996Y-2979342D01*
X847833Y-3058223D01*
X819424Y-3111372D01*
X775967Y-3254633D01*
X764970Y-3366286D01*
X764970Y-3366296D01*
X761294Y-3403618D01*
X-9340000Y-3403618D01*
X-9340000Y5220128D01*
X-7235000Y5220128D01*
X-7235000Y4779872D01*
X-7149110Y4348075D01*
X-6980631Y3941331D01*
X-6736038Y3575271D01*
X-6424729Y3263962D01*
X-6058669Y3019369D01*
X-5651925Y2850890D01*
X-5220128Y2765000D01*
X-4779872Y2765000D01*
X-4348075Y2850890D01*
X-3941331Y3019369D01*
X-3575271Y3263962D01*
X-3263962Y3575271D01*
X-3019369Y3941331D01*
X-2850890Y4348075D01*
X-2765000Y4779872D01*
X-2765000Y5220128D01*
X152765000Y5220128D01*
X152765000Y4779872D01*
X152850890Y4348075D01*
X153019369Y3941331D01*
X153263962Y3575271D01*
X153575271Y3263962D01*
X153941331Y3019369D01*
X154348075Y2850890D01*
X154779872Y2765000D01*
X155220128Y2765000D01*
X155651925Y2850890D01*
X156058669Y3019369D01*
X156424729Y3263962D01*
X156736038Y3575271D01*
X156980631Y3941331D01*
X157149110Y4348075D01*
X157235000Y4779872D01*
X157235000Y5220128D01*
X157149110Y5651925D01*
X156980631Y6058669D01*
X156736038Y6424729D01*
X156424729Y6736038D01*
X156058669Y6980631D01*
X155651925Y7149110D01*
X155220128Y7235000D01*
X154779872Y7235000D01*
X154348075Y7149110D01*
X153941331Y6980631D01*
X153575271Y6736038D01*
X153263962Y6424729D01*
X153019369Y6058669D01*
X152850890Y5651925D01*
X152765000Y5220128D01*
X-2765000Y5220128D01*
X-2850890Y5651925D01*
X-3019369Y6058669D01*
X-3263962Y6424729D01*
X-3575271Y6736038D01*
X-3941331Y6980631D01*
X-4348075Y7149110D01*
X-4779872Y7235000D01*
X-5220128Y7235000D01*
X-5651925Y7149110D01*
X-6058669Y6980631D01*
X-6424729Y6736038D01*
X-6736038Y6424729D01*
X-6980631Y6058669D01*
X-7149110Y5651925D01*
X-7235000Y5220128D01*
X-9340000Y5220128D01*
X-9340000Y9340000D01*
X159340001Y9340000D01*
X159340000Y-209340000D01*
G36*
X29943748Y-45985858D02*
G01*
X29929605Y-46000000D01*
X29943748Y-46014143D01*
X29764143Y-46193748D01*
X29750000Y-46179605D01*
X29735858Y-46193748D01*
X29556253Y-46014143D01*
X29570395Y-46000000D01*
X29556253Y-45985858D01*
X29735858Y-45806253D01*
X29750000Y-45820395D01*
X29764143Y-45806253D01*
X29943748Y-45985858D01*
X29943748Y-45985858D01*
G37*
X29943748Y-45985858D02*
X29929605Y-46000000D01*
X29943748Y-46014143D01*
X29764143Y-46193748D01*
X29750000Y-46179605D01*
X29735858Y-46193748D01*
X29556253Y-46014143D01*
X29570395Y-46000000D01*
X29556253Y-45985858D01*
X29735858Y-45806253D01*
X29750000Y-45820395D01*
X29764143Y-45806253D01*
X29943748Y-45985858D01*
G36*
X38993748Y-45985858D02*
G01*
X38979605Y-46000000D01*
X38993748Y-46014143D01*
X38814143Y-46193748D01*
X38800000Y-46179605D01*
X38785858Y-46193748D01*
X38606253Y-46014143D01*
X38620395Y-46000000D01*
X38606253Y-45985858D01*
X38785858Y-45806253D01*
X38800000Y-45820395D01*
X38814143Y-45806253D01*
X38993748Y-45985858D01*
X38993748Y-45985858D01*
G37*
X38993748Y-45985858D02*
X38979605Y-46000000D01*
X38993748Y-46014143D01*
X38814143Y-46193748D01*
X38800000Y-46179605D01*
X38785858Y-46193748D01*
X38606253Y-46014143D01*
X38620395Y-46000000D01*
X38606253Y-45985858D01*
X38785858Y-45806253D01*
X38800000Y-45820395D01*
X38814143Y-45806253D01*
X38993748Y-45985858D01*
G36*
X10350085Y-33993000D02*
G01*
X11493000Y-33993000D01*
X11493000Y-33973000D01*
X11747000Y-33973000D01*
X11747000Y-33993000D01*
X11767000Y-33993000D01*
X11767000Y-34247000D01*
X11747000Y-34247000D01*
X11747000Y-34267000D01*
X11493000Y-34267000D01*
X11493000Y-34247000D01*
X10350085Y-34247000D01*
X10228096Y-34469039D01*
X10268754Y-34603087D01*
X10388963Y-34857420D01*
X10556481Y-35083414D01*
X10764869Y-35272385D01*
X10956682Y-35387421D01*
X10818899Y-35461068D01*
X10600392Y-35640392D01*
X10421068Y-35858899D01*
X10287818Y-36108192D01*
X10205764Y-36378691D01*
X10178057Y-36660000D01*
X10205764Y-36941309D01*
X10287818Y-37211808D01*
X10421068Y-37461101D01*
X10600392Y-37679608D01*
X10818899Y-37858932D01*
X10951858Y-37930000D01*
X10818899Y-38001068D01*
X10600392Y-38180392D01*
X10421068Y-38398899D01*
X10287818Y-38648192D01*
X10205764Y-38918691D01*
X10178057Y-39200000D01*
X10205764Y-39481309D01*
X10287818Y-39751808D01*
X10421068Y-40001101D01*
X10600392Y-40219608D01*
X10818899Y-40398932D01*
X10951858Y-40470000D01*
X10818899Y-40541068D01*
X10600392Y-40720392D01*
X10421068Y-40938899D01*
X10287818Y-41188192D01*
X10205764Y-41458691D01*
X10178057Y-41740000D01*
X10205764Y-42021309D01*
X10287818Y-42291808D01*
X10421068Y-42541101D01*
X10600392Y-42759608D01*
X10818899Y-42938932D01*
X10951858Y-43010000D01*
X10818899Y-43081068D01*
X10600392Y-43260392D01*
X10421068Y-43478899D01*
X10287818Y-43728192D01*
X10205764Y-43998691D01*
X10178057Y-44280000D01*
X10205764Y-44561309D01*
X10259969Y-44740000D01*
X8917322Y-44740000D01*
X8879999Y-44736324D01*
X8842676Y-44740000D01*
X8842667Y-44740000D01*
X8731014Y-44750997D01*
X8587753Y-44794454D01*
X8455724Y-44865026D01*
X8455722Y-44865027D01*
X8455723Y-44865027D01*
X8368996Y-44936201D01*
X8368992Y-44936205D01*
X8339999Y-44959999D01*
X8316208Y-44988989D01*
X7325906Y-45979292D01*
X7281309Y-45965764D01*
X7070492Y-45945000D01*
X6929508Y-45945000D01*
X6718691Y-45965764D01*
X6448192Y-46047818D01*
X6359664Y-46095137D01*
X8466002Y-43988800D01*
X8495000Y-43965002D01*
X8589973Y-43849277D01*
X8660545Y-43717248D01*
X8704002Y-43573987D01*
X8714999Y-43462334D01*
X8714999Y-43462325D01*
X8718675Y-43425002D01*
X8714999Y-43387679D01*
X8714999Y-35559802D01*
X10325872Y-33948929D01*
X10350085Y-33993000D01*
X10350085Y-33993000D01*
G37*
X10350085Y-33993000D02*
X11493000Y-33993000D01*
X11493000Y-33973000D01*
X11747000Y-33973000D01*
X11747000Y-33993000D01*
X11767000Y-33993000D01*
X11767000Y-34247000D01*
X11747000Y-34247000D01*
X11747000Y-34267000D01*
X11493000Y-34267000D01*
X11493000Y-34247000D01*
X10350085Y-34247000D01*
X10228096Y-34469039D01*
X10268754Y-34603087D01*
X10388963Y-34857420D01*
X10556481Y-35083414D01*
X10764869Y-35272385D01*
X10956682Y-35387421D01*
X10818899Y-35461068D01*
X10600392Y-35640392D01*
X10421068Y-35858899D01*
X10287818Y-36108192D01*
X10205764Y-36378691D01*
X10178057Y-36660000D01*
X10205764Y-36941309D01*
X10287818Y-37211808D01*
X10421068Y-37461101D01*
X10600392Y-37679608D01*
X10818899Y-37858932D01*
X10951858Y-37930000D01*
X10818899Y-38001068D01*
X10600392Y-38180392D01*
X10421068Y-38398899D01*
X10287818Y-38648192D01*
X10205764Y-38918691D01*
X10178057Y-39200000D01*
X10205764Y-39481309D01*
X10287818Y-39751808D01*
X10421068Y-40001101D01*
X10600392Y-40219608D01*
X10818899Y-40398932D01*
X10951858Y-40470000D01*
X10818899Y-40541068D01*
X10600392Y-40720392D01*
X10421068Y-40938899D01*
X10287818Y-41188192D01*
X10205764Y-41458691D01*
X10178057Y-41740000D01*
X10205764Y-42021309D01*
X10287818Y-42291808D01*
X10421068Y-42541101D01*
X10600392Y-42759608D01*
X10818899Y-42938932D01*
X10951858Y-43010000D01*
X10818899Y-43081068D01*
X10600392Y-43260392D01*
X10421068Y-43478899D01*
X10287818Y-43728192D01*
X10205764Y-43998691D01*
X10178057Y-44280000D01*
X10205764Y-44561309D01*
X10259969Y-44740000D01*
X8917322Y-44740000D01*
X8879999Y-44736324D01*
X8842676Y-44740000D01*
X8842667Y-44740000D01*
X8731014Y-44750997D01*
X8587753Y-44794454D01*
X8455724Y-44865026D01*
X8455722Y-44865027D01*
X8455723Y-44865027D01*
X8368996Y-44936201D01*
X8368992Y-44936205D01*
X8339999Y-44959999D01*
X8316208Y-44988989D01*
X7325906Y-45979292D01*
X7281309Y-45965764D01*
X7070492Y-45945000D01*
X6929508Y-45945000D01*
X6718691Y-45965764D01*
X6448192Y-46047818D01*
X6359664Y-46095137D01*
X8466002Y-43988800D01*
X8495000Y-43965002D01*
X8589973Y-43849277D01*
X8660545Y-43717248D01*
X8704002Y-43573987D01*
X8714999Y-43462334D01*
X8714999Y-43462325D01*
X8718675Y-43425002D01*
X8714999Y-43387679D01*
X8714999Y-35559802D01*
X10325872Y-33948929D01*
X10350085Y-33993000D01*
G36*
X21983997Y-22799832D02*
G01*
X21954999Y-22823630D01*
X21931201Y-22852628D01*
X21931200Y-22852629D01*
X21860025Y-22939355D01*
X21789453Y-23071385D01*
X21765725Y-23149608D01*
X21745997Y-23214645D01*
X21742022Y-23255000D01*
X21731323Y-23363631D01*
X21735000Y-23400963D01*
X21734999Y-27042678D01*
X21731323Y-27080001D01*
X21734999Y-27117323D01*
X21734999Y-27117333D01*
X21745996Y-27228986D01*
X21786139Y-27361322D01*
X21789453Y-27372247D01*
X21860025Y-27504277D01*
X21884792Y-27534455D01*
X21954998Y-27620002D01*
X21984001Y-27643804D01*
X22510330Y-28170133D01*
X22421068Y-28278899D01*
X22399099Y-28320000D01*
X18854803Y-28320000D01*
X17400708Y-26865906D01*
X17414236Y-26821309D01*
X17441943Y-26540000D01*
X17414236Y-26258691D01*
X17332182Y-25988192D01*
X17198932Y-25738899D01*
X17019608Y-25520392D01*
X16906518Y-25427581D01*
X16924482Y-25425812D01*
X17044180Y-25389502D01*
X17154494Y-25330537D01*
X17251185Y-25251185D01*
X17330537Y-25154494D01*
X17389502Y-25044180D01*
X17425812Y-24924482D01*
X17438072Y-24800000D01*
X17435000Y-24285750D01*
X17276250Y-24127000D01*
X16127000Y-24127000D01*
X16127000Y-24147000D01*
X15873000Y-24147000D01*
X15873000Y-24127000D01*
X15853000Y-24127000D01*
X15853000Y-23873000D01*
X15873000Y-23873000D01*
X15873000Y-22723750D01*
X16127000Y-22723750D01*
X16127000Y-23873000D01*
X17276250Y-23873000D01*
X17435000Y-23714250D01*
X17438072Y-23200000D01*
X17425812Y-23075518D01*
X17389502Y-22955820D01*
X17330537Y-22845506D01*
X17251185Y-22748815D01*
X17154494Y-22669463D01*
X17044180Y-22610498D01*
X16924482Y-22574188D01*
X16800000Y-22561928D01*
X16285750Y-22565000D01*
X16127000Y-22723750D01*
X15873000Y-22723750D01*
X15714250Y-22565000D01*
X15200000Y-22561928D01*
X15075518Y-22574188D01*
X14955820Y-22610498D01*
X14845506Y-22669463D01*
X14760000Y-22739636D01*
X14760000Y-22314801D01*
X16199801Y-20875001D01*
X22457677Y-20875001D01*
X22494999Y-20878677D01*
X22532321Y-20875001D01*
X22532332Y-20875001D01*
X22643985Y-20864004D01*
X22787246Y-20820547D01*
X22919275Y-20749975D01*
X23035000Y-20655002D01*
X23058803Y-20625998D01*
X23294093Y-20390708D01*
X23338691Y-20404236D01*
X23549508Y-20425000D01*
X23690492Y-20425000D01*
X23901309Y-20404236D01*
X24171808Y-20322182D01*
X24421101Y-20188932D01*
X24639608Y-20009608D01*
X24818932Y-19791101D01*
X24952182Y-19541808D01*
X25034236Y-19271309D01*
X25061943Y-18990000D01*
X25034236Y-18708691D01*
X25008849Y-18624999D01*
X26158829Y-18624999D01*
X21983997Y-22799832D01*
X21983997Y-22799832D01*
G37*
X21983997Y-22799832D02*
X21954999Y-22823630D01*
X21931201Y-22852628D01*
X21931200Y-22852629D01*
X21860025Y-22939355D01*
X21789453Y-23071385D01*
X21765725Y-23149608D01*
X21745997Y-23214645D01*
X21742022Y-23255000D01*
X21731323Y-23363631D01*
X21735000Y-23400963D01*
X21734999Y-27042678D01*
X21731323Y-27080001D01*
X21734999Y-27117323D01*
X21734999Y-27117333D01*
X21745996Y-27228986D01*
X21786139Y-27361322D01*
X21789453Y-27372247D01*
X21860025Y-27504277D01*
X21884792Y-27534455D01*
X21954998Y-27620002D01*
X21984001Y-27643804D01*
X22510330Y-28170133D01*
X22421068Y-28278899D01*
X22399099Y-28320000D01*
X18854803Y-28320000D01*
X17400708Y-26865906D01*
X17414236Y-26821309D01*
X17441943Y-26540000D01*
X17414236Y-26258691D01*
X17332182Y-25988192D01*
X17198932Y-25738899D01*
X17019608Y-25520392D01*
X16906518Y-25427581D01*
X16924482Y-25425812D01*
X17044180Y-25389502D01*
X17154494Y-25330537D01*
X17251185Y-25251185D01*
X17330537Y-25154494D01*
X17389502Y-25044180D01*
X17425812Y-24924482D01*
X17438072Y-24800000D01*
X17435000Y-24285750D01*
X17276250Y-24127000D01*
X16127000Y-24127000D01*
X16127000Y-24147000D01*
X15873000Y-24147000D01*
X15873000Y-24127000D01*
X15853000Y-24127000D01*
X15853000Y-23873000D01*
X15873000Y-23873000D01*
X15873000Y-22723750D01*
X16127000Y-22723750D01*
X16127000Y-23873000D01*
X17276250Y-23873000D01*
X17435000Y-23714250D01*
X17438072Y-23200000D01*
X17425812Y-23075518D01*
X17389502Y-22955820D01*
X17330537Y-22845506D01*
X17251185Y-22748815D01*
X17154494Y-22669463D01*
X17044180Y-22610498D01*
X16924482Y-22574188D01*
X16800000Y-22561928D01*
X16285750Y-22565000D01*
X16127000Y-22723750D01*
X15873000Y-22723750D01*
X15714250Y-22565000D01*
X15200000Y-22561928D01*
X15075518Y-22574188D01*
X14955820Y-22610498D01*
X14845506Y-22669463D01*
X14760000Y-22739636D01*
X14760000Y-22314801D01*
X16199801Y-20875001D01*
X22457677Y-20875001D01*
X22494999Y-20878677D01*
X22532321Y-20875001D01*
X22532332Y-20875001D01*
X22643985Y-20864004D01*
X22787246Y-20820547D01*
X22919275Y-20749975D01*
X23035000Y-20655002D01*
X23058803Y-20625998D01*
X23294093Y-20390708D01*
X23338691Y-20404236D01*
X23549508Y-20425000D01*
X23690492Y-20425000D01*
X23901309Y-20404236D01*
X24171808Y-20322182D01*
X24421101Y-20188932D01*
X24639608Y-20009608D01*
X24818932Y-19791101D01*
X24952182Y-19541808D01*
X25034236Y-19271309D01*
X25061943Y-18990000D01*
X25034236Y-18708691D01*
X25008849Y-18624999D01*
X26158829Y-18624999D01*
X21983997Y-22799832D01*
G36*
X10205764Y-18708691D02*
G01*
X10178057Y-18990000D01*
X10205764Y-19271309D01*
X10287818Y-19541808D01*
X10421068Y-19791101D01*
X10600392Y-20009608D01*
X10818899Y-20188932D01*
X10951858Y-20260000D01*
X10818899Y-20331068D01*
X10600392Y-20510392D01*
X10421068Y-20728899D01*
X10287818Y-20978192D01*
X10205764Y-21248691D01*
X10178057Y-21530000D01*
X10205764Y-21811309D01*
X10287818Y-22081808D01*
X10421068Y-22331101D01*
X10600392Y-22549608D01*
X10818899Y-22728932D01*
X10901901Y-22773297D01*
X6195198Y-27480001D01*
X5408970Y-27480001D01*
X5425812Y-27424482D01*
X5438072Y-27300000D01*
X5438072Y-25700000D01*
X5425812Y-25575518D01*
X5389502Y-25455820D01*
X5330537Y-25345506D01*
X5251185Y-25248815D01*
X5154494Y-25169463D01*
X5044180Y-25110498D01*
X4924482Y-25074188D01*
X4800000Y-25061928D01*
X3200000Y-25061928D01*
X3075518Y-25074188D01*
X2955820Y-25110498D01*
X2845506Y-25169463D01*
X2748815Y-25248815D01*
X2734980Y-25265673D01*
X2734980Y-22195520D01*
X2768963Y-22267420D01*
X2936481Y-22493414D01*
X3144869Y-22682385D01*
X3386119Y-22827070D01*
X3650960Y-22921909D01*
X3873000Y-22800624D01*
X3873000Y-21657000D01*
X4127000Y-21657000D01*
X4127000Y-22800624D01*
X4349040Y-22921909D01*
X4613881Y-22827070D01*
X4855131Y-22682385D01*
X5063519Y-22493414D01*
X5231037Y-22267420D01*
X5351246Y-22013087D01*
X5391904Y-21879039D01*
X5269915Y-21657000D01*
X4127000Y-21657000D01*
X3873000Y-21657000D01*
X3853000Y-21657000D01*
X3853000Y-21403000D01*
X3873000Y-21403000D01*
X3873000Y-21383000D01*
X4127000Y-21383000D01*
X4127000Y-21403000D01*
X5269915Y-21403000D01*
X5391904Y-21180961D01*
X5351246Y-21046913D01*
X5231037Y-20792580D01*
X5063519Y-20566586D01*
X4855131Y-20377615D01*
X4663318Y-20262579D01*
X4801101Y-20188932D01*
X5019608Y-20009608D01*
X5198932Y-19791101D01*
X5332182Y-19541808D01*
X5414236Y-19271309D01*
X5441943Y-18990000D01*
X5414236Y-18708691D01*
X5400708Y-18664094D01*
X5439803Y-18624999D01*
X10231151Y-18624999D01*
X10205764Y-18708691D01*
X10205764Y-18708691D01*
G37*
X10205764Y-18708691D02*
X10178057Y-18990000D01*
X10205764Y-19271309D01*
X10287818Y-19541808D01*
X10421068Y-19791101D01*
X10600392Y-20009608D01*
X10818899Y-20188932D01*
X10951858Y-20260000D01*
X10818899Y-20331068D01*
X10600392Y-20510392D01*
X10421068Y-20728899D01*
X10287818Y-20978192D01*
X10205764Y-21248691D01*
X10178057Y-21530000D01*
X10205764Y-21811309D01*
X10287818Y-22081808D01*
X10421068Y-22331101D01*
X10600392Y-22549608D01*
X10818899Y-22728932D01*
X10901901Y-22773297D01*
X6195198Y-27480001D01*
X5408970Y-27480001D01*
X5425812Y-27424482D01*
X5438072Y-27300000D01*
X5438072Y-25700000D01*
X5425812Y-25575518D01*
X5389502Y-25455820D01*
X5330537Y-25345506D01*
X5251185Y-25248815D01*
X5154494Y-25169463D01*
X5044180Y-25110498D01*
X4924482Y-25074188D01*
X4800000Y-25061928D01*
X3200000Y-25061928D01*
X3075518Y-25074188D01*
X2955820Y-25110498D01*
X2845506Y-25169463D01*
X2748815Y-25248815D01*
X2734980Y-25265673D01*
X2734980Y-22195520D01*
X2768963Y-22267420D01*
X2936481Y-22493414D01*
X3144869Y-22682385D01*
X3386119Y-22827070D01*
X3650960Y-22921909D01*
X3873000Y-22800624D01*
X3873000Y-21657000D01*
X4127000Y-21657000D01*
X4127000Y-22800624D01*
X4349040Y-22921909D01*
X4613881Y-22827070D01*
X4855131Y-22682385D01*
X5063519Y-22493414D01*
X5231037Y-22267420D01*
X5351246Y-22013087D01*
X5391904Y-21879039D01*
X5269915Y-21657000D01*
X4127000Y-21657000D01*
X3873000Y-21657000D01*
X3853000Y-21657000D01*
X3853000Y-21403000D01*
X3873000Y-21403000D01*
X3873000Y-21383000D01*
X4127000Y-21383000D01*
X4127000Y-21403000D01*
X5269915Y-21403000D01*
X5391904Y-21180961D01*
X5351246Y-21046913D01*
X5231037Y-20792580D01*
X5063519Y-20566586D01*
X4855131Y-20377615D01*
X4663318Y-20262579D01*
X4801101Y-20188932D01*
X5019608Y-20009608D01*
X5198932Y-19791101D01*
X5332182Y-19541808D01*
X5414236Y-19271309D01*
X5441943Y-18990000D01*
X5414236Y-18708691D01*
X5400708Y-18664094D01*
X5439803Y-18624999D01*
X10231151Y-18624999D01*
X10205764Y-18708691D01*
G36*
X34178057Y-8830000D02*
G01*
X34205764Y-9111309D01*
X34287818Y-9381808D01*
X34421068Y-9631101D01*
X34600392Y-9849608D01*
X34818899Y-10028932D01*
X34956682Y-10102579D01*
X34764869Y-10217615D01*
X34556481Y-10406586D01*
X34388963Y-10632580D01*
X34268754Y-10886913D01*
X34228096Y-11020961D01*
X34350085Y-11243000D01*
X35493000Y-11243000D01*
X35493000Y-11223000D01*
X35747000Y-11223000D01*
X35747000Y-11243000D01*
X35767000Y-11243000D01*
X35767000Y-11497000D01*
X35747000Y-11497000D01*
X35747000Y-11517000D01*
X35493000Y-11517000D01*
X35493000Y-11497000D01*
X34350085Y-11497000D01*
X34228096Y-11719039D01*
X34268754Y-11853087D01*
X34388963Y-12107420D01*
X34556481Y-12333414D01*
X34764869Y-12522385D01*
X34956682Y-12637421D01*
X34818899Y-12711068D01*
X34600392Y-12890392D01*
X34421068Y-13108899D01*
X34287818Y-13358192D01*
X34205764Y-13628691D01*
X34178057Y-13910000D01*
X34205764Y-14191309D01*
X34287818Y-14461808D01*
X34421068Y-14711101D01*
X34600392Y-14929608D01*
X34818899Y-15108932D01*
X34951858Y-15180000D01*
X34818899Y-15251068D01*
X34600392Y-15430392D01*
X34574894Y-15461462D01*
X33960000Y-14846569D01*
X33960000Y-9024801D01*
X34180598Y-8804203D01*
X34178057Y-8830000D01*
X34178057Y-8830000D01*
G37*
X34178057Y-8830000D02*
X34205764Y-9111309D01*
X34287818Y-9381808D01*
X34421068Y-9631101D01*
X34600392Y-9849608D01*
X34818899Y-10028932D01*
X34956682Y-10102579D01*
X34764869Y-10217615D01*
X34556481Y-10406586D01*
X34388963Y-10632580D01*
X34268754Y-10886913D01*
X34228096Y-11020961D01*
X34350085Y-11243000D01*
X35493000Y-11243000D01*
X35493000Y-11223000D01*
X35747000Y-11223000D01*
X35747000Y-11243000D01*
X35767000Y-11243000D01*
X35767000Y-11497000D01*
X35747000Y-11497000D01*
X35747000Y-11517000D01*
X35493000Y-11517000D01*
X35493000Y-11497000D01*
X34350085Y-11497000D01*
X34228096Y-11719039D01*
X34268754Y-11853087D01*
X34388963Y-12107420D01*
X34556481Y-12333414D01*
X34764869Y-12522385D01*
X34956682Y-12637421D01*
X34818899Y-12711068D01*
X34600392Y-12890392D01*
X34421068Y-13108899D01*
X34287818Y-13358192D01*
X34205764Y-13628691D01*
X34178057Y-13910000D01*
X34205764Y-14191309D01*
X34287818Y-14461808D01*
X34421068Y-14711101D01*
X34600392Y-14929608D01*
X34818899Y-15108932D01*
X34951858Y-15180000D01*
X34818899Y-15251068D01*
X34600392Y-15430392D01*
X34574894Y-15461462D01*
X33960000Y-14846569D01*
X33960000Y-9024801D01*
X34180598Y-8804203D01*
X34178057Y-8830000D01*
G36*
X10514039Y-10463843D02*
G01*
X10388963Y-10632580D01*
X10268754Y-10886913D01*
X10228096Y-11020961D01*
X10350085Y-11243000D01*
X11493000Y-11243000D01*
X11493000Y-11223000D01*
X11747000Y-11223000D01*
X11747000Y-11243000D01*
X12889915Y-11243000D01*
X13011904Y-11020961D01*
X12971246Y-10886913D01*
X12889993Y-10715001D01*
X13007677Y-10715001D01*
X13044999Y-10718677D01*
X13082321Y-10715001D01*
X13082332Y-10715001D01*
X13193985Y-10704004D01*
X13337246Y-10660547D01*
X13469275Y-10589975D01*
X13585000Y-10495002D01*
X13608803Y-10465999D01*
X14484802Y-9590000D01*
X14779099Y-9590000D01*
X14801068Y-9631101D01*
X14980392Y-9849608D01*
X15198899Y-10028932D01*
X15331858Y-10100000D01*
X15198899Y-10171068D01*
X14980392Y-10350392D01*
X14801068Y-10568899D01*
X14667818Y-10818192D01*
X14585764Y-11088691D01*
X14558057Y-11370000D01*
X14585764Y-11651309D01*
X14667818Y-11921808D01*
X14722975Y-12024999D01*
X12889993Y-12024999D01*
X12971246Y-11853087D01*
X13011904Y-11719039D01*
X12889915Y-11497000D01*
X11747000Y-11497000D01*
X11747000Y-11517000D01*
X11493000Y-11517000D01*
X11493000Y-11497000D01*
X10350085Y-11497000D01*
X10228096Y-11719039D01*
X10268754Y-11853087D01*
X10350007Y-12024999D01*
X5729801Y-12024999D01*
X5400708Y-11695906D01*
X5414236Y-11651309D01*
X5441943Y-11370000D01*
X5414236Y-11088691D01*
X5332182Y-10818192D01*
X5198932Y-10568899D01*
X5019608Y-10350392D01*
X4801101Y-10171068D01*
X4668142Y-10100000D01*
X4801101Y-10028932D01*
X5019608Y-9849608D01*
X5198932Y-9631101D01*
X5220901Y-9590000D01*
X9640197Y-9590000D01*
X10514039Y-10463843D01*
X10514039Y-10463843D01*
G37*
X10514039Y-10463843D02*
X10388963Y-10632580D01*
X10268754Y-10886913D01*
X10228096Y-11020961D01*
X10350085Y-11243000D01*
X11493000Y-11243000D01*
X11493000Y-11223000D01*
X11747000Y-11223000D01*
X11747000Y-11243000D01*
X12889915Y-11243000D01*
X13011904Y-11020961D01*
X12971246Y-10886913D01*
X12889993Y-10715001D01*
X13007677Y-10715001D01*
X13044999Y-10718677D01*
X13082321Y-10715001D01*
X13082332Y-10715001D01*
X13193985Y-10704004D01*
X13337246Y-10660547D01*
X13469275Y-10589975D01*
X13585000Y-10495002D01*
X13608803Y-10465999D01*
X14484802Y-9590000D01*
X14779099Y-9590000D01*
X14801068Y-9631101D01*
X14980392Y-9849608D01*
X15198899Y-10028932D01*
X15331858Y-10100000D01*
X15198899Y-10171068D01*
X14980392Y-10350392D01*
X14801068Y-10568899D01*
X14667818Y-10818192D01*
X14585764Y-11088691D01*
X14558057Y-11370000D01*
X14585764Y-11651309D01*
X14667818Y-11921808D01*
X14722975Y-12024999D01*
X12889993Y-12024999D01*
X12971246Y-11853087D01*
X13011904Y-11719039D01*
X12889915Y-11497000D01*
X11747000Y-11497000D01*
X11747000Y-11517000D01*
X11493000Y-11517000D01*
X11493000Y-11497000D01*
X10350085Y-11497000D01*
X10228096Y-11719039D01*
X10268754Y-11853087D01*
X10350007Y-12024999D01*
X5729801Y-12024999D01*
X5400708Y-11695906D01*
X5414236Y-11651309D01*
X5441943Y-11370000D01*
X5414236Y-11088691D01*
X5332182Y-10818192D01*
X5198932Y-10568899D01*
X5019608Y-10350392D01*
X4801101Y-10171068D01*
X4668142Y-10100000D01*
X4801101Y-10028932D01*
X5019608Y-9849608D01*
X5198932Y-9631101D01*
X5220901Y-9590000D01*
X9640197Y-9590000D01*
X10514039Y-10463843D01*
G36*
X22287818Y-8278192D02*
G01*
X22205764Y-8548691D01*
X22178057Y-8830000D01*
X22205764Y-9111309D01*
X22287818Y-9381808D01*
X22421068Y-9631101D01*
X22600392Y-9849608D01*
X22818899Y-10028932D01*
X22956682Y-10102579D01*
X22764869Y-10217615D01*
X22556481Y-10406586D01*
X22388963Y-10632580D01*
X22268754Y-10886913D01*
X22228096Y-11020961D01*
X22350085Y-11243000D01*
X23493000Y-11243000D01*
X23493000Y-11223000D01*
X23747000Y-11223000D01*
X23747000Y-11243000D01*
X23767000Y-11243000D01*
X23767000Y-11497000D01*
X23747000Y-11497000D01*
X23747000Y-11517000D01*
X23493000Y-11517000D01*
X23493000Y-11497000D01*
X22350085Y-11497000D01*
X22228096Y-11719039D01*
X22268754Y-11853087D01*
X22350007Y-12024999D01*
X17277025Y-12024999D01*
X17332182Y-11921808D01*
X17414236Y-11651309D01*
X17441943Y-11370000D01*
X17414236Y-11088691D01*
X17332182Y-10818192D01*
X17198932Y-10568899D01*
X17019608Y-10350392D01*
X16801101Y-10171068D01*
X16668142Y-10100000D01*
X16801101Y-10028932D01*
X17019608Y-9849608D01*
X17198932Y-9631101D01*
X17332182Y-9381808D01*
X17414236Y-9111309D01*
X17441943Y-8830000D01*
X17414236Y-8548691D01*
X17332182Y-8278192D01*
X17322458Y-8260000D01*
X22297542Y-8260000D01*
X22287818Y-8278192D01*
X22287818Y-8278192D01*
G37*
X22287818Y-8278192D02*
X22205764Y-8548691D01*
X22178057Y-8830000D01*
X22205764Y-9111309D01*
X22287818Y-9381808D01*
X22421068Y-9631101D01*
X22600392Y-9849608D01*
X22818899Y-10028932D01*
X22956682Y-10102579D01*
X22764869Y-10217615D01*
X22556481Y-10406586D01*
X22388963Y-10632580D01*
X22268754Y-10886913D01*
X22228096Y-11020961D01*
X22350085Y-11243000D01*
X23493000Y-11243000D01*
X23493000Y-11223000D01*
X23747000Y-11223000D01*
X23747000Y-11243000D01*
X23767000Y-11243000D01*
X23767000Y-11497000D01*
X23747000Y-11497000D01*
X23747000Y-11517000D01*
X23493000Y-11517000D01*
X23493000Y-11497000D01*
X22350085Y-11497000D01*
X22228096Y-11719039D01*
X22268754Y-11853087D01*
X22350007Y-12024999D01*
X17277025Y-12024999D01*
X17332182Y-11921808D01*
X17414236Y-11651309D01*
X17441943Y-11370000D01*
X17414236Y-11088691D01*
X17332182Y-10818192D01*
X17198932Y-10568899D01*
X17019608Y-10350392D01*
X16801101Y-10171068D01*
X16668142Y-10100000D01*
X16801101Y-10028932D01*
X17019608Y-9849608D01*
X17198932Y-9631101D01*
X17332182Y-9381808D01*
X17414236Y-9111309D01*
X17441943Y-8830000D01*
X17414236Y-8548691D01*
X17332182Y-8278192D01*
X17322458Y-8260000D01*
X22297542Y-8260000D01*
X22287818Y-8278192D01*
M02*
